<?xml version="1.0" encoding="UTF-8"?>
<svg id="Layer_1" data-name="Layer 1" xmlns="http://www.w3.org/2000/svg" viewBox="0 0 1082.61 706.33">
  <path d="M241.06,92.92h-118.82c-7.58,0-13.73-6.15-13.73-13.73s6.15-13.73,13.73-13.73h118.82c7.58,0,13.73,6.15,13.73,13.73s-6.15,13.73-13.73,13.73Z" fill="none" stroke="#f68d61" stroke-linecap="round" stroke-linejoin="round"/>
  <path d="M523.59,131.94h-201.98c-7.58,0-13.73-6.15-13.73-13.73s6.15-13.73,13.73-13.73h201.98c7.58,0,13.73,6.15,13.73,13.73s-6.15,13.73-13.73,13.73Z" fill="none" stroke="#f68d61" stroke-linecap="round" stroke-linejoin="round"/>
  <path d="M254.79,79.19h163.91c13.83,0,25.03,11.21,25.03,25.03" fill="none" stroke="#f68d61" stroke-linecap="round" stroke-linejoin="round"/>
  <path d="M396.45,171.84h93.88c7.58,0,13.73,6.15,13.73,13.73s-6.15,13.73-13.73,13.73h-93.88c-7.58,0-13.73-6.15-13.73-13.73s6.15-13.73,13.73-13.73Z" fill="none" stroke="#f68d61" stroke-linecap="round" stroke-linejoin="round"/>
  <path d="M147.18,132.81h127.14c7.58,0,13.73,6.15,13.73,13.73s-6.15,13.73-13.73,13.73h-127.14c-7.58,0-13.73-6.15-13.73-13.73s6.15-13.73,13.73-13.73Z" fill="none" stroke="#f68d61" stroke-linecap="round" stroke-linejoin="round"/>
  <path d="M382.72,185.57h-163.91c-13.82,0-25.03-11.21-25.03-25.03" fill="none" stroke="#f68d61" stroke-linecap="round" stroke-linejoin="round"/>
  <line x1="194.45" y1="132.21" x2="194.45" y2="92.93" fill="none" stroke="#f68d61" stroke-linecap="round" stroke-linejoin="round"/>
  <line x1="443.91" y1="171.29" x2="443.91" y2="132.02" fill="none" stroke="#f68d61" stroke-linecap="round" stroke-linejoin="round"/>
  <path d="M241.06,235.11h-110.51c-7.58,0-13.73-6.15-13.73-13.73s6.15-13.73,13.73-13.73h110.51c7.58,0,13.73,6.15,13.73,13.73s-6.15,13.73-13.73,13.73Z" fill="none" stroke="#f68d61" stroke-linecap="round" stroke-linejoin="round"/>
  <path d="M490.32,274.14h-218.61c-7.58,0-13.73-6.15-13.73-13.73s6.15-13.73,13.73-13.73h218.61c7.58,0,13.73,6.15,13.73,13.73s-6.15,13.73-13.73,13.73Z" fill="none" stroke="#f68d61" stroke-linecap="round" stroke-linejoin="round"/>
  <path d="M254.79,221.38h163.91c13.83,0,25.03,11.21,25.03,25.03" fill="none" stroke="#f68d61" stroke-linecap="round" stroke-linejoin="round"/>
  <path d="M396.45,314.04h127.14c7.58,0,13.73,6.15,13.73,13.73s-6.15,13.73-13.73,13.73h-127.14c-7.58,0-13.73-6.15-13.73-13.73s6.15-13.73,13.73-13.73Z" fill="none" stroke="#f68d61" stroke-linecap="round" stroke-linejoin="round"/>
  <path d="M147.18,275.01h93.88c7.58,0,13.73,6.15,13.73,13.73s-6.15,13.73-13.73,13.73h-93.88c-7.58,0-13.73-6.15-13.73-13.73s6.15-13.73,13.73-13.73Z" fill="none" stroke="#f68d61" stroke-linecap="round" stroke-linejoin="round"/>
  <path d="M382.72,327.76h-163.91c-13.82,0-25.03-11.21-25.03-25.03" fill="none" stroke="#f68d61" stroke-linecap="round" stroke-linejoin="round"/>
  <line x1="194.45" y1="274.4" x2="194.45" y2="235.13" fill="none" stroke="#f68d61" stroke-linecap="round" stroke-linejoin="round"/>
  <line x1="443.91" y1="313.48" x2="443.91" y2="274.21" fill="none" stroke="#f68d61" stroke-linecap="round" stroke-linejoin="round"/>
  <path d="M241.06,377.3h-127.14c-7.58,0-13.73-6.15-13.73-13.73s6.15-13.73,13.73-13.73h127.14c7.58,0,13.73,6.15,13.73,13.73s-6.15,13.73-13.73,13.73Z" fill="none" stroke="#f68d61" stroke-linecap="round" stroke-linejoin="round"/>
  <path d="M482.01,416.33h-85.56c-7.58,0-13.73-6.15-13.73-13.73s6.15-13.73,13.73-13.73h85.56c7.58,0,13.73,6.15,13.73,13.73s-6.15,13.73-13.73,13.73Z" fill="none" stroke="#f68d61" stroke-linecap="round" stroke-linejoin="round"/>
  <path d="M254.79,363.58h163.91c13.83,0,25.03,11.21,25.03,25.03" fill="none" stroke="#f68d61" stroke-linecap="round" stroke-linejoin="round"/>
  <path d="M396.45,456.23h143.77c7.58,0,13.73,6.15,13.73,13.73s-6.15,13.73-13.73,13.73h-143.77c-7.58,0-13.73-6.15-13.73-13.73s6.15-13.73,13.73-13.73Z" fill="none" stroke="#f68d61" stroke-linecap="round" stroke-linejoin="round"/>
  <path d="M147.18,417.2h193.66c7.58,0,13.73,6.15,13.73,13.73s-6.15,13.73-13.73,13.73h-193.66c-7.58,0-13.73-6.15-13.73-13.73s6.15-13.73,13.73-13.73Z" fill="none" stroke="#f68d61" stroke-linecap="round" stroke-linejoin="round"/>
  <path d="M382.72,469.96h-163.91c-13.82,0-25.03-11.21-25.03-25.03" fill="none" stroke="#f68d61" stroke-linecap="round" stroke-linejoin="round"/>
  <line x1="194.45" y1="416.59" x2="194.45" y2="377.32" fill="none" stroke="#f68d61" stroke-linecap="round" stroke-linejoin="round"/>
  <line x1="443.91" y1="455.68" x2="443.91" y2="416.4" fill="none" stroke="#f68d61" stroke-linecap="round" stroke-linejoin="round"/>
  <path d="M241.06,519.5h-118.82c-7.58,0-13.73-6.15-13.73-13.73s6.15-13.73,13.73-13.73h118.82c7.58,0,13.73,6.15,13.73,13.73s-6.15,13.73-13.73,13.73Z" fill="none" stroke="#f68d61" stroke-linecap="round" stroke-linejoin="round"/>
  <path d="M490.32,558.53h-193.66c-7.58,0-13.73-6.15-13.73-13.73s6.15-13.73,13.73-13.73h193.66c7.58,0,13.73,6.15,13.73,13.73s-6.15,13.73-13.73,13.73Z" fill="none" stroke="#f68d61" stroke-linecap="round" stroke-linejoin="round"/>
  <path d="M254.79,505.77h163.91c13.83,0,25.03,11.21,25.03,25.03" fill="none" stroke="#f68d61" stroke-linecap="round" stroke-linejoin="round"/>
  <path d="M396.45,598.42h118.83c7.58,0,13.73,6.15,13.73,13.73s-6.15,13.73-13.73,13.73h-118.83c-7.58,0-13.73-6.15-13.73-13.73s6.15-13.73,13.73-13.73Z" fill="none" stroke="#f68d61" stroke-linecap="round" stroke-linejoin="round"/>
  <path d="M147.18,559.4h110.51c7.58,0,13.73,6.15,13.73,13.73s-6.15,13.73-13.73,13.73h-110.51c-7.58,0-13.73-6.15-13.73-13.73s6.15-13.73,13.73-13.73Z" fill="none" stroke="#f68d61" stroke-linecap="round" stroke-linejoin="round"/>
  <path d="M382.72,612.15h-163.91c-13.82,0-25.03-11.21-25.03-25.03" fill="none" stroke="#f68d61" stroke-linecap="round" stroke-linejoin="round"/>
  <line x1="194.45" y1="558.79" x2="194.45" y2="519.52" fill="none" stroke="#f68d61" stroke-linecap="round" stroke-linejoin="round"/>
  <line x1="443.91" y1="597.87" x2="443.91" y2="558.6" fill="none" stroke="#f68d61" stroke-linecap="round" stroke-linejoin="round"/>
  <path d="M479.35,103.75v-35.94c0-11.56,9.37-20.93,20.93-20.93" fill="none" stroke="#f68d61" stroke-linecap="round" stroke-linejoin="round"/>
  <rect x="500.28" y="28.88" width="37" height="37" fill="none" stroke="#f68d61" stroke-linecap="round" stroke-linejoin="round"/>
  <rect x="521.66" y="494.26" width="37" height="37" fill="none" stroke="#f68d61" stroke-linecap="round" stroke-linejoin="round"/>
  <path d="M297.37,275.08v4.89c0,9.34,7.57,16.91,16.91,16.91" fill="none" stroke="#f68d61" stroke-linecap="round" stroke-linejoin="round"/>
  <rect x="314.28" y="284.88" width="24" height="24" fill="none" stroke="#f68d61" stroke-linecap="round" stroke-linejoin="round"/>
  <rect x="529.6" y="280.48" width="24" height="24" fill="none" stroke="#f68d61" stroke-linecap="round" stroke-linejoin="round"/>
  <path d="M133.45,430.93h0c-11.14,0-20.17,9.03-20.17,20.17v7.78" fill="none" stroke="#f68d61" stroke-linecap="round" stroke-linejoin="round"/>
  <rect x="103.28" y="458.88" width="21" height="21" fill="none" stroke="#f68d61" stroke-linecap="round" stroke-linejoin="round"/>
  <path d="M159.34,587.48h0c0,31.7,25.7,57.4,57.4,57.4h53.54" fill="none" stroke="#f68d61" stroke-linecap="round" stroke-linejoin="round"/>
  <rect x="270.28" y="621.88" width="47" height="47" fill="none" stroke="#f68d61" stroke-linecap="round" stroke-linejoin="round"/>
  <path d="M841.55,613.41h118.82c7.58,0,13.73,6.15,13.73,13.73s-6.15,13.73-13.73,13.73h-118.82c-7.58,0-13.73-6.15-13.73-13.73s6.15-13.73,13.73-13.73Z" fill="none" stroke="#f68d61" stroke-linecap="round" stroke-linejoin="round"/>
  <path d="M559.02,574.38h201.98c7.58,0,13.73,6.15,13.73,13.73s-6.15,13.73-13.73,13.73h-201.98c-7.58,0-13.73-6.15-13.73-13.73s6.15-13.73,13.73-13.73Z" fill="none" stroke="#f68d61" stroke-linecap="round" stroke-linejoin="round"/>
  <path d="M827.82,627.14h-163.91c-13.83,0-25.03-11.21-25.03-25.03" fill="none" stroke="#f68d61" stroke-linecap="round" stroke-linejoin="round"/>
  <path d="M686.16,534.48h-93.88c-7.58,0-13.73-6.15-13.73-13.73s6.15-13.73,13.73-13.73h93.88c7.58,0,13.73,6.15,13.73,13.73s-6.15,13.73-13.73,13.73Z" fill="none" stroke="#f68d61" stroke-linecap="round" stroke-linejoin="round"/>
  <path d="M935.43,573.51h-127.14c-7.58,0-13.73-6.15-13.73-13.73s6.15-13.73,13.73-13.73h127.14c7.58,0,13.73,6.15,13.73,13.73s-6.15,13.73-13.73,13.73Z" fill="none" stroke="#f68d61" stroke-linecap="round" stroke-linejoin="round"/>
  <path d="M699.89,520.76h163.91c13.82,0,25.03,11.21,25.03,25.03" fill="none" stroke="#f68d61" stroke-linecap="round" stroke-linejoin="round"/>
  <line x1="888.16" y1="574.12" x2="888.16" y2="613.39" fill="none" stroke="#f68d61" stroke-linecap="round" stroke-linejoin="round"/>
  <line x1="638.7" y1="535.04" x2="638.7" y2="574.31" fill="none" stroke="#f68d61" stroke-linecap="round" stroke-linejoin="round"/>
  <path d="M841.55,471.22h110.51c7.58,0,13.73,6.15,13.73,13.73s-6.15,13.73-13.73,13.73h-110.51c-7.58,0-13.73-6.15-13.73-13.73s6.15-13.73,13.73-13.73Z" fill="none" stroke="#f68d61" stroke-linecap="round" stroke-linejoin="round"/>
  <path d="M592.28,432.19h218.61c7.58,0,13.73,6.15,13.73,13.73s-6.15,13.73-13.73,13.73h-218.61c-7.58,0-13.73-6.15-13.73-13.73s6.15-13.73,13.73-13.73Z" fill="none" stroke="#f68d61" stroke-linecap="round" stroke-linejoin="round"/>
  <path d="M827.82,484.94h-163.91c-13.83,0-25.03-11.21-25.03-25.03" fill="none" stroke="#f68d61" stroke-linecap="round" stroke-linejoin="round"/>
  <path d="M686.16,392.29h-127.14c-7.58,0-13.73-6.15-13.73-13.73s6.15-13.73,13.73-13.73h127.14c7.58,0,13.73,6.15,13.73,13.73s-6.15,13.73-13.73,13.73Z" fill="none" stroke="#f68d61" stroke-linecap="round" stroke-linejoin="round"/>
  <path d="M935.43,431.32h-93.88c-7.58,0-13.73-6.15-13.73-13.73s6.15-13.73,13.73-13.73h93.88c7.58,0,13.73,6.15,13.73,13.73s-6.15,13.73-13.73,13.73Z" fill="none" stroke="#f68d61" stroke-linecap="round" stroke-linejoin="round"/>
  <path d="M699.89,378.56h163.91c13.82,0,25.03,11.21,25.03,25.03" fill="none" stroke="#f68d61" stroke-linecap="round" stroke-linejoin="round"/>
  <line x1="888.16" y1="431.93" x2="888.16" y2="471.2" fill="none" stroke="#f68d61" stroke-linecap="round" stroke-linejoin="round"/>
  <line x1="638.7" y1="392.84" x2="638.7" y2="432.12" fill="none" stroke="#f68d61" stroke-linecap="round" stroke-linejoin="round"/>
  <path d="M841.55,329.02h127.14c7.58,0,13.73,6.15,13.73,13.73s-6.15,13.73-13.73,13.73h-127.14c-7.58,0-13.73-6.15-13.73-13.73s6.15-13.73,13.73-13.73Z" fill="none" stroke="#f68d61" stroke-linecap="round" stroke-linejoin="round"/>
  <path d="M600.6,289.99h85.56c7.58,0,13.73,6.15,13.73,13.73s-6.15,13.73-13.73,13.73h-85.56c-7.58,0-13.73-6.15-13.73-13.73s6.15-13.73,13.73-13.73Z" fill="none" stroke="#f68d61" stroke-linecap="round" stroke-linejoin="round"/>
  <path d="M827.82,342.75h-163.91c-13.83,0-25.03-11.21-25.03-25.03" fill="none" stroke="#f68d61" stroke-linecap="round" stroke-linejoin="round"/>
  <path d="M686.16,250.1h-143.77c-7.58,0-13.73-6.15-13.73-13.73s6.15-13.73,13.73-13.73h143.77c7.58,0,13.73,6.15,13.73,13.73s-6.15,13.73-13.73,13.73Z" fill="none" stroke="#f68d61" stroke-linecap="round" stroke-linejoin="round"/>
  <path d="M935.43,289.12h-193.66c-7.58,0-13.73-6.15-13.73-13.73s6.15-13.73,13.73-13.73h193.66c7.58,0,13.73,6.15,13.73,13.73s-6.15,13.73-13.73,13.73Z" fill="none" stroke="#f68d61" stroke-linecap="round" stroke-linejoin="round"/>
  <path d="M699.89,236.37h163.91c13.82,0,25.03,11.21,25.03,25.03" fill="none" stroke="#f68d61" stroke-linecap="round" stroke-linejoin="round"/>
  <line x1="888.16" y1="289.73" x2="888.16" y2="329" fill="none" stroke="#f68d61" stroke-linecap="round" stroke-linejoin="round"/>
  <line x1="638.7" y1="250.65" x2="638.7" y2="289.92" fill="none" stroke="#f68d61" stroke-linecap="round" stroke-linejoin="round"/>
  <path d="M841.55,186.83h118.82c7.58,0,13.73,6.15,13.73,13.73s-6.15,13.73-13.73,13.73h-118.82c-7.58,0-13.73-6.15-13.73-13.73s6.15-13.73,13.73-13.73Z" fill="none" stroke="#f68d61" stroke-linecap="round" stroke-linejoin="round"/>
  <path d="M592.28,147.8h193.66c7.58,0,13.73,6.15,13.73,13.73s-6.15,13.73-13.73,13.73h-193.66c-7.58,0-13.73-6.15-13.73-13.73s6.15-13.73,13.73-13.73Z" fill="none" stroke="#f68d61" stroke-linecap="round" stroke-linejoin="round"/>
  <path d="M827.82,200.56h-163.91c-13.83,0-25.03-11.21-25.03-25.03" fill="none" stroke="#f68d61" stroke-linecap="round" stroke-linejoin="round"/>
  <path d="M686.16,107.9h-118.83c-7.58,0-13.73-6.15-13.73-13.73s6.15-13.73,13.73-13.73h118.83c7.58,0,13.73,6.15,13.73,13.73s-6.15,13.73-13.73,13.73Z" fill="none" stroke="#f68d61" stroke-linecap="round" stroke-linejoin="round"/>
  <path d="M935.43,146.93h-110.51c-7.58,0-13.73-6.15-13.73-13.73s6.15-13.73,13.73-13.73h110.51c7.58,0,13.73,6.15,13.73,13.73s-6.15,13.73-13.73,13.73Z" fill="none" stroke="#f68d61" stroke-linecap="round" stroke-linejoin="round"/>
  <path d="M699.89,94.17h163.91c13.82,0,25.03,11.21,25.03,25.03" fill="none" stroke="#f68d61" stroke-linecap="round" stroke-linejoin="round"/>
  <line x1="888.16" y1="147.54" x2="888.16" y2="186.81" fill="none" stroke="#f68d61" stroke-linecap="round" stroke-linejoin="round"/>
  <line x1="638.7" y1="108.46" x2="638.7" y2="147.73" fill="none" stroke="#f68d61" stroke-linecap="round" stroke-linejoin="round"/>
  <path d="M603.26,602.58v35.94c0,11.56-9.37,20.93-20.93,20.93" fill="none" stroke="#f68d61" stroke-linecap="round" stroke-linejoin="round"/>
  <rect x="545.33" y="640.44" width="37" height="37" fill="none" stroke="#f68d61" stroke-linecap="round" stroke-linejoin="round"/>
  <path d="M785.23,431.25v-4.89c0-9.34-7.57-16.91-16.91-16.91" fill="none" stroke="#f68d61" stroke-linecap="round" stroke-linejoin="round"/>
  <rect x="744.33" y="397.44" width="24" height="24" fill="none" stroke="#f68d61" stroke-linecap="round" stroke-linejoin="round"/>
  <path d="M949.15,275.39h0c11.14,0,20.17-9.03,20.17-20.17v-7.78" fill="none" stroke="#f68d61" stroke-linecap="round" stroke-linejoin="round"/>
  <rect x="958.33" y="226.44" width="21" height="21" fill="none" stroke="#f68d61" stroke-linecap="round" stroke-linejoin="round"/>
  <path d="M923.27,118.84h0c0-31.7-25.7-57.4-57.4-57.4h-53.54" fill="none" stroke="#f68d61" stroke-linecap="round" stroke-linejoin="round"/>
  <rect x="765.33" y="37.44" width="47" height="47" fill="none" stroke="#f68d61" stroke-linecap="round" stroke-linejoin="round"/>
  <path d="M495.74,402.6h25.09c13.28,0,24.04-10.76,24.04-24.04h0" fill="none" stroke="#f68d61" stroke-linecap="round" stroke-linejoin="round"/>
  <path d="M504.05,185.57h49.76c13.28,0,24.74-10.76,24.74-24.04" fill="none" stroke="#f68d61" stroke-linecap="round" stroke-linejoin="round"/>
  <path d="M504.05,260.41h17.25c10.65,0,19.28,8.63,19.28,19.28h0" fill="none" stroke="#f68d61" stroke-linecap="round" stroke-linejoin="round"/>
  <path d="M504.05,544.8h22.8c7.07,0,12.8-5.73,12.8-12.8h0" fill="none" stroke="#f68d61" stroke-linecap="round" stroke-linejoin="round"/>
  <path d="M558.24,498.31h48.5c4.65,0,8.42,3.77,8.42,8.42h0" fill="none" stroke="#f68d61" stroke-linecap="round" stroke-linejoin="round"/>
</svg>