<?xml version="1.0" encoding="UTF-8"?>
<svg id="Layer_1" data-name="Layer 1" xmlns="http://www.w3.org/2000/svg" viewBox="0 0 1082.61 706.33">
  <rect x="179.33" y="598.14" width="46.03" height="46.03" fill="none" stroke="#ffefe4" stroke-linecap="round" stroke-linejoin="round"/>
  <rect x="179.33" y="393.24" width="46.03" height="46.03" fill="none" stroke="#ffefe4" stroke-linecap="round" stroke-linejoin="round"/>
  <rect x="140.73" y="148.26" width="83.15" height="83.15" fill="none" stroke="#ffefe4" stroke-linecap="round" stroke-linejoin="round"/>
  <rect x="57.59" y="62.16" width="83.15" height="86.1" fill="none" stroke="#ffefe4" stroke-linecap="round" stroke-linejoin="round"/>
  <rect x="133.31" y="347.22" width="46.03" height="46.03" fill="none" stroke="#ffefe4" stroke-linecap="round" stroke-linejoin="round"/>
  <rect x="56.1" y="270.01" width="77.21" height="77.21" fill="none" stroke="#ffefe4" stroke-linecap="round" stroke-linejoin="round"/>
  <rect x="56.1" y="474.9" width="123.23" height="123.23" fill="none" stroke="#ffefe4" stroke-linecap="round" stroke-linejoin="round"/>
  <circle cx="393.88" cy="609.27" r="27.47" fill="none" stroke="#ffefe4" stroke-linecap="round" stroke-linejoin="round"/>
  <circle cx="393.88" cy="404.38" r="27.47" fill="none" stroke="#ffefe4" stroke-linecap="round" stroke-linejoin="round"/>
  <circle cx="338.94" cy="353.9" r="27.47" fill="none" stroke="#ffefe4" stroke-linecap="round" stroke-linejoin="round"/>
  <circle cx="284.01" cy="303.42" r="27.47" fill="none" stroke="#ffefe4" stroke-linecap="round" stroke-linejoin="round"/>
  <circle cx="315.93" cy="537.22" r="56.42" fill="none" stroke="#ffefe4" stroke-linecap="round" stroke-linejoin="round"/>
  <circle cx="341.17" cy="145.29" r="56.42" fill="none" stroke="#ffefe4" stroke-linecap="round" stroke-linejoin="round"/>
  <rect x="621.79" y="601.11" width="10.39" height="41.57" fill="none" stroke="#ffefe4" stroke-linecap="round" stroke-linejoin="round"/>
  <rect x="601" y="601.11" width="10.39" height="41.57" fill="none" stroke="#ffefe4" stroke-linecap="round" stroke-linejoin="round"/>
  <rect x="580.21" y="601.11" width="10.39" height="41.57" fill="none" stroke="#ffefe4" stroke-linecap="round" stroke-linejoin="round"/>
  <rect x="559.43" y="601.11" width="10.39" height="41.57" fill="none" stroke="#ffefe4" stroke-linecap="round" stroke-linejoin="round"/>
  <rect x="538.64" y="601.11" width="10.39" height="41.57" fill="none" stroke="#ffefe4" stroke-linecap="round" stroke-linejoin="round"/>
  <rect x="517.85" y="601.11" width="10.39" height="41.57" fill="none" stroke="#ffefe4" stroke-linecap="round" stroke-linejoin="round"/>
  <rect x="456.98" y="580.32" width="175.2" height="13.36" fill="none" stroke="#ffefe4" stroke-linecap="round" stroke-linejoin="round"/>
  <rect x="456.98" y="553.59" width="175.2" height="13.36" fill="none" stroke="#ffefe4" stroke-linecap="round" stroke-linejoin="round"/>
  <rect x="456.98" y="526.87" width="175.2" height="13.36" fill="none" stroke="#ffefe4" stroke-linecap="round" stroke-linejoin="round"/>
  <rect x="456.98" y="500.14" width="175.2" height="13.36" fill="none" stroke="#ffefe4" stroke-linecap="round" stroke-linejoin="round"/>
  <rect x="456.98" y="473.42" width="175.2" height="13.36" fill="none" stroke="#ffefe4" stroke-linecap="round" stroke-linejoin="round"/>
  <rect x="600.83" y="395.39" width="10.39" height="41.57" fill="none" stroke="#ffefe4" stroke-linecap="round" stroke-linejoin="round"/>
  <rect x="559.26" y="395.39" width="10.39" height="41.57" fill="none" stroke="#ffefe4" stroke-linecap="round" stroke-linejoin="round"/>
  <rect x="517.68" y="395.39" width="10.39" height="41.57" fill="none" stroke="#ffefe4" stroke-linecap="round" stroke-linejoin="round"/>
  <rect x="456.81" y="368.67" width="175.2" height="13.36" fill="none" stroke="#ffefe4" stroke-linecap="round" stroke-linejoin="round"/>
  <rect x="456.81" y="322.64" width="175.2" height="13.36" fill="none" stroke="#ffefe4" stroke-linecap="round" stroke-linejoin="round"/>
  <rect x="456.81" y="276.61" width="175.2" height="13.36" fill="none" stroke="#ffefe4" stroke-linecap="round" stroke-linejoin="round"/>
  <rect x="518.23" y="191.34" width="10.39" height="41.57" fill="none" stroke="#ffefe4" stroke-linecap="round" stroke-linejoin="round"/>
  <rect x="456.98" y="109.66" width="175.2" height="13.36" fill="none" stroke="#ffefe4" stroke-linecap="round" stroke-linejoin="round"/>
  <rect x="699.37" y="516.49" width="87.6" height="87.6" rx="17.82" ry="17.82" fill="none" stroke="#ffefe4" stroke-linecap="round" stroke-linejoin="round"/>
  <rect x="669.3" y="341.28" width="87.6" height="87.6" rx="17.82" ry="17.82" fill="none" stroke="#ffefe4" stroke-linecap="round" stroke-linejoin="round"/>
  <rect x="756.9" y="277.43" width="65.33" height="65.33" rx="13.29" ry="13.29" fill="none" stroke="#ffefe4" stroke-linecap="round" stroke-linejoin="round"/>
  <rect x="674.13" y="154.22" width="65.33" height="65.33" rx="13.29" ry="13.29" fill="none" stroke="#ffefe4" stroke-linecap="round" stroke-linejoin="round"/>
  <rect x="674.13" y="72.56" width="65.33" height="65.33" rx="13.29" ry="13.29" fill="none" stroke="#ffefe4" stroke-linecap="round" stroke-linejoin="round"/>
  <rect x="752.82" y="154.22" width="65.33" height="65.33" rx="13.29" ry="13.29" fill="none" stroke="#ffefe4" stroke-linecap="round" stroke-linejoin="round"/>
  <rect x="752.82" y="72.56" width="65.33" height="65.33" rx="13.29" ry="13.29" fill="none" stroke="#ffefe4" stroke-linecap="round" stroke-linejoin="round"/>
  <line x1="859.52" y1="620.28" x2="1039" y2="620.28" fill="none" stroke="#ffefe4" stroke-linecap="round" stroke-linejoin="round"/>
  <line x1="859.52" y1="598.01" x2="1039" y2="598.01" fill="none" stroke="#ffefe4" stroke-linecap="round" stroke-linejoin="round"/>
  <line x1="859.52" y1="575.74" x2="1039" y2="575.74" fill="none" stroke="#ffefe4" stroke-linecap="round" stroke-linejoin="round"/>
  <line x1="859.52" y1="553.47" x2="1039" y2="553.47" fill="none" stroke="#ffefe4" stroke-linecap="round" stroke-linejoin="round"/>
  <line x1="859.52" y1="531.2" x2="1039" y2="531.2" fill="none" stroke="#ffefe4" stroke-linecap="round" stroke-linejoin="round"/>
  <line x1="859.52" y1="508.93" x2="1039" y2="508.93" fill="none" stroke="#ffefe4" stroke-linecap="round" stroke-linejoin="round"/>
  <line x1="859.52" y1="486.66" x2="1039" y2="486.66" fill="none" stroke="#ffefe4" stroke-linecap="round" stroke-linejoin="round"/>
  <line x1="859.52" y1="419.84" x2="1039" y2="419.84" fill="none" stroke="#ffefe4" stroke-linecap="round" stroke-linejoin="round"/>
  <line x1="859.52" y1="397.57" x2="1039" y2="397.57" fill="none" stroke="#ffefe4" stroke-linecap="round" stroke-linejoin="round"/>
  <line x1="859.52" y1="375.3" x2="1039" y2="375.3" fill="none" stroke="#ffefe4" stroke-linecap="round" stroke-linejoin="round"/>
  <line x1="859.52" y1="353.03" x2="1039" y2="353.03" fill="none" stroke="#ffefe4" stroke-linecap="round" stroke-linejoin="round"/>
  <line x1="859.52" y1="330.76" x2="1039" y2="330.76" fill="none" stroke="#ffefe4" stroke-linecap="round" stroke-linejoin="round"/>
  <line x1="859.52" y1="308.49" x2="1039" y2="308.49" fill="none" stroke="#ffefe4" stroke-linecap="round" stroke-linejoin="round"/>
  <line x1="859.52" y1="286.22" x2="1039" y2="286.22" fill="none" stroke="#ffefe4" stroke-linecap="round" stroke-linejoin="round"/>
  <line x1="1015.86" y1="436.9" x2="1015.86" y2="268.54" fill="none" stroke="#ffefe4" stroke-linecap="round" stroke-linejoin="round"/>
  <line x1="993.59" y1="436.9" x2="993.59" y2="268.54" fill="none" stroke="#ffefe4" stroke-linecap="round" stroke-linejoin="round"/>
  <line x1="971.32" y1="436.9" x2="971.32" y2="268.54" fill="none" stroke="#ffefe4" stroke-linecap="round" stroke-linejoin="round"/>
  <line x1="949.05" y1="436.9" x2="949.05" y2="268.54" fill="none" stroke="#ffefe4" stroke-linecap="round" stroke-linejoin="round"/>
  <line x1="926.78" y1="436.9" x2="926.78" y2="268.54" fill="none" stroke="#ffefe4" stroke-linecap="round" stroke-linejoin="round"/>
  <line x1="904.5" y1="436.9" x2="904.5" y2="268.54" fill="none" stroke="#ffefe4" stroke-linecap="round" stroke-linejoin="round"/>
  <line x1="882.23" y1="436.9" x2="882.23" y2="268.54" fill="none" stroke="#ffefe4" stroke-linecap="round" stroke-linejoin="round"/>
  <line x1="859.52" y1="194.16" x2="1039" y2="194.16" fill="none" stroke="#ffefe4" stroke-linecap="round" stroke-linejoin="round"/>
  <line x1="859.52" y1="149.62" x2="1039" y2="149.62" fill="none" stroke="#ffefe4" stroke-linecap="round" stroke-linejoin="round"/>
  <line x1="859.52" y1="105.08" x2="1039" y2="105.08" fill="none" stroke="#ffefe4" stroke-linecap="round" stroke-linejoin="round"/>
  <line x1="1015.86" y1="229.04" x2="1015.86" y2="62.16" fill="none" stroke="#ffefe4" stroke-linecap="round" stroke-linejoin="round"/>
  <line x1="971.32" y1="229.04" x2="971.32" y2="62.16" fill="none" stroke="#ffefe4" stroke-linecap="round" stroke-linejoin="round"/>
  <line x1="926.78" y1="229.04" x2="926.78" y2="62.16" fill="none" stroke="#ffefe4" stroke-linecap="round" stroke-linejoin="round"/>
  <line x1="882.23" y1="229.04" x2="882.23" y2="62.16" fill="none" stroke="#ffefe4" stroke-linecap="round" stroke-linejoin="round"/>
  <rect x="50.12" y="468.92" width="169.26" height="181.23" transform="translate(-424.79 694.28) rotate(-90)" fill="none" stroke="#ffefe4" stroke-linecap="round" stroke-linejoin="round"/>
  <rect x="50.41" y="264.04" width="169.26" height="181.23" transform="translate(-219.62 489.69) rotate(-90)" fill="none" stroke="#ffefe4" stroke-linecap="round" stroke-linejoin="round"/>
  <rect x="48.91" y="56.18" width="169.26" height="181.23" transform="translate(-13.25 280.33) rotate(-90)" fill="none" stroke="#ffefe4" stroke-linecap="round" stroke-linejoin="round"/>
  <rect x="253.92" y="467.45" width="169.26" height="181.23" transform="translate(-219.51 896.62) rotate(-90)" fill="none" stroke="#ffefe4" stroke-linecap="round" stroke-linejoin="round"/>
  <rect x="253.92" y="264.04" width="169.26" height="181.23" transform="translate(-16.11 693.2) rotate(-90)" fill="none" stroke="#ffefe4" stroke-linecap="round" stroke-linejoin="round"/>
  <rect x="253.91" y="56.18" width="169.26" height="181.23" transform="translate(191.74 485.33) rotate(-90)" fill="none" stroke="#ffefe4" stroke-linecap="round" stroke-linejoin="round"/>
  <rect x="457.45" y="467.45" width="169.26" height="181.23" transform="translate(-15.99 1100.14) rotate(-90)" fill="none" stroke="#ffefe4" stroke-linecap="round" stroke-linejoin="round"/>
  <rect x="457.44" y="262.56" width="169.26" height="181.23" transform="translate(188.9 895.24) rotate(-90)" fill="none" stroke="#ffefe4" stroke-linecap="round" stroke-linejoin="round"/>
  <rect x="457.43" y="57.66" width="169.26" height="181.23" transform="translate(393.78 690.33) rotate(-90)" fill="none" stroke="#ffefe4" stroke-linecap="round" stroke-linejoin="round"/>
  <rect x="660.93" y="467.45" width="169.26" height="181.23" transform="translate(187.5 1303.62) rotate(-90)" fill="none" stroke="#ffefe4" stroke-linecap="round" stroke-linejoin="round"/>
  <rect x="659.44" y="262.56" width="169.26" height="181.23" transform="translate(390.9 1097.24) rotate(-90)" fill="none" stroke="#ffefe4" stroke-linecap="round" stroke-linejoin="round"/>
  <rect x="659.45" y="56.18" width="169.26" height="181.23" transform="translate(597.29 890.88) rotate(-90)" fill="none" stroke="#ffefe4" stroke-linecap="round" stroke-linejoin="round"/>
  <rect x="864.44" y="467.45" width="169.26" height="181.23" transform="translate(391.01 1507.13) rotate(-90)" fill="none" stroke="#ffefe4" stroke-linecap="round" stroke-linejoin="round"/>
  <rect x="864.43" y="262.56" width="169.26" height="181.23" transform="translate(595.89 1302.24) rotate(-90)" fill="none" stroke="#ffefe4" stroke-linecap="round" stroke-linejoin="round"/>
  <rect x="864.43" y="56.18" width="169.26" height="181.23" transform="translate(802.27 1095.85) rotate(-90)" fill="none" stroke="#ffefe4" stroke-linecap="round" stroke-linejoin="round"/>
</svg>