<?xml version="1.0" encoding="UTF-8"?>
<svg id="Layer_1" data-name="Layer 1" xmlns="http://www.w3.org/2000/svg" viewBox="0 0 1082.61 706.33">
  <polygon points="908.09 589.96 908.09 639.86 951.3 664.8 994.51 639.86 994.51 589.96 951.3 565.02 908.09 589.96" fill="none" stroke="#f68d61" stroke-linecap="round" stroke-linejoin="round"/>
  <polygon points="821.66 589.96 821.66 639.86 864.86 664.8 908.07 639.86 908.07 589.96 864.86 565.02 821.66 589.96" fill="none" stroke="#f68d61" stroke-linecap="round" stroke-linejoin="round"/>
  <polygon points="735.22 589.96 735.22 639.86 778.43 664.8 821.64 639.86 821.64 589.96 778.43 565.02 735.22 589.96" fill="none" stroke="#f68d61" stroke-linecap="round" stroke-linejoin="round"/>
  <polygon points="648.78 589.96 648.78 639.86 691.99 664.8 735.2 639.86 735.2 589.96 691.99 565.02 648.78 589.96" fill="none" stroke="#f68d61" stroke-linecap="round" stroke-linejoin="round"/>
  <polygon points="562.35 589.96 562.35 639.86 605.56 664.8 648.77 639.86 648.77 589.96 605.56 565.02 562.35 589.96" fill="none" stroke="#f68d61" stroke-linecap="round" stroke-linejoin="round"/>
  <polygon points="475.91 589.96 475.91 639.86 519.12 664.8 562.33 639.86 562.33 589.96 519.12 565.02 475.91 589.96" fill="none" stroke="#f68d61" stroke-linecap="round" stroke-linejoin="round"/>
  <polygon points="389.48 589.96 389.48 639.86 432.69 664.8 475.89 639.86 475.89 589.96 432.69 565.02 389.48 589.96" fill="none" stroke="#f68d61" stroke-linecap="round" stroke-linejoin="round"/>
  <polygon points="303.04 589.96 303.04 639.86 346.25 664.8 389.46 639.86 389.46 589.96 346.25 565.02 303.04 589.96" fill="none" stroke="#f68d61" stroke-linecap="round" stroke-linejoin="round"/>
  <polygon points="216.61 589.96 216.61 639.86 259.81 664.8 303.02 639.86 303.02 589.96 259.81 565.02 216.61 589.96" fill="none" stroke="#f68d61" stroke-linecap="round" stroke-linejoin="round"/>
  <polygon points="130.17 589.96 130.17 639.86 173.38 664.8 216.59 639.86 216.59 589.96 173.38 565.02 130.17 589.96" fill="none" stroke="#f68d61" stroke-linecap="round" stroke-linejoin="round"/>
  <polygon points="43.74 589.96 43.74 639.86 86.94 664.8 130.15 639.86 130.15 589.96 86.94 565.02 43.74 589.96" fill="none" stroke="#f68d61" stroke-linecap="round" stroke-linejoin="round"/>
  <polygon points="951.59 515.32 951.59 565.21 994.8 590.16 1038 565.21 1038 515.32 994.8 490.38 951.59 515.32" fill="none" stroke="#f68d61" stroke-linecap="round" stroke-linejoin="round"/>
  <polygon points="865.15 515.32 865.15 565.21 908.36 590.16 951.57 565.21 951.57 515.32 908.36 490.38 865.15 515.32" fill="none" stroke="#f68d61" stroke-linecap="round" stroke-linejoin="round"/>
  <polygon points="778.72 515.32 778.72 565.21 821.93 590.16 865.13 565.21 865.13 515.32 821.93 490.38 778.72 515.32" fill="none" stroke="#f68d61" stroke-linecap="round" stroke-linejoin="round"/>
  <polygon points="692.28 515.32 692.28 565.21 735.49 590.16 778.7 565.21 778.7 515.32 735.49 490.38 692.28 515.32" fill="none" stroke="#f68d61" stroke-linecap="round" stroke-linejoin="round"/>
  <polygon points="605.85 515.32 605.85 565.21 649.05 590.16 692.26 565.21 692.26 515.32 649.05 490.38 605.85 515.32" fill="none" stroke="#f68d61" stroke-linecap="round" stroke-linejoin="round"/>
  <polygon points="519.41 515.32 519.41 565.21 562.62 590.16 605.83 565.21 605.83 515.32 562.62 490.38 519.41 515.32" fill="none" stroke="#f68d61" stroke-linecap="round" stroke-linejoin="round"/>
  <polygon points="432.97 515.32 432.97 565.21 476.18 590.16 519.39 565.21 519.39 515.32 476.18 490.38 432.97 515.32" fill="none" stroke="#f68d61" stroke-linecap="round" stroke-linejoin="round"/>
  <polygon points="346.54 515.32 346.54 565.21 389.75 590.16 432.96 565.21 432.96 515.32 389.75 490.38 346.54 515.32" fill="none" stroke="#f68d61" stroke-linecap="round" stroke-linejoin="round"/>
  <polygon points="260.1 515.32 260.1 565.21 303.31 590.16 346.52 565.21 346.52 515.32 303.31 490.38 260.1 515.32" fill="none" stroke="#f68d61" stroke-linecap="round" stroke-linejoin="round"/>
  <polygon points="173.67 515.32 173.67 565.21 216.88 590.16 260.08 565.21 260.08 515.32 216.88 490.38 173.67 515.32" fill="none" stroke="#f68d61" stroke-linecap="round" stroke-linejoin="round"/>
  <polygon points="87.23 515.32 87.23 565.21 130.44 590.16 173.65 565.21 173.65 515.32 130.44 490.38 87.23 515.32" fill="none" stroke="#f68d61" stroke-linecap="round" stroke-linejoin="round"/>
  <polygon points="908.38 440.35 908.38 490.24 951.59 515.19 994.8 490.24 994.8 440.35 951.59 415.4 908.38 440.35" fill="none" stroke="#f68d61" stroke-linecap="round" stroke-linejoin="round"/>
  <polygon points="821.95 440.35 821.95 490.24 865.15 515.19 908.36 490.24 908.36 440.35 865.15 415.4 821.95 440.35" fill="none" stroke="#f68d61" stroke-linecap="round" stroke-linejoin="round"/>
  <polygon points="735.51 440.35 735.51 490.24 778.72 515.19 821.93 490.24 821.93 440.35 778.72 415.4 735.51 440.35" fill="none" stroke="#f68d61" stroke-linecap="round" stroke-linejoin="round"/>
  <polygon points="649.07 440.35 649.07 490.24 692.28 515.19 735.49 490.24 735.49 440.35 692.28 415.4 649.07 440.35" fill="none" stroke="#f68d61" stroke-linecap="round" stroke-linejoin="round"/>
  <polygon points="562.64 440.35 562.64 490.24 605.85 515.19 649.06 490.24 649.06 440.35 605.85 415.4 562.64 440.35" fill="none" stroke="#f68d61" stroke-linecap="round" stroke-linejoin="round"/>
  <polygon points="476.2 440.35 476.2 490.24 519.41 515.19 562.62 490.24 562.62 440.35 519.41 415.4 476.2 440.35" fill="none" stroke="#f68d61" stroke-linecap="round" stroke-linejoin="round"/>
  <polygon points="389.77 440.35 389.77 490.24 432.98 515.19 476.18 490.24 476.18 440.35 432.98 415.4 389.77 440.35" fill="none" stroke="#f68d61" stroke-linecap="round" stroke-linejoin="round"/>
  <polygon points="303.33 440.35 303.33 490.24 346.54 515.19 389.75 490.24 389.75 440.35 346.54 415.4 303.33 440.35" fill="none" stroke="#f68d61" stroke-linecap="round" stroke-linejoin="round"/>
  <polygon points="216.9 440.35 216.9 490.24 260.1 515.19 303.31 490.24 303.31 440.35 260.1 415.4 216.9 440.35" fill="none" stroke="#f68d61" stroke-linecap="round" stroke-linejoin="round"/>
  <polygon points="130.46 440.35 130.46 490.24 173.67 515.19 216.88 490.24 216.88 440.35 173.67 415.4 130.46 440.35" fill="none" stroke="#f68d61" stroke-linecap="round" stroke-linejoin="round"/>
  <polygon points="44.02 440.35 44.02 490.24 87.23 515.19 130.44 490.24 130.44 440.35 87.23 415.4 44.02 440.35" fill="none" stroke="#f68d61" stroke-linecap="round" stroke-linejoin="round"/>
  <polygon points="951.88 365.7 951.88 415.6 995.09 440.54 1038.29 415.6 1038.29 365.7 995.09 340.76 951.88 365.7" fill="none" stroke="#f68d61" stroke-linecap="round" stroke-linejoin="round"/>
  <polygon points="865.44 365.7 865.44 415.6 908.65 440.54 951.86 415.6 951.86 365.7 908.65 340.76 865.44 365.7" fill="none" stroke="#f68d61" stroke-linecap="round" stroke-linejoin="round"/>
  <polygon points="779.01 365.7 779.01 415.6 822.21 440.54 865.42 415.6 865.42 365.7 822.21 340.76 779.01 365.7" fill="none" stroke="#f68d61" stroke-linecap="round" stroke-linejoin="round"/>
  <polygon points="692.57 365.7 692.57 415.6 735.78 440.54 778.99 415.6 778.99 365.7 735.78 340.76 692.57 365.7" fill="none" stroke="#f68d61" stroke-linecap="round" stroke-linejoin="round"/>
  <polygon points="606.14 365.7 606.14 415.6 649.34 440.54 692.55 415.6 692.55 365.7 649.34 340.76 606.14 365.7" fill="none" stroke="#f68d61" stroke-linecap="round" stroke-linejoin="round"/>
  <polygon points="519.7 365.7 519.7 415.6 562.91 440.54 606.12 415.6 606.12 365.7 562.91 340.76 519.7 365.7" fill="none" stroke="#f68d61" stroke-linecap="round" stroke-linejoin="round"/>
  <polygon points="433.26 365.7 433.26 415.6 476.47 440.54 519.68 415.6 519.68 365.7 476.47 340.76 433.26 365.7" fill="none" stroke="#f68d61" stroke-linecap="round" stroke-linejoin="round"/>
  <polygon points="346.83 365.7 346.83 415.6 390.04 440.54 433.24 415.6 433.24 365.7 390.04 340.76 346.83 365.7" fill="none" stroke="#f68d61" stroke-linecap="round" stroke-linejoin="round"/>
  <polygon points="260.39 365.7 260.39 415.6 303.6 440.54 346.81 415.6 346.81 365.7 303.6 340.76 260.39 365.7" fill="none" stroke="#f68d61" stroke-linecap="round" stroke-linejoin="round"/>
  <polygon points="173.96 365.7 173.96 415.6 217.17 440.54 260.37 415.6 260.37 365.7 217.17 340.76 173.96 365.7" fill="none" stroke="#f68d61" stroke-linecap="round" stroke-linejoin="round"/>
  <polygon points="87.52 365.7 87.52 415.6 130.73 440.54 173.94 415.6 173.94 365.7 130.73 340.76 87.52 365.7" fill="none" stroke="#f68d61" stroke-linecap="round" stroke-linejoin="round"/>
  <polygon points="908.67 290.73 908.67 340.62 951.88 365.57 995.09 340.62 995.09 290.73 951.88 265.78 908.67 290.73" fill="none" stroke="#f68d61" stroke-linecap="round" stroke-linejoin="round"/>
  <polygon points="822.23 290.73 822.23 340.62 865.44 365.57 908.65 340.62 908.65 290.73 865.44 265.78 822.23 290.73" fill="none" stroke="#f68d61" stroke-linecap="round" stroke-linejoin="round"/>
  <polygon points="735.8 290.73 735.8 340.62 779.01 365.57 822.22 340.62 822.22 290.73 779.01 265.78 735.8 290.73" fill="none" stroke="#f68d61" stroke-linecap="round" stroke-linejoin="round"/>
  <polygon points="649.36 290.73 649.36 340.62 692.57 365.57 735.78 340.62 735.78 290.73 692.57 265.78 649.36 290.73" fill="none" stroke="#f68d61" stroke-linecap="round" stroke-linejoin="round"/>
  <polygon points="562.93 290.73 562.93 340.62 606.14 365.57 649.34 340.62 649.34 290.73 606.14 265.78 562.93 290.73" fill="none" stroke="#f68d61" stroke-linecap="round" stroke-linejoin="round"/>
  <polygon points="476.49 290.73 476.49 340.62 519.7 365.57 562.91 340.62 562.91 290.73 519.7 265.78 476.49 290.73" fill="none" stroke="#f68d61" stroke-linecap="round" stroke-linejoin="round"/>
  <polygon points="390.06 290.73 390.06 340.62 433.26 365.57 476.47 340.62 476.47 290.73 433.26 265.78 390.06 290.73" fill="none" stroke="#f68d61" stroke-linecap="round" stroke-linejoin="round"/>
  <polygon points="303.62 290.73 303.62 340.62 346.83 365.57 390.04 340.62 390.04 290.73 346.83 265.78 303.62 290.73" fill="none" stroke="#f68d61" stroke-linecap="round" stroke-linejoin="round"/>
  <polygon points="217.19 290.73 217.19 340.62 260.39 365.57 303.6 340.62 303.6 290.73 260.39 265.78 217.19 290.73" fill="none" stroke="#f68d61" stroke-linecap="round" stroke-linejoin="round"/>
  <polygon points="130.75 290.73 130.75 340.62 173.96 365.57 217.17 340.62 217.17 290.73 173.96 265.78 130.75 290.73" fill="none" stroke="#f68d61" stroke-linecap="round" stroke-linejoin="round"/>
  <polygon points="44.31 290.73 44.31 340.62 87.52 365.57 130.73 340.62 130.73 290.73 87.52 265.78 44.31 290.73" fill="none" stroke="#f68d61" stroke-linecap="round" stroke-linejoin="round"/>
  <polygon points="952.17 216.09 952.17 265.98 995.38 290.93 1038.58 265.98 1038.58 216.09 995.38 191.14 952.17 216.09" fill="none" stroke="#f68d61" stroke-linecap="round" stroke-linejoin="round"/>
  <polygon points="865.73 216.09 865.73 265.98 908.94 290.93 952.15 265.98 952.15 216.09 908.94 191.14 865.73 216.09" fill="none" stroke="#f68d61" stroke-linecap="round" stroke-linejoin="round"/>
  <polygon points="779.3 216.09 779.3 265.98 822.5 290.93 865.71 265.98 865.71 216.09 822.5 191.14 779.3 216.09" fill="none" stroke="#f68d61" stroke-linecap="round" stroke-linejoin="round"/>
  <polygon points="692.86 216.09 692.86 265.98 736.07 290.93 779.28 265.98 779.28 216.09 736.07 191.14 692.86 216.09" fill="none" stroke="#f68d61" stroke-linecap="round" stroke-linejoin="round"/>
  <polygon points="606.42 216.09 606.42 265.98 649.63 290.93 692.84 265.98 692.84 216.09 649.63 191.14 606.42 216.09" fill="none" stroke="#f68d61" stroke-linecap="round" stroke-linejoin="round"/>
  <polygon points="519.99 216.09 519.99 265.98 563.2 290.93 606.41 265.98 606.41 216.09 563.2 191.14 519.99 216.09" fill="none" stroke="#f68d61" stroke-linecap="round" stroke-linejoin="round"/>
  <polygon points="433.55 216.09 433.55 265.98 476.76 290.93 519.97 265.98 519.97 216.09 476.76 191.14 433.55 216.09" fill="none" stroke="#f68d61" stroke-linecap="round" stroke-linejoin="round"/>
  <polygon points="347.12 216.09 347.12 265.98 390.33 290.93 433.53 265.98 433.53 216.09 390.33 191.14 347.12 216.09" fill="none" stroke="#f68d61" stroke-linecap="round" stroke-linejoin="round"/>
  <polygon points="260.68 216.09 260.68 265.98 303.89 290.93 347.1 265.98 347.1 216.09 303.89 191.14 260.68 216.09" fill="none" stroke="#f68d61" stroke-linecap="round" stroke-linejoin="round"/>
  <polygon points="174.25 216.09 174.25 265.98 217.45 290.93 260.66 265.98 260.66 216.09 217.45 191.14 174.25 216.09" fill="none" stroke="#f68d61" stroke-linecap="round" stroke-linejoin="round"/>
  <polygon points="87.81 216.09 87.81 265.98 131.02 290.93 174.23 265.98 174.23 216.09 131.02 191.14 87.81 216.09" fill="none" stroke="#f68d61" stroke-linecap="round" stroke-linejoin="round"/>
  <polygon points="908.96 141.11 908.96 191 952.17 215.95 995.38 191 995.38 141.11 952.17 116.17 908.96 141.11" fill="none" stroke="#f68d61" stroke-linecap="round" stroke-linejoin="round"/>
  <polygon points="822.52 141.11 822.52 191 865.73 215.95 908.94 191 908.94 141.11 865.73 116.17 822.52 141.11" fill="none" stroke="#f68d61" stroke-linecap="round" stroke-linejoin="round"/>
  <polygon points="736.09 141.11 736.09 191 779.3 215.95 822.51 191 822.51 141.11 779.3 116.17 736.09 141.11" fill="none" stroke="#f68d61" stroke-linecap="round" stroke-linejoin="round"/>
  <polygon points="649.65 141.11 649.65 191 692.86 215.95 736.07 191 736.07 141.11 692.86 116.17 649.65 141.11" fill="none" stroke="#f68d61" stroke-linecap="round" stroke-linejoin="round"/>
  <polygon points="563.22 141.11 563.22 191 606.43 215.95 649.63 191 649.63 141.11 606.43 116.17 563.22 141.11" fill="none" stroke="#f68d61" stroke-linecap="round" stroke-linejoin="round"/>
  <polygon points="476.78 141.11 476.78 191 519.99 215.95 563.2 191 563.2 141.11 519.99 116.17 476.78 141.11" fill="none" stroke="#f68d61" stroke-linecap="round" stroke-linejoin="round"/>
  <polygon points="390.35 141.11 390.35 191 433.55 215.95 476.76 191 476.76 141.11 433.55 116.17 390.35 141.11" fill="none" stroke="#f68d61" stroke-linecap="round" stroke-linejoin="round"/>
  <polygon points="303.91 141.11 303.91 191 347.12 215.95 390.33 191 390.33 141.11 347.12 116.17 303.91 141.11" fill="none" stroke="#f68d61" stroke-linecap="round" stroke-linejoin="round"/>
  <polygon points="217.47 141.11 217.47 191 260.68 215.95 303.89 191 303.89 141.11 260.68 116.17 217.47 141.11" fill="none" stroke="#f68d61" stroke-linecap="round" stroke-linejoin="round"/>
  <polygon points="131.04 141.11 131.04 191 174.25 215.95 217.46 191 217.46 141.11 174.25 116.17 131.04 141.11" fill="none" stroke="#f68d61" stroke-linecap="round" stroke-linejoin="round"/>
  <polygon points="44.6 141.11 44.6 191 87.81 215.95 131.02 191 131.02 141.11 87.81 116.17 44.6 141.11" fill="none" stroke="#f68d61" stroke-linecap="round" stroke-linejoin="round"/>
  <polygon points="952.46 66.47 952.46 116.36 995.66 141.31 1038.87 116.36 1038.87 66.47 995.66 41.52 952.46 66.47" fill="none" stroke="#f68d61" stroke-linecap="round" stroke-linejoin="round"/>
  <polygon points="866.02 66.47 866.02 116.36 909.23 141.31 952.44 116.36 952.44 66.47 909.23 41.52 866.02 66.47" fill="none" stroke="#f68d61" stroke-linecap="round" stroke-linejoin="round"/>
  <polygon points="779.59 66.47 779.59 116.36 822.79 141.31 866 116.36 866 66.47 822.79 41.52 779.59 66.47" fill="none" stroke="#f68d61" stroke-linecap="round" stroke-linejoin="round"/>
  <polygon points="693.15 66.47 693.15 116.36 736.36 141.31 779.57 116.36 779.57 66.47 736.36 41.52 693.15 66.47" fill="none" stroke="#f68d61" stroke-linecap="round" stroke-linejoin="round"/>
  <polygon points="606.71 66.47 606.71 116.36 649.92 141.31 693.13 116.36 693.13 66.47 649.92 41.52 606.71 66.47" fill="none" stroke="#f68d61" stroke-linecap="round" stroke-linejoin="round"/>
  <polygon points="520.28 66.47 520.28 116.36 563.49 141.31 606.7 116.36 606.7 66.47 563.49 41.52 520.28 66.47" fill="none" stroke="#f68d61" stroke-linecap="round" stroke-linejoin="round"/>
  <polygon points="433.84 66.47 433.84 116.36 477.05 141.31 520.26 116.36 520.26 66.47 477.05 41.52 433.84 66.47" fill="none" stroke="#f68d61" stroke-linecap="round" stroke-linejoin="round"/>
  <polygon points="347.41 66.47 347.41 116.36 390.62 141.31 433.82 116.36 433.82 66.47 390.62 41.52 347.41 66.47" fill="none" stroke="#f68d61" stroke-linecap="round" stroke-linejoin="round"/>
  <polygon points="260.97 66.47 260.97 116.36 304.18 141.31 347.39 116.36 347.39 66.47 304.18 41.52 260.97 66.47" fill="none" stroke="#f68d61" stroke-linecap="round" stroke-linejoin="round"/>
  <polygon points="174.54 66.47 174.54 116.36 217.74 141.31 260.95 116.36 260.95 66.47 217.74 41.52 174.54 66.47" fill="none" stroke="#f68d61" stroke-linecap="round" stroke-linejoin="round"/>
  <polygon points="88.1 66.47 88.1 116.36 131.31 141.31 174.52 116.36 174.52 66.47 131.31 41.52 88.1 66.47" fill="none" stroke="#f68d61" stroke-linecap="round" stroke-linejoin="round"/>
</svg>