<?xml version="1.0" encoding="UTF-8"?>
<svg id="Layer_1" data-name="Layer 1" xmlns="http://www.w3.org/2000/svg" viewBox="0 0 1082.61 706.33">
  <polyline points="417.05 634.22 128.87 634.22 128.87 595.47" fill="none" stroke="#ffefe4" stroke-linecap="round" stroke-linejoin="round"/>
  <line x1="128.87" y1="584.35" x2="128.87" y2="515.23" fill="none" stroke="#ffefe4" stroke-linecap="round" stroke-linejoin="round"/>
  <polyline points="128.87 506.56 128.87 373.47 241.63 373.47 241.63 357.48" fill="none" stroke="#ffefe4" stroke-linecap="round" stroke-linejoin="round"/>
  <polyline points="241.9 348.8 241.9 252.03 236.77 252.03" fill="none" stroke="#ffefe4" stroke-linecap="round" stroke-linejoin="round"/>
  <polyline points="213.28 251.16 182.81 251.16 182.81 325.22 197.72 325.22" fill="none" stroke="#ffefe4" stroke-linecap="round" stroke-linejoin="round"/>
  <polyline points="182.54 286.19 160.04 286.19 160.04 373.2" fill="none" stroke="#ffefe4" stroke-linecap="round" stroke-linejoin="round"/>
  <polyline points="209.47 335.69 209.47 352.6 309.67 352.6 309.67 326.3" fill="none" stroke="#ffefe4" stroke-linecap="round" stroke-linejoin="round"/>
  <polyline points="307.77 150.39 307.77 108.64 229.04 108.64" fill="none" stroke="#ffefe4" stroke-linecap="round" stroke-linejoin="round"/>
  <polyline points="245.17 108.85 245.17 177.21 256.63 177.21" fill="none" stroke="#ffefe4" stroke-linecap="round" stroke-linejoin="round"/>
  <polyline points="257.53 284.18 257.53 262.69 241.29 262.69" fill="none" stroke="#ffefe4" stroke-linecap="round" stroke-linejoin="round"/>
  <polyline points="265.44 292.08 277.36 292.08 277.36 263.21" fill="none" stroke="#ffefe4" stroke-linecap="round" stroke-linejoin="round"/>
  <polyline points="283.11 263.21 283.11 303.2 296.18 303.2" fill="none" stroke="#ffefe4" stroke-linecap="round" stroke-linejoin="round"/>
  <polyline points="264.85 185.9 264.85 191.63 295.71 191.63" fill="none" stroke="#ffefe4" stroke-linecap="round" stroke-linejoin="round"/>
  <polyline points="264.85 170.1 264.85 164.89 295.42 164.89" fill="none" stroke="#ffefe4" stroke-linecap="round" stroke-linejoin="round"/>
  <polyline points="314.72 151.63 314.72 126.9 334.75 126.9" fill="none" stroke="#ffefe4" stroke-linecap="round" stroke-linejoin="round"/>
  <polyline points="358.24 127.68 373.99 127.68 373.99 170.67 323.74 170.67" fill="none" stroke="#ffefe4" stroke-linecap="round" stroke-linejoin="round"/>
  <line x1="344.29" y1="232.44" x2="323.55" y2="232.44" fill="none" stroke="#ffefe4" stroke-linecap="round" stroke-linejoin="round"/>
  <polyline points="375.11 232.44 453.88 232.44 453.88 275.29" fill="none" stroke="#ffefe4" stroke-linecap="round" stroke-linejoin="round"/>
  <polyline points="439.52 289.87 411.11 289.87 411.11 317.07 439.82 317.07" fill="none" stroke="#ffefe4" stroke-linecap="round" stroke-linejoin="round"/>
  <polyline points="410.88 303.3 391.74 303.3 391.74 232.82" fill="none" stroke="#ffefe4" stroke-linecap="round" stroke-linejoin="round"/>
  <polyline points="460.83 277.86 460.83 253.82 481.32 253.82" fill="none" stroke="#ffefe4" stroke-linecap="round" stroke-linejoin="round"/>
  <polyline points="504.82 253.67 520.57 253.67 520.57 297.23 467.59 297.23" fill="none" stroke="#ffefe4" stroke-linecap="round" stroke-linejoin="round"/>
  <line x1="483.6" y1="368.18" x2="468.06" y2="368.18" fill="none" stroke="#ffefe4" stroke-linecap="round" stroke-linejoin="round"/>
  <line x1="509.61" y1="368.18" x2="554.87" y2="368.18" fill="none" stroke="#ffefe4" stroke-linecap="round" stroke-linejoin="round"/>
  <polyline points="454.09 451.48 454.09 477.87 356.5 477.87 356.5 462.18" fill="none" stroke="#ffefe4" stroke-linecap="round" stroke-linejoin="round"/>
  <polyline points="388.01 473.44 388.01 377.98 382.34 377.98" fill="none" stroke="#ffefe4" stroke-linecap="round" stroke-linejoin="round"/>
  <polyline points="388.24 482.08 388.24 499.81 282.25 499.81" fill="none" stroke="#ffefe4" stroke-linecap="round" stroke-linejoin="round"/>
  <line x1="251.43" y1="498.98" x2="239.57" y2="498.98" fill="none" stroke="#ffefe4" stroke-linecap="round" stroke-linejoin="round"/>
  <line x1="227.83" y1="510.73" x2="186.38" y2="510.73" fill="none" stroke="#ffefe4" stroke-linecap="round" stroke-linejoin="round"/>
  <line x1="155.55" y1="511.03" x2="75.32" y2="511.03" fill="none" stroke="#ffefe4" stroke-linecap="round" stroke-linejoin="round"/>
  <polyline points="306.77 500.02 306.77 413.43 354.32 413.43 354.32 438.69" fill="none" stroke="#ffefe4" stroke-linecap="round" stroke-linejoin="round"/>
  <polyline points="344.72 413.21 344.72 378.75 358.85 378.75" fill="none" stroke="#ffefe4" stroke-linecap="round" stroke-linejoin="round"/>
  <polyline points="554.73 249.06 554.73 347.96 576.07 347.96 576.07 368.89 572.88 368.89" fill="none" stroke="#ffefe4" stroke-linecap="round" stroke-linejoin="round"/>
  <polyline points="554.73 218.24 554.73 57.69 519.37 57.69" fill="none" stroke="#ffefe4" stroke-linecap="round" stroke-linejoin="round"/>
  <line x1="507.63" y1="69.65" x2="285.17" y2="69.65" fill="none" stroke="#ffefe4" stroke-linecap="round" stroke-linejoin="round"/>
  <line x1="257.45" y1="68.3" x2="63.27" y2="68.3" fill="none" stroke="#ffefe4" stroke-linecap="round" stroke-linejoin="round"/>
  <line x1="113.04" y1="120.51" x2="62.71" y2="120.51" fill="none" stroke="#ffefe4" stroke-linecap="round" stroke-linejoin="round"/>
  <polyline points="591.37 508.57 591.37 588.9 552.42 588.9" fill="none" stroke="#ffefe4" stroke-linecap="round" stroke-linejoin="round"/>
  <line x1="516.75" y1="589.28" x2="401.24" y2="589.28" fill="none" stroke="#ffefe4" stroke-linecap="round" stroke-linejoin="round"/>
  <line x1="370.41" y1="589.14" x2="75.32" y2="589.14" fill="none" stroke="#ffefe4" stroke-linecap="round" stroke-linejoin="round"/>
  <line x1="447.87" y1="634.22" x2="594.41" y2="634.22" fill="none" stroke="#ffefe4" stroke-linecap="round" stroke-linejoin="round"/>
  <line x1="788.79" y1="644.75" x2="607.47" y2="646.16" fill="none" stroke="#ffefe4" stroke-linecap="round" stroke-linejoin="round"/>
  <polyline points="819.61 644.75 978.2 644.75 978.2 565.06" fill="none" stroke="#ffefe4" stroke-linecap="round" stroke-linejoin="round"/>
  <line x1="986.05" y1="564.94" x2="974.31" y2="564.94" fill="none" stroke="#ffefe4" stroke-linecap="round" stroke-linejoin="round"/>
  <line x1="955.6" y1="565.36" x2="943.12" y2="565.36" fill="none" stroke="#ffefe4" stroke-linecap="round" stroke-linejoin="round"/>
  <line x1="890.06" y1="565.92" x2="843.58" y2="564.58" fill="none" stroke="#ffefe4" stroke-linecap="round" stroke-linejoin="round"/>
  <line x1="874.46" y1="565.47" x2="874.46" y2="533.37" fill="none" stroke="#ffefe4" stroke-linecap="round" stroke-linejoin="round"/>
  <line x1="874.12" y1="504.39" x2="874.12" y2="415.21" fill="none" stroke="#ffefe4" stroke-linecap="round" stroke-linejoin="round"/>
  <polyline points="872.89 471.28 839.35 471.28 839.35 380.95 897.21 380.95" fill="none" stroke="#ffefe4" stroke-linecap="round" stroke-linejoin="round"/>
  <line x1="839.35" y1="380.95" x2="810" y2="380.95" fill="none" stroke="#ffefe4" stroke-linecap="round" stroke-linejoin="round"/>
  <polyline points="794.26 430.87 794.26 439.77 591.26 439.77 591.26 477.75" fill="none" stroke="#ffefe4" stroke-linecap="round" stroke-linejoin="round"/>
  <polyline points="804.2 629.34 804.2 564.75 813.88 564.75" fill="none" stroke="#ffefe4" stroke-linecap="round" stroke-linejoin="round"/>
  <polyline points="912.62 365.81 912.62 289.61 1000.09 289.61 1000.09 348.68" fill="none" stroke="#ffefe4" stroke-linecap="round" stroke-linejoin="round"/>
  <g>
    <path d="M50.39,589.95c0-6.11,4.97-11.09,11.09-11.09s11.09,4.97,11.09,11.09-4.97,11.09-11.09,11.09-11.09-4.97-11.09-11.09M47.63,589.95c0,7.64,6.2,13.84,13.84,13.84s13.84-6.2,13.84-13.84-6.2-13.84-13.84-13.84-13.84,6.2-13.84,13.84" fill="#ffefe4"/>
    <path d="M50.39,510.67c0-6.11,4.97-11.09,11.09-11.09s11.09,4.97,11.09,11.09-4.97,11.09-11.09,11.09-11.09-4.97-11.09-11.09M47.63,510.67c0,7.64,6.2,13.84,13.84,13.84s13.84-6.2,13.84-13.84-6.2-13.84-13.84-13.84-13.84,6.2-13.84,13.84" fill="#ffefe4"/>
    <path d="M346.54,450.44c0-4.96,4.03-8.99,8.99-8.99s8.99,4.03,8.99,8.99-4.04,8.99-8.99,8.99-8.99-4.03-8.99-8.99M343.79,450.44c0,6.49,5.26,11.75,11.75,11.75s11.75-5.26,11.75-11.75-5.26-11.75-11.75-11.75-11.75,5.26-11.75,11.75" fill="#ffefe4"/>
    <path d="M361.6,377.15c0-4.96,4.03-8.99,8.99-8.99s8.99,4.03,8.99,8.99-4.04,8.99-8.99,8.99-8.99-4.03-8.99-8.99M358.85,377.15c0,6.49,5.26,11.75,11.75,11.75s11.75-5.26,11.75-11.75-5.26-11.75-11.75-11.75-11.75,5.26-11.75,11.75" fill="#ffefe4"/>
    <path d="M200.47,323.94c0-4.96,4.03-8.99,8.99-8.99s8.99,4.03,8.99,8.99-4.04,8.99-8.99,8.99-8.99-4.03-8.99-8.99M197.72,323.94c0,6.49,5.26,11.75,11.75,11.75s11.75-5.26,11.75-11.75-5.26-11.75-11.75-11.75-11.75,5.26-11.75,11.75" fill="#ffefe4"/>
    <path d="M218.83,498.98c0-4.96,4.03-8.99,8.99-8.99s8.99,4.03,8.99,8.99-4.04,8.99-8.99,8.99-8.99-4.03-8.99-8.99M216.08,498.98c0,6.49,5.26,11.75,11.75,11.75s11.75-5.26,11.75-11.75-5.26-11.75-11.75-11.75-11.75,5.26-11.75,11.75" fill="#ffefe4"/>
    <path d="M216.03,251.16c0-4.96,4.03-8.99,8.99-8.99s8.99,4.03,8.99,8.99-4.04,8.99-8.99,8.99-8.99-4.03-8.99-8.99M213.28,251.16c0,6.49,5.26,11.75,11.75,11.75s11.75-5.26,11.75-11.75-5.26-11.75-11.75-11.75-11.75,5.26-11.75,11.75" fill="#ffefe4"/>
    <path d="M259.7,178c0-2.84,2.31-5.15,5.15-5.15s5.15,2.31,5.15,5.15-2.31,5.15-5.15,5.15-5.15-2.31-5.15-5.15M256.95,178c0,4.37,3.54,7.9,7.9,7.9s7.9-3.54,7.9-7.9-3.54-7.9-7.9-7.9-7.9,3.54-7.9,7.9" fill="#ffefe4"/>
    <path d="M252.38,292.08c0-2.84,2.31-5.15,5.15-5.15s5.15,2.31,5.15,5.15-2.31,5.15-5.15,5.15-5.15-2.31-5.15-5.15M249.63,292.08c0,4.36,3.54,7.9,7.9,7.9s7.9-3.54,7.9-7.9-3.54-7.9-7.9-7.9-7.9,3.54-7.9,7.9" fill="#ffefe4"/>
    <path d="M274.86,255.75c0-2.84,2.31-5.15,5.15-5.15s5.15,2.31,5.15,5.15-2.31,5.15-5.15,5.15-5.15-2.31-5.15-5.15M272.11,255.75c0,4.37,3.54,7.9,7.9,7.9s7.9-3.54,7.9-7.9-3.54-7.9-7.9-7.9-7.9,3.54-7.9,7.9" fill="#ffefe4"/>
    <path d="M170.02,107.87c0-4.96,4.03-8.99,8.99-8.99s8.99,4.03,8.99,8.99-4.04,8.99-8.99,8.99-8.99-4.03-8.99-8.99M167.27,107.87c0,6.49,5.26,11.75,11.75,11.75s11.75-5.26,11.75-11.75-5.26-11.75-11.75-11.75-11.75,5.26-11.75,11.75" fill="#ffefe4"/>
    <path d="M337.51,127.68c0-4.96,4.03-8.99,8.99-8.99s8.99,4.03,8.99,8.99-4.04,8.99-8.99,8.99-8.99-4.03-8.99-8.99M334.75,127.68c0,6.49,5.26,11.75,11.75,11.75s11.75-5.26,11.75-11.75-5.26-11.75-11.75-11.75-11.75,5.26-11.75,11.75" fill="#ffefe4"/>
    <path d="M484.08,253.67c0-4.96,4.03-8.99,8.99-8.99s8.99,4.03,8.99,8.99-4.04,8.99-8.99,8.99-8.99-4.03-8.99-8.99M481.32,253.67c0,6.49,5.26,11.75,11.75,11.75s11.75-5.26,11.75-11.75-5.26-11.75-11.75-11.75-11.75,5.26-11.75,11.75" fill="#ffefe4"/>
    <path d="M498.63,57.91c0-4.96,4.03-8.99,8.99-8.99s8.99,4.03,8.99,8.99-4.04,8.99-8.99,8.99-8.99-4.03-8.99-8.99M495.88,57.91c0,6.49,5.26,11.75,11.75,11.75s11.75-5.26,11.75-11.75-5.26-11.75-11.75-11.75-11.75,5.26-11.75,11.75" fill="#ffefe4"/>
    <path d="M657.75,119.24c0-7.17,5.84-13.01,13.01-13.01s13.01,5.83,13.01,13.01-5.84,13.01-13.01,13.01-13.01-5.83-13.01-13.01M655,119.24c0,8.7,7.06,15.76,15.76,15.76s15.76-7.06,15.76-15.76-7.06-15.76-15.76-15.76-15.76,7.06-15.76,15.76" fill="#ffefe4"/>
    <path d="M737.56,114.63c0-7.17,5.84-13.01,13.01-13.01s13.01,5.83,13.01,13.01-5.84,13.01-13.01,13.01-13.01-5.83-13.01-13.01M734.81,114.63c0,8.7,7.06,15.76,15.76,15.76s15.76-7.06,15.76-15.76-7.06-15.76-15.76-15.76-15.76,7.06-15.76,15.76" fill="#ffefe4"/>
    <path d="M781.23,381.17c0-7.17,5.84-13.01,13.01-13.01s13.01,5.83,13.01,13.01-5.84,13.01-13.01,13.01-13.01-5.83-13.01-13.01M778.48,381.17c0,8.7,7.06,15.76,15.76,15.76s15.76-7.06,15.76-15.76-7.06-15.76-15.76-15.76-15.76,7.06-15.76,15.76" fill="#ffefe4"/>
    <path d="M706.94,380.66c0-5.54,4.51-10.05,10.05-10.05s10.05,4.51,10.05,10.05-4.51,10.05-10.05,10.05-10.05-4.51-10.05-10.05M704.19,380.66c0,7.07,5.73,12.8,12.8,12.8s12.8-5.73,12.8-12.8-5.73-12.8-12.8-12.8-12.8,5.73-12.8,12.8" fill="#ffefe4"/>
    <path d="M1023.25,565.86c0-5.54,4.51-10.05,10.05-10.05s10.05,4.51,10.05,10.05-4.51,10.05-10.05,10.05-10.05-4.51-10.05-10.05M1020.5,565.86c0,7.07,5.73,12.8,12.8,12.8s12.8-5.73,12.8-12.8-5.73-12.8-12.8-12.8-12.8,5.73-12.8,12.8" fill="#ffefe4"/>
    <path d="M1024.18,364.1c0-5.54,4.51-10.05,10.05-10.05s10.05,4.51,10.05,10.05-4.51,10.05-10.05,10.05-10.05-4.51-10.05-10.05M1021.42,364.1c0,7.07,5.73,12.8,12.8,12.8s12.8-5.73,12.8-12.8-5.73-12.8-12.8-12.8-12.8,5.73-12.8,12.8" fill="#ffefe4"/>
    <path d="M915.25,564.38c0-7.17,5.84-13.01,13.01-13.01s13.01,5.83,13.01,13.01-5.84,13.01-13.01,13.01-13.01-5.83-13.01-13.01M912.5,564.38c0,8.7,7.06,15.76,15.76,15.76s15.76-7.06,15.76-15.76-7.06-15.76-15.76-15.76-15.76,7.06-15.76,15.76" fill="#ffefe4"/>
    <path d="M38.34,121.66c0-6.11,4.97-11.09,11.09-11.09s11.09,4.97,11.09,11.09-4.97,11.09-11.09,11.09-11.09-4.97-11.09-11.09M35.59,121.66c0,7.64,6.2,13.84,13.84,13.84s13.84-6.2,13.84-13.84-6.2-13.84-13.84-13.84-13.84,6.2-13.84,13.84" fill="#ffefe4"/>
    <path d="M38.34,68.85c0-6.11,4.97-11.09,11.09-11.09s11.09,4.97,11.09,11.09-4.97,11.09-11.09,11.09-11.09-4.97-11.09-11.09M35.59,68.85c0,7.64,6.2,13.84,13.84,13.84s13.84-6.2,13.84-13.84-6.2-13.84-13.84-13.84-13.84,6.2-13.84,13.84" fill="#ffefe4"/>
    <path d="M420.94,634.22l11.52-11.52,11.52,11.52-11.52,11.52-11.52-11.52ZM417.05,634.22l15.41,15.41,15.41-15.41-15.41-15.41-15.41,15.41Z" fill="#ffefe4"/>
    <path d="M579.85,493.16l11.52-11.52,11.52,11.52-11.52,11.52-11.52-11.52ZM575.96,493.16l15.41,15.41,15.41-15.41-15.41-15.41-15.41,15.41Z" fill="#ffefe4"/>
    <path d="M792.68,644.75l11.52-11.52,11.52,11.52-11.52,11.52-11.52-11.52ZM788.79,644.75l15.41,15.41,15.41-15.41-15.41-15.41-15.41,15.41Z" fill="#ffefe4"/>
    <path d="M817.78,564.44l11.52-11.52,11.52,11.52-11.52,11.52-11.52-11.52ZM813.88,564.44l15.41,15.41,15.41-15.41-15.41-15.41-15.41,15.41Z" fill="#ffefe4"/>
    <path d="M745.5,379.22l11.52-11.52,11.52,11.52-11.52,11.52-11.52-11.52ZM741.6,379.22l15.41,15.41,15.41-15.41-15.41-15.41-15.41,15.41Z" fill="#ffefe4"/>
    <path d="M862.95,518.76l11.52-11.52,11.52,11.52-11.52,11.52-11.52-11.52ZM859.06,518.76l15.41,15.41,15.41-15.41-15.41-15.41-15.41,15.41Z" fill="#ffefe4"/>
    <path d="M901.1,381.23l11.52-11.52,11.52,11.52-11.52,11.52-11.52-11.52ZM897.21,381.23l15.41,15.41,15.41-15.41-15.41-15.41-15.41,15.41Z" fill="#ffefe4"/>
    <path d="M988.34,363.66l11.52-11.52,11.52,11.52-11.52,11.52-11.52-11.52ZM984.45,363.66l15.41,15.41,15.41-15.41-15.41-15.41-15.41,15.41Z" fill="#ffefe4"/>
    <path d="M783.64,346.59l11.52-11.52,11.52,11.52-11.52,11.52-11.52-11.52ZM779.75,346.59l15.41,15.41,15.41-15.41-15.41-15.41-15.41,15.41Z" fill="#ffefe4"/>
    <path d="M783.14,134.77l11.52-11.52,11.52,11.52-11.52,11.52-11.52-11.52ZM779.25,134.77l15.41,15.41,15.41-15.41-15.41-15.41-15.41,15.41Z" fill="#ffefe4"/>
    <path d="M706.35,114.69l10.49-10.49,10.49,10.49-10.49,10.49-10.49-10.49ZM702.45,114.69l14.38,14.38,14.38-14.38-14.38-14.38-14.38,14.38Z" fill="#ffefe4"/>
    <path d="M862.95,399.8l11.52-11.52,11.52,11.52-11.52,11.52-11.52-11.52ZM859.06,399.8l15.41,15.41,15.41-15.41-15.41-15.41-15.41,15.41Z" fill="#ffefe4"/>
    <path d="M784.65,213.07l9.11-9.11,9.11,9.11-9.11,9.11-9.11-9.11ZM780.75,213.07l13,13,13-13-13-13-13,13Z" fill="#ffefe4"/>
    <path d="M785.15,417.87l9.11-9.11,9.11,9.11-9.11,9.11-9.11-9.11ZM781.26,417.87l13,13,13-13-13-13-13,13Z" fill="#ffefe4"/>
    <path d="M487.49,368.18l9.11-9.11,9.11,9.11-9.11,9.11-9.11-9.11ZM483.6,368.18l13,13,13-13-13-13-13,13Z" fill="#ffefe4"/>
    <path d="M558.77,367.67l5.11-5.11,5.11,5.11-5.11,5.11-5.11-5.11ZM554.87,367.67l9,9,9-9-9-9-9,9Z" fill="#ffefe4"/>
    <path d="M855.42,368.18l9.11-9.11,9.11,9.11-9.11,9.11-9.11-9.11ZM851.53,368.18l13,13,13-13-13-13-13,13Z" fill="#ffefe4"/>
    <path d="M989.95,564.94l9.11-9.11,9.11,9.11-9.11,9.11-9.11-9.11ZM986.05,564.94l13,13,13-13-13-13-13,13Z" fill="#ffefe4"/>
    <path d="M958.78,565.44l6.29-6.29,6.29,6.29-6.29,6.29-6.29-6.29ZM954.88,565.44l10.18,10.18,10.19-10.18-10.19-10.18-10.18,10.18Z" fill="#ffefe4"/>
    <path d="M893.02,565.95l6.29-6.29,6.29,6.29-6.29,6.29-6.29-6.29ZM889.13,565.95l10.18,10.18,10.19-10.18-10.19-10.18-10.18,10.18Z" fill="#ffefe4"/>
    <path d="M543.21,233.65l11.52-11.52,11.52,11.52-11.52,11.52-11.52-11.52ZM539.31,233.65l15.41,15.41,15.41-15.41-15.41-15.41-15.41,15.41Z" fill="#ffefe4"/>
    <path d="M261.34,68.3l11.52-11.52,11.52,11.52-11.52,11.52-11.52-11.52ZM257.45,68.3l15.41,15.41,15.41-15.41-15.41-15.41-15.41,15.41Z" fill="#ffefe4"/>
    <path d="M115.78,120.51l11.52-11.52,11.52,11.52-11.52,11.52-11.52-11.52ZM111.88,120.51l15.41,15.41,15.41-15.41-15.41-15.41-15.41,15.41Z" fill="#ffefe4"/>
    <path d="M202.11,107.96l11.52-11.52,11.52,11.52-11.52,11.52-11.52-11.52ZM198.22,107.96l15.41,15.41,15.41-15.41-15.41-15.41-15.41,15.41Z" fill="#ffefe4"/>
    <path d="M348.18,232.44l11.52-11.52,11.52,11.52-11.52,11.52-11.52-11.52ZM344.29,232.44l15.41,15.41,15.41-15.41-15.41-15.41-15.41,15.41Z" fill="#ffefe4"/>
    <path d="M255.32,498.98l11.52-11.52,11.52,11.52-11.52,11.52-11.52-11.52ZM251.43,498.98l15.41,15.41,15.41-15.41-15.41-15.41-15.41,15.41Z" fill="#ffefe4"/>
    <path d="M159.45,511.03l11.52-11.52,11.52,11.52-11.52,11.52-11.52-11.52ZM155.55,511.03l15.41,15.41,15.41-15.41-15.41-15.41-15.41,15.41Z" fill="#ffefe4"/>
    <path d="M626.53,245.2l11.52-11.52,11.52,11.52-11.52,11.52-11.52-11.52ZM622.64,245.2l15.41,15.41,15.41-15.41-15.41-15.41-15.41,15.41Z" fill="#ffefe4"/>
    <path d="M374.31,589.14l11.52-11.52,11.52,11.52-11.52,11.52-11.52-11.52ZM370.41,589.14l15.41,15.41,15.41-15.41-15.41-15.41-15.41,15.41Z" fill="#ffefe4"/>
    <path d="M597.16,633.1c0-5.68,4.62-10.31,10.31-10.31s10.31,4.62,10.31,10.31-4.62,10.31-10.31,10.31-10.31-4.62-10.31-10.31M594.41,633.1c0,7.21,5.85,13.06,13.06,13.06s13.06-5.85,13.06-13.06-5.85-13.06-13.06-13.06-13.06,5.85-13.06,13.06" fill="#ffefe4"/>
    <path d="M519.48,577.49l31.06-9.24v38.33l-31.06-9.24v-19.84ZM516.72,575.44v23.95l36.57,10.88v-45.71l-36.57,10.88Z" fill="#ffefe4"/>
    <path d="M298.18,164.69c0-6.52,5.3-11.82,11.82-11.82s11.82,5.3,11.82,11.82v147.04c0,6.52-5.3,11.82-11.82,11.82s-11.82-5.3-11.82-11.82v-147.04ZM295.42,164.69v147.04c0,8.05,6.53,14.57,14.57,14.57s14.58-6.53,14.58-14.57v-147.04c0-8.05-6.53-14.57-14.58-14.57s-14.57,6.53-14.57,14.57" fill="#ffefe4"/>
    <path d="M442.27,289.87c0-6.52,5.3-11.82,11.82-11.82s11.82,5.3,11.82,11.82v147.04c0,6.52-5.3,11.82-11.82,11.82s-11.82-5.3-11.82-11.82v-147.04ZM439.52,289.87v147.04c0,8.05,6.53,14.57,14.57,14.57s14.58-6.53,14.58-14.57v-147.04c0-8.05-6.53-14.57-14.58-14.57s-14.57,6.53-14.57,14.57" fill="#ffefe4"/>
    <line x1="874.37" y1="385.59" x2="874.2" y2="381.03" fill="#ffefe4"/>
  </g>
  <line x1="1034.22" y1="376.9" x2="1034.22" y2="553.63" fill="none" stroke="#ffefe4" stroke-linecap="round" stroke-linejoin="round"/>
  <line x1="1010.97" y1="564.75" x2="1021.08" y2="564.75" fill="none" stroke="#ffefe4" stroke-linecap="round" stroke-linejoin="round"/>
  <line x1="716.99" y1="367.87" x2="716.99" y2="127.17" fill="none" stroke="#ffefe4" stroke-linecap="round" stroke-linejoin="round"/>
  <line x1="729.79" y1="380.66" x2="743.6" y2="379.77" fill="none" stroke="#ffefe4" stroke-linecap="round" stroke-linejoin="round"/>
  <polyline points="757.01 363.81 757.01 347.13 781.63 346.94" fill="none" stroke="#ffefe4" stroke-linecap="round" stroke-linejoin="round"/>
  <line x1="770.47" y1="379.94" x2="779.36" y2="379.94" fill="none" stroke="#ffefe4" stroke-linecap="round" stroke-linejoin="round"/>
  <polyline points="780.75 213.07 752.93 213.07 752.93 130.39" fill="none" stroke="#ffefe4" stroke-linecap="round" stroke-linejoin="round"/>
  <line x1="780.8" y1="134.77" x2="753.71" y2="134.77" fill="none" stroke="#ffefe4" stroke-linecap="round" stroke-linejoin="round"/>
  <line x1="730.94" y1="114.62" x2="734.99" y2="114.62" fill="none" stroke="#ffefe4" stroke-linecap="round" stroke-linejoin="round" stroke-width=".81"/>
  <polyline points="622.64 245.2 595.93 245.2 595.93 305.15 554.5 305.15" fill="none" stroke="#ffefe4" stroke-linecap="round" stroke-linejoin="round"/>
  <polyline points="638.05 229.79 638.05 118.62 655 118.62" fill="none" stroke="#ffefe4" stroke-linecap="round" stroke-linejoin="round"/>
  <line x1="49.43" y1="107.82" x2="49.43" y2="82.69" fill="none" stroke="#ffefe4" stroke-linecap="round" stroke-linejoin="round"/>
  <circle cx="129" cy="510.42" r="8" fill="#ffefe4"/>
  <circle cx="129" cy="590.42" r="8" fill="#ffefe4"/>
  <circle cx="388" cy="477.42" r="8" fill="#ffefe4"/>
  <circle cx="956" cy="289.42" r="8" fill="#ffefe4"/>
  <circle cx="717" cy="255.42" r="8" fill="#ffefe4"/>
</svg>