<?xml version="1.0" encoding="UTF-8"?>
<svg id="Layer_1" data-name="Layer 1" xmlns="http://www.w3.org/2000/svg" viewBox="0 0 1082.61 706.33">
  <polygon points="225.51 22.66 264.98 22.66 245.26 57.45 205.75 57.45 225.51 22.66" fill="none" stroke="#ffefe4" stroke-linecap="round" stroke-linejoin="round"/>
  <line x1="225.51" y1="22.66" x2="245.26" y2="57.45" fill="none" stroke="#ffefe4" stroke-linecap="round" stroke-linejoin="round"/>
  <polygon points="186.04 161.82 205.75 196.61 166.28 196.61 186.04 161.82" fill="none" stroke="#ffefe4" stroke-linecap="round" stroke-linejoin="round"/>
  <polygon points="205.75 405.35 225.51 440.14 186.04 440.14 205.75 405.35" fill="none" stroke="#ffefe4" stroke-linecap="round" stroke-linejoin="round"/>
  <polygon points="343.91 161.82 363.67 196.61 383.38 231.4 343.91 231.4 324.2 266.19 284.73 266.19 304.49 231.4 324.2 196.61 343.91 161.82" fill="none" stroke="#ffefe4" stroke-linecap="round" stroke-linejoin="round"/>
  <polygon points="324.2 474.93 343.91 509.72 304.49 509.72 324.2 474.93" fill="none" stroke="#ffefe4" stroke-linecap="round" stroke-linejoin="round"/>
  <polygon points="442.61 266.19 462.36 300.98 422.9 300.98 442.61 266.19" fill="none" stroke="#ffefe4" stroke-linecap="round" stroke-linejoin="round"/>
  <polygon points="363.67 405.35 403.14 405.35 383.38 440.14 343.91 440.14 363.67 405.35" fill="none" stroke="#ffefe4" stroke-linecap="round" stroke-linejoin="round"/>
  <polygon points="363.67 474.93 403.14 474.93 383.38 509.72 343.91 509.72 363.67 474.93" fill="none" stroke="#ffefe4" stroke-linecap="round" stroke-linejoin="round"/>
  <polygon points="600.53 57.45 620.24 92.24 640 127.03 600.53 127.03 580.77 161.82 541.3 161.82 561.06 127.03 580.77 92.24 600.53 57.45" fill="none" stroke="#ffefe4" stroke-linecap="round" stroke-linejoin="round"/>
  <polygon points="482.12 266.19 501.83 300.98 462.36 300.98 482.12 266.19" fill="none" stroke="#ffefe4" stroke-linecap="round" stroke-linejoin="round"/>
  <polygon points="541.3 509.72 561.06 544.5 580.77 579.3 541.3 579.3 521.55 614.08 482.12 614.08 501.83 579.3 521.55 544.5 541.3 509.72" fill="none" stroke="#ffefe4" stroke-linecap="round" stroke-linejoin="round"/>
  <polygon points="679.47 405.35 699.22 440.14 659.75 440.14 679.47 405.35" fill="none" stroke="#ffefe4" stroke-linecap="round" stroke-linejoin="round"/>
  <polygon points="679.47 474.93 699.22 509.72 659.75 509.72 679.47 474.93" fill="none" stroke="#ffefe4" stroke-linecap="round" stroke-linejoin="round"/>
  <polygon points="640 474.93 659.75 509.72 620.24 509.72 640 474.93" fill="none" stroke="#ffefe4" stroke-linecap="round" stroke-linejoin="round"/>
  <polygon points="699.22 231.4 718.98 266.19 679.47 266.19 699.22 231.4" fill="none" stroke="#ffefe4" stroke-linecap="round" stroke-linejoin="round"/>
  <polygon points="738.69 300.98 718.98 335.77 758.45 335.77 778.2 300.98 817.63 300.98 837.39 266.19 758.45 266.19 738.69 300.98" fill="none" stroke="#ffefe4" stroke-linecap="round" stroke-linejoin="round"/>
  <polygon points="817.63 579.3 837.39 614.08 857.1 648.87 817.63 648.87 797.92 683.66 758.45 683.66 778.2 648.87 817.63 579.3" fill="none" stroke="#ffefe4" stroke-linecap="round" stroke-linejoin="round"/>
  <polygon points="837.39 57.45 876.85 57.45 857.1 92.24 876.85 127.03 797.92 127.03 817.63 92.24 837.39 57.45" fill="none" stroke="#ffefe4" stroke-linecap="round" stroke-linejoin="round"/>
  <polygon points="896.61 300.98 936.08 300.98 916.32 335.77 876.85 335.77 896.61 300.98" fill="none" stroke="#ffefe4" stroke-linecap="round" stroke-linejoin="round"/>
  <polygon points="896.61 370.56 936.08 370.56 916.32 405.35 876.85 405.35 896.61 370.56" fill="none" stroke="#ffefe4" stroke-linecap="round" stroke-linejoin="round"/>
  <polygon points="857.1 370.56 876.85 405.35 837.39 405.35 857.1 370.56" fill="none" stroke="#ffefe4" stroke-linecap="round" stroke-linejoin="round"/>
  <polygon points="146.53 231.4 166.28 196.61 186.04 231.4 166.28 266.19 186.04 300.98 166.28 335.77 146.53 300.98 126.81 335.77 107.06 300.98 126.81 266.19 107.06 231.4 126.81 196.61 146.53 231.4" fill="none" stroke="#ffefe4" stroke-linecap="round" stroke-linejoin="round"/>
  <polygon points="107.06 579.3 126.81 614.08 107.06 648.87 87.34 614.08 107.06 579.3" fill="none" stroke="#ffefe4" stroke-linecap="round" stroke-linejoin="round"/>
  <polygon points="245.26 405.35 264.98 370.56 284.69 405.35 264.98 440.14 245.26 474.93 205.75 405.35 225.51 370.56 245.26 405.35" fill="none" stroke="#ffefe4" stroke-linecap="round" stroke-linejoin="round"/>
  <polygon points="324.2 544.5 343.91 579.29 363.67 614.08 343.91 648.87 324.2 683.66 284.73 683.66 264.97 648.87 284.73 614.08 304.49 648.87 324.2 614.08 304.49 579.29 324.2 544.5" fill="none" stroke="#ffefe4" stroke-linecap="round" stroke-linejoin="round"/>
  <polygon points="363.67 127.03 383.38 161.82 403.14 196.61 383.38 231.4 363.67 196.61 343.91 161.82 363.67 127.03" fill="none" stroke="#ffefe4" stroke-linecap="round" stroke-linejoin="round"/>
  <polygon points="422.9 300.98 442.61 335.77 422.9 370.56 403.14 405.35 383.38 370.56 422.9 300.98" fill="none" stroke="#ffefe4" stroke-linecap="round" stroke-linejoin="round"/>
  <polygon points="541.3 161.82 561.06 196.61 580.77 231.4 561.06 266.19 580.77 300.98 561.06 335.77 541.3 300.98 521.55 335.77 501.83 300.98 482.12 266.19 501.83 231.4 521.55 266.19 541.3 231.4 521.55 196.61 541.3 161.82" fill="none" stroke="#ffefe4" stroke-linecap="round" stroke-linejoin="round"/>
  <polygon points="541.3 579.3 561.06 614.08 541.3 648.87 521.55 683.66 501.83 648.87 521.55 614.08 541.3 579.3" fill="none" stroke="#ffefe4" stroke-linecap="round" stroke-linejoin="round"/>
  <polygon points="640 544.5 659.75 579.29 679.47 614.08 659.75 648.87 640 683.66 620.24 648.87 640 614.08 620.24 579.29 640 544.5" fill="none" stroke="#ffefe4" stroke-linecap="round" stroke-linejoin="round"/>
  <polygon points="699.22 22.66 718.98 57.45 738.69 92.24 718.98 127.03 699.22 161.82 679.47 127.03 699.22 92.24 679.47 57.45 699.22 22.66" fill="none" stroke="#ffefe4" stroke-linecap="round" stroke-linejoin="round"/>
  <polygon points="718.98 335.77 738.69 370.56 758.41 405.35 738.69 440.14 718.98 405.35 699.22 440.14 679.47 405.35 699.22 370.56 718.98 335.77" fill="none" stroke="#ffefe4" stroke-linecap="round" stroke-linejoin="round"/>
  <polygon points="896.61 92.24 916.32 57.45 936.08 92.24 916.32 127.03 936.08 161.82 955.83 196.61 936.08 231.4 916.32 266.19 896.61 231.4 916.32 196.61 896.61 161.82 876.85 127.03 857.1 92.24 876.85 57.45 896.61 92.24" fill="none" stroke="#ffefe4" stroke-linecap="round" stroke-linejoin="round"/>
  <polygon points="837.39 405.35 857.1 440.14 876.85 474.93 896.61 509.71 876.85 544.5 857.1 509.71 837.39 544.5 817.63 509.71 837.39 474.93 817.63 440.14 837.39 405.35" fill="none" stroke="#ffefe4" stroke-linecap="round" stroke-linejoin="round"/>
  <polygon points="126.81 57.45 146.53 92.24 186.04 161.82 166.28 196.61 146.53 161.82 126.81 127.03 107.06 92.24 126.81 57.45" fill="none" stroke="#ffefe4" stroke-linecap="round" stroke-linejoin="round"/>
  <polygon points="166.28 335.77 186.04 370.56 205.75 405.35 186.04 440.14 166.28 405.35 146.53 370.56 166.28 335.77" fill="none" stroke="#ffefe4" stroke-linecap="round" stroke-linejoin="round"/>
  <polygon points="304.49 161.82 324.2 127.03 343.91 161.82 324.2 196.61 304.49 231.4 284.73 266.19 264.97 231.4 284.73 196.61 264.97 161.82 284.73 127.03 304.49 161.82" fill="none" stroke="#ffefe4" stroke-linecap="round" stroke-linejoin="round"/>
  <polygon points="324.2 405.35 343.91 370.56 363.67 405.35 343.91 440.14 363.67 474.93 343.91 509.71 324.2 474.93 304.49 509.71 284.73 474.93 304.49 440.14 284.73 405.35 304.49 370.56 324.2 405.35" fill="none" stroke="#ffefe4" stroke-linecap="round" stroke-linejoin="round"/>
  <polygon points="422.9 161.82 442.61 196.61 462.36 231.4 482.12 266.19 462.36 300.98 442.61 266.19 422.9 300.98 403.14 266.19 422.9 231.4 403.14 196.61 422.9 161.82" fill="none" stroke="#ffefe4" stroke-linecap="round" stroke-linejoin="round"/>
  <polygon points="501.83 509.72 521.55 474.93 541.3 509.72 521.55 544.5 501.83 579.3 482.12 614.08 462.36 579.3 482.12 544.5 462.36 509.72 482.12 474.93 501.83 509.72" fill="none" stroke="#ffefe4" stroke-linecap="round" stroke-linejoin="round"/>
  <polygon points="561.06 57.45 580.77 22.66 600.53 57.45 580.77 92.24 561.06 127.03 541.3 161.82 521.55 127.03 501.83 92.24 482.12 57.45 501.83 22.66 521.55 57.45 541.3 92.24 561.06 57.45" fill="none" stroke="#ffefe4" stroke-linecap="round" stroke-linejoin="round"/>
  <polygon points="620.24 370.56 640 405.35 659.75 370.56 679.47 405.35 659.75 440.14 679.47 474.93 659.75 509.72 640 474.93 620.24 509.72 600.53 474.93 620.24 440.14 600.53 405.35 580.77 370.56 600.53 335.77 620.24 370.56" fill="none" stroke="#ffefe4" stroke-linecap="round" stroke-linejoin="round"/>
  <polygon points="699.22 161.82 718.98 196.61 738.69 231.4 758.41 266.19 718.98 335.77 699.22 300.98 718.98 266.19 699.22 231.4 679.47 266.19 659.75 231.4 679.47 196.61 699.22 161.82" fill="none" stroke="#ffefe4" stroke-linecap="round" stroke-linejoin="round"/>
  <polygon points="797.92 544.5 817.63 579.29 778.2 648.87 758.45 683.66 738.69 648.87 758.45 614.08 778.2 579.29 797.92 544.5" fill="none" stroke="#ffefe4" stroke-linecap="round" stroke-linejoin="round"/>
  <polygon points="817.63 22.66 837.39 57.45 817.63 92.24 797.92 127.03 778.2 92.24 797.92 57.45 817.63 22.66" fill="none" stroke="#ffefe4" stroke-linecap="round" stroke-linejoin="round"/>
  <polygon points="857.1 300.98 876.85 266.19 896.61 300.98 876.85 335.77 896.61 370.56 876.85 405.35 857.1 370.56 837.39 405.35 817.63 370.56 837.39 335.77 817.63 300.98 837.39 266.19 857.1 300.98" fill="none" stroke="#ffefe4" stroke-linecap="round" stroke-linejoin="round"/>
  <polygon points="936.08 22.66 975.55 22.66 995.27 57.45 916.32 57.45 936.08 22.66" fill="none" stroke="#ffefe4" stroke-linecap="round" stroke-linejoin="round"/>
  <line x1="936.08" y1="22.66" x2="955.84" y2="57.45" fill="none" stroke="#ffefe4" stroke-linecap="round" stroke-linejoin="round"/>
  <line x1="975.55" y1="22.66" x2="955.83" y2="57.45" fill="none" stroke="#ffefe4" stroke-linecap="round" stroke-linejoin="round"/>
  <polygon points="107.06 22.66 146.53 22.66 166.28 57.45 126.81 57.45 107.06 92.24 87.34 57.45 107.06 22.66" fill="none" stroke="#ffefe4" stroke-linecap="round" stroke-linejoin="round"/>
  <polygon points="126.81 196.61 166.28 196.61 146.53 231.4 126.81 196.61" fill="none" stroke="#ffefe4" stroke-linecap="round" stroke-linejoin="round"/>
  <polygon points="166.28 196.61 245.26 196.61 225.51 231.4 186.04 231.4 166.28 196.61" fill="none" stroke="#ffefe4" stroke-linecap="round" stroke-linejoin="round"/>
  <polygon points="166.28 266.19 205.75 266.19 186.04 300.98 166.28 266.19" fill="none" stroke="#ffefe4" stroke-linecap="round" stroke-linejoin="round"/>
  <polygon points="107.06 579.3 146.53 579.3 126.81 614.08 107.06 579.3" fill="none" stroke="#ffefe4" stroke-linecap="round" stroke-linejoin="round"/>
  <polygon points="264.98 370.56 304.49 370.56 284.73 405.35 264.98 370.56" fill="none" stroke="#ffefe4" stroke-linecap="round" stroke-linejoin="round"/>
  <polygon points="225.51 370.56 264.98 370.56 245.26 405.35 225.51 370.56" fill="none" stroke="#ffefe4" stroke-linecap="round" stroke-linejoin="round"/>
  <polygon points="284.73 614.08 324.2 614.08 304.49 648.87 284.73 614.08" fill="none" stroke="#ffefe4" stroke-linecap="round" stroke-linejoin="round"/>
  <polygon points="363.67 127.03 403.14 127.03 422.9 161.82 403.14 196.61 383.38 161.82 363.67 127.03" fill="none" stroke="#ffefe4" stroke-linecap="round" stroke-linejoin="round"/>
  <polygon points="422.9 300.98 462.36 300.98 442.61 335.77 422.9 300.98" fill="none" stroke="#ffefe4" stroke-linecap="round" stroke-linejoin="round"/>
  <polygon points="324.2 544.5 363.67 544.5 383.38 579.29 363.67 614.08 343.91 579.29 324.2 544.5" fill="none" stroke="#ffefe4" stroke-linecap="round" stroke-linejoin="round"/>
  <polygon points="541.3 161.82 580.77 161.82 600.53 196.61 620.24 231.4 580.77 231.4 561.06 196.61 541.3 161.82" fill="none" stroke="#ffefe4" stroke-linecap="round" stroke-linejoin="round"/>
  <polygon points="501.83 231.4 541.3 231.4 521.55 266.19 501.83 231.4" fill="none" stroke="#ffefe4" stroke-linecap="round" stroke-linejoin="round"/>
  <polygon points="541.3 579.3 580.77 579.3 561.06 614.08 541.3 579.3" fill="none" stroke="#ffefe4" stroke-linecap="round" stroke-linejoin="round"/>
  <polygon points="561.06 266.19 600.53 266.19 580.77 300.98 561.06 266.19" fill="none" stroke="#ffefe4" stroke-linecap="round" stroke-linejoin="round"/>
  <polygon points="640 544.5 679.47 544.5 699.22 579.29 679.47 614.08 659.75 579.29 640 544.5" fill="none" stroke="#ffefe4" stroke-linecap="round" stroke-linejoin="round"/>
  <polygon points="699.22 22.66 738.69 22.66 758.41 57.45 738.69 92.24 718.98 57.45 699.22 22.66" fill="none" stroke="#ffefe4" stroke-linecap="round" stroke-linejoin="round"/>
  <polygon points="758.45 57.45 797.92 57.45 778.2 92.24 738.69 92.24 758.45 57.45" fill="none" stroke="#ffefe4" stroke-linecap="round" stroke-linejoin="round"/>
  <polygon points="738.69 370.56 758.45 405.35 778.2 370.56 758.45 335.77 718.98 335.77 738.69 370.56" fill="none" stroke="#ffefe4" stroke-linecap="round" stroke-linejoin="round"/>
  <polygon points="876.85 57.45 916.32 57.45 896.61 92.24 876.85 57.45" fill="none" stroke="#ffefe4" stroke-linecap="round" stroke-linejoin="round"/>
  <polygon points="837.39 405.35 916.32 405.35 896.61 440.14 916.32 474.93 936.08 509.71 896.61 509.71 876.85 474.93 857.1 440.14 837.39 405.35" fill="none" stroke="#ffefe4" stroke-linecap="round" stroke-linejoin="round"/>
  <polygon points="916.32 57.45 995.27 57.45 975.55 92.24 936.08 92.24 916.32 57.45" fill="none" stroke="#ffefe4" stroke-linecap="round" stroke-linejoin="round"/>
  <polygon points="916.32 127.03 995.27 127.03 975.55 161.82 995.27 196.61 955.84 196.61 936.08 161.82 916.32 127.03" fill="none" stroke="#ffefe4" stroke-linecap="round" stroke-linejoin="round"/>
  <polygon points="186.04 231.4 225.51 231.4 205.75 266.19 166.28 266.19 186.04 231.4" fill="none" stroke="#ffefe4" stroke-linecap="round" stroke-linejoin="round"/>
  <polygon points="186.04 300.98 205.75 335.77 166.28 335.77 186.04 300.98" fill="none" stroke="#ffefe4" stroke-linecap="round" stroke-linejoin="round"/>
  <polygon points="146.53 300.98 166.28 335.77 126.81 335.77 146.53 300.98" fill="none" stroke="#ffefe4" stroke-linecap="round" stroke-linejoin="round"/>
  <polygon points="126.81 614.08 146.53 648.87 107.06 648.87 126.81 614.08" fill="none" stroke="#ffefe4" stroke-linecap="round" stroke-linejoin="round"/>
  <polygon points="284.73 405.35 304.49 440.14 284.73 474.93 264.98 440.14 284.73 405.35" fill="none" stroke="#ffefe4" stroke-linecap="round" stroke-linejoin="round"/>
  <polygon points="264.98 440.14 284.69 474.93 245.26 474.93 264.98 440.14" fill="none" stroke="#ffefe4" stroke-linecap="round" stroke-linejoin="round"/>
  <polygon points="403.14 196.61 422.9 231.4 383.39 231.4 403.14 196.61" fill="none" stroke="#ffefe4" stroke-linecap="round" stroke-linejoin="round"/>
  <polygon points="442.61 335.77 462.36 370.56 482.12 405.35 403.14 405.35 422.9 370.56 442.61 335.77" fill="none" stroke="#ffefe4" stroke-linecap="round" stroke-linejoin="round"/>
  <polygon points="363.67 614.08 383.38 648.87 343.91 648.87 363.67 614.08" fill="none" stroke="#ffefe4" stroke-linecap="round" stroke-linejoin="round"/>
  <polygon points="541.3 300.98 561.06 335.77 521.55 335.77 541.3 300.98" fill="none" stroke="#ffefe4" stroke-linecap="round" stroke-linejoin="round"/>
  <polygon points="561.06 614.08 580.77 648.87 561.06 683.66 521.55 683.66 541.3 648.87 561.06 614.08" fill="none" stroke="#ffefe4" stroke-linecap="round" stroke-linejoin="round"/>
  <polygon points="580.77 231.4 620.24 231.4 600.53 266.19 561.06 266.19 580.77 231.4" fill="none" stroke="#ffefe4" stroke-linecap="round" stroke-linejoin="round"/>
  <polygon points="580.77 300.98 600.53 335.77 561.06 335.77 580.77 300.98" fill="none" stroke="#ffefe4" stroke-linecap="round" stroke-linejoin="round"/>
  <polygon points="679.47 614.08 699.22 648.87 679.47 683.66 640 683.66 659.75 648.87 679.47 614.08" fill="none" stroke="#ffefe4" stroke-linecap="round" stroke-linejoin="round"/>
  <polygon points="738.69 92.24 778.2 92.24 797.92 127.03 758.45 127.03 738.69 161.82 699.22 161.82 718.98 127.03 738.69 92.24" fill="none" stroke="#ffefe4" stroke-linecap="round" stroke-linejoin="round"/>
  <polygon points="718.98 405.35 738.69 440.14 699.22 440.14 718.98 405.35" fill="none" stroke="#ffefe4" stroke-linecap="round" stroke-linejoin="round"/>
  <polygon points="758.45 405.35 778.2 440.14 738.69 440.14 758.45 405.35" fill="none" stroke="#ffefe4" stroke-linecap="round" stroke-linejoin="round"/>
  <polygon points="896.61 509.72 936.08 509.72 916.32 544.5 876.85 544.5 896.61 509.72" fill="none" stroke="#ffefe4" stroke-linecap="round" stroke-linejoin="round"/>
  <polygon points="857.1 509.72 876.85 544.5 837.39 544.5 857.1 509.72" fill="none" stroke="#ffefe4" stroke-linecap="round" stroke-linejoin="round"/>
  <polygon points="936.08 92.24 975.55 92.24 995.27 127.03 916.32 127.03 936.08 92.24" fill="none" stroke="#ffefe4" stroke-linecap="round" stroke-linejoin="round"/>
  <polygon points="955.83 196.61 995.26 196.61 975.55 231.4 995.26 266.19 916.32 266.19 936.08 231.4 955.83 196.61" fill="none" stroke="#ffefe4" stroke-linecap="round" stroke-linejoin="round"/>
  <polygon points="126.81 57.45 205.75 57.45 186.04 92.24 205.75 127.03 186.04 161.82 146.53 92.24 126.81 57.45" fill="none" stroke="#ffefe4" stroke-linecap="round" stroke-linejoin="round"/>
  <polygon points="166.28 335.77 245.26 335.77 264.97 370.56 225.51 370.56 205.75 405.35 186.04 370.56 166.28 335.77" fill="none" stroke="#ffefe4" stroke-linecap="round" stroke-linejoin="round"/>
  <polygon points="284.73 127.03 324.2 127.03 304.49 161.82 284.73 127.03" fill="none" stroke="#ffefe4" stroke-linecap="round" stroke-linejoin="round"/>
  <polygon points="304.49 370.56 343.91 370.56 324.2 405.35 304.49 370.56" fill="none" stroke="#ffefe4" stroke-linecap="round" stroke-linejoin="round"/>
  <polygon points="324.2 127.03 363.67 127.03 343.91 161.82 324.2 127.03" fill="none" stroke="#ffefe4" stroke-linecap="round" stroke-linejoin="round"/>
  <polygon points="422.9 161.82 462.36 161.82 482.12 196.61 501.83 231.4 482.12 266.19 462.36 231.4 442.61 196.61 422.9 161.82" fill="none" stroke="#ffefe4" stroke-linecap="round" stroke-linejoin="round"/>
  <polygon points="343.91 370.56 383.38 370.56 403.14 405.35 363.67 405.35 343.91 370.56" fill="none" stroke="#ffefe4" stroke-linecap="round" stroke-linejoin="round"/>
  <polygon points="343.91 440.14 383.38 440.14 403.14 474.93 363.67 474.93 343.91 440.14" fill="none" stroke="#ffefe4" stroke-linecap="round" stroke-linejoin="round"/>
  <polygon points="521.55 57.45 561.06 57.45 541.3 92.24 521.55 57.45" fill="none" stroke="#ffefe4" stroke-linecap="round" stroke-linejoin="round"/>
  <polygon points="482.12 474.93 521.55 474.93 501.83 509.72 482.12 474.93" fill="none" stroke="#ffefe4" stroke-linecap="round" stroke-linejoin="round"/>
  <polygon points="521.55 474.93 561.06 474.93 541.3 509.72 521.55 474.93" fill="none" stroke="#ffefe4" stroke-linecap="round" stroke-linejoin="round"/>
  <polygon points="580.77 22.66 620.24 22.66 600.53 57.45 580.77 22.66" fill="none" stroke="#ffefe4" stroke-linecap="round" stroke-linejoin="round"/>
  <polygon points="600.53 335.77 640 335.77 659.75 370.56 640 405.35 620.24 370.56 600.53 335.77" fill="none" stroke="#ffefe4" stroke-linecap="round" stroke-linejoin="round"/>
  <polygon points="659.75 370.56 699.22 370.56 679.47 405.35 659.75 370.56" fill="none" stroke="#ffefe4" stroke-linecap="round" stroke-linejoin="round"/>
  <polygon points="659.75 440.14 699.22 440.14 679.47 474.93 659.75 440.14" fill="none" stroke="#ffefe4" stroke-linecap="round" stroke-linejoin="round"/>
  <polygon points="699.22 161.82 738.69 161.82 758.45 196.61 778.2 231.4 797.92 266.19 758.45 266.19 738.69 231.4 718.98 196.61 699.22 161.82" fill="none" stroke="#ffefe4" stroke-linecap="round" stroke-linejoin="round"/>
  <polygon points="817.63 22.66 857.1 22.66 876.85 57.45 837.39 57.45 817.63 22.66" fill="none" stroke="#ffefe4" stroke-linecap="round" stroke-linejoin="round"/>
  <polygon points="837.39 266.19 876.85 266.19 857.1 300.98 837.39 266.19" fill="none" stroke="#ffefe4" stroke-linecap="round" stroke-linejoin="round"/>
  <polygon points="876.85 335.77 916.32 335.77 936.08 370.56 896.61 370.56 876.85 335.77" fill="none" stroke="#ffefe4" stroke-linecap="round" stroke-linejoin="round"/>
  <polygon points="797.92 544.5 837.39 544.5 817.63 579.29 797.92 544.5" fill="none" stroke="#ffefe4" stroke-linecap="round" stroke-linejoin="round"/>
  <polygon points="876.85 266.19 995.26 266.19 975.55 300.98 896.61 300.98 876.85 266.19" fill="none" stroke="#ffefe4" stroke-linecap="round" stroke-linejoin="round"/>
  <polygon points="126.81 474.93 146.53 440.14 166.28 474.93 146.53 509.72 126.81 544.5 107.06 579.3 87.34 544.5 107.06 509.72 87.34 474.93 107.06 440.14 126.81 474.93" fill="none" stroke="#ffefe4" stroke-linecap="round" stroke-linejoin="round"/>
  <polygon points="284.73 57.45 304.49 92.24 284.73 127.03 264.98 92.24 284.73 57.45" fill="none" stroke="#ffefe4" stroke-linecap="round" stroke-linejoin="round"/>
  <polygon points="264.98 22.66 284.69 57.45 264.98 92.24 245.26 57.45 264.98 22.66" fill="none" stroke="#ffefe4" stroke-linecap="round" stroke-linejoin="round"/>
  <polygon points="245.26 196.61 264.98 231.4 245.26 266.19 264.98 300.98 284.69 335.77 264.98 370.56 245.26 335.77 225.51 300.98 205.75 335.77 186.04 300.98 205.75 266.19 225.51 231.4 245.26 196.61" fill="none" stroke="#ffefe4" stroke-linecap="round" stroke-linejoin="round"/>
  <polygon points="245.26 474.93 264.98 509.72 284.73 544.5 304.49 579.3 284.73 614.08 264.98 579.3 245.26 544.5 225.51 509.72 245.26 474.93" fill="none" stroke="#ffefe4" stroke-linecap="round" stroke-linejoin="round"/>
  <polygon points="383.38 231.4 403.14 266.19 383.38 300.98 363.67 266.19 383.38 231.4" fill="none" stroke="#ffefe4" stroke-linecap="round" stroke-linejoin="round"/>
  <polygon points="403.14 614.08 422.9 579.3 442.61 614.08 422.9 648.87 403.14 683.66 383.39 648.87 363.67 614.08 383.39 579.3 403.14 614.08" fill="none" stroke="#ffefe4" stroke-linecap="round" stroke-linejoin="round"/>
  <polygon points="462.36 22.66 482.12 57.45 442.61 127.03 422.9 161.82 383.38 92.24 403.14 57.45 422.9 92.24 442.61 57.45 462.36 22.66" fill="none" stroke="#ffefe4" stroke-linecap="round" stroke-linejoin="round"/>
  <polygon points="462.36 300.98 482.12 335.77 501.83 370.56 521.55 405.35 501.83 440.14 482.12 405.35 462.36 370.56 442.61 335.77 462.36 300.98" fill="none" stroke="#ffefe4" stroke-linecap="round" stroke-linejoin="round"/>
  <polygon points="561.06 474.93 580.77 509.72 600.53 544.5 580.77 579.3 561.06 544.5 541.3 509.72 561.06 474.93" fill="none" stroke="#ffefe4" stroke-linecap="round" stroke-linejoin="round"/>
  <polygon points="600.53 127.03 620.24 161.82 640 196.61 659.75 231.4 640 266.19 620.24 300.98 600.53 335.77 580.77 300.98 600.53 266.19 620.24 231.4 600.53 196.61 580.77 161.82 600.53 127.03" fill="none" stroke="#ffefe4" stroke-linecap="round" stroke-linejoin="round"/>
  <polygon points="778.2 300.98 817.63 370.56 797.92 405.35 778.2 440.14 758.45 405.35 778.2 370.56 758.45 335.77 778.2 300.98" fill="none" stroke="#ffefe4" stroke-linecap="round" stroke-linejoin="round"/>
  <polygon points="718.98 474.93 738.69 440.14 758.41 474.93 738.69 509.72 758.41 544.5 738.69 579.3 718.98 544.5 699.22 579.3 679.47 544.5 699.22 509.72 679.47 474.93 699.22 440.14 718.98 474.93" fill="none" stroke="#ffefe4" stroke-linecap="round" stroke-linejoin="round"/>
  <polygon points="778.2 161.82 797.92 127.03 817.63 161.82 797.92 196.61 817.63 231.4 797.92 266.19 778.2 231.4 758.45 196.61 738.69 161.82 758.45 127.03 778.2 161.82" fill="none" stroke="#ffefe4" stroke-linecap="round" stroke-linejoin="round"/>
  <polygon points="857.1 579.3 876.85 544.5 896.61 579.3 876.85 614.08 896.61 648.87 876.85 683.66 857.1 648.87 837.39 614.08 817.63 579.3 837.39 544.5 857.1 579.3" fill="none" stroke="#ffefe4" stroke-linecap="round" stroke-linejoin="round"/>
  <polygon points="936.08 370.56 955.84 405.35 936.08 440.14 955.84 474.93 936.08 509.72 916.32 474.93 896.61 440.14 916.32 405.35 936.08 370.56" fill="none" stroke="#ffefe4" stroke-linecap="round" stroke-linejoin="round"/>
  <polygon points="166.28 474.93 205.75 474.93 186.04 509.72 166.28 544.5 146.53 579.3 107.06 579.3 126.81 544.5 146.53 509.72 166.28 474.93" fill="none" stroke="#ffefe4" stroke-linecap="round" stroke-linejoin="round"/>
  <polygon points="304.49 92.24 324.2 127.03 284.73 127.03 304.49 92.24" fill="none" stroke="#ffefe4" stroke-linecap="round" stroke-linejoin="round"/>
  <polygon points="264.98 231.4 284.69 266.19 245.26 266.19 264.98 231.4" fill="none" stroke="#ffefe4" stroke-linecap="round" stroke-linejoin="round"/>
  <polygon points="225.51 300.98 245.26 335.77 205.75 335.77 225.51 300.98" fill="none" stroke="#ffefe4" stroke-linecap="round" stroke-linejoin="round"/>
  <polygon points="284.73 335.77 304.49 370.56 264.98 370.56 284.73 335.77" fill="none" stroke="#ffefe4" stroke-linecap="round" stroke-linejoin="round"/>
  <polygon points="304.49 579.3 324.2 614.08 284.73 614.08 304.49 579.3" fill="none" stroke="#ffefe4" stroke-linecap="round" stroke-linejoin="round"/>
  <polygon points="482.12 57.45 501.83 92.24 521.55 127.03 482.12 127.03 462.36 161.82 422.9 161.82 442.61 127.03 482.12 57.45" fill="none" stroke="#ffefe4" stroke-linecap="round" stroke-linejoin="round"/>
  <polygon points="403.14 266.19 422.9 300.98 383.39 300.98 403.14 266.19" fill="none" stroke="#ffefe4" stroke-linecap="round" stroke-linejoin="round"/>
  <polygon points="442.61 614.08 521.55 614.08 501.83 648.87 462.36 648.87 442.61 683.66 403.14 683.66 422.9 648.87 442.61 614.08" fill="none" stroke="#ffefe4" stroke-linecap="round" stroke-linejoin="round"/>
  <polygon points="521.55 405.35 541.3 440.14 501.83 440.14 521.55 405.35" fill="none" stroke="#ffefe4" stroke-linecap="round" stroke-linejoin="round"/>
  <polygon points="659.75 231.4 679.47 266.19 659.75 300.98 640 335.77 600.53 335.77 620.24 300.98 640 266.19 659.75 231.4" fill="none" stroke="#ffefe4" stroke-linecap="round" stroke-linejoin="round"/>
  <polygon points="600.53 544.5 640 544.5 620.24 579.29 580.77 579.29 600.53 544.5" fill="none" stroke="#ffefe4" stroke-linecap="round" stroke-linejoin="round"/>
  <polygon points="758.45 474.93 778.2 509.72 738.69 509.72 758.45 474.93" fill="none" stroke="#ffefe4" stroke-linecap="round" stroke-linejoin="round"/>
  <polygon points="718.98 544.5 738.69 579.29 699.22 579.29 718.98 544.5" fill="none" stroke="#ffefe4" stroke-linecap="round" stroke-linejoin="round"/>
  <polygon points="758.45 544.5 797.92 544.5 778.2 579.29 738.69 579.29 758.45 544.5" fill="none" stroke="#ffefe4" stroke-linecap="round" stroke-linejoin="round"/>
  <polygon points="817.63 161.82 837.39 196.61 797.92 196.61 817.63 161.82" fill="none" stroke="#ffefe4" stroke-linecap="round" stroke-linejoin="round"/>
  <polygon points="817.63 231.4 837.39 266.19 797.92 266.19 817.63 231.4" fill="none" stroke="#ffefe4" stroke-linecap="round" stroke-linejoin="round"/>
  <polygon points="817.63 370.56 837.39 405.35 817.63 440.14 778.2 440.14 797.92 405.35 817.63 370.56" fill="none" stroke="#ffefe4" stroke-linecap="round" stroke-linejoin="round"/>
  <polygon points="896.61 579.3 936.08 579.3 916.32 614.08 876.85 614.08 896.61 579.3" fill="none" stroke="#ffefe4" stroke-linecap="round" stroke-linejoin="round"/>
  <polygon points="896.61 648.87 936.08 648.87 916.32 683.66 876.85 683.66 896.61 648.87" fill="none" stroke="#ffefe4" stroke-linecap="round" stroke-linejoin="round"/>
  <polygon points="955.83 405.35 995.26 405.35 975.55 440.14 936.08 440.14 955.83 405.35" fill="none" stroke="#ffefe4" stroke-linecap="round" stroke-linejoin="round"/>
  <polygon points="955.83 474.93 995.26 474.93 975.55 509.72 936.08 509.72 955.83 474.93" fill="none" stroke="#ffefe4" stroke-linecap="round" stroke-linejoin="round"/>
  <polygon points="107.06 231.4 126.81 266.19 107.06 300.98 87.34 266.19 107.06 231.4" fill="none" stroke="#ffefe4" stroke-linecap="round" stroke-linejoin="round"/>
  <polygon points="146.53 440.14 225.51 440.14 245.26 474.93 166.28 474.93 146.53 440.14" fill="none" stroke="#ffefe4" stroke-linecap="round" stroke-linejoin="round"/>
  <polygon points="107.06 440.14 146.53 440.14 126.81 474.93 107.06 440.14" fill="none" stroke="#ffefe4" stroke-linecap="round" stroke-linejoin="round"/>
  <polygon points="284.73 57.45 324.2 57.45 304.49 92.24 284.73 57.45" fill="none" stroke="#ffefe4" stroke-linecap="round" stroke-linejoin="round"/>
  <polygon points="245.26 196.61 284.69 196.61 264.98 231.4 245.26 196.61" fill="none" stroke="#ffefe4" stroke-linecap="round" stroke-linejoin="round"/>
  <polygon points="264.98 231.4 284.73 266.19 324.2 266.19 304.49 300.98 284.73 335.77 264.98 300.98 245.26 266.19 284.69 266.19 264.98 231.4" fill="none" stroke="#ffefe4" stroke-linecap="round" stroke-linejoin="round"/>
  <polygon points="264.98 440.14 304.49 509.72 383.39 509.72 363.67 544.5 324.2 544.5 304.49 579.3 284.73 544.5 264.98 509.72 245.26 474.93 284.69 474.93 264.98 440.14" fill="none" stroke="#ffefe4" stroke-linecap="round" stroke-linejoin="round"/>
  <polygon points="403.14 57.45 442.61 57.45 422.9 92.24 403.14 57.45" fill="none" stroke="#ffefe4" stroke-linecap="round" stroke-linejoin="round"/>
  <polygon points="383.38 231.4 422.9 231.4 403.14 266.19 383.38 231.4" fill="none" stroke="#ffefe4" stroke-linecap="round" stroke-linejoin="round"/>
  <polygon points="422.9 579.3 462.36 579.3 482.12 614.08 442.61 614.08 422.9 579.3" fill="none" stroke="#ffefe4" stroke-linecap="round" stroke-linejoin="round"/>
  <polygon points="383.38 579.3 422.9 579.3 403.14 614.08 383.38 579.3" fill="none" stroke="#ffefe4" stroke-linecap="round" stroke-linejoin="round"/>
  <polygon points="462.36 22.66 501.83 22.66 482.12 57.45 462.36 22.66" fill="none" stroke="#ffefe4" stroke-linecap="round" stroke-linejoin="round"/>
  <polygon points="462.36 300.98 501.83 300.98 521.55 335.77 561.06 335.77 541.3 370.56 521.55 405.35 501.83 370.56 482.12 335.77 462.36 300.98" fill="none" stroke="#ffefe4" stroke-linecap="round" stroke-linejoin="round"/>
  <polygon points="600.53 127.03 640 127.03 659.75 161.82 620.24 161.82 600.53 127.03" fill="none" stroke="#ffefe4" stroke-linecap="round" stroke-linejoin="round"/>
  <polygon points="620.24 161.82 699.22 161.82 679.47 196.61 659.75 231.4 640 196.61 620.24 161.82" fill="none" stroke="#ffefe4" stroke-linecap="round" stroke-linejoin="round"/>
  <polygon points="561.06 474.93 600.53 474.93 620.24 509.72 699.22 509.72 679.47 544.5 600.53 544.5 580.77 509.72 561.06 474.93" fill="none" stroke="#ffefe4" stroke-linecap="round" stroke-linejoin="round"/>
  <polygon points="758.45 127.03 797.92 127.03 778.2 161.82 758.45 127.03" fill="none" stroke="#ffefe4" stroke-linecap="round" stroke-linejoin="round"/>
  <polygon points="778.2 300.98 817.63 300.98 837.39 335.77 817.63 370.56 778.2 300.98" fill="none" stroke="#ffefe4" stroke-linecap="round" stroke-linejoin="round"/>
  <polygon points="738.69 440.14 778.2 440.14 758.45 474.93 738.69 440.14" fill="none" stroke="#ffefe4" stroke-linecap="round" stroke-linejoin="round"/>
  <polygon points="699.22 440.14 738.69 440.14 718.98 474.93 699.22 440.14" fill="none" stroke="#ffefe4" stroke-linecap="round" stroke-linejoin="round"/>
  <polygon points="738.69 509.72 778.2 509.72 797.92 544.5 758.45 544.5 738.69 509.72" fill="none" stroke="#ffefe4" stroke-linecap="round" stroke-linejoin="round"/>
  <polygon points="797.92 127.03 837.39 127.03 817.63 161.82 797.92 127.03" fill="none" stroke="#ffefe4" stroke-linecap="round" stroke-linejoin="round"/>
  <polygon points="797.92 196.61 837.39 196.61 817.63 231.4 797.92 196.61" fill="none" stroke="#ffefe4" stroke-linecap="round" stroke-linejoin="round"/>
  <polygon points="837.39 544.5 876.85 544.5 857.1 579.29 837.39 544.5" fill="none" stroke="#ffefe4" stroke-linecap="round" stroke-linejoin="round"/>
  <polygon points="876.85 544.5 916.32 544.5 936.08 579.29 896.61 579.29 876.85 544.5" fill="none" stroke="#ffefe4" stroke-linecap="round" stroke-linejoin="round"/>
  <polygon points="876.85 614.08 916.32 614.08 936.08 648.87 896.61 648.87 876.85 614.08" fill="none" stroke="#ffefe4" stroke-linecap="round" stroke-linejoin="round"/>
  <polygon points="936.08 370.56 975.55 370.56 995.27 405.35 955.84 405.35 936.08 370.56" fill="none" stroke="#ffefe4" stroke-linecap="round" stroke-linejoin="round"/>
  <polygon points="936.08 440.14 975.55 440.14 995.27 474.93 955.84 474.93 936.08 440.14" fill="none" stroke="#ffefe4" stroke-linecap="round" stroke-linejoin="round"/>
  <polygon points="107.06 92.24 126.81 127.03 146.53 161.82 166.28 196.61 126.81 196.61 107.06 231.4 87.34 196.61 107.06 161.82 87.34 127.03 107.06 92.24" fill="none" stroke="#ffefe4" stroke-linecap="round" stroke-linejoin="round"/>
  <polygon points="107.06 300.98 126.81 335.77 166.28 335.77 146.53 370.56 166.28 405.35 126.81 405.35 107.06 370.56 87.34 335.77 107.06 300.98" fill="none" stroke="#ffefe4" stroke-linecap="round" stroke-linejoin="round"/>
  <polygon points="166.28 614.08 205.75 614.08 225.51 648.87 186.04 648.87 166.28 614.08" fill="none" stroke="#ffefe4" stroke-linecap="round" stroke-linejoin="round"/>
  <polygon points="205.75 57.45 245.26 57.45 264.97 92.24 284.69 127.03 264.97 161.82 245.26 127.03 205.75 57.45" fill="none" stroke="#ffefe4" stroke-linecap="round" stroke-linejoin="round"/>
  <polygon points="205.75 474.93 245.26 474.93 225.51 509.72 205.75 474.93" fill="none" stroke="#ffefe4" stroke-linecap="round" stroke-linejoin="round"/>
  <polygon points="205.75 544.5 245.26 544.5 264.97 579.29 284.69 614.08 245.26 614.08 225.51 579.29 205.75 544.5" fill="none" stroke="#ffefe4" stroke-linecap="round" stroke-linejoin="round"/>
  <polygon points="343.91 22.66 383.38 22.66 403.14 57.45 383.38 92.24 363.67 57.45 343.91 22.66" fill="none" stroke="#ffefe4" stroke-linecap="round" stroke-linejoin="round"/>
  <polygon points="343.91 231.4 383.38 231.4 363.67 266.19 343.91 231.4" fill="none" stroke="#ffefe4" stroke-linecap="round" stroke-linejoin="round"/>
  <polygon points="343.91 300.98 422.9 300.98 403.14 335.77 363.67 335.77 343.91 300.98" fill="none" stroke="#ffefe4" stroke-linecap="round" stroke-linejoin="round"/>
  <polygon points="403.14 405.35 442.61 405.35 422.9 440.14 403.14 405.35" fill="none" stroke="#ffefe4" stroke-linecap="round" stroke-linejoin="round"/>
  <polygon points="422.9 509.72 462.36 509.72 482.12 544.5 442.61 544.5 422.9 509.72" fill="none" stroke="#ffefe4" stroke-linecap="round" stroke-linejoin="round"/>
  <polygon points="482.12 127.03 521.55 127.03 541.3 161.82 521.55 196.61 501.83 161.82 482.12 127.03" fill="none" stroke="#ffefe4" stroke-linecap="round" stroke-linejoin="round"/>
  <polygon points="442.61 405.35 482.12 405.35 501.83 440.14 462.36 440.14 442.61 405.35" fill="none" stroke="#ffefe4" stroke-linecap="round" stroke-linejoin="round"/>
  <polygon points="640 57.45 679.47 57.45 699.22 92.24 679.47 127.03 659.75 92.24 640 57.45" fill="none" stroke="#ffefe4" stroke-linecap="round" stroke-linejoin="round"/>
  <polygon points="561.06 335.77 600.53 335.77 580.77 370.56 561.06 335.77" fill="none" stroke="#ffefe4" stroke-linecap="round" stroke-linejoin="round"/>
  <polygon points="561.06 405.35 600.53 405.35 620.24 440.14 580.77 440.14 561.06 405.35" fill="none" stroke="#ffefe4" stroke-linecap="round" stroke-linejoin="round"/>
  <polygon points="580.77 579.3 620.24 579.3 640 614.08 600.53 614.08 580.77 579.3" fill="none" stroke="#ffefe4" stroke-linecap="round" stroke-linejoin="round"/>
  <polygon points="679.47 266.19 718.98 266.19 699.22 300.98 679.47 266.19" fill="none" stroke="#ffefe4" stroke-linecap="round" stroke-linejoin="round"/>
  <polygon points="699.22 579.3 778.2 579.3 758.45 614.08 738.69 648.87 758.41 614.08 718.98 614.08 699.22 579.3" fill="none" stroke="#ffefe4" stroke-linecap="round" stroke-linejoin="round"/>
  <polygon points="837.39 127.03 876.85 127.03 896.61 161.82 916.32 196.61 876.85 196.61 857.1 161.82 837.39 127.03" fill="none" stroke="#ffefe4" stroke-linecap="round" stroke-linejoin="round"/>
  <polygon points="778.2 440.14 817.63 440.14 837.39 474.93 817.63 509.72 778.2 440.14" fill="none" stroke="#ffefe4" stroke-linecap="round" stroke-linejoin="round"/>
  <polygon points="936.08 300.98 975.55 300.98 995.27 335.77 955.84 335.77 936.08 300.98" fill="none" stroke="#ffefe4" stroke-linecap="round" stroke-linejoin="round"/>
  <polygon points="936.08 509.72 975.55 509.72 995.27 544.5 975.55 579.3 955.84 544.5 936.08 509.72" fill="none" stroke="#ffefe4" stroke-linecap="round" stroke-linejoin="round"/>
  <polygon points="205.75 57.45 245.26 127.03 264.97 161.82 245.26 196.61 225.51 161.82 205.75 196.61 186.04 161.82 205.75 127.03 186.04 92.24 205.75 57.45" fill="none" stroke="#ffefe4" stroke-linecap="round" stroke-linejoin="round"/>
  <polygon points="107.06 370.56 126.81 405.35 107.06 440.14 87.34 405.35 107.06 370.56" fill="none" stroke="#ffefe4" stroke-linecap="round" stroke-linejoin="round"/>
  <polygon points="343.91 22.66 363.67 57.45 383.38 92.24 363.67 127.03 343.91 92.24 324.2 127.03 304.49 92.24 324.2 57.45 343.91 22.66" fill="none" stroke="#ffefe4" stroke-linecap="round" stroke-linejoin="round"/>
  <polygon points="343.91 231.4 363.67 266.19 343.91 300.98 363.67 335.77 343.91 370.56 324.2 335.77 304.49 370.56 284.73 335.77 304.49 300.98 324.2 266.19 343.91 231.4" fill="none" stroke="#ffefe4" stroke-linecap="round" stroke-linejoin="round"/>
  <polygon points="205.75 474.93 225.51 509.72 205.75 544.5 225.51 579.3 245.26 614.08 225.51 648.87 205.75 614.08 186.04 579.3 166.28 614.08 186.04 648.87 166.28 683.66 146.53 648.87 126.81 614.08 146.53 579.3 166.28 544.5 186.04 509.72 205.75 474.93" fill="none" stroke="#ffefe4" stroke-linecap="round" stroke-linejoin="round"/>
  <polygon points="422.9 440.14 442.61 405.35 462.36 440.14 442.61 474.93 422.9 509.72 442.61 544.5 422.9 579.3 403.14 544.5 383.38 579.3 363.67 544.5 383.38 509.72 403.14 474.93 383.38 440.14 403.14 405.35 422.9 440.14" fill="none" stroke="#ffefe4" stroke-linecap="round" stroke-linejoin="round"/>
  <polygon points="482.12 127.03 501.83 161.82 521.55 196.61 501.83 231.4 482.12 196.61 462.36 161.82 482.12 127.03" fill="none" stroke="#ffefe4" stroke-linecap="round" stroke-linejoin="round"/>
  <polygon points="620.24 22.66 640 57.45 659.75 92.24 679.47 127.03 659.75 161.82 640 127.03 620.24 92.24 600.53 57.45 620.24 22.66" fill="none" stroke="#ffefe4" stroke-linecap="round" stroke-linejoin="round"/>
  <polygon points="561.06 335.77 580.77 370.56 561.06 405.35 580.77 440.14 561.06 474.93 541.3 440.14 521.55 405.35 541.3 370.56 561.06 335.77" fill="none" stroke="#ffefe4" stroke-linecap="round" stroke-linejoin="round"/>
  <polygon points="679.47 266.19 699.22 300.98 679.47 335.77 659.75 370.56 640 335.77 659.75 300.98 679.47 266.19" fill="none" stroke="#ffefe4" stroke-linecap="round" stroke-linejoin="round"/>
  <polygon points="580.77 579.3 600.53 614.08 580.77 648.87 561.06 614.08 580.77 579.3" fill="none" stroke="#ffefe4" stroke-linecap="round" stroke-linejoin="round"/>
  <polygon points="778.2 440.14 817.63 509.72 797.92 544.5 778.2 509.72 758.45 474.93 778.2 440.14" fill="none" stroke="#ffefe4" stroke-linecap="round" stroke-linejoin="round"/>
  <polygon points="699.22 579.3 718.98 614.08 699.22 648.87 679.47 614.08 699.22 579.3" fill="none" stroke="#ffefe4" stroke-linecap="round" stroke-linejoin="round"/>
  <polygon points="837.39 127.03 857.1 161.82 876.85 196.61 857.1 231.4 837.39 266.19 817.63 231.4 837.39 196.61 817.63 161.82 837.39 127.03" fill="none" stroke="#ffefe4" stroke-linecap="round" stroke-linejoin="round"/>
  <polygon points="936.08 300.98 955.84 335.77 936.08 370.56 916.32 335.77 936.08 300.98" fill="none" stroke="#ffefe4" stroke-linecap="round" stroke-linejoin="round"/>
  <polygon points="936.08 509.72 955.84 544.5 975.55 579.3 955.84 614.08 936.08 648.87 916.32 614.08 936.08 579.3 916.32 544.5 936.08 509.72" fill="none" stroke="#ffefe4" stroke-linecap="round" stroke-linejoin="round"/>
  <polygon points="126.81 405.35 166.28 405.35 186.04 440.14 107.06 440.14 126.81 405.35" fill="none" stroke="#ffefe4" stroke-linecap="round" stroke-linejoin="round"/>
  <polygon points="186.04 579.3 205.75 614.08 166.28 614.08 186.04 579.3" fill="none" stroke="#ffefe4" stroke-linecap="round" stroke-linejoin="round"/>
  <polygon points="186.04 648.87 225.51 648.87 205.75 683.66 166.28 683.66 186.04 648.87" fill="none" stroke="#ffefe4" stroke-linecap="round" stroke-linejoin="round"/>
  <polygon points="264.98 161.82 284.69 196.61 245.26 196.61 264.98 161.82" fill="none" stroke="#ffefe4" stroke-linecap="round" stroke-linejoin="round"/>
  <polygon points="225.51 161.82 245.26 196.61 205.75 196.61 225.51 161.82" fill="none" stroke="#ffefe4" stroke-linecap="round" stroke-linejoin="round"/>
  <polygon points="324.2 335.77 343.91 370.56 304.49 370.56 324.2 335.77" fill="none" stroke="#ffefe4" stroke-linecap="round" stroke-linejoin="round"/>
  <polygon points="225.51 509.72 245.26 544.5 205.75 544.5 225.51 509.72" fill="none" stroke="#ffefe4" stroke-linecap="round" stroke-linejoin="round"/>
  <polygon points="245.26 614.08 284.69 614.08 264.98 648.87 225.51 648.87 245.26 614.08" fill="none" stroke="#ffefe4" stroke-linecap="round" stroke-linejoin="round"/>
  <polygon points="383.38 92.24 403.14 127.03 363.67 127.03 383.38 92.24" fill="none" stroke="#ffefe4" stroke-linecap="round" stroke-linejoin="round"/>
  <polygon points="343.91 92.24 363.67 127.03 324.2 127.03 343.91 92.24" fill="none" stroke="#ffefe4" stroke-linecap="round" stroke-linejoin="round"/>
  <polygon points="363.67 266.19 383.38 300.98 343.91 300.98 363.67 266.19" fill="none" stroke="#ffefe4" stroke-linecap="round" stroke-linejoin="round"/>
  <polygon points="363.67 335.77 403.14 335.77 383.38 370.56 343.91 370.56 363.67 335.77" fill="none" stroke="#ffefe4" stroke-linecap="round" stroke-linejoin="round"/>
  <polygon points="462.36 440.14 541.3 440.14 561.06 474.93 482.12 474.93 462.36 509.72 422.9 509.72 442.61 474.93 462.36 440.14" fill="none" stroke="#ffefe4" stroke-linecap="round" stroke-linejoin="round"/>
  <polygon points="442.61 544.5 482.12 544.5 462.36 579.29 422.9 579.29 442.61 544.5" fill="none" stroke="#ffefe4" stroke-linecap="round" stroke-linejoin="round"/>
  <polygon points="403.14 544.5 422.9 579.29 383.39 579.29 403.14 544.5" fill="none" stroke="#ffefe4" stroke-linecap="round" stroke-linejoin="round"/>
  <polygon points="521.55 196.61 541.3 231.4 501.83 231.4 521.55 196.61" fill="none" stroke="#ffefe4" stroke-linecap="round" stroke-linejoin="round"/>
  <polygon points="679.47 127.03 699.22 161.82 659.75 161.82 679.47 127.03" fill="none" stroke="#ffefe4" stroke-linecap="round" stroke-linejoin="round"/>
  <polygon points="699.22 300.98 718.98 335.77 699.22 370.56 659.75 370.56 679.47 335.77 699.22 300.98" fill="none" stroke="#ffefe4" stroke-linecap="round" stroke-linejoin="round"/>
  <polygon points="580.77 370.56 600.53 405.35 561.06 405.35 580.77 370.56" fill="none" stroke="#ffefe4" stroke-linecap="round" stroke-linejoin="round"/>
  <polygon points="580.77 440.14 620.24 440.14 600.53 474.93 561.06 474.93 580.77 440.14" fill="none" stroke="#ffefe4" stroke-linecap="round" stroke-linejoin="round"/>
  <polygon points="600.53 614.08 640 614.08 620.24 648.87 580.77 648.87 600.53 614.08" fill="none" stroke="#ffefe4" stroke-linecap="round" stroke-linejoin="round"/>
  <polygon points="718.98 614.08 758.41 614.08 738.69 648.87 699.22 648.87 718.98 614.08" fill="none" stroke="#ffefe4" stroke-linecap="round" stroke-linejoin="round"/>
  <polygon points="876.85 196.61 916.32 196.61 896.61 231.4 916.32 266.19 837.39 266.19 857.1 231.4 876.85 196.61" fill="none" stroke="#ffefe4" stroke-linecap="round" stroke-linejoin="round"/>
  <polygon points="817.63 509.72 837.39 544.5 797.92 544.5 817.63 509.72" fill="none" stroke="#ffefe4" stroke-linecap="round" stroke-linejoin="round"/>
  <polygon points="955.83 335.77 995.26 335.77 975.55 370.56 936.08 370.56 955.83 335.77" fill="none" stroke="#ffefe4" stroke-linecap="round" stroke-linejoin="round"/>
  <polygon points="975.55 579.3 995.27 614.08 975.55 648.87 936.08 648.87 955.83 614.08 975.55 579.3" fill="none" stroke="#ffefe4" stroke-linecap="round" stroke-linejoin="round"/>
</svg>