<?xml version="1.0" encoding="UTF-8"?>
<svg id="Layer_1" data-name="Layer 1" xmlns="http://www.w3.org/2000/svg" viewBox="0 0 1082.61 706.33">
  <polygon points="118.92 672.62 55.45 609.15 40.61 608.96 40.8 623.8 104.27 687.27 119.11 687.46 118.92 672.62" fill="none" stroke="#ffefe4" stroke-linecap="round" stroke-linejoin="round" stroke-width="2.41"/>
  <path d="M58.59,624.53c1.33,0,2.41,1.08,2.41,2.41s-1.08,2.41-2.41,2.41-2.41-1.08-2.41-2.41,1.08-2.41,2.41-2.41" fill="#ffefe4"/>
  <path d="M69.22,635.16c1.33,0,2.41,1.08,2.41,2.41s-1.08,2.41-2.41,2.41-2.41-1.08-2.41-2.41,1.08-2.41,2.41-2.41" fill="#ffefe4"/>
  <path d="M79.86,645.8c1.33,0,2.41,1.08,2.41,2.41s-1.08,2.41-2.41,2.41-2.41-1.08-2.41-2.41,1.08-2.41,2.41-2.41" fill="#ffefe4"/>
  <path d="M101.13,667.07c1.33,0,2.41,1.08,2.41,2.41s-1.08,2.41-2.41,2.41-2.41-1.08-2.41-2.41,1.08-2.41,2.41-2.41" fill="#ffefe4"/>
  <path d="M90.5,656.44c1.33,0,2.41,1.08,2.41,2.41s-1.08,2.41-2.41,2.41-2.41-1.08-2.41-2.41,1.08-2.41,2.41-2.41" fill="#ffefe4"/>
  <polygon points="55.45 602.97 118.92 539.5 119.1 524.66 104.27 524.85 40.8 588.32 40.61 603.16 55.45 602.97" fill="none" stroke="#ffefe4" stroke-linecap="round" stroke-linejoin="round" stroke-width="2.41"/>
  <path d="M103.54,542.64c0,1.33-1.08,2.41-2.41,2.41s-2.41-1.08-2.41-2.41,1.08-2.41,2.41-2.41,2.41,1.08,2.41,2.41" fill="#ffefe4"/>
  <path d="M92.9,553.28c0,1.33-1.08,2.41-2.41,2.41s-2.41-1.08-2.41-2.41,1.08-2.41,2.41-2.41,2.41,1.08,2.41,2.41" fill="#ffefe4"/>
  <path d="M82.27,563.91c0,1.33-1.08,2.41-2.41,2.41s-2.41-1.08-2.41-2.41,1.08-2.41,2.41-2.41,2.41,1.08,2.41,2.41" fill="#ffefe4"/>
  <path d="M61,585.18c0,1.33-1.08,2.41-2.41,2.41s-2.41-1.08-2.41-2.41,1.08-2.41,2.41-2.41,2.41,1.08,2.41,2.41" fill="#ffefe4"/>
  <path d="M71.63,574.55c0,1.33-1.08,2.41-2.41,2.41s-2.41-1.08-2.41-2.41,1.08-2.41,2.41-2.41,2.41,1.08,2.41,2.41" fill="#ffefe4"/>
  <polygon points="125.1 539.5 188.57 602.97 203.41 603.16 203.22 588.32 139.75 524.85 124.91 524.67 125.1 539.5" fill="none" stroke="#ffefe4" stroke-linecap="round" stroke-linejoin="round" stroke-width="2.41"/>
  <path d="M185.43,587.59c-1.33,0-2.41-1.08-2.41-2.41s1.08-2.41,2.41-2.41,2.41,1.08,2.41,2.41-1.08,2.41-2.41,2.41" fill="#ffefe4"/>
  <path d="M174.79,576.96c-1.33,0-2.41-1.08-2.41-2.41s1.08-2.41,2.41-2.41,2.41,1.08,2.41,2.41-1.08,2.41-2.41,2.41" fill="#ffefe4"/>
  <path d="M164.16,566.32c-1.33,0-2.41-1.08-2.41-2.41s1.08-2.41,2.41-2.41,2.41,1.08,2.41,2.41-1.08,2.41-2.41,2.41" fill="#ffefe4"/>
  <path d="M142.89,545.05c-1.33,0-2.41-1.08-2.41-2.41s1.08-2.41,2.41-2.41,2.41,1.08,2.41,2.41-1.08,2.41-2.41,2.41" fill="#ffefe4"/>
  <path d="M153.52,555.68c-1.33,0-2.41-1.08-2.41-2.41s1.08-2.41,2.41-2.41,2.41,1.08,2.41,2.41c0,1.33-1.08,2.41-2.41,2.41" fill="#ffefe4"/>
  <polygon points="188.57 609.15 125.1 672.62 124.91 687.46 139.75 687.27 203.22 623.8 203.4 608.96 188.57 609.15" fill="none" stroke="#ffefe4" stroke-linecap="round" stroke-linejoin="round" stroke-width="2.41"/>
  <path d="M140.48,669.48c0-1.33,1.08-2.41,2.41-2.41s2.41,1.08,2.41,2.41c0,1.33-1.08,2.41-2.41,2.41s-2.41-1.08-2.41-2.41" fill="#ffefe4"/>
  <path d="M151.11,658.85c0-1.33,1.08-2.41,2.41-2.41s2.41,1.08,2.41,2.41-1.08,2.41-2.41,2.41-2.41-1.08-2.41-2.41" fill="#ffefe4"/>
  <path d="M161.75,648.21c0-1.33,1.08-2.41,2.41-2.41s2.41,1.08,2.41,2.41c0,1.33-1.08,2.41-2.41,2.41s-2.41-1.08-2.41-2.41" fill="#ffefe4"/>
  <path d="M183.02,626.94c0-1.33,1.08-2.41,2.41-2.41s2.41,1.08,2.41,2.41-1.08,2.41-2.41,2.41-2.41-1.08-2.41-2.41" fill="#ffefe4"/>
  <path d="M172.38,637.57c0-1.33,1.08-2.41,2.41-2.41s2.41,1.08,2.41,2.41-1.08,2.41-2.41,2.41-2.41-1.08-2.41-2.41" fill="#ffefe4"/>
  <polygon points="99.89 606.06 90.61 593.05 106.37 590.42 109 574.66 122.01 583.94 135.02 574.66 137.65 590.42 153.41 593.05 144.13 606.06 153.41 619.07 137.65 621.7 135.02 637.46 122.01 628.18 109 637.46 106.37 621.7 90.61 619.07 99.89 606.06" fill="none" stroke="#ffefe4" stroke-linecap="round" stroke-linejoin="round" stroke-width="2.41"/>
  <path d="M122.01,598.84c3.99,0,7.22,3.23,7.22,7.22s-3.23,7.23-7.22,7.23c-3.99,0-7.22-3.23-7.22-7.23s3.23-7.22,7.22-7.22" fill="#ffefe4"/>
  <polygon points="118.92 504.02 55.45 440.55 40.61 440.37 40.8 455.2 104.27 518.67 119.11 518.86 118.92 504.02" fill="none" stroke="#ffefe4" stroke-linecap="round" stroke-linejoin="round" stroke-width="2.41"/>
  <path d="M58.59,455.93c1.33,0,2.41,1.08,2.41,2.41s-1.08,2.41-2.41,2.41-2.41-1.08-2.41-2.41,1.08-2.41,2.41-2.41" fill="#ffefe4"/>
  <path d="M69.22,466.57c1.33,0,2.41,1.08,2.41,2.41s-1.08,2.41-2.41,2.41-2.41-1.08-2.41-2.41,1.08-2.41,2.41-2.41" fill="#ffefe4"/>
  <path d="M79.86,477.2c1.33,0,2.41,1.08,2.41,2.41s-1.08,2.41-2.41,2.41-2.41-1.08-2.41-2.41,1.08-2.41,2.41-2.41" fill="#ffefe4"/>
  <path d="M101.13,498.47c1.33,0,2.41,1.08,2.41,2.41s-1.08,2.41-2.41,2.41-2.41-1.08-2.41-2.41,1.08-2.41,2.41-2.41" fill="#ffefe4"/>
  <path d="M90.5,487.84c1.33,0,2.41,1.08,2.41,2.41s-1.08,2.41-2.41,2.41-2.41-1.08-2.41-2.41,1.08-2.41,2.41-2.41" fill="#ffefe4"/>
  <polygon points="55.45 434.37 118.92 370.9 119.1 356.06 104.27 356.25 40.8 419.72 40.61 434.56 55.45 434.37" fill="none" stroke="#ffefe4" stroke-linecap="round" stroke-linejoin="round" stroke-width="2.41"/>
  <path d="M103.54,374.04c0,1.33-1.08,2.41-2.41,2.41s-2.41-1.08-2.41-2.41,1.08-2.41,2.41-2.41,2.41,1.08,2.41,2.41" fill="#ffefe4"/>
  <path d="M92.9,384.68c0,1.33-1.08,2.41-2.41,2.41s-2.41-1.08-2.41-2.41,1.08-2.41,2.41-2.41,2.41,1.08,2.41,2.41" fill="#ffefe4"/>
  <path d="M82.27,395.31c0,1.33-1.08,2.41-2.41,2.41s-2.41-1.08-2.41-2.41,1.08-2.41,2.41-2.41,2.41,1.08,2.41,2.41" fill="#ffefe4"/>
  <path d="M61,416.58c0,1.33-1.08,2.41-2.41,2.41s-2.41-1.08-2.41-2.41,1.08-2.41,2.41-2.41,2.41,1.08,2.41,2.41" fill="#ffefe4"/>
  <path d="M71.63,405.95c0,1.33-1.08,2.41-2.41,2.41s-2.41-1.08-2.41-2.41,1.08-2.41,2.41-2.41,2.41,1.08,2.41,2.41" fill="#ffefe4"/>
  <polygon points="125.1 370.9 188.57 434.37 203.41 434.56 203.22 419.72 139.75 356.25 124.91 356.07 125.1 370.9" fill="none" stroke="#ffefe4" stroke-linecap="round" stroke-linejoin="round" stroke-width="2.41"/>
  <path d="M185.43,418.99c-1.33,0-2.41-1.08-2.41-2.41s1.08-2.41,2.41-2.41,2.41,1.08,2.41,2.41c0,1.33-1.08,2.41-2.41,2.41" fill="#ffefe4"/>
  <path d="M174.79,408.36c-1.33,0-2.41-1.08-2.41-2.41s1.08-2.41,2.41-2.41,2.41,1.08,2.41,2.41-1.08,2.41-2.41,2.41" fill="#ffefe4"/>
  <path d="M164.16,397.72c-1.33,0-2.41-1.08-2.41-2.41s1.08-2.41,2.41-2.41,2.41,1.08,2.41,2.41-1.08,2.41-2.41,2.41" fill="#ffefe4"/>
  <path d="M142.89,376.45c-1.33,0-2.41-1.08-2.41-2.41s1.08-2.41,2.41-2.41,2.41,1.08,2.41,2.41-1.08,2.41-2.41,2.41" fill="#ffefe4"/>
  <path d="M153.52,387.09c-1.33,0-2.41-1.08-2.41-2.41s1.08-2.41,2.41-2.41,2.41,1.08,2.41,2.41-1.08,2.41-2.41,2.41" fill="#ffefe4"/>
  <polygon points="188.57 440.55 125.1 504.02 124.91 518.86 139.75 518.67 203.22 455.2 203.4 440.37 188.57 440.55" fill="none" stroke="#ffefe4" stroke-linecap="round" stroke-linejoin="round" stroke-width="2.41"/>
  <path d="M140.48,500.88c0-1.33,1.08-2.41,2.41-2.41s2.41,1.08,2.41,2.41-1.08,2.41-2.41,2.41-2.41-1.08-2.41-2.41" fill="#ffefe4"/>
  <path d="M151.11,490.25c0-1.33,1.08-2.41,2.41-2.41s2.41,1.08,2.41,2.41-1.08,2.41-2.41,2.41-2.41-1.08-2.41-2.41" fill="#ffefe4"/>
  <path d="M161.75,479.61c0-1.33,1.08-2.41,2.41-2.41s2.41,1.08,2.41,2.41-1.08,2.41-2.41,2.41-2.41-1.08-2.41-2.41" fill="#ffefe4"/>
  <path d="M183.02,458.34c0-1.33,1.08-2.41,2.41-2.41s2.41,1.08,2.41,2.41-1.08,2.41-2.41,2.41-2.41-1.08-2.41-2.41" fill="#ffefe4"/>
  <path d="M172.38,468.98c0-1.33,1.08-2.41,2.41-2.41s2.41,1.08,2.41,2.41-1.08,2.41-2.41,2.41-2.41-1.08-2.41-2.41" fill="#ffefe4"/>
  <polygon points="99.89 437.46 90.61 424.45 106.37 421.82 109 406.06 122.01 415.34 135.02 406.06 137.65 421.82 153.41 424.45 144.13 437.46 153.41 450.47 137.65 453.1 135.02 468.87 122.01 459.58 109 468.87 106.37 453.1 90.61 450.47 99.89 437.46" fill="none" stroke="#ffefe4" stroke-linecap="round" stroke-linejoin="round" stroke-width="2.41"/>
  <path d="M122.01,430.24c3.99,0,7.22,3.23,7.22,7.22s-3.23,7.23-7.22,7.23-7.22-3.23-7.22-7.23,3.23-7.22,7.22-7.22" fill="#ffefe4"/>
  <polygon points="118.92 335.42 55.45 271.95 40.61 271.77 40.8 286.6 104.27 350.07 119.11 350.26 118.92 335.42" fill="none" stroke="#ffefe4" stroke-linecap="round" stroke-linejoin="round" stroke-width="2.41"/>
  <path d="M58.59,287.33c1.33,0,2.41,1.08,2.41,2.41s-1.08,2.41-2.41,2.41-2.41-1.08-2.41-2.41,1.08-2.41,2.41-2.41" fill="#ffefe4"/>
  <path d="M69.22,297.97c1.33,0,2.41,1.08,2.41,2.41s-1.08,2.41-2.41,2.41-2.41-1.08-2.41-2.41,1.08-2.41,2.41-2.41" fill="#ffefe4"/>
  <path d="M79.86,308.6c1.33,0,2.41,1.08,2.41,2.41s-1.08,2.41-2.41,2.41-2.41-1.08-2.41-2.41,1.08-2.41,2.41-2.41" fill="#ffefe4"/>
  <path d="M101.13,329.87c1.33,0,2.41,1.08,2.41,2.41s-1.08,2.41-2.41,2.41-2.41-1.08-2.41-2.41,1.08-2.41,2.41-2.41" fill="#ffefe4"/>
  <path d="M90.5,319.24c1.33,0,2.41,1.08,2.41,2.41s-1.08,2.41-2.41,2.41-2.41-1.08-2.41-2.41,1.08-2.41,2.41-2.41" fill="#ffefe4"/>
  <polygon points="55.45 265.77 118.92 202.3 119.1 187.47 104.27 187.65 40.8 251.12 40.61 265.96 55.45 265.77" fill="none" stroke="#ffefe4" stroke-linecap="round" stroke-linejoin="round" stroke-width="2.41"/>
  <path d="M103.54,205.44c0,1.33-1.08,2.41-2.41,2.41s-2.41-1.08-2.41-2.41c0-1.33,1.08-2.41,2.41-2.41s2.41,1.08,2.41,2.41" fill="#ffefe4"/>
  <path d="M92.9,216.08c0,1.33-1.08,2.41-2.41,2.41s-2.41-1.08-2.41-2.41,1.08-2.41,2.41-2.41,2.41,1.08,2.41,2.41" fill="#ffefe4"/>
  <path d="M82.27,226.71c0,1.33-1.08,2.41-2.41,2.41s-2.41-1.08-2.41-2.41,1.08-2.41,2.41-2.41,2.41,1.08,2.41,2.41" fill="#ffefe4"/>
  <path d="M61,247.98c0,1.33-1.08,2.41-2.41,2.41s-2.41-1.08-2.41-2.41,1.08-2.41,2.41-2.41,2.41,1.08,2.41,2.41" fill="#ffefe4"/>
  <path d="M71.63,237.35c0,1.33-1.08,2.41-2.41,2.41s-2.41-1.08-2.41-2.41c0-1.33,1.08-2.41,2.41-2.41s2.41,1.08,2.41,2.41" fill="#ffefe4"/>
  <polygon points="125.1 202.3 188.57 265.77 203.41 265.96 203.22 251.12 139.75 187.65 124.91 187.47 125.1 202.3" fill="none" stroke="#ffefe4" stroke-linecap="round" stroke-linejoin="round" stroke-width="2.41"/>
  <path d="M185.43,250.39c-1.33,0-2.41-1.08-2.41-2.41s1.08-2.41,2.41-2.41,2.41,1.08,2.41,2.41-1.08,2.41-2.41,2.41" fill="#ffefe4"/>
  <path d="M174.79,239.76c-1.33,0-2.41-1.08-2.41-2.41s1.08-2.41,2.41-2.41,2.41,1.08,2.41,2.41-1.08,2.41-2.41,2.41" fill="#ffefe4"/>
  <path d="M164.16,229.12c-1.33,0-2.41-1.08-2.41-2.41s1.08-2.41,2.41-2.41,2.41,1.08,2.41,2.41-1.08,2.41-2.41,2.41" fill="#ffefe4"/>
  <path d="M142.89,207.85c-1.33,0-2.41-1.08-2.41-2.41s1.08-2.41,2.41-2.41,2.41,1.08,2.41,2.41-1.08,2.41-2.41,2.41" fill="#ffefe4"/>
  <path d="M153.52,218.49c-1.33,0-2.41-1.08-2.41-2.41s1.08-2.41,2.41-2.41,2.41,1.08,2.41,2.41-1.08,2.41-2.41,2.41" fill="#ffefe4"/>
  <polygon points="188.57 271.95 125.1 335.42 124.91 350.26 139.75 350.07 203.22 286.6 203.4 271.77 188.57 271.95" fill="none" stroke="#ffefe4" stroke-linecap="round" stroke-linejoin="round" stroke-width="2.41"/>
  <path d="M140.48,332.28c0-1.33,1.08-2.41,2.41-2.41s2.41,1.08,2.41,2.41-1.08,2.41-2.41,2.41-2.41-1.08-2.41-2.41" fill="#ffefe4"/>
  <path d="M151.11,321.65c0-1.33,1.08-2.41,2.41-2.41s2.41,1.08,2.41,2.41-1.08,2.41-2.41,2.41-2.41-1.08-2.41-2.41" fill="#ffefe4"/>
  <path d="M161.75,311.01c0-1.33,1.08-2.41,2.41-2.41s2.41,1.08,2.41,2.41-1.08,2.41-2.41,2.41-2.41-1.08-2.41-2.41" fill="#ffefe4"/>
  <path d="M183.02,289.74c0-1.33,1.08-2.41,2.41-2.41s2.41,1.08,2.41,2.41-1.08,2.41-2.41,2.41-2.41-1.08-2.41-2.41" fill="#ffefe4"/>
  <path d="M172.38,300.38c0-1.33,1.08-2.41,2.41-2.41s2.41,1.08,2.41,2.41-1.08,2.41-2.41,2.41-2.41-1.08-2.41-2.41" fill="#ffefe4"/>
  <polygon points="99.89 268.86 90.61 255.85 106.37 253.22 109 237.46 122.01 246.74 135.02 237.46 137.65 253.22 153.41 255.85 144.13 268.86 153.41 281.87 137.65 284.5 135.02 300.27 122.01 290.99 109 300.27 106.37 284.5 90.61 281.87 99.89 268.86" fill="none" stroke="#ffefe4" stroke-linecap="round" stroke-linejoin="round" stroke-width="2.41"/>
  <path d="M122.01,261.64c3.99,0,7.22,3.23,7.22,7.22s-3.23,7.23-7.22,7.23-7.22-3.23-7.22-7.23,3.23-7.22,7.22-7.22" fill="#ffefe4"/>
  <polygon points="118.92 166.82 55.45 103.35 40.61 103.17 40.8 118 104.27 181.47 119.11 181.66 118.92 166.82" fill="none" stroke="#ffefe4" stroke-linecap="round" stroke-linejoin="round" stroke-width="2.41"/>
  <path d="M58.59,118.73c1.33,0,2.41,1.08,2.41,2.41s-1.08,2.41-2.41,2.41-2.41-1.08-2.41-2.41,1.08-2.41,2.41-2.41" fill="#ffefe4"/>
  <path d="M69.22,129.37c1.33,0,2.41,1.08,2.41,2.41s-1.08,2.41-2.41,2.41-2.41-1.08-2.41-2.41c0-1.33,1.08-2.41,2.41-2.41" fill="#ffefe4"/>
  <path d="M79.86,140c1.33,0,2.41,1.08,2.41,2.41s-1.08,2.41-2.41,2.41-2.41-1.08-2.41-2.41,1.08-2.41,2.41-2.41" fill="#ffefe4"/>
  <path d="M101.13,161.27c1.33,0,2.41,1.08,2.41,2.41s-1.08,2.41-2.41,2.41-2.41-1.08-2.41-2.41,1.08-2.41,2.41-2.41" fill="#ffefe4"/>
  <path d="M90.5,150.64c1.33,0,2.41,1.08,2.41,2.41s-1.08,2.41-2.41,2.41-2.41-1.08-2.41-2.41,1.08-2.41,2.41-2.41" fill="#ffefe4"/>
  <polygon points="55.45 97.17 118.92 33.7 119.1 18.87 104.27 19.05 40.8 82.52 40.61 97.36 55.45 97.17" fill="none" stroke="#ffefe4" stroke-linecap="round" stroke-linejoin="round" stroke-width="2.41"/>
  <path d="M103.54,36.84c0,1.33-1.08,2.41-2.41,2.41s-2.41-1.08-2.41-2.41,1.08-2.41,2.41-2.41,2.41,1.08,2.41,2.41" fill="#ffefe4"/>
  <path d="M92.9,47.48c0,1.33-1.08,2.41-2.41,2.41s-2.41-1.08-2.41-2.41,1.08-2.41,2.41-2.41,2.41,1.08,2.41,2.41" fill="#ffefe4"/>
  <path d="M82.27,58.11c0,1.33-1.08,2.41-2.41,2.41s-2.41-1.08-2.41-2.41,1.08-2.41,2.41-2.41,2.41,1.08,2.41,2.41" fill="#ffefe4"/>
  <path d="M61,79.38c0,1.33-1.08,2.41-2.41,2.41s-2.41-1.08-2.41-2.41,1.08-2.41,2.41-2.41,2.41,1.08,2.41,2.41" fill="#ffefe4"/>
  <path d="M71.63,68.75c0,1.33-1.08,2.41-2.41,2.41s-2.41-1.08-2.41-2.41,1.08-2.41,2.41-2.41,2.41,1.08,2.41,2.41" fill="#ffefe4"/>
  <polygon points="125.1 33.7 188.57 97.17 203.41 97.36 203.22 82.52 139.75 19.05 124.91 18.87 125.1 33.7" fill="none" stroke="#ffefe4" stroke-linecap="round" stroke-linejoin="round" stroke-width="2.41"/>
  <path d="M185.43,81.79c-1.33,0-2.41-1.08-2.41-2.41s1.08-2.41,2.41-2.41,2.41,1.08,2.41,2.41-1.08,2.41-2.41,2.41" fill="#ffefe4"/>
  <path d="M174.79,71.16c-1.33,0-2.41-1.08-2.41-2.41s1.08-2.41,2.41-2.41,2.41,1.08,2.41,2.41-1.08,2.41-2.41,2.41" fill="#ffefe4"/>
  <path d="M164.16,60.52c-1.33,0-2.41-1.08-2.41-2.41s1.08-2.41,2.41-2.41,2.41,1.08,2.41,2.41-1.08,2.41-2.41,2.41" fill="#ffefe4"/>
  <path d="M142.89,39.25c-1.33,0-2.41-1.08-2.41-2.41s1.08-2.41,2.41-2.41,2.41,1.08,2.41,2.41-1.08,2.41-2.41,2.41" fill="#ffefe4"/>
  <path d="M153.52,49.89c-1.33,0-2.41-1.08-2.41-2.41s1.08-2.41,2.41-2.41,2.41,1.08,2.41,2.41-1.08,2.41-2.41,2.41" fill="#ffefe4"/>
  <polygon points="188.57 103.35 125.1 166.82 124.91 181.66 139.75 181.47 203.22 118 203.4 103.17 188.57 103.35" fill="none" stroke="#ffefe4" stroke-linecap="round" stroke-linejoin="round" stroke-width="2.41"/>
  <path d="M140.48,163.68c0-1.33,1.08-2.41,2.41-2.41s2.41,1.08,2.41,2.41-1.08,2.41-2.41,2.41-2.41-1.08-2.41-2.41" fill="#ffefe4"/>
  <path d="M151.11,153.05c0-1.33,1.08-2.41,2.41-2.41s2.41,1.08,2.41,2.41-1.08,2.41-2.41,2.41-2.41-1.08-2.41-2.41" fill="#ffefe4"/>
  <path d="M161.75,142.41c0-1.33,1.08-2.41,2.41-2.41s2.41,1.08,2.41,2.41-1.08,2.41-2.41,2.41-2.41-1.08-2.41-2.41" fill="#ffefe4"/>
  <path d="M183.02,121.14c0-1.33,1.08-2.41,2.41-2.41s2.41,1.08,2.41,2.41c0,1.33-1.08,2.41-2.41,2.41s-2.41-1.08-2.41-2.41" fill="#ffefe4"/>
  <path d="M172.38,131.78c0-1.33,1.08-2.41,2.41-2.41s2.41,1.08,2.41,2.41-1.08,2.41-2.41,2.41-2.41-1.08-2.41-2.41" fill="#ffefe4"/>
  <polygon points="99.89 100.26 90.61 87.25 106.37 84.62 109 68.86 122.01 78.14 135.02 68.86 137.65 84.62 153.41 87.25 144.13 100.26 153.41 113.27 137.65 115.91 135.02 131.67 122.01 122.39 109 131.67 106.37 115.91 90.61 113.27 99.89 100.26" fill="none" stroke="#ffefe4" stroke-linecap="round" stroke-linejoin="round" stroke-width="2.41"/>
  <path d="M122.01,93.04c3.99,0,7.22,3.23,7.22,7.22s-3.23,7.23-7.22,7.23-7.22-3.23-7.22-7.23,3.23-7.22,7.22-7.22" fill="#ffefe4"/>
  <polygon points="286.57 672.62 223.1 609.15 208.26 608.97 208.45 623.8 271.92 687.27 286.75 687.46 286.57 672.62" fill="none" stroke="#ffefe4" stroke-linecap="round" stroke-linejoin="round" stroke-width="2.41"/>
  <path d="M226.24,624.53c1.33,0,2.41,1.08,2.41,2.41s-1.08,2.41-2.41,2.41-2.41-1.08-2.41-2.41,1.08-2.41,2.41-2.41" fill="#ffefe4"/>
  <path d="M236.87,635.17c1.33,0,2.41,1.08,2.41,2.41s-1.08,2.41-2.41,2.41-2.41-1.08-2.41-2.41c0-1.33,1.08-2.41,2.41-2.41" fill="#ffefe4"/>
  <path d="M247.51,645.8c1.33,0,2.41,1.08,2.41,2.41s-1.08,2.41-2.41,2.41-2.41-1.08-2.41-2.41c0-1.33,1.08-2.41,2.41-2.41" fill="#ffefe4"/>
  <path d="M268.78,667.07c1.33,0,2.41,1.08,2.41,2.41,0,1.33-1.08,2.41-2.41,2.41s-2.41-1.08-2.41-2.41,1.08-2.41,2.41-2.41" fill="#ffefe4"/>
  <path d="M258.14,656.44c1.33,0,2.41,1.08,2.41,2.41s-1.08,2.41-2.41,2.41-2.41-1.08-2.41-2.41c0-1.33,1.08-2.41,2.41-2.41" fill="#ffefe4"/>
  <polygon points="223.1 602.97 286.57 539.5 286.75 524.66 271.92 524.85 208.45 588.32 208.26 603.16 223.1 602.97" fill="none" stroke="#ffefe4" stroke-linecap="round" stroke-linejoin="round" stroke-width="2.41"/>
  <path d="M271.19,542.64c0,1.33-1.08,2.41-2.41,2.41s-2.41-1.08-2.41-2.41,1.08-2.41,2.41-2.41,2.41,1.08,2.41,2.41" fill="#ffefe4"/>
  <path d="M260.55,553.28c0,1.33-1.08,2.41-2.41,2.41s-2.41-1.08-2.41-2.41c0-1.33,1.08-2.41,2.41-2.41s2.41,1.08,2.41,2.41" fill="#ffefe4"/>
  <path d="M249.92,563.91c0,1.33-1.08,2.41-2.41,2.41s-2.41-1.08-2.41-2.41,1.08-2.41,2.41-2.41,2.41,1.08,2.41,2.41" fill="#ffefe4"/>
  <path d="M228.65,585.18c0,1.33-1.08,2.41-2.41,2.41s-2.41-1.08-2.41-2.41,1.08-2.41,2.41-2.41,2.41,1.08,2.41,2.41" fill="#ffefe4"/>
  <path d="M239.28,574.55c0,1.33-1.08,2.41-2.41,2.41s-2.41-1.08-2.41-2.41,1.08-2.41,2.41-2.41,2.41,1.08,2.41,2.41" fill="#ffefe4"/>
  <polygon points="292.75 539.5 356.22 602.97 371.05 603.16 370.87 588.32 307.39 524.85 292.56 524.67 292.75 539.5" fill="none" stroke="#ffefe4" stroke-linecap="round" stroke-linejoin="round" stroke-width="2.41"/>
  <path d="M353.08,587.59c-1.33,0-2.41-1.08-2.41-2.41s1.08-2.41,2.41-2.41,2.41,1.08,2.41,2.41-1.08,2.41-2.41,2.41" fill="#ffefe4"/>
  <path d="M342.44,576.96c-1.33,0-2.41-1.08-2.41-2.41s1.08-2.41,2.41-2.41,2.41,1.08,2.41,2.41-1.08,2.41-2.41,2.41" fill="#ffefe4"/>
  <path d="M331.81,566.32c-1.33,0-2.41-1.08-2.41-2.41s1.08-2.41,2.41-2.41,2.41,1.08,2.41,2.41-1.08,2.41-2.41,2.41" fill="#ffefe4"/>
  <path d="M310.54,545.05c-1.33,0-2.41-1.08-2.41-2.41s1.08-2.41,2.41-2.41,2.41,1.08,2.41,2.41-1.08,2.41-2.41,2.41" fill="#ffefe4"/>
  <path d="M321.17,555.69c-1.33,0-2.41-1.08-2.41-2.41s1.08-2.41,2.41-2.41,2.41,1.08,2.41,2.41-1.08,2.41-2.41,2.41" fill="#ffefe4"/>
  <polygon points="356.22 609.15 292.75 672.62 292.56 687.46 307.4 687.27 370.86 623.8 371.05 608.97 356.22 609.15" fill="none" stroke="#ffefe4" stroke-linecap="round" stroke-linejoin="round" stroke-width="2.41"/>
  <path d="M308.13,669.48c0-1.33,1.08-2.41,2.41-2.41s2.41,1.08,2.41,2.41-1.08,2.41-2.41,2.41-2.41-1.08-2.41-2.41" fill="#ffefe4"/>
  <path d="M318.76,658.85c0-1.33,1.08-2.41,2.41-2.41s2.41,1.08,2.41,2.41c0,1.33-1.08,2.41-2.41,2.41s-2.41-1.08-2.41-2.41" fill="#ffefe4"/>
  <path d="M329.4,648.21c0-1.33,1.08-2.41,2.41-2.41s2.41,1.08,2.41,2.41-1.08,2.41-2.41,2.41-2.41-1.08-2.41-2.41" fill="#ffefe4"/>
  <path d="M350.67,626.94c0-1.33,1.08-2.41,2.41-2.41s2.41,1.08,2.41,2.41c0,1.33-1.08,2.41-2.41,2.41s-2.41-1.08-2.41-2.41" fill="#ffefe4"/>
  <path d="M340.03,637.58c0-1.33,1.08-2.41,2.41-2.41s2.41,1.08,2.41,2.41-1.08,2.41-2.41,2.41-2.41-1.08-2.41-2.41" fill="#ffefe4"/>
  <polygon points="267.53 606.06 258.25 593.05 274.01 590.42 276.65 574.66 289.66 583.94 302.67 574.66 305.3 590.42 321.06 593.05 311.78 606.06 321.06 619.07 305.3 621.7 302.67 637.47 289.66 628.18 276.65 637.47 274.01 621.7 258.25 619.07 267.53 606.06" fill="none" stroke="#ffefe4" stroke-linecap="round" stroke-linejoin="round" stroke-width="2.41"/>
  <path d="M289.66,598.84c3.99,0,7.22,3.23,7.22,7.22s-3.23,7.23-7.22,7.23-7.22-3.23-7.22-7.23c0-3.99,3.23-7.22,7.22-7.22" fill="#ffefe4"/>
  <polygon points="286.57 504.02 223.1 440.55 208.26 440.37 208.45 455.2 271.92 518.67 286.75 518.86 286.57 504.02" fill="none" stroke="#ffefe4" stroke-linecap="round" stroke-linejoin="round" stroke-width="2.41"/>
  <path d="M226.24,455.93c1.33,0,2.41,1.08,2.41,2.41s-1.08,2.41-2.41,2.41-2.41-1.08-2.41-2.41,1.08-2.41,2.41-2.41" fill="#ffefe4"/>
  <path d="M236.87,466.57c1.33,0,2.41,1.08,2.41,2.41s-1.08,2.41-2.41,2.41-2.41-1.08-2.41-2.41,1.08-2.41,2.41-2.41" fill="#ffefe4"/>
  <path d="M247.51,477.2c1.33,0,2.41,1.08,2.41,2.41s-1.08,2.41-2.41,2.41-2.41-1.08-2.41-2.41,1.08-2.41,2.41-2.41" fill="#ffefe4"/>
  <path d="M268.78,498.47c1.33,0,2.41,1.08,2.41,2.41s-1.08,2.41-2.41,2.41-2.41-1.08-2.41-2.41c0-1.33,1.08-2.41,2.41-2.41" fill="#ffefe4"/>
  <path d="M258.14,487.84c1.33,0,2.41,1.08,2.41,2.41s-1.08,2.41-2.41,2.41-2.41-1.08-2.41-2.41,1.08-2.41,2.41-2.41" fill="#ffefe4"/>
  <polygon points="223.1 434.37 286.57 370.9 286.75 356.07 271.92 356.25 208.45 419.72 208.26 434.56 223.1 434.37" fill="none" stroke="#ffefe4" stroke-linecap="round" stroke-linejoin="round" stroke-width="2.41"/>
  <path d="M271.19,374.04c0,1.33-1.08,2.41-2.41,2.41s-2.41-1.08-2.41-2.41,1.08-2.41,2.41-2.41,2.41,1.08,2.41,2.41" fill="#ffefe4"/>
  <path d="M260.55,384.68c0,1.33-1.08,2.41-2.41,2.41s-2.41-1.08-2.41-2.41,1.08-2.41,2.41-2.41,2.41,1.08,2.41,2.41" fill="#ffefe4"/>
  <path d="M249.92,395.31c0,1.33-1.08,2.41-2.41,2.41s-2.41-1.08-2.41-2.41,1.08-2.41,2.41-2.41,2.41,1.08,2.41,2.41" fill="#ffefe4"/>
  <path d="M228.65,416.58c0,1.33-1.08,2.41-2.41,2.41s-2.41-1.08-2.41-2.41,1.08-2.41,2.41-2.41,2.41,1.08,2.41,2.41" fill="#ffefe4"/>
  <path d="M239.28,405.95c0,1.33-1.08,2.41-2.41,2.41s-2.41-1.08-2.41-2.41,1.08-2.41,2.41-2.41,2.41,1.08,2.41,2.41" fill="#ffefe4"/>
  <polygon points="292.75 370.9 356.22 434.37 371.05 434.56 370.87 419.72 307.39 356.25 292.56 356.07 292.75 370.9" fill="none" stroke="#ffefe4" stroke-linecap="round" stroke-linejoin="round" stroke-width="2.41"/>
  <path d="M353.08,418.99c-1.33,0-2.41-1.08-2.41-2.41s1.08-2.41,2.41-2.41,2.41,1.08,2.41,2.41-1.08,2.41-2.41,2.41" fill="#ffefe4"/>
  <path d="M342.44,408.36c-1.33,0-2.41-1.08-2.41-2.41s1.08-2.41,2.41-2.41,2.41,1.08,2.41,2.41-1.08,2.41-2.41,2.41" fill="#ffefe4"/>
  <path d="M331.81,397.72c-1.33,0-2.41-1.08-2.41-2.41s1.08-2.41,2.41-2.41,2.41,1.08,2.41,2.41-1.08,2.41-2.41,2.41" fill="#ffefe4"/>
  <path d="M310.54,376.45c-1.33,0-2.41-1.08-2.41-2.41s1.08-2.41,2.41-2.41,2.41,1.08,2.41,2.41-1.08,2.41-2.41,2.41" fill="#ffefe4"/>
  <path d="M321.17,387.09c-1.33,0-2.41-1.08-2.41-2.41s1.08-2.41,2.41-2.41,2.41,1.08,2.41,2.41-1.08,2.41-2.41,2.41" fill="#ffefe4"/>
  <polygon points="356.22 440.55 292.75 504.02 292.56 518.86 307.4 518.67 370.86 455.2 371.05 440.37 356.22 440.55" fill="none" stroke="#ffefe4" stroke-linecap="round" stroke-linejoin="round" stroke-width="2.41"/>
  <path d="M308.13,500.88c0-1.33,1.08-2.41,2.41-2.41s2.41,1.08,2.41,2.41c0,1.33-1.08,2.41-2.41,2.41s-2.41-1.08-2.41-2.41" fill="#ffefe4"/>
  <path d="M318.76,490.25c0-1.33,1.08-2.41,2.41-2.41s2.41,1.08,2.41,2.41c0,1.33-1.08,2.41-2.41,2.41s-2.41-1.08-2.41-2.41" fill="#ffefe4"/>
  <path d="M329.4,479.61c0-1.33,1.08-2.41,2.41-2.41s2.41,1.08,2.41,2.41-1.08,2.41-2.41,2.41-2.41-1.08-2.41-2.41" fill="#ffefe4"/>
  <path d="M350.67,458.34c0-1.33,1.08-2.41,2.41-2.41s2.41,1.08,2.41,2.41c0,1.33-1.08,2.41-2.41,2.41s-2.41-1.08-2.41-2.41" fill="#ffefe4"/>
  <path d="M340.03,468.98c0-1.33,1.08-2.41,2.41-2.41s2.41,1.08,2.41,2.41c0,1.33-1.08,2.41-2.41,2.41s-2.41-1.08-2.41-2.41" fill="#ffefe4"/>
  <polygon points="267.53 437.46 258.25 424.45 274.01 421.82 276.65 406.06 289.66 415.34 302.67 406.06 305.3 421.82 321.06 424.45 311.78 437.46 321.06 450.47 305.3 453.1 302.67 468.87 289.66 459.59 276.65 468.87 274.01 453.1 258.25 450.47 267.53 437.46" fill="none" stroke="#ffefe4" stroke-linecap="round" stroke-linejoin="round" stroke-width="2.41"/>
  <path d="M289.66,430.24c3.99,0,7.22,3.23,7.22,7.22s-3.23,7.23-7.22,7.23-7.22-3.23-7.22-7.23,3.23-7.22,7.22-7.22" fill="#ffefe4"/>
  <polygon points="286.57 335.42 223.1 271.95 208.26 271.77 208.45 286.6 271.92 350.07 286.75 350.26 286.57 335.42" fill="none" stroke="#ffefe4" stroke-linecap="round" stroke-linejoin="round" stroke-width="2.41"/>
  <path d="M226.24,287.33c1.33,0,2.41,1.08,2.41,2.41s-1.08,2.41-2.41,2.41-2.41-1.08-2.41-2.41,1.08-2.41,2.41-2.41" fill="#ffefe4"/>
  <path d="M236.87,297.97c1.33,0,2.41,1.08,2.41,2.41s-1.08,2.41-2.41,2.41-2.41-1.08-2.41-2.41c0-1.33,1.08-2.41,2.41-2.41" fill="#ffefe4"/>
  <path d="M247.51,308.6c1.33,0,2.41,1.08,2.41,2.41,0,1.33-1.08,2.41-2.41,2.41s-2.41-1.08-2.41-2.41,1.08-2.41,2.41-2.41" fill="#ffefe4"/>
  <path d="M268.78,329.87c1.33,0,2.41,1.08,2.41,2.41s-1.08,2.41-2.41,2.41-2.41-1.08-2.41-2.41,1.08-2.41,2.41-2.41" fill="#ffefe4"/>
  <path d="M258.14,319.24c1.33,0,2.41,1.08,2.41,2.41s-1.08,2.41-2.41,2.41-2.41-1.08-2.41-2.41,1.08-2.41,2.41-2.41" fill="#ffefe4"/>
  <polygon points="223.1 265.77 286.57 202.3 286.75 187.47 271.92 187.65 208.45 251.12 208.26 265.96 223.1 265.77" fill="none" stroke="#ffefe4" stroke-linecap="round" stroke-linejoin="round" stroke-width="2.41"/>
  <path d="M271.19,205.44c0,1.33-1.08,2.41-2.41,2.41s-2.41-1.08-2.41-2.41,1.08-2.41,2.41-2.41,2.41,1.08,2.41,2.41" fill="#ffefe4"/>
  <path d="M260.55,216.08c0,1.33-1.08,2.41-2.41,2.41s-2.41-1.08-2.41-2.41,1.08-2.41,2.41-2.41,2.41,1.08,2.41,2.41" fill="#ffefe4"/>
  <path d="M249.92,226.71c0,1.33-1.08,2.41-2.41,2.41s-2.41-1.08-2.41-2.41,1.08-2.41,2.41-2.41,2.41,1.08,2.41,2.41" fill="#ffefe4"/>
  <path d="M228.65,247.98c0,1.33-1.08,2.41-2.41,2.41s-2.41-1.08-2.41-2.41,1.08-2.41,2.41-2.41,2.41,1.08,2.41,2.41" fill="#ffefe4"/>
  <path d="M239.28,237.35c0,1.33-1.08,2.41-2.41,2.41s-2.41-1.08-2.41-2.41,1.08-2.41,2.41-2.41,2.41,1.08,2.41,2.41" fill="#ffefe4"/>
  <polygon points="292.75 202.3 356.22 265.77 371.05 265.96 370.87 251.12 307.39 187.65 292.56 187.47 292.75 202.3" fill="none" stroke="#ffefe4" stroke-linecap="round" stroke-linejoin="round" stroke-width="2.41"/>
  <path d="M353.08,250.39c-1.33,0-2.41-1.08-2.41-2.41s1.08-2.41,2.41-2.41,2.41,1.08,2.41,2.41-1.08,2.41-2.41,2.41" fill="#ffefe4"/>
  <path d="M342.44,239.76c-1.33,0-2.41-1.08-2.41-2.41s1.08-2.41,2.41-2.41,2.41,1.08,2.41,2.41-1.08,2.41-2.41,2.41" fill="#ffefe4"/>
  <path d="M331.81,229.12c-1.33,0-2.41-1.08-2.41-2.41s1.08-2.41,2.41-2.41,2.41,1.08,2.41,2.41-1.08,2.41-2.41,2.41" fill="#ffefe4"/>
  <path d="M310.54,207.85c-1.33,0-2.41-1.08-2.41-2.41s1.08-2.41,2.41-2.41,2.41,1.08,2.41,2.41-1.08,2.41-2.41,2.41" fill="#ffefe4"/>
  <path d="M321.17,218.49c-1.33,0-2.41-1.08-2.41-2.41s1.08-2.41,2.41-2.41,2.41,1.08,2.41,2.41-1.08,2.41-2.41,2.41" fill="#ffefe4"/>
  <polygon points="356.22 271.95 292.75 335.42 292.56 350.26 307.4 350.07 370.86 286.6 371.05 271.77 356.22 271.95" fill="none" stroke="#ffefe4" stroke-linecap="round" stroke-linejoin="round" stroke-width="2.41"/>
  <path d="M308.13,332.28c0-1.33,1.08-2.41,2.41-2.41s2.41,1.08,2.41,2.41-1.08,2.41-2.41,2.41-2.41-1.08-2.41-2.41" fill="#ffefe4"/>
  <path d="M318.76,321.65c0-1.33,1.08-2.41,2.41-2.41s2.41,1.08,2.41,2.41-1.08,2.41-2.41,2.41-2.41-1.08-2.41-2.41" fill="#ffefe4"/>
  <path d="M329.4,311.01c0-1.33,1.08-2.41,2.41-2.41s2.41,1.08,2.41,2.41-1.08,2.41-2.41,2.41-2.41-1.08-2.41-2.41" fill="#ffefe4"/>
  <path d="M350.67,289.74c0-1.33,1.08-2.41,2.41-2.41s2.41,1.08,2.41,2.41-1.08,2.41-2.41,2.41-2.41-1.08-2.41-2.41" fill="#ffefe4"/>
  <path d="M340.03,300.38c0-1.33,1.08-2.41,2.41-2.41s2.41,1.08,2.41,2.41-1.08,2.41-2.41,2.41-2.41-1.08-2.41-2.41" fill="#ffefe4"/>
  <polygon points="267.53 268.86 258.25 255.85 274.01 253.22 276.65 237.46 289.66 246.74 302.67 237.46 305.3 253.22 321.06 255.85 311.78 268.86 321.06 281.87 305.3 284.51 302.67 300.27 289.66 290.99 276.65 300.27 274.01 284.51 258.25 281.87 267.53 268.86" fill="none" stroke="#ffefe4" stroke-linecap="round" stroke-linejoin="round" stroke-width="2.41"/>
  <path d="M289.66,261.64c3.99,0,7.22,3.23,7.22,7.22s-3.23,7.23-7.22,7.23-7.22-3.23-7.22-7.23,3.23-7.22,7.22-7.22" fill="#ffefe4"/>
  <polygon points="286.57 166.82 223.1 103.36 208.26 103.17 208.45 118 271.92 181.47 286.75 181.66 286.57 166.82" fill="none" stroke="#ffefe4" stroke-linecap="round" stroke-linejoin="round" stroke-width="2.41"/>
  <path d="M226.24,118.73c1.33,0,2.41,1.08,2.41,2.41s-1.08,2.41-2.41,2.41-2.41-1.08-2.41-2.41,1.08-2.41,2.41-2.41" fill="#ffefe4"/>
  <path d="M236.87,129.37c1.33,0,2.41,1.08,2.41,2.41s-1.08,2.41-2.41,2.41-2.41-1.08-2.41-2.41,1.08-2.41,2.41-2.41" fill="#ffefe4"/>
  <path d="M247.51,140c1.33,0,2.41,1.08,2.41,2.41s-1.08,2.41-2.41,2.41-2.41-1.08-2.41-2.41,1.08-2.41,2.41-2.41" fill="#ffefe4"/>
  <path d="M268.78,161.27c1.33,0,2.41,1.08,2.41,2.41s-1.08,2.41-2.41,2.41-2.41-1.08-2.41-2.41,1.08-2.41,2.41-2.41" fill="#ffefe4"/>
  <path d="M258.14,150.64c1.33,0,2.41,1.08,2.41,2.41s-1.08,2.41-2.41,2.41-2.41-1.08-2.41-2.41,1.08-2.41,2.41-2.41" fill="#ffefe4"/>
  <polygon points="223.1 97.17 286.57 33.7 286.75 18.87 271.92 19.05 208.45 82.53 208.26 97.36 223.1 97.17" fill="none" stroke="#ffefe4" stroke-linecap="round" stroke-linejoin="round" stroke-width="2.41"/>
  <path d="M271.19,36.84c0,1.33-1.08,2.41-2.41,2.41s-2.41-1.08-2.41-2.41,1.08-2.41,2.41-2.41,2.41,1.08,2.41,2.41" fill="#ffefe4"/>
  <path d="M260.55,47.48c0,1.33-1.08,2.41-2.41,2.41s-2.41-1.08-2.41-2.41,1.08-2.41,2.41-2.41,2.41,1.08,2.41,2.41" fill="#ffefe4"/>
  <path d="M249.92,58.11c0,1.33-1.08,2.41-2.41,2.41s-2.41-1.08-2.41-2.41,1.08-2.41,2.41-2.41,2.41,1.08,2.41,2.41" fill="#ffefe4"/>
  <path d="M228.65,79.38c0,1.33-1.08,2.41-2.41,2.41s-2.41-1.08-2.41-2.41,1.08-2.41,2.41-2.41,2.41,1.08,2.41,2.41" fill="#ffefe4"/>
  <path d="M239.28,68.75c0,1.33-1.08,2.41-2.41,2.41s-2.41-1.08-2.41-2.41,1.08-2.41,2.41-2.41,2.41,1.08,2.41,2.41" fill="#ffefe4"/>
  <polygon points="292.75 33.7 356.22 97.17 371.05 97.36 370.87 82.53 307.39 19.06 292.56 18.87 292.75 33.7" fill="none" stroke="#ffefe4" stroke-linecap="round" stroke-linejoin="round" stroke-width="2.41"/>
  <path d="M353.08,81.79c-1.33,0-2.41-1.08-2.41-2.41s1.08-2.41,2.41-2.41,2.41,1.08,2.41,2.41-1.08,2.41-2.41,2.41" fill="#ffefe4"/>
  <path d="M342.44,71.16c-1.33,0-2.41-1.08-2.41-2.41,0-1.33,1.08-2.41,2.41-2.41s2.41,1.08,2.41,2.41-1.08,2.41-2.41,2.41" fill="#ffefe4"/>
  <path d="M331.81,60.52c-1.33,0-2.41-1.08-2.41-2.41s1.08-2.41,2.41-2.41,2.41,1.08,2.41,2.41-1.08,2.41-2.41,2.41" fill="#ffefe4"/>
  <path d="M310.54,39.25c-1.33,0-2.41-1.08-2.41-2.41s1.08-2.41,2.41-2.41,2.41,1.08,2.41,2.41-1.08,2.41-2.41,2.41" fill="#ffefe4"/>
  <path d="M321.17,49.89c-1.33,0-2.41-1.08-2.41-2.41s1.08-2.41,2.41-2.41,2.41,1.08,2.41,2.41-1.08,2.41-2.41,2.41" fill="#ffefe4"/>
  <polygon points="356.22 103.35 292.75 166.82 292.56 181.66 307.4 181.47 370.86 118 371.05 103.17 356.22 103.35" fill="none" stroke="#ffefe4" stroke-linecap="round" stroke-linejoin="round" stroke-width="2.41"/>
  <path d="M308.13,163.68c0-1.33,1.08-2.41,2.41-2.41s2.41,1.08,2.41,2.41-1.08,2.41-2.41,2.41-2.41-1.08-2.41-2.41" fill="#ffefe4"/>
  <path d="M318.76,153.05c0-1.33,1.08-2.41,2.41-2.41s2.41,1.08,2.41,2.41c0,1.33-1.08,2.41-2.41,2.41s-2.41-1.08-2.41-2.41" fill="#ffefe4"/>
  <path d="M329.4,142.41c0-1.33,1.08-2.41,2.41-2.41s2.41,1.08,2.41,2.41-1.08,2.41-2.41,2.41-2.41-1.08-2.41-2.41" fill="#ffefe4"/>
  <path d="M350.67,121.14c0-1.33,1.08-2.41,2.41-2.41s2.41,1.08,2.41,2.41-1.08,2.41-2.41,2.41-2.41-1.08-2.41-2.41" fill="#ffefe4"/>
  <path d="M340.03,131.78c0-1.33,1.08-2.41,2.41-2.41s2.41,1.08,2.41,2.41-1.08,2.41-2.41,2.41-2.41-1.08-2.41-2.41" fill="#ffefe4"/>
  <polygon points="267.53 100.26 258.25 87.26 274.01 84.62 276.65 68.86 289.66 78.14 302.67 68.86 305.3 84.62 321.06 87.26 311.78 100.26 321.06 113.27 305.3 115.91 302.67 131.67 289.66 122.39 276.65 131.67 274.01 115.91 258.25 113.27 267.53 100.26" fill="none" stroke="#ffefe4" stroke-linecap="round" stroke-linejoin="round" stroke-width="2.41"/>
  <path d="M289.66,93.04c3.99,0,7.22,3.23,7.22,7.22s-3.23,7.23-7.22,7.23-7.22-3.23-7.22-7.23,3.23-7.22,7.22-7.22" fill="#ffefe4"/>
  <polygon points="454.21 672.62 390.74 609.15 375.91 608.97 376.1 623.8 439.57 687.27 454.4 687.46 454.21 672.62" fill="none" stroke="#ffefe4" stroke-linecap="round" stroke-linejoin="round" stroke-width="2.41"/>
  <path d="M393.88,624.53c1.33,0,2.41,1.08,2.41,2.41s-1.08,2.41-2.41,2.41-2.41-1.08-2.41-2.41,1.08-2.41,2.41-2.41" fill="#ffefe4"/>
  <path d="M404.52,635.17c1.33,0,2.41,1.08,2.41,2.41s-1.08,2.41-2.41,2.41-2.41-1.08-2.41-2.41c0-1.33,1.08-2.41,2.41-2.41" fill="#ffefe4"/>
  <path d="M415.15,645.8c1.33,0,2.41,1.08,2.41,2.41s-1.08,2.41-2.41,2.41-2.41-1.08-2.41-2.41,1.08-2.41,2.41-2.41" fill="#ffefe4"/>
  <path d="M436.43,667.07c1.33,0,2.41,1.08,2.41,2.41s-1.08,2.41-2.41,2.41-2.41-1.08-2.41-2.41,1.08-2.41,2.41-2.41" fill="#ffefe4"/>
  <path d="M425.79,656.44c1.33,0,2.41,1.08,2.41,2.41s-1.08,2.41-2.41,2.41-2.41-1.08-2.41-2.41,1.08-2.41,2.41-2.41" fill="#ffefe4"/>
  <polygon points="390.74 602.97 454.21 539.5 454.4 524.67 439.57 524.85 376.1 588.32 375.91 603.16 390.74 602.97" fill="none" stroke="#ffefe4" stroke-linecap="round" stroke-linejoin="round" stroke-width="2.41"/>
  <path d="M438.84,542.64c0,1.33-1.08,2.41-2.41,2.41s-2.41-1.08-2.41-2.41,1.08-2.41,2.41-2.41,2.41,1.08,2.41,2.41" fill="#ffefe4"/>
  <path d="M428.2,553.28c0,1.33-1.08,2.41-2.41,2.41s-2.41-1.08-2.41-2.41,1.08-2.41,2.41-2.41,2.41,1.08,2.41,2.41" fill="#ffefe4"/>
  <path d="M417.56,563.91c0,1.33-1.08,2.41-2.41,2.41s-2.41-1.08-2.41-2.41,1.08-2.41,2.41-2.41,2.41,1.08,2.41,2.41" fill="#ffefe4"/>
  <path d="M396.29,585.18c0,1.33-1.08,2.41-2.41,2.41s-2.41-1.08-2.41-2.41,1.08-2.41,2.41-2.41,2.41,1.08,2.41,2.41" fill="#ffefe4"/>
  <path d="M406.93,574.55c0,1.33-1.08,2.41-2.41,2.41s-2.41-1.08-2.41-2.41c0-1.33,1.08-2.41,2.41-2.41s2.41,1.08,2.41,2.41" fill="#ffefe4"/>
  <polygon points="460.4 539.5 523.87 602.97 538.7 603.16 538.51 588.32 475.04 524.85 460.21 524.67 460.4 539.5" fill="none" stroke="#ffefe4" stroke-linecap="round" stroke-linejoin="round" stroke-width="2.41"/>
  <path d="M520.73,587.59c-1.33,0-2.41-1.08-2.41-2.41s1.08-2.41,2.41-2.41,2.41,1.08,2.41,2.41-1.08,2.41-2.41,2.41" fill="#ffefe4"/>
  <path d="M510.09,576.96c-1.33,0-2.41-1.08-2.41-2.41s1.08-2.41,2.41-2.41,2.41,1.08,2.41,2.41-1.08,2.41-2.41,2.41" fill="#ffefe4"/>
  <path d="M499.45,566.32c-1.33,0-2.41-1.08-2.41-2.41,0-1.33,1.08-2.41,2.41-2.41s2.41,1.08,2.41,2.41-1.08,2.41-2.41,2.41" fill="#ffefe4"/>
  <path d="M478.18,545.05c-1.33,0-2.41-1.08-2.41-2.41s1.08-2.41,2.41-2.41,2.41,1.08,2.41,2.41-1.08,2.41-2.41,2.41" fill="#ffefe4"/>
  <path d="M488.82,555.69c-1.33,0-2.41-1.08-2.41-2.41s1.08-2.41,2.41-2.41,2.41,1.08,2.41,2.41-1.08,2.41-2.41,2.41" fill="#ffefe4"/>
  <polygon points="523.87 609.15 460.4 672.62 460.21 687.46 475.04 687.27 538.51 623.8 538.7 608.97 523.87 609.15" fill="none" stroke="#ffefe4" stroke-linecap="round" stroke-linejoin="round" stroke-width="2.41"/>
  <path d="M475.77,669.48c0-1.33,1.08-2.41,2.41-2.41s2.41,1.08,2.41,2.41-1.08,2.41-2.41,2.41-2.41-1.08-2.41-2.41" fill="#ffefe4"/>
  <path d="M486.41,658.85c0-1.33,1.08-2.41,2.41-2.41s2.41,1.08,2.41,2.41-1.08,2.41-2.41,2.41-2.41-1.08-2.41-2.41" fill="#ffefe4"/>
  <path d="M497.04,648.21c0-1.33,1.08-2.41,2.41-2.41s2.41,1.08,2.41,2.41-1.08,2.41-2.41,2.41-2.41-1.08-2.41-2.41" fill="#ffefe4"/>
  <path d="M518.32,626.94c0-1.33,1.08-2.41,2.41-2.41s2.41,1.08,2.41,2.41-1.08,2.41-2.41,2.41-2.41-1.08-2.41-2.41" fill="#ffefe4"/>
  <path d="M507.68,637.58c0-1.33,1.08-2.41,2.41-2.41s2.41,1.08,2.41,2.41-1.08,2.41-2.41,2.41-2.41-1.08-2.41-2.41" fill="#ffefe4"/>
  <polygon points="435.18 606.06 425.9 593.05 441.66 590.42 444.3 574.66 457.3 583.94 470.31 574.66 472.95 590.42 488.71 593.05 479.43 606.06 488.71 619.07 472.95 621.7 470.31 637.47 457.3 628.19 444.3 637.47 441.66 621.7 425.9 619.07 435.18 606.06" fill="none" stroke="#ffefe4" stroke-linecap="round" stroke-linejoin="round" stroke-width="2.41"/>
  <path d="M457.3,598.84c3.99,0,7.22,3.23,7.22,7.22s-3.23,7.23-7.22,7.23-7.22-3.23-7.22-7.23c0-3.99,3.23-7.22,7.22-7.22" fill="#ffefe4"/>
  <polygon points="454.21 504.02 390.74 440.55 375.91 440.37 376.1 455.2 439.57 518.67 454.4 518.86 454.21 504.02" fill="none" stroke="#ffefe4" stroke-linecap="round" stroke-linejoin="round" stroke-width="2.41"/>
  <path d="M393.88,455.93c1.33,0,2.41,1.08,2.41,2.41s-1.08,2.41-2.41,2.41-2.41-1.08-2.41-2.41,1.08-2.41,2.41-2.41" fill="#ffefe4"/>
  <path d="M404.52,466.57c1.33,0,2.41,1.08,2.41,2.41s-1.08,2.41-2.41,2.41-2.41-1.08-2.41-2.41,1.08-2.41,2.41-2.41" fill="#ffefe4"/>
  <path d="M415.15,477.2c1.33,0,2.41,1.08,2.41,2.41s-1.08,2.41-2.41,2.41-2.41-1.08-2.41-2.41,1.08-2.41,2.41-2.41" fill="#ffefe4"/>
  <path d="M436.43,498.47c1.33,0,2.41,1.08,2.41,2.41s-1.08,2.41-2.41,2.41-2.41-1.08-2.41-2.41c0-1.33,1.08-2.41,2.41-2.41" fill="#ffefe4"/>
  <path d="M425.79,487.84c1.33,0,2.41,1.08,2.41,2.41s-1.08,2.41-2.41,2.41-2.41-1.08-2.41-2.41,1.08-2.41,2.41-2.41" fill="#ffefe4"/>
  <polygon points="390.74 434.37 454.21 370.9 454.4 356.07 439.57 356.25 376.1 419.72 375.91 434.56 390.74 434.37" fill="none" stroke="#ffefe4" stroke-linecap="round" stroke-linejoin="round" stroke-width="2.41"/>
  <path d="M438.84,374.04c0,1.33-1.08,2.41-2.41,2.41s-2.41-1.08-2.41-2.41,1.08-2.41,2.41-2.41,2.41,1.08,2.41,2.41" fill="#ffefe4"/>
  <path d="M428.2,384.68c0,1.33-1.08,2.41-2.41,2.41s-2.41-1.08-2.41-2.41,1.08-2.41,2.41-2.41,2.41,1.08,2.41,2.41" fill="#ffefe4"/>
  <path d="M417.56,395.31c0,1.33-1.08,2.41-2.41,2.41s-2.41-1.08-2.41-2.41,1.08-2.41,2.41-2.41,2.41,1.08,2.41,2.41" fill="#ffefe4"/>
  <path d="M396.29,416.58c0,1.33-1.08,2.41-2.41,2.41s-2.41-1.08-2.41-2.41,1.08-2.41,2.41-2.41,2.41,1.08,2.41,2.41" fill="#ffefe4"/>
  <path d="M406.93,405.95c0,1.33-1.08,2.41-2.41,2.41s-2.41-1.08-2.41-2.41,1.08-2.41,2.41-2.41,2.41,1.08,2.41,2.41" fill="#ffefe4"/>
  <polygon points="460.4 370.9 523.87 434.37 538.7 434.56 538.51 419.72 475.04 356.25 460.21 356.07 460.4 370.9" fill="none" stroke="#ffefe4" stroke-linecap="round" stroke-linejoin="round" stroke-width="2.41"/>
  <path d="M520.73,418.99c-1.33,0-2.41-1.08-2.41-2.41s1.08-2.41,2.41-2.41,2.41,1.08,2.41,2.41-1.08,2.41-2.41,2.41" fill="#ffefe4"/>
  <path d="M510.09,408.36c-1.33,0-2.41-1.08-2.41-2.41s1.08-2.41,2.41-2.41,2.41,1.08,2.41,2.41-1.08,2.41-2.41,2.41" fill="#ffefe4"/>
  <path d="M499.45,397.72c-1.33,0-2.41-1.08-2.41-2.41s1.08-2.41,2.41-2.41,2.41,1.08,2.41,2.41-1.08,2.41-2.41,2.41" fill="#ffefe4"/>
  <path d="M478.18,376.45c-1.33,0-2.41-1.08-2.41-2.41s1.08-2.41,2.41-2.41,2.41,1.08,2.41,2.41-1.08,2.41-2.41,2.41" fill="#ffefe4"/>
  <path d="M488.82,387.09c-1.33,0-2.41-1.08-2.41-2.41s1.08-2.41,2.41-2.41,2.41,1.08,2.41,2.41-1.08,2.41-2.41,2.41" fill="#ffefe4"/>
  <polygon points="523.87 440.55 460.4 504.02 460.21 518.86 475.04 518.67 538.51 455.2 538.7 440.37 523.87 440.55" fill="none" stroke="#ffefe4" stroke-linecap="round" stroke-linejoin="round" stroke-width="2.41"/>
  <path d="M475.77,500.88c0-1.33,1.08-2.41,2.41-2.41s2.41,1.08,2.41,2.41-1.08,2.41-2.41,2.41-2.41-1.08-2.41-2.41" fill="#ffefe4"/>
  <path d="M486.41,490.25c0-1.33,1.08-2.41,2.41-2.41s2.41,1.08,2.41,2.41-1.08,2.41-2.41,2.41-2.41-1.08-2.41-2.41" fill="#ffefe4"/>
  <path d="M497.04,479.61c0-1.33,1.08-2.41,2.41-2.41s2.41,1.08,2.41,2.41-1.08,2.41-2.41,2.41-2.41-1.08-2.41-2.41" fill="#ffefe4"/>
  <path d="M518.32,458.34c0-1.33,1.08-2.41,2.41-2.41s2.41,1.08,2.41,2.41-1.08,2.41-2.41,2.41-2.41-1.08-2.41-2.41" fill="#ffefe4"/>
  <path d="M507.68,468.98c0-1.33,1.08-2.41,2.41-2.41s2.41,1.08,2.41,2.41-1.08,2.41-2.41,2.41-2.41-1.08-2.41-2.41" fill="#ffefe4"/>
  <polygon points="435.18 437.46 425.9 424.45 441.66 421.82 444.3 406.06 457.3 415.34 470.31 406.06 472.95 421.82 488.71 424.45 479.43 437.46 488.71 450.47 472.95 453.11 470.31 468.87 457.3 459.59 444.3 468.87 441.66 453.11 425.9 450.47 435.18 437.46" fill="none" stroke="#ffefe4" stroke-linecap="round" stroke-linejoin="round" stroke-width="2.41"/>
  <path d="M457.3,430.24c3.99,0,7.22,3.23,7.22,7.22,0,3.99-3.23,7.23-7.22,7.23s-7.22-3.23-7.22-7.23,3.23-7.22,7.22-7.22" fill="#ffefe4"/>
  <polygon points="454.21 335.42 390.74 271.96 375.91 271.77 376.1 286.6 439.57 350.07 454.4 350.26 454.21 335.42" fill="none" stroke="#ffefe4" stroke-linecap="round" stroke-linejoin="round" stroke-width="2.41"/>
  <path d="M393.88,287.33c1.33,0,2.41,1.08,2.41,2.41s-1.08,2.41-2.41,2.41-2.41-1.08-2.41-2.41,1.08-2.41,2.41-2.41" fill="#ffefe4"/>
  <path d="M404.52,297.97c1.33,0,2.41,1.08,2.41,2.41s-1.08,2.41-2.41,2.41-2.41-1.08-2.41-2.41,1.08-2.41,2.41-2.41" fill="#ffefe4"/>
  <path d="M415.15,308.6c1.33,0,2.41,1.08,2.41,2.41s-1.08,2.41-2.41,2.41-2.41-1.08-2.41-2.41,1.08-2.41,2.41-2.41" fill="#ffefe4"/>
  <path d="M436.43,329.87c1.33,0,2.41,1.08,2.41,2.41s-1.08,2.41-2.41,2.41-2.41-1.08-2.41-2.41,1.08-2.41,2.41-2.41" fill="#ffefe4"/>
  <path d="M425.79,319.24c1.33,0,2.41,1.08,2.41,2.41s-1.08,2.41-2.41,2.41-2.41-1.08-2.41-2.41,1.08-2.41,2.41-2.41" fill="#ffefe4"/>
  <polygon points="390.74 265.77 454.21 202.3 454.4 187.47 439.57 187.65 376.1 251.13 375.91 265.96 390.74 265.77" fill="none" stroke="#ffefe4" stroke-linecap="round" stroke-linejoin="round" stroke-width="2.41"/>
  <path d="M438.84,205.44c0,1.33-1.08,2.41-2.41,2.41s-2.41-1.08-2.41-2.41,1.08-2.41,2.41-2.41,2.41,1.08,2.41,2.41" fill="#ffefe4"/>
  <path d="M428.2,216.08c0,1.33-1.08,2.41-2.41,2.41s-2.41-1.08-2.41-2.41,1.08-2.41,2.41-2.41,2.41,1.08,2.41,2.41" fill="#ffefe4"/>
  <path d="M417.56,226.71c0,1.33-1.08,2.41-2.41,2.41s-2.41-1.08-2.41-2.41,1.08-2.41,2.41-2.41,2.41,1.08,2.41,2.41" fill="#ffefe4"/>
  <path d="M396.29,247.98c0,1.33-1.08,2.41-2.41,2.41s-2.41-1.08-2.41-2.41,1.08-2.41,2.41-2.41,2.41,1.08,2.41,2.41" fill="#ffefe4"/>
  <path d="M406.93,237.35c0,1.33-1.08,2.41-2.41,2.41s-2.41-1.08-2.41-2.41,1.08-2.41,2.41-2.41,2.41,1.08,2.41,2.41" fill="#ffefe4"/>
  <polygon points="460.4 202.3 523.87 265.77 538.7 265.96 538.51 251.13 475.04 187.66 460.21 187.47 460.4 202.3" fill="none" stroke="#ffefe4" stroke-linecap="round" stroke-linejoin="round" stroke-width="2.41"/>
  <path d="M520.73,250.39c-1.33,0-2.41-1.08-2.41-2.41s1.08-2.41,2.41-2.41,2.41,1.08,2.41,2.41-1.08,2.41-2.41,2.41" fill="#ffefe4"/>
  <path d="M510.09,239.76c-1.33,0-2.41-1.08-2.41-2.41s1.08-2.41,2.41-2.41,2.41,1.08,2.41,2.41-1.08,2.41-2.41,2.41" fill="#ffefe4"/>
  <path d="M499.45,229.12c-1.33,0-2.41-1.08-2.41-2.41s1.08-2.41,2.41-2.41,2.41,1.08,2.41,2.41-1.08,2.41-2.41,2.41" fill="#ffefe4"/>
  <path d="M478.18,207.85c-1.33,0-2.41-1.08-2.41-2.41s1.08-2.41,2.41-2.41,2.41,1.08,2.41,2.41-1.08,2.41-2.41,2.41" fill="#ffefe4"/>
  <path d="M488.82,218.49c-1.33,0-2.41-1.08-2.41-2.41s1.08-2.41,2.41-2.41,2.41,1.08,2.41,2.41-1.08,2.41-2.41,2.41" fill="#ffefe4"/>
  <polygon points="523.87 271.95 460.4 335.42 460.21 350.26 475.04 350.07 538.51 286.6 538.7 271.77 523.87 271.95" fill="none" stroke="#ffefe4" stroke-linecap="round" stroke-linejoin="round" stroke-width="2.41"/>
  <path d="M475.77,332.28c0-1.33,1.08-2.41,2.41-2.41s2.41,1.08,2.41,2.41c0,1.33-1.08,2.41-2.41,2.41s-2.41-1.08-2.41-2.41" fill="#ffefe4"/>
  <path d="M486.41,321.65c0-1.33,1.08-2.41,2.41-2.41s2.41,1.08,2.41,2.41-1.08,2.41-2.41,2.41-2.41-1.08-2.41-2.41" fill="#ffefe4"/>
  <path d="M497.04,311.01c0-1.33,1.08-2.41,2.41-2.41s2.41,1.08,2.41,2.41-1.08,2.41-2.41,2.41-2.41-1.08-2.41-2.41" fill="#ffefe4"/>
  <path d="M518.32,289.74c0-1.33,1.08-2.41,2.41-2.41s2.41,1.08,2.41,2.41-1.08,2.41-2.41,2.41-2.41-1.08-2.41-2.41" fill="#ffefe4"/>
  <path d="M507.68,300.38c0-1.33,1.08-2.41,2.41-2.41s2.41,1.08,2.41,2.41c0,1.33-1.08,2.41-2.41,2.41s-2.41-1.08-2.41-2.41" fill="#ffefe4"/>
  <polygon points="435.18 268.86 425.9 255.86 441.66 253.22 444.3 237.46 457.3 246.74 470.31 237.46 472.95 253.22 488.71 255.86 479.43 268.86 488.71 281.87 472.95 284.51 470.31 300.27 457.3 290.99 444.3 300.27 441.66 284.51 425.9 281.87 435.18 268.86" fill="none" stroke="#ffefe4" stroke-linecap="round" stroke-linejoin="round" stroke-width="2.41"/>
  <path d="M457.3,261.64c3.99,0,7.22,3.23,7.22,7.22s-3.23,7.23-7.22,7.23-7.22-3.23-7.22-7.23,3.23-7.22,7.22-7.22" fill="#ffefe4"/>
  <polygon points="454.21 166.83 390.74 103.36 375.91 103.17 376.1 118 439.57 181.47 454.4 181.66 454.21 166.83" fill="none" stroke="#ffefe4" stroke-linecap="round" stroke-linejoin="round" stroke-width="2.41"/>
  <path d="M393.88,118.73c1.33,0,2.41,1.08,2.41,2.41s-1.08,2.41-2.41,2.41-2.41-1.08-2.41-2.41,1.08-2.41,2.41-2.41" fill="#ffefe4"/>
  <path d="M404.52,129.37c1.33,0,2.41,1.08,2.41,2.41s-1.08,2.41-2.41,2.41-2.41-1.08-2.41-2.41c0-1.33,1.08-2.41,2.41-2.41" fill="#ffefe4"/>
  <path d="M415.15,140c1.33,0,2.41,1.08,2.41,2.41s-1.08,2.41-2.41,2.41-2.41-1.08-2.41-2.41,1.08-2.41,2.41-2.41" fill="#ffefe4"/>
  <path d="M436.43,161.28c1.33,0,2.41,1.08,2.41,2.41s-1.08,2.41-2.41,2.41-2.41-1.08-2.41-2.41,1.08-2.41,2.41-2.41" fill="#ffefe4"/>
  <path d="M425.79,150.64c1.33,0,2.41,1.08,2.41,2.41s-1.08,2.41-2.41,2.41-2.41-1.08-2.41-2.41,1.08-2.41,2.41-2.41" fill="#ffefe4"/>
  <polygon points="390.74 97.17 454.21 33.7 454.4 18.87 439.57 19.06 376.1 82.53 375.91 97.36 390.74 97.17" fill="none" stroke="#ffefe4" stroke-linecap="round" stroke-linejoin="round" stroke-width="2.41"/>
  <path d="M438.84,36.84c0,1.33-1.08,2.41-2.41,2.41s-2.41-1.08-2.41-2.41,1.08-2.41,2.41-2.41,2.41,1.08,2.41,2.41" fill="#ffefe4"/>
  <path d="M428.2,47.48c0,1.33-1.08,2.41-2.41,2.41s-2.41-1.08-2.41-2.41,1.08-2.41,2.41-2.41,2.41,1.08,2.41,2.41" fill="#ffefe4"/>
  <path d="M417.56,58.11c0,1.33-1.08,2.41-2.41,2.41s-2.41-1.08-2.41-2.41,1.08-2.41,2.41-2.41,2.41,1.08,2.41,2.41" fill="#ffefe4"/>
  <path d="M396.29,79.39c0,1.33-1.08,2.41-2.41,2.41s-2.41-1.08-2.41-2.41,1.08-2.41,2.41-2.41,2.41,1.08,2.41,2.41" fill="#ffefe4"/>
  <path d="M406.93,68.75c0,1.33-1.08,2.41-2.41,2.41s-2.41-1.08-2.41-2.41,1.08-2.41,2.41-2.41,2.41,1.08,2.41,2.41" fill="#ffefe4"/>
  <polygon points="460.4 33.7 523.87 97.17 538.7 97.36 538.51 82.53 475.04 19.06 460.21 18.87 460.4 33.7" fill="none" stroke="#ffefe4" stroke-linecap="round" stroke-linejoin="round" stroke-width="2.41"/>
  <path d="M520.73,81.8c-1.33,0-2.41-1.08-2.41-2.41s1.08-2.41,2.41-2.41,2.41,1.08,2.41,2.41-1.08,2.41-2.41,2.41" fill="#ffefe4"/>
  <path d="M510.09,71.16c-1.33,0-2.41-1.08-2.41-2.41s1.08-2.41,2.41-2.41,2.41,1.08,2.41,2.41-1.08,2.41-2.41,2.41" fill="#ffefe4"/>
  <path d="M499.45,60.52c-1.33,0-2.41-1.08-2.41-2.41s1.08-2.41,2.41-2.41,2.41,1.08,2.41,2.41-1.08,2.41-2.41,2.41" fill="#ffefe4"/>
  <path d="M478.18,39.25c-1.33,0-2.41-1.08-2.41-2.41s1.08-2.41,2.41-2.41,2.41,1.08,2.41,2.41-1.08,2.41-2.41,2.41" fill="#ffefe4"/>
  <path d="M488.82,49.89c-1.33,0-2.41-1.08-2.41-2.41s1.08-2.41,2.41-2.41,2.41,1.08,2.41,2.41-1.08,2.41-2.41,2.41" fill="#ffefe4"/>
  <polygon points="523.87 103.36 460.4 166.82 460.21 181.66 475.04 181.47 538.51 118 538.7 103.17 523.87 103.36" fill="none" stroke="#ffefe4" stroke-linecap="round" stroke-linejoin="round" stroke-width="2.41"/>
  <path d="M475.77,163.69c0-1.33,1.08-2.41,2.41-2.41s2.41,1.08,2.41,2.41-1.08,2.41-2.41,2.41-2.41-1.08-2.41-2.41" fill="#ffefe4"/>
  <path d="M486.41,153.05c0-1.33,1.08-2.41,2.41-2.41s2.41,1.08,2.41,2.41-1.08,2.41-2.41,2.41-2.41-1.08-2.41-2.41" fill="#ffefe4"/>
  <path d="M497.04,142.41c0-1.33,1.08-2.41,2.41-2.41s2.41,1.08,2.41,2.41-1.08,2.41-2.41,2.41-2.41-1.08-2.41-2.41" fill="#ffefe4"/>
  <path d="M518.32,121.14c0-1.33,1.08-2.41,2.41-2.41s2.41,1.08,2.41,2.41-1.08,2.41-2.41,2.41-2.41-1.08-2.41-2.41" fill="#ffefe4"/>
  <path d="M507.68,131.78c0-1.33,1.08-2.41,2.41-2.41s2.41,1.08,2.41,2.41-1.08,2.41-2.41,2.41-2.41-1.08-2.41-2.41" fill="#ffefe4"/>
  <polygon points="435.18 100.26 425.9 87.26 441.66 84.62 444.3 68.86 457.3 78.14 470.31 68.86 472.95 84.62 488.71 87.26 479.43 100.26 488.71 113.27 472.95 115.91 470.31 131.67 457.3 122.39 444.3 131.67 441.66 115.91 425.9 113.27 435.18 100.26" fill="none" stroke="#ffefe4" stroke-linecap="round" stroke-linejoin="round" stroke-width="2.41"/>
  <path d="M457.3,93.04c3.99,0,7.22,3.23,7.22,7.22s-3.23,7.23-7.22,7.23-7.22-3.23-7.22-7.23,3.23-7.22,7.22-7.22" fill="#ffefe4"/>
  <polygon points="621.86 672.62 558.39 609.15 543.56 608.97 543.74 623.8 607.21 687.27 622.05 687.46 621.86 672.62" fill="none" stroke="#ffefe4" stroke-linecap="round" stroke-linejoin="round" stroke-width="2.41"/>
  <path d="M561.53,624.53c1.33,0,2.41,1.08,2.41,2.41s-1.08,2.41-2.41,2.41-2.41-1.08-2.41-2.41,1.08-2.41,2.41-2.41" fill="#ffefe4"/>
  <path d="M572.17,635.17c1.33,0,2.41,1.08,2.41,2.41s-1.08,2.41-2.41,2.41-2.41-1.08-2.41-2.41,1.08-2.41,2.41-2.41" fill="#ffefe4"/>
  <path d="M582.8,645.8c1.33,0,2.41,1.08,2.41,2.41s-1.08,2.41-2.41,2.41-2.41-1.08-2.41-2.41,1.08-2.41,2.41-2.41" fill="#ffefe4"/>
  <path d="M604.07,667.07c1.33,0,2.41,1.08,2.41,2.41s-1.08,2.41-2.41,2.41-2.41-1.08-2.41-2.41,1.08-2.41,2.41-2.41" fill="#ffefe4"/>
  <path d="M593.44,656.44c1.33,0,2.41,1.08,2.41,2.41s-1.08,2.41-2.41,2.41-2.41-1.08-2.41-2.41,1.08-2.41,2.41-2.41" fill="#ffefe4"/>
  <polygon points="558.39 602.97 621.86 539.5 622.05 524.67 607.21 524.85 543.74 588.32 543.56 603.16 558.39 602.97" fill="none" stroke="#ffefe4" stroke-linecap="round" stroke-linejoin="round" stroke-width="2.41"/>
  <path d="M606.48,542.64c0,1.33-1.08,2.41-2.41,2.41s-2.41-1.08-2.41-2.41,1.08-2.41,2.41-2.41,2.41,1.08,2.41,2.41" fill="#ffefe4"/>
  <path d="M595.85,553.28c0,1.33-1.08,2.41-2.41,2.41s-2.41-1.08-2.41-2.41,1.08-2.41,2.41-2.41,2.41,1.08,2.41,2.41" fill="#ffefe4"/>
  <path d="M585.21,563.91c0,1.33-1.08,2.41-2.41,2.41s-2.41-1.08-2.41-2.41,1.08-2.41,2.41-2.41,2.41,1.08,2.41,2.41" fill="#ffefe4"/>
  <path d="M563.94,585.18c0,1.33-1.08,2.41-2.41,2.41s-2.41-1.08-2.41-2.41,1.08-2.41,2.41-2.41,2.41,1.08,2.41,2.41" fill="#ffefe4"/>
  <path d="M574.58,574.55c0,1.33-1.08,2.41-2.41,2.41s-2.41-1.08-2.41-2.41,1.08-2.41,2.41-2.41,2.41,1.08,2.41,2.41" fill="#ffefe4"/>
  <polygon points="628.04 539.5 691.51 602.97 706.35 603.16 706.16 588.32 642.69 524.85 627.86 524.67 628.04 539.5" fill="none" stroke="#ffefe4" stroke-linecap="round" stroke-linejoin="round" stroke-width="2.41"/>
  <path d="M688.37,587.59c-1.33,0-2.41-1.08-2.41-2.41s1.08-2.41,2.41-2.41,2.41,1.08,2.41,2.41-1.08,2.41-2.41,2.41" fill="#ffefe4"/>
  <path d="M677.74,576.96c-1.33,0-2.41-1.08-2.41-2.41s1.08-2.41,2.41-2.41,2.41,1.08,2.41,2.41-1.08,2.41-2.41,2.41" fill="#ffefe4"/>
  <path d="M667.1,566.32c-1.33,0-2.41-1.08-2.41-2.41s1.08-2.41,2.41-2.41,2.41,1.08,2.41,2.41-1.08,2.41-2.41,2.41" fill="#ffefe4"/>
  <path d="M645.83,545.05c-1.33,0-2.41-1.08-2.41-2.41s1.08-2.41,2.41-2.41,2.41,1.08,2.41,2.41-1.08,2.41-2.41,2.41" fill="#ffefe4"/>
  <path d="M656.47,555.69c-1.33,0-2.41-1.08-2.41-2.41s1.08-2.41,2.41-2.41,2.41,1.08,2.41,2.41-1.08,2.41-2.41,2.41" fill="#ffefe4"/>
  <polygon points="691.51 609.15 628.04 672.62 627.86 687.46 642.69 687.27 706.16 623.8 706.35 608.97 691.51 609.15" fill="none" stroke="#ffefe4" stroke-linecap="round" stroke-linejoin="round" stroke-width="2.41"/>
  <path d="M643.42,669.48c0-1.33,1.08-2.41,2.41-2.41s2.41,1.08,2.41,2.41-1.08,2.41-2.41,2.41-2.41-1.08-2.41-2.41" fill="#ffefe4"/>
  <path d="M654.06,658.85c0-1.33,1.08-2.41,2.41-2.41s2.41,1.08,2.41,2.41-1.08,2.41-2.41,2.41-2.41-1.08-2.41-2.41" fill="#ffefe4"/>
  <path d="M664.69,648.21c0-1.33,1.08-2.41,2.41-2.41s2.41,1.08,2.41,2.41-1.08,2.41-2.41,2.41-2.41-1.08-2.41-2.41" fill="#ffefe4"/>
  <path d="M685.96,626.94c0-1.33,1.08-2.41,2.41-2.41s2.41,1.08,2.41,2.41-1.08,2.41-2.41,2.41-2.41-1.08-2.41-2.41" fill="#ffefe4"/>
  <path d="M675.33,637.58c0-1.33,1.08-2.41,2.41-2.41s2.41,1.08,2.41,2.41-1.08,2.41-2.41,2.41-2.41-1.08-2.41-2.41" fill="#ffefe4"/>
  <polygon points="602.83 606.06 593.55 593.05 609.31 590.42 611.94 574.66 624.95 583.94 637.96 574.66 640.6 590.42 656.36 593.05 647.07 606.06 656.36 619.07 640.6 621.71 637.96 637.47 624.95 628.19 611.94 637.47 609.31 621.71 593.55 619.07 602.83 606.06" fill="none" stroke="#ffefe4" stroke-linecap="round" stroke-linejoin="round" stroke-width="2.41"/>
  <path d="M624.95,598.84c3.99,0,7.22,3.23,7.22,7.22s-3.23,7.23-7.22,7.23-7.22-3.23-7.22-7.23,3.23-7.22,7.22-7.22" fill="#ffefe4"/>
  <polygon points="621.86 504.02 558.39 440.56 543.56 440.37 543.74 455.2 607.21 518.67 622.05 518.86 621.86 504.02" fill="none" stroke="#ffefe4" stroke-linecap="round" stroke-linejoin="round" stroke-width="2.41"/>
  <path d="M561.53,455.93c1.33,0,2.41,1.08,2.41,2.41s-1.08,2.41-2.41,2.41-2.41-1.08-2.41-2.41,1.08-2.41,2.41-2.41" fill="#ffefe4"/>
  <path d="M572.17,466.57c1.33,0,2.41,1.08,2.41,2.41s-1.08,2.41-2.41,2.41-2.41-1.08-2.41-2.41,1.08-2.41,2.41-2.41" fill="#ffefe4"/>
  <path d="M582.8,477.2c1.33,0,2.41,1.08,2.41,2.41s-1.08,2.41-2.41,2.41-2.41-1.08-2.41-2.41,1.08-2.41,2.41-2.41" fill="#ffefe4"/>
  <path d="M604.07,498.47c1.33,0,2.41,1.08,2.41,2.41s-1.08,2.41-2.41,2.41-2.41-1.08-2.41-2.41,1.08-2.41,2.41-2.41" fill="#ffefe4"/>
  <path d="M593.44,487.84c1.33,0,2.41,1.08,2.41,2.41s-1.08,2.41-2.41,2.41-2.41-1.08-2.41-2.41,1.08-2.41,2.41-2.41" fill="#ffefe4"/>
  <polygon points="558.39 434.37 621.86 370.9 622.05 356.07 607.21 356.25 543.74 419.73 543.56 434.56 558.39 434.37" fill="none" stroke="#ffefe4" stroke-linecap="round" stroke-linejoin="round" stroke-width="2.41"/>
  <path d="M606.48,374.04c0,1.33-1.08,2.41-2.41,2.41s-2.41-1.08-2.41-2.41,1.08-2.41,2.41-2.41,2.41,1.08,2.41,2.41" fill="#ffefe4"/>
  <path d="M595.85,384.68c0,1.33-1.08,2.41-2.41,2.41s-2.41-1.08-2.41-2.41c0-1.33,1.08-2.41,2.41-2.41s2.41,1.08,2.41,2.41" fill="#ffefe4"/>
  <path d="M585.21,395.31c0,1.33-1.08,2.41-2.41,2.41s-2.41-1.08-2.41-2.41,1.08-2.41,2.41-2.41,2.41,1.08,2.41,2.41" fill="#ffefe4"/>
  <path d="M563.94,416.58c0,1.33-1.08,2.41-2.41,2.41s-2.41-1.08-2.41-2.41,1.08-2.41,2.41-2.41,2.41,1.08,2.41,2.41" fill="#ffefe4"/>
  <path d="M574.58,405.95c0,1.33-1.08,2.41-2.41,2.41s-2.41-1.08-2.41-2.41,1.08-2.41,2.41-2.41,2.41,1.08,2.41,2.41" fill="#ffefe4"/>
  <polygon points="628.04 370.9 691.51 434.37 706.35 434.56 706.16 419.73 642.69 356.26 627.86 356.07 628.04 370.9" fill="none" stroke="#ffefe4" stroke-linecap="round" stroke-linejoin="round" stroke-width="2.41"/>
  <path d="M688.37,418.99c-1.33,0-2.41-1.08-2.41-2.41s1.08-2.41,2.41-2.41,2.41,1.08,2.41,2.41-1.08,2.41-2.41,2.41" fill="#ffefe4"/>
  <path d="M677.74,408.36c-1.33,0-2.41-1.08-2.41-2.41s1.08-2.41,2.41-2.41,2.41,1.08,2.41,2.41-1.08,2.41-2.41,2.41" fill="#ffefe4"/>
  <path d="M667.1,397.72c-1.33,0-2.41-1.08-2.41-2.41s1.08-2.41,2.41-2.41,2.41,1.08,2.41,2.41-1.08,2.41-2.41,2.41" fill="#ffefe4"/>
  <path d="M645.83,376.45c-1.33,0-2.41-1.08-2.41-2.41s1.08-2.41,2.41-2.41,2.41,1.08,2.41,2.41-1.08,2.41-2.41,2.41" fill="#ffefe4"/>
  <path d="M656.47,387.09c-1.33,0-2.41-1.08-2.41-2.41s1.08-2.41,2.41-2.41,2.41,1.08,2.41,2.41-1.08,2.41-2.41,2.41" fill="#ffefe4"/>
  <polygon points="691.51 440.55 628.04 504.02 627.86 518.86 642.69 518.67 706.16 455.2 706.35 440.37 691.51 440.55" fill="none" stroke="#ffefe4" stroke-linecap="round" stroke-linejoin="round" stroke-width="2.41"/>
  <path d="M643.42,500.88c0-1.33,1.08-2.41,2.41-2.41s2.41,1.08,2.41,2.41-1.08,2.41-2.41,2.41-2.41-1.08-2.41-2.41" fill="#ffefe4"/>
  <path d="M654.06,490.25c0-1.33,1.08-2.41,2.41-2.41s2.41,1.08,2.41,2.41-1.08,2.41-2.41,2.41-2.41-1.08-2.41-2.41" fill="#ffefe4"/>
  <path d="M664.69,479.61c0-1.33,1.08-2.41,2.41-2.41s2.41,1.08,2.41,2.41-1.08,2.41-2.41,2.41-2.41-1.08-2.41-2.41" fill="#ffefe4"/>
  <path d="M685.96,458.34c0-1.33,1.08-2.41,2.41-2.41s2.41,1.08,2.41,2.41-1.08,2.41-2.41,2.41-2.41-1.08-2.41-2.41" fill="#ffefe4"/>
  <path d="M675.33,468.98c0-1.33,1.08-2.41,2.41-2.41s2.41,1.08,2.41,2.41-1.08,2.41-2.41,2.41-2.41-1.08-2.41-2.41" fill="#ffefe4"/>
  <polygon points="602.83 437.46 593.55 424.46 609.31 421.82 611.94 406.06 624.95 415.34 637.96 406.06 640.6 421.82 656.36 424.46 647.07 437.46 656.36 450.47 640.6 453.11 637.96 468.87 624.95 459.59 611.94 468.87 609.31 453.11 593.55 450.47 602.83 437.46" fill="none" stroke="#ffefe4" stroke-linecap="round" stroke-linejoin="round" stroke-width="2.41"/>
  <path d="M624.95,430.24c3.99,0,7.22,3.23,7.22,7.22s-3.23,7.23-7.22,7.23-7.22-3.23-7.22-7.23,3.23-7.22,7.22-7.22" fill="#ffefe4"/>
  <polygon points="621.86 335.43 558.39 271.96 543.56 271.77 543.74 286.6 607.21 350.07 622.05 350.26 621.86 335.43" fill="none" stroke="#ffefe4" stroke-linecap="round" stroke-linejoin="round" stroke-width="2.41"/>
  <path d="M561.53,287.33c1.33,0,2.41,1.08,2.41,2.41s-1.08,2.41-2.41,2.41-2.41-1.08-2.41-2.41,1.08-2.41,2.41-2.41" fill="#ffefe4"/>
  <path d="M572.17,297.97c1.33,0,2.41,1.08,2.41,2.41s-1.08,2.41-2.41,2.41-2.41-1.08-2.41-2.41,1.08-2.41,2.41-2.41" fill="#ffefe4"/>
  <path d="M582.8,308.6c1.33,0,2.41,1.08,2.41,2.41s-1.08,2.41-2.41,2.41-2.41-1.08-2.41-2.41,1.08-2.41,2.41-2.41" fill="#ffefe4"/>
  <path d="M604.07,329.88c1.33,0,2.41,1.08,2.41,2.41s-1.08,2.41-2.41,2.41-2.41-1.08-2.41-2.41,1.08-2.41,2.41-2.41" fill="#ffefe4"/>
  <path d="M593.44,319.24c1.33,0,2.41,1.08,2.41,2.41s-1.08,2.41-2.41,2.41-2.41-1.08-2.41-2.41,1.08-2.41,2.41-2.41" fill="#ffefe4"/>
  <polygon points="558.39 265.77 621.86 202.3 622.05 187.47 607.21 187.66 543.74 251.13 543.56 265.96 558.39 265.77" fill="none" stroke="#ffefe4" stroke-linecap="round" stroke-linejoin="round" stroke-width="2.41"/>
  <path d="M606.48,205.44c0,1.33-1.08,2.41-2.41,2.41s-2.41-1.08-2.41-2.41,1.08-2.41,2.41-2.41,2.41,1.08,2.41,2.41" fill="#ffefe4"/>
  <path d="M595.85,216.08c0,1.33-1.08,2.41-2.41,2.41s-2.41-1.08-2.41-2.41,1.08-2.41,2.41-2.41,2.41,1.08,2.41,2.41" fill="#ffefe4"/>
  <path d="M585.21,226.71c0,1.33-1.08,2.41-2.41,2.41s-2.41-1.08-2.41-2.41,1.08-2.41,2.41-2.41,2.41,1.08,2.41,2.41" fill="#ffefe4"/>
  <path d="M563.94,247.99c0,1.33-1.08,2.41-2.41,2.41s-2.41-1.08-2.41-2.41,1.08-2.41,2.41-2.41,2.41,1.08,2.41,2.41" fill="#ffefe4"/>
  <path d="M574.58,237.35c0,1.33-1.08,2.41-2.41,2.41s-2.41-1.08-2.41-2.41,1.08-2.41,2.41-2.41,2.41,1.08,2.41,2.41" fill="#ffefe4"/>
  <polygon points="628.04 202.3 691.51 265.77 706.35 265.96 706.16 251.13 642.69 187.66 627.86 187.47 628.04 202.3" fill="none" stroke="#ffefe4" stroke-linecap="round" stroke-linejoin="round" stroke-width="2.41"/>
  <path d="M688.37,250.4c-1.33,0-2.41-1.08-2.41-2.41s1.08-2.41,2.41-2.41,2.41,1.08,2.41,2.41-1.08,2.41-2.41,2.41" fill="#ffefe4"/>
  <path d="M677.74,239.76c-1.33,0-2.41-1.08-2.41-2.41s1.08-2.41,2.41-2.41,2.41,1.08,2.41,2.41-1.08,2.41-2.41,2.41" fill="#ffefe4"/>
  <path d="M667.1,229.12c-1.33,0-2.41-1.08-2.41-2.41s1.08-2.41,2.41-2.41,2.41,1.08,2.41,2.41c0,1.33-1.08,2.41-2.41,2.41" fill="#ffefe4"/>
  <path d="M645.83,207.85c-1.33,0-2.41-1.08-2.41-2.41s1.08-2.41,2.41-2.41,2.41,1.08,2.41,2.41-1.08,2.41-2.41,2.41" fill="#ffefe4"/>
  <path d="M656.47,218.49c-1.33,0-2.41-1.08-2.41-2.41s1.08-2.41,2.41-2.41,2.41,1.08,2.41,2.41-1.08,2.41-2.41,2.41" fill="#ffefe4"/>
  <polygon points="691.51 271.96 628.04 335.42 627.86 350.26 642.69 350.07 706.16 286.6 706.35 271.77 691.51 271.96" fill="none" stroke="#ffefe4" stroke-linecap="round" stroke-linejoin="round" stroke-width="2.41"/>
  <path d="M643.42,332.29c0-1.33,1.08-2.41,2.41-2.41s2.41,1.08,2.41,2.41-1.08,2.41-2.41,2.41-2.41-1.08-2.41-2.41" fill="#ffefe4"/>
  <path d="M654.06,321.65c0-1.33,1.08-2.41,2.41-2.41s2.41,1.08,2.41,2.41-1.08,2.41-2.41,2.41-2.41-1.08-2.41-2.41" fill="#ffefe4"/>
  <path d="M664.69,311.01c0-1.33,1.08-2.41,2.41-2.41s2.41,1.08,2.41,2.41-1.08,2.41-2.41,2.41-2.41-1.08-2.41-2.41" fill="#ffefe4"/>
  <path d="M685.96,289.74c0-1.33,1.08-2.41,2.41-2.41s2.41,1.08,2.41,2.41-1.08,2.41-2.41,2.41-2.41-1.08-2.41-2.41" fill="#ffefe4"/>
  <path d="M675.33,300.38c0-1.33,1.08-2.41,2.41-2.41s2.41,1.08,2.41,2.41-1.08,2.41-2.41,2.41-2.41-1.08-2.41-2.41" fill="#ffefe4"/>
  <polygon points="602.83 268.86 593.55 255.86 609.31 253.22 611.94 237.46 624.95 246.74 637.96 237.46 640.6 253.22 656.36 255.86 647.07 268.86 656.36 281.87 640.6 284.51 637.96 300.27 624.95 290.99 611.94 300.27 609.31 284.51 593.55 281.87 602.83 268.86" fill="none" stroke="#ffefe4" stroke-linecap="round" stroke-linejoin="round" stroke-width="2.41"/>
  <path d="M624.95,261.64c3.99,0,7.22,3.23,7.22,7.22s-3.23,7.23-7.22,7.23-7.22-3.23-7.22-7.23,3.23-7.22,7.22-7.22" fill="#ffefe4"/>
  <polygon points="621.86 166.83 558.39 103.36 543.56 103.17 543.74 118 607.21 181.47 622.05 181.66 621.86 166.83" fill="none" stroke="#ffefe4" stroke-linecap="round" stroke-linejoin="round" stroke-width="2.41"/>
  <path d="M561.53,118.73c1.33,0,2.41,1.08,2.41,2.41s-1.08,2.41-2.41,2.41-2.41-1.08-2.41-2.41,1.08-2.41,2.41-2.41" fill="#ffefe4"/>
  <path d="M572.17,129.37c1.33,0,2.41,1.08,2.41,2.41s-1.08,2.41-2.41,2.41-2.41-1.08-2.41-2.41,1.08-2.41,2.41-2.41" fill="#ffefe4"/>
  <path d="M582.8,140c1.33,0,2.41,1.08,2.41,2.41s-1.08,2.41-2.41,2.41-2.41-1.08-2.41-2.41,1.08-2.41,2.41-2.41" fill="#ffefe4"/>
  <path d="M604.07,161.28c1.33,0,2.41,1.08,2.41,2.41s-1.08,2.41-2.41,2.41-2.41-1.08-2.41-2.41,1.08-2.41,2.41-2.41" fill="#ffefe4"/>
  <path d="M593.44,150.64c1.33,0,2.41,1.08,2.41,2.41s-1.08,2.41-2.41,2.41-2.41-1.08-2.41-2.41,1.08-2.41,2.41-2.41" fill="#ffefe4"/>
  <polygon points="558.39 97.17 621.86 33.7 622.05 18.87 607.21 19.06 543.74 82.53 543.56 97.36 558.39 97.17" fill="none" stroke="#ffefe4" stroke-linecap="round" stroke-linejoin="round" stroke-width="2.41"/>
  <path d="M606.48,36.84c0,1.33-1.08,2.41-2.41,2.41s-2.41-1.08-2.41-2.41,1.08-2.41,2.41-2.41,2.41,1.08,2.41,2.41" fill="#ffefe4"/>
  <path d="M595.85,47.48c0,1.33-1.08,2.41-2.41,2.41s-2.41-1.08-2.41-2.41,1.08-2.41,2.41-2.41,2.41,1.08,2.41,2.41" fill="#ffefe4"/>
  <path d="M585.21,58.11c0,1.33-1.08,2.41-2.41,2.41s-2.41-1.08-2.41-2.41,1.08-2.41,2.41-2.41,2.41,1.08,2.41,2.41" fill="#ffefe4"/>
  <path d="M563.94,79.39c0,1.33-1.08,2.41-2.41,2.41s-2.41-1.08-2.41-2.41,1.08-2.41,2.41-2.41,2.41,1.08,2.41,2.41" fill="#ffefe4"/>
  <path d="M574.58,68.75c0,1.33-1.08,2.41-2.41,2.41s-2.41-1.08-2.41-2.41,1.08-2.41,2.41-2.41,2.41,1.08,2.41,2.41" fill="#ffefe4"/>
  <polygon points="628.04 33.7 691.51 97.17 706.35 97.36 706.16 82.53 642.69 19.06 627.86 18.87 628.04 33.7" fill="none" stroke="#ffefe4" stroke-linecap="round" stroke-linejoin="round" stroke-width="2.41"/>
  <path d="M688.37,81.8c-1.33,0-2.41-1.08-2.41-2.41s1.08-2.41,2.41-2.41,2.41,1.08,2.41,2.41-1.08,2.41-2.41,2.41" fill="#ffefe4"/>
  <path d="M677.74,71.16c-1.33,0-2.41-1.08-2.41-2.41s1.08-2.41,2.41-2.41,2.41,1.08,2.41,2.41-1.08,2.41-2.41,2.41" fill="#ffefe4"/>
  <path d="M667.1,60.52c-1.33,0-2.41-1.08-2.41-2.41s1.08-2.41,2.41-2.41,2.41,1.08,2.41,2.41-1.08,2.41-2.41,2.41" fill="#ffefe4"/>
  <path d="M645.83,39.25c-1.33,0-2.41-1.08-2.41-2.41s1.08-2.41,2.41-2.41,2.41,1.08,2.41,2.41-1.08,2.41-2.41,2.41" fill="#ffefe4"/>
  <path d="M656.47,49.89c-1.33,0-2.41-1.08-2.41-2.41s1.08-2.41,2.41-2.41,2.41,1.08,2.41,2.41-1.08,2.41-2.41,2.41" fill="#ffefe4"/>
  <polygon points="691.51 103.36 628.04 166.83 627.86 181.66 642.69 181.47 706.16 118 706.35 103.17 691.51 103.36" fill="none" stroke="#ffefe4" stroke-linecap="round" stroke-linejoin="round" stroke-width="2.41"/>
  <path d="M643.42,163.69c0-1.33,1.08-2.41,2.41-2.41s2.41,1.08,2.41,2.41-1.08,2.41-2.41,2.41-2.41-1.08-2.41-2.41" fill="#ffefe4"/>
  <path d="M654.06,153.05c0-1.33,1.08-2.41,2.41-2.41s2.41,1.08,2.41,2.41-1.08,2.41-2.41,2.41-2.41-1.08-2.41-2.41" fill="#ffefe4"/>
  <path d="M664.69,142.41c0-1.33,1.08-2.41,2.41-2.41s2.41,1.08,2.41,2.41-1.08,2.41-2.41,2.41-2.41-1.08-2.41-2.41" fill="#ffefe4"/>
  <path d="M685.96,121.14c0-1.33,1.08-2.41,2.41-2.41s2.41,1.08,2.41,2.41-1.08,2.41-2.41,2.41-2.41-1.08-2.41-2.41" fill="#ffefe4"/>
  <path d="M675.33,131.78c0-1.33,1.08-2.41,2.41-2.41s2.41,1.08,2.41,2.41-1.08,2.41-2.41,2.41-2.41-1.08-2.41-2.41" fill="#ffefe4"/>
  <polygon points="602.83 100.26 593.55 87.26 609.31 84.62 611.94 68.86 624.95 78.14 637.96 68.86 640.6 84.62 656.36 87.26 647.07 100.26 656.36 113.27 640.6 115.91 637.96 131.67 624.95 122.39 611.94 131.67 609.31 115.91 593.55 113.27 602.83 100.26" fill="none" stroke="#ffefe4" stroke-linecap="round" stroke-linejoin="round" stroke-width="2.41"/>
  <path d="M624.95,93.04c3.99,0,7.22,3.23,7.22,7.22s-3.23,7.23-7.22,7.23-7.22-3.23-7.22-7.23,3.23-7.22,7.22-7.22" fill="#ffefe4"/>
  <polygon points="789.51 672.62 726.04 609.16 711.2 608.97 711.39 623.8 774.86 687.27 789.7 687.46 789.51 672.62" fill="none" stroke="#ffefe4" stroke-linecap="round" stroke-linejoin="round" stroke-width="2.41"/>
  <path d="M729.18,624.53c1.33,0,2.41,1.08,2.41,2.41s-1.08,2.41-2.41,2.41-2.41-1.08-2.41-2.41,1.08-2.41,2.41-2.41" fill="#ffefe4"/>
  <path d="M739.81,635.17c1.33,0,2.41,1.08,2.41,2.41s-1.08,2.41-2.41,2.41-2.41-1.08-2.41-2.41,1.08-2.41,2.41-2.41" fill="#ffefe4"/>
  <path d="M750.45,645.8c1.33,0,2.41,1.08,2.41,2.41s-1.08,2.41-2.41,2.41-2.41-1.08-2.41-2.41,1.08-2.41,2.41-2.41" fill="#ffefe4"/>
  <path d="M771.72,667.07c1.33,0,2.41,1.08,2.41,2.41s-1.08,2.41-2.41,2.41-2.41-1.08-2.41-2.41,1.08-2.41,2.41-2.41" fill="#ffefe4"/>
  <path d="M761.09,656.44c1.33,0,2.41,1.08,2.41,2.41s-1.08,2.41-2.41,2.41-2.41-1.08-2.41-2.41,1.08-2.41,2.41-2.41" fill="#ffefe4"/>
  <polygon points="726.04 602.97 789.51 539.5 789.7 524.67 774.86 524.85 711.39 588.33 711.2 603.16 726.04 602.97" fill="none" stroke="#ffefe4" stroke-linecap="round" stroke-linejoin="round" stroke-width="2.41"/>
  <path d="M774.13,542.64c0,1.33-1.08,2.41-2.41,2.41s-2.41-1.08-2.41-2.41,1.08-2.41,2.41-2.41,2.41,1.08,2.41,2.41" fill="#ffefe4"/>
  <path d="M763.5,553.28c0,1.33-1.08,2.41-2.41,2.41s-2.41-1.08-2.41-2.41,1.08-2.41,2.41-2.41,2.41,1.08,2.41,2.41" fill="#ffefe4"/>
  <path d="M752.86,563.91c0,1.33-1.08,2.41-2.41,2.41s-2.41-1.08-2.41-2.41,1.08-2.41,2.41-2.41,2.41,1.08,2.41,2.41" fill="#ffefe4"/>
  <path d="M731.59,585.18c0,1.33-1.08,2.41-2.41,2.41s-2.41-1.08-2.41-2.41,1.08-2.41,2.41-2.41,2.41,1.08,2.41,2.41" fill="#ffefe4"/>
  <path d="M742.22,574.55c0,1.33-1.08,2.41-2.41,2.41s-2.41-1.08-2.41-2.41,1.08-2.41,2.41-2.41,2.41,1.08,2.41,2.41" fill="#ffefe4"/>
  <polygon points="795.69 539.5 859.16 602.97 874 603.16 873.81 588.33 810.34 524.86 795.5 524.67 795.69 539.5" fill="none" stroke="#ffefe4" stroke-linecap="round" stroke-linejoin="round" stroke-width="2.41"/>
  <path d="M856.02,587.59c-1.33,0-2.41-1.08-2.41-2.41s1.08-2.41,2.41-2.41,2.41,1.08,2.41,2.41-1.08,2.41-2.41,2.41" fill="#ffefe4"/>
  <path d="M845.39,576.96c-1.33,0-2.41-1.08-2.41-2.41s1.08-2.41,2.41-2.41,2.41,1.08,2.41,2.41-1.08,2.41-2.41,2.41" fill="#ffefe4"/>
  <path d="M834.75,566.32c-1.33,0-2.41-1.08-2.41-2.41s1.08-2.41,2.41-2.41,2.41,1.08,2.41,2.41-1.08,2.41-2.41,2.41" fill="#ffefe4"/>
  <path d="M813.48,545.05c-1.33,0-2.41-1.08-2.41-2.41s1.08-2.41,2.41-2.41,2.41,1.08,2.41,2.41-1.08,2.41-2.41,2.41" fill="#ffefe4"/>
  <path d="M824.11,555.69c-1.33,0-2.41-1.08-2.41-2.41s1.08-2.41,2.41-2.41,2.41,1.08,2.41,2.41-1.08,2.41-2.41,2.41" fill="#ffefe4"/>
  <polygon points="859.16 609.15 795.69 672.62 795.5 687.46 810.34 687.27 873.81 623.8 873.99 608.97 859.16 609.15" fill="none" stroke="#ffefe4" stroke-linecap="round" stroke-linejoin="round" stroke-width="2.41"/>
  <path d="M811.07,669.48c0-1.33,1.08-2.41,2.41-2.41s2.41,1.08,2.41,2.41-1.08,2.41-2.41,2.41-2.41-1.08-2.41-2.41" fill="#ffefe4"/>
  <path d="M821.7,658.85c0-1.33,1.08-2.41,2.41-2.41s2.41,1.08,2.41,2.41-1.08,2.41-2.41,2.41-2.41-1.08-2.41-2.41" fill="#ffefe4"/>
  <path d="M832.34,648.21c0-1.33,1.08-2.41,2.41-2.41s2.41,1.08,2.41,2.41-1.08,2.41-2.41,2.41-2.41-1.08-2.41-2.41" fill="#ffefe4"/>
  <path d="M853.61,626.94c0-1.33,1.08-2.41,2.41-2.41s2.41,1.08,2.41,2.41-1.08,2.41-2.41,2.41-2.41-1.08-2.41-2.41" fill="#ffefe4"/>
  <path d="M842.98,637.58c0-1.33,1.08-2.41,2.41-2.41s2.41,1.08,2.41,2.41c0,1.33-1.08,2.41-2.41,2.41s-2.41-1.08-2.41-2.41" fill="#ffefe4"/>
  <polygon points="770.48 606.06 761.2 593.06 776.96 590.42 779.59 574.66 792.6 583.94 805.61 574.66 808.24 590.42 824 593.06 814.72 606.06 824 619.07 808.24 621.71 805.61 637.47 792.6 628.19 779.59 637.47 776.96 621.71 761.2 619.07 770.48 606.06" fill="none" stroke="#ffefe4" stroke-linecap="round" stroke-linejoin="round" stroke-width="2.41"/>
  <path d="M792.6,598.84c3.99,0,7.22,3.23,7.22,7.22s-3.23,7.23-7.22,7.23-7.22-3.23-7.22-7.23,3.23-7.22,7.22-7.22" fill="#ffefe4"/>
  <polygon points="789.51 504.03 726.04 440.56 711.2 440.37 711.39 455.2 774.86 518.67 789.7 518.86 789.51 504.03" fill="none" stroke="#ffefe4" stroke-linecap="round" stroke-linejoin="round" stroke-width="2.41"/>
  <path d="M729.18,455.93c1.33,0,2.41,1.08,2.41,2.41s-1.08,2.41-2.41,2.41-2.41-1.08-2.41-2.41,1.08-2.41,2.41-2.41" fill="#ffefe4"/>
  <path d="M739.81,466.57c1.33,0,2.41,1.08,2.41,2.41s-1.08,2.41-2.41,2.41-2.41-1.08-2.41-2.41,1.08-2.41,2.41-2.41" fill="#ffefe4"/>
  <path d="M750.45,477.2c1.33,0,2.41,1.08,2.41,2.41s-1.08,2.41-2.41,2.41-2.41-1.08-2.41-2.41,1.08-2.41,2.41-2.41" fill="#ffefe4"/>
  <path d="M771.72,498.48c1.33,0,2.41,1.08,2.41,2.41s-1.08,2.41-2.41,2.41-2.41-1.08-2.41-2.41,1.08-2.41,2.41-2.41" fill="#ffefe4"/>
  <path d="M761.09,487.84c1.33,0,2.41,1.08,2.41,2.41s-1.08,2.41-2.41,2.41-2.41-1.08-2.41-2.41,1.08-2.41,2.41-2.41" fill="#ffefe4"/>
  <polygon points="726.04 434.37 789.51 370.9 789.7 356.07 774.86 356.26 711.39 419.73 711.2 434.56 726.04 434.37" fill="none" stroke="#ffefe4" stroke-linecap="round" stroke-linejoin="round" stroke-width="2.41"/>
  <path d="M774.13,374.04c0,1.33-1.08,2.41-2.41,2.41s-2.41-1.08-2.41-2.41,1.08-2.41,2.41-2.41,2.41,1.08,2.41,2.41" fill="#ffefe4"/>
  <path d="M763.5,384.68c0,1.33-1.08,2.41-2.41,2.41s-2.41-1.08-2.41-2.41,1.08-2.41,2.41-2.41,2.41,1.08,2.41,2.41" fill="#ffefe4"/>
  <path d="M752.86,395.31c0,1.33-1.08,2.41-2.41,2.41s-2.41-1.08-2.41-2.41,1.08-2.41,2.41-2.41,2.41,1.08,2.41,2.41" fill="#ffefe4"/>
  <path d="M731.59,416.59c0,1.33-1.08,2.41-2.41,2.41s-2.41-1.08-2.41-2.41,1.08-2.41,2.41-2.41,2.41,1.08,2.41,2.41" fill="#ffefe4"/>
  <path d="M742.22,405.95c0,1.33-1.08,2.41-2.41,2.41s-2.41-1.08-2.41-2.41,1.08-2.41,2.41-2.41,2.41,1.08,2.41,2.41" fill="#ffefe4"/>
  <polygon points="795.69 370.9 859.16 434.37 874 434.56 873.81 419.73 810.34 356.26 795.5 356.07 795.69 370.9" fill="none" stroke="#ffefe4" stroke-linecap="round" stroke-linejoin="round" stroke-width="2.41"/>
  <path d="M856.02,419c-1.33,0-2.41-1.08-2.41-2.41,0-1.33,1.08-2.41,2.41-2.41s2.41,1.08,2.41,2.41-1.08,2.41-2.41,2.41" fill="#ffefe4"/>
  <path d="M845.39,408.36c-1.33,0-2.41-1.08-2.41-2.41s1.08-2.41,2.41-2.41,2.41,1.08,2.41,2.41-1.08,2.41-2.41,2.41" fill="#ffefe4"/>
  <path d="M834.75,397.72c-1.33,0-2.41-1.08-2.41-2.41s1.08-2.41,2.41-2.41,2.41,1.08,2.41,2.41-1.08,2.41-2.41,2.41" fill="#ffefe4"/>
  <path d="M813.48,376.45c-1.33,0-2.41-1.08-2.41-2.41s1.08-2.41,2.41-2.41,2.41,1.08,2.41,2.41-1.08,2.41-2.41,2.41" fill="#ffefe4"/>
  <path d="M824.11,387.09c-1.33,0-2.41-1.08-2.41-2.41s1.08-2.41,2.41-2.41,2.41,1.08,2.41,2.41-1.08,2.41-2.41,2.41" fill="#ffefe4"/>
  <polygon points="859.16 440.56 795.69 504.02 795.5 518.86 810.34 518.67 873.81 455.2 873.99 440.37 859.16 440.56" fill="none" stroke="#ffefe4" stroke-linecap="round" stroke-linejoin="round" stroke-width="2.41"/>
  <path d="M811.07,500.89c0-1.33,1.08-2.41,2.41-2.41s2.41,1.08,2.41,2.41-1.08,2.41-2.41,2.41-2.41-1.08-2.41-2.41" fill="#ffefe4"/>
  <path d="M821.7,490.25c0-1.33,1.08-2.41,2.41-2.41s2.41,1.08,2.41,2.41-1.08,2.41-2.41,2.41-2.41-1.08-2.41-2.41" fill="#ffefe4"/>
  <path d="M832.34,479.61c0-1.33,1.08-2.41,2.41-2.41s2.41,1.08,2.41,2.41-1.08,2.41-2.41,2.41-2.41-1.08-2.41-2.41" fill="#ffefe4"/>
  <path d="M853.61,458.34c0-1.33,1.08-2.41,2.41-2.41s2.41,1.08,2.41,2.41-1.08,2.41-2.41,2.41-2.41-1.08-2.41-2.41" fill="#ffefe4"/>
  <path d="M842.98,468.98c0-1.33,1.08-2.41,2.41-2.41s2.41,1.08,2.41,2.41-1.08,2.41-2.41,2.41-2.41-1.08-2.41-2.41" fill="#ffefe4"/>
  <polygon points="770.48 437.46 761.2 424.46 776.96 421.82 779.59 406.06 792.6 415.34 805.61 406.06 808.24 421.82 824 424.46 814.72 437.46 824 450.47 808.24 453.11 805.61 468.87 792.6 459.59 779.59 468.87 776.96 453.11 761.2 450.47 770.48 437.46" fill="none" stroke="#ffefe4" stroke-linecap="round" stroke-linejoin="round" stroke-width="2.41"/>
  <path d="M792.6,430.24c3.99,0,7.22,3.23,7.22,7.22s-3.23,7.23-7.22,7.23-7.22-3.23-7.22-7.23,3.23-7.22,7.22-7.22" fill="#ffefe4"/>
  <polygon points="789.51 335.43 726.04 271.96 711.2 271.77 711.39 286.6 774.86 350.07 789.7 350.26 789.51 335.43" fill="none" stroke="#ffefe4" stroke-linecap="round" stroke-linejoin="round" stroke-width="2.41"/>
  <path d="M729.18,287.33c1.33,0,2.41,1.08,2.41,2.41s-1.08,2.41-2.41,2.41-2.41-1.08-2.41-2.41,1.08-2.41,2.41-2.41" fill="#ffefe4"/>
  <path d="M739.81,297.97c1.33,0,2.41,1.08,2.41,2.41s-1.08,2.41-2.41,2.41-2.41-1.08-2.41-2.41,1.08-2.41,2.41-2.41" fill="#ffefe4"/>
  <path d="M750.45,308.6c1.33,0,2.41,1.08,2.41,2.41s-1.08,2.41-2.41,2.41-2.41-1.08-2.41-2.41,1.08-2.41,2.41-2.41" fill="#ffefe4"/>
  <path d="M771.72,329.88c1.33,0,2.41,1.08,2.41,2.41s-1.08,2.41-2.41,2.41-2.41-1.08-2.41-2.41,1.08-2.41,2.41-2.41" fill="#ffefe4"/>
  <path d="M761.09,319.24c1.33,0,2.41,1.08,2.41,2.41s-1.08,2.41-2.41,2.41-2.41-1.08-2.41-2.41,1.08-2.41,2.41-2.41" fill="#ffefe4"/>
  <polygon points="726.04 265.77 789.51 202.3 789.7 187.47 774.86 187.66 711.39 251.13 711.2 265.96 726.04 265.77" fill="none" stroke="#ffefe4" stroke-linecap="round" stroke-linejoin="round" stroke-width="2.41"/>
  <path d="M774.13,205.44c0,1.33-1.08,2.41-2.41,2.41s-2.41-1.08-2.41-2.41,1.08-2.41,2.41-2.41,2.41,1.08,2.41,2.41" fill="#ffefe4"/>
  <path d="M763.5,216.08c0,1.33-1.08,2.41-2.41,2.41s-2.41-1.08-2.41-2.41,1.08-2.41,2.41-2.41,2.41,1.08,2.41,2.41" fill="#ffefe4"/>
  <path d="M752.86,226.71c0,1.33-1.08,2.41-2.41,2.41s-2.41-1.08-2.41-2.41,1.08-2.41,2.41-2.41,2.41,1.08,2.41,2.41" fill="#ffefe4"/>
  <path d="M731.59,247.99c0,1.33-1.08,2.41-2.41,2.41s-2.41-1.08-2.41-2.41,1.08-2.41,2.41-2.41,2.41,1.08,2.41,2.41" fill="#ffefe4"/>
  <path d="M742.22,237.35c0,1.33-1.08,2.41-2.41,2.41s-2.41-1.08-2.41-2.41,1.08-2.41,2.41-2.41,2.41,1.08,2.41,2.41" fill="#ffefe4"/>
  <polygon points="795.69 202.3 859.16 265.77 874 265.96 873.81 251.13 810.34 187.66 795.5 187.47 795.69 202.3" fill="none" stroke="#ffefe4" stroke-linecap="round" stroke-linejoin="round" stroke-width="2.41"/>
  <path d="M856.02,250.4c-1.33,0-2.41-1.08-2.41-2.41s1.08-2.41,2.41-2.41,2.41,1.08,2.41,2.41-1.08,2.41-2.41,2.41" fill="#ffefe4"/>
  <path d="M845.39,239.76c-1.33,0-2.41-1.08-2.41-2.41s1.08-2.41,2.41-2.41,2.41,1.08,2.41,2.41-1.08,2.41-2.41,2.41" fill="#ffefe4"/>
  <path d="M834.75,229.12c-1.33,0-2.41-1.08-2.41-2.41s1.08-2.41,2.41-2.41,2.41,1.08,2.41,2.41-1.08,2.41-2.41,2.41" fill="#ffefe4"/>
  <path d="M813.48,207.85c-1.33,0-2.41-1.08-2.41-2.41s1.08-2.41,2.41-2.41,2.41,1.08,2.41,2.41-1.08,2.41-2.41,2.41" fill="#ffefe4"/>
  <path d="M824.11,218.49c-1.33,0-2.41-1.08-2.41-2.41s1.08-2.41,2.41-2.41,2.41,1.08,2.41,2.41-1.08,2.41-2.41,2.41" fill="#ffefe4"/>
  <polygon points="859.16 271.96 795.69 335.43 795.5 350.26 810.34 350.07 873.81 286.6 873.99 271.77 859.16 271.96" fill="none" stroke="#ffefe4" stroke-linecap="round" stroke-linejoin="round" stroke-width="2.41"/>
  <path d="M811.07,332.29c0-1.33,1.08-2.41,2.41-2.41s2.41,1.08,2.41,2.41-1.08,2.41-2.41,2.41-2.41-1.08-2.41-2.41" fill="#ffefe4"/>
  <path d="M821.7,321.65c0-1.33,1.08-2.41,2.41-2.41s2.41,1.08,2.41,2.41-1.08,2.41-2.41,2.41-2.41-1.08-2.41-2.41" fill="#ffefe4"/>
  <path d="M832.34,311.01c0-1.33,1.08-2.41,2.41-2.41s2.41,1.08,2.41,2.41-1.08,2.41-2.41,2.41-2.41-1.08-2.41-2.41" fill="#ffefe4"/>
  <path d="M853.61,289.74c0-1.33,1.08-2.41,2.41-2.41s2.41,1.08,2.41,2.41-1.08,2.41-2.41,2.41-2.41-1.08-2.41-2.41" fill="#ffefe4"/>
  <path d="M842.98,300.38c0-1.33,1.08-2.41,2.41-2.41s2.41,1.08,2.41,2.41-1.08,2.41-2.41,2.41-2.41-1.08-2.41-2.41" fill="#ffefe4"/>
  <polygon points="770.48 268.86 761.2 255.86 776.96 253.22 779.59 237.46 792.6 246.74 805.61 237.46 808.24 253.22 824 255.86 814.72 268.86 824 281.87 808.24 284.51 805.61 300.27 792.6 290.99 779.59 300.27 776.96 284.51 761.2 281.87 770.48 268.86" fill="none" stroke="#ffefe4" stroke-linecap="round" stroke-linejoin="round" stroke-width="2.41"/>
  <path d="M792.6,261.64c3.99,0,7.22,3.23,7.22,7.22,0,3.99-3.23,7.23-7.22,7.23s-7.22-3.23-7.22-7.23,3.23-7.22,7.22-7.22" fill="#ffefe4"/>
  <polygon points="789.51 166.83 726.04 103.36 711.2 103.17 711.39 118 774.86 181.47 789.7 181.66 789.51 166.83" fill="none" stroke="#ffefe4" stroke-linecap="round" stroke-linejoin="round" stroke-width="2.41"/>
  <path d="M729.18,118.73c1.33,0,2.41,1.08,2.41,2.41s-1.08,2.41-2.41,2.41-2.41-1.08-2.41-2.41c0-1.33,1.08-2.41,2.41-2.41" fill="#ffefe4"/>
  <path d="M739.81,129.37c1.33,0,2.41,1.08,2.41,2.41s-1.08,2.41-2.41,2.41-2.41-1.08-2.41-2.41,1.08-2.41,2.41-2.41" fill="#ffefe4"/>
  <path d="M750.45,140.01c1.33,0,2.41,1.08,2.41,2.41s-1.08,2.41-2.41,2.41-2.41-1.08-2.41-2.41,1.08-2.41,2.41-2.41" fill="#ffefe4"/>
  <path d="M771.72,161.28c1.33,0,2.41,1.08,2.41,2.41s-1.08,2.41-2.41,2.41-2.41-1.08-2.41-2.41,1.08-2.41,2.41-2.41" fill="#ffefe4"/>
  <path d="M761.09,150.64c1.33,0,2.41,1.08,2.41,2.41s-1.08,2.41-2.41,2.41-2.41-1.08-2.41-2.41,1.08-2.41,2.41-2.41" fill="#ffefe4"/>
  <polygon points="726.04 97.17 789.51 33.7 789.7 18.87 774.86 19.06 711.39 82.53 711.2 97.36 726.04 97.17" fill="none" stroke="#ffefe4" stroke-linecap="round" stroke-linejoin="round" stroke-width="2.41"/>
  <path d="M774.13,36.84c0,1.33-1.08,2.41-2.41,2.41s-2.41-1.08-2.41-2.41,1.08-2.41,2.41-2.41,2.41,1.08,2.41,2.41" fill="#ffefe4"/>
  <path d="M763.5,47.48c0,1.33-1.08,2.41-2.41,2.41s-2.41-1.08-2.41-2.41,1.08-2.41,2.41-2.41,2.41,1.08,2.41,2.41" fill="#ffefe4"/>
  <path d="M752.86,58.12c0,1.33-1.08,2.41-2.41,2.41s-2.41-1.08-2.41-2.41,1.08-2.41,2.41-2.41,2.41,1.08,2.41,2.41" fill="#ffefe4"/>
  <path d="M731.59,79.39c0,1.33-1.08,2.41-2.41,2.41s-2.41-1.08-2.41-2.41,1.08-2.41,2.41-2.41,2.41,1.08,2.41,2.41" fill="#ffefe4"/>
  <path d="M742.22,68.75c0,1.33-1.08,2.41-2.41,2.41s-2.41-1.08-2.41-2.41,1.08-2.41,2.41-2.41,2.41,1.08,2.41,2.41" fill="#ffefe4"/>
  <polygon points="795.69 33.7 859.16 97.17 874 97.36 873.81 82.53 810.34 19.06 795.5 18.87 795.69 33.7" fill="none" stroke="#ffefe4" stroke-linecap="round" stroke-linejoin="round" stroke-width="2.41"/>
  <path d="M856.02,81.8c-1.33,0-2.41-1.08-2.41-2.41s1.08-2.41,2.41-2.41,2.41,1.08,2.41,2.41-1.08,2.41-2.41,2.41" fill="#ffefe4"/>
  <path d="M845.39,71.16c-1.33,0-2.41-1.08-2.41-2.41s1.08-2.41,2.41-2.41,2.41,1.08,2.41,2.41-1.08,2.41-2.41,2.41" fill="#ffefe4"/>
  <path d="M834.75,60.53c-1.33,0-2.41-1.08-2.41-2.41s1.08-2.41,2.41-2.41,2.41,1.08,2.41,2.41-1.08,2.41-2.41,2.41" fill="#ffefe4"/>
  <path d="M813.48,39.25c-1.33,0-2.41-1.08-2.41-2.41,0-1.33,1.08-2.41,2.41-2.41s2.41,1.08,2.41,2.41-1.08,2.41-2.41,2.41" fill="#ffefe4"/>
  <path d="M824.11,49.89c-1.33,0-2.41-1.08-2.41-2.41s1.08-2.41,2.41-2.41,2.41,1.08,2.41,2.41-1.08,2.41-2.41,2.41" fill="#ffefe4"/>
  <polygon points="859.16 103.36 795.69 166.83 795.5 181.66 810.34 181.47 873.81 118 873.99 103.17 859.16 103.36" fill="none" stroke="#ffefe4" stroke-linecap="round" stroke-linejoin="round" stroke-width="2.41"/>
  <path d="M811.07,163.69c0-1.33,1.08-2.41,2.41-2.41s2.41,1.08,2.41,2.41-1.08,2.41-2.41,2.41-2.41-1.08-2.41-2.41" fill="#ffefe4"/>
  <path d="M821.7,153.05c0-1.33,1.08-2.41,2.41-2.41s2.41,1.08,2.41,2.41-1.08,2.41-2.41,2.41-2.41-1.08-2.41-2.41" fill="#ffefe4"/>
  <path d="M832.34,142.42c0-1.33,1.08-2.41,2.41-2.41s2.41,1.08,2.41,2.41-1.08,2.41-2.41,2.41-2.41-1.08-2.41-2.41" fill="#ffefe4"/>
  <path d="M853.61,121.14c0-1.33,1.08-2.41,2.41-2.41s2.41,1.08,2.41,2.41-1.08,2.41-2.41,2.41-2.41-1.08-2.41-2.41" fill="#ffefe4"/>
  <path d="M842.98,131.78c0-1.33,1.08-2.41,2.41-2.41s2.41,1.08,2.41,2.41-1.08,2.41-2.41,2.41-2.41-1.08-2.41-2.41" fill="#ffefe4"/>
  <polygon points="770.48 100.27 761.2 87.26 776.96 84.62 779.59 68.86 792.6 78.14 805.61 68.86 808.24 84.62 824 87.26 814.72 100.27 824 113.27 808.24 115.91 805.61 131.67 792.6 122.39 779.59 131.67 776.96 115.91 761.2 113.27 770.48 100.27" fill="none" stroke="#ffefe4" stroke-linecap="round" stroke-linejoin="round" stroke-width="2.41"/>
  <path d="M792.6,93.04c3.99,0,7.22,3.23,7.22,7.22s-3.23,7.23-7.22,7.23-7.22-3.23-7.22-7.23,3.23-7.22,7.22-7.22" fill="#ffefe4"/>
  <polygon points="957.51 672.62 894.04 609.16 879.2 608.97 879.39 623.8 942.86 687.27 957.7 687.46 957.51 672.62" fill="none" stroke="#ffefe4" stroke-linecap="round" stroke-linejoin="round" stroke-width="2.41"/>
  <path d="M897.18,624.53c1.33,0,2.41,1.08,2.41,2.41s-1.08,2.41-2.41,2.41-2.41-1.08-2.41-2.41,1.08-2.41,2.41-2.41" fill="#ffefe4"/>
  <path d="M907.81,635.17c1.33,0,2.41,1.08,2.41,2.41s-1.08,2.41-2.41,2.41-2.41-1.08-2.41-2.41,1.08-2.41,2.41-2.41" fill="#ffefe4"/>
  <path d="M918.45,645.8c1.33,0,2.41,1.08,2.41,2.41s-1.08,2.41-2.41,2.41-2.41-1.08-2.41-2.41,1.08-2.41,2.41-2.41" fill="#ffefe4"/>
  <path d="M939.72,667.07c1.33,0,2.41,1.08,2.41,2.41s-1.08,2.41-2.41,2.41-2.41-1.08-2.41-2.41,1.08-2.41,2.41-2.41" fill="#ffefe4"/>
  <path d="M929.09,656.44c1.33,0,2.41,1.08,2.41,2.41s-1.08,2.41-2.41,2.41-2.41-1.08-2.41-2.41,1.08-2.41,2.41-2.41" fill="#ffefe4"/>
  <polygon points="894.04 602.97 957.51 539.5 957.7 524.67 942.86 524.85 879.39 588.33 879.2 603.16 894.04 602.97" fill="none" stroke="#ffefe4" stroke-linecap="round" stroke-linejoin="round" stroke-width="2.41"/>
  <path d="M942.13,542.64c0,1.33-1.08,2.41-2.41,2.41s-2.41-1.08-2.41-2.41,1.08-2.41,2.41-2.41,2.41,1.08,2.41,2.41" fill="#ffefe4"/>
  <path d="M931.5,553.28c0,1.33-1.08,2.41-2.41,2.41s-2.41-1.08-2.41-2.41,1.08-2.41,2.41-2.41,2.41,1.08,2.41,2.41" fill="#ffefe4"/>
  <path d="M920.86,563.91c0,1.33-1.08,2.41-2.41,2.41s-2.41-1.08-2.41-2.41,1.08-2.41,2.41-2.41,2.41,1.08,2.41,2.41" fill="#ffefe4"/>
  <path d="M899.59,585.18c0,1.33-1.08,2.41-2.41,2.41s-2.41-1.08-2.41-2.41,1.08-2.41,2.41-2.41,2.41,1.08,2.41,2.41" fill="#ffefe4"/>
  <path d="M910.22,574.55c0,1.33-1.08,2.41-2.41,2.41s-2.41-1.08-2.41-2.41,1.08-2.41,2.41-2.41,2.41,1.08,2.41,2.41" fill="#ffefe4"/>
  <polygon points="963.69 539.5 1027.16 602.97 1042 603.16 1041.81 588.33 978.34 524.86 963.5 524.67 963.69 539.5" fill="none" stroke="#ffefe4" stroke-linecap="round" stroke-linejoin="round" stroke-width="2.41"/>
  <path d="M1024.02,587.59c-1.33,0-2.41-1.08-2.41-2.41s1.08-2.41,2.41-2.41,2.41,1.08,2.41,2.41-1.08,2.41-2.41,2.41" fill="#ffefe4"/>
  <path d="M1013.39,576.96c-1.33,0-2.41-1.08-2.41-2.41s1.08-2.41,2.41-2.41,2.41,1.08,2.41,2.41-1.08,2.41-2.41,2.41" fill="#ffefe4"/>
  <path d="M1002.75,566.32c-1.33,0-2.41-1.08-2.41-2.41s1.08-2.41,2.41-2.41,2.41,1.08,2.41,2.41-1.08,2.41-2.41,2.41" fill="#ffefe4"/>
  <path d="M981.48,545.05c-1.33,0-2.41-1.08-2.41-2.41s1.08-2.41,2.41-2.41,2.41,1.08,2.41,2.41-1.08,2.41-2.41,2.41" fill="#ffefe4"/>
  <path d="M992.11,555.69c-1.33,0-2.41-1.08-2.41-2.41s1.08-2.41,2.41-2.41,2.41,1.08,2.41,2.41-1.08,2.41-2.41,2.41" fill="#ffefe4"/>
  <polygon points="1027.16 609.15 963.69 672.62 963.5 687.46 978.34 687.27 1041.81 623.8 1041.99 608.97 1027.16 609.15" fill="none" stroke="#ffefe4" stroke-linecap="round" stroke-linejoin="round" stroke-width="2.41"/>
  <path d="M979.07,669.48c0-1.33,1.08-2.41,2.41-2.41s2.41,1.08,2.41,2.41-1.08,2.41-2.41,2.41-2.41-1.08-2.41-2.41" fill="#ffefe4"/>
  <path d="M989.7,658.85c0-1.33,1.08-2.41,2.41-2.41s2.41,1.08,2.41,2.41-1.08,2.41-2.41,2.41-2.41-1.08-2.41-2.41" fill="#ffefe4"/>
  <path d="M1000.34,648.21c0-1.33,1.08-2.41,2.41-2.41s2.41,1.08,2.41,2.41-1.08,2.41-2.41,2.41-2.41-1.08-2.41-2.41" fill="#ffefe4"/>
  <path d="M1021.61,626.94c0-1.33,1.08-2.41,2.41-2.41s2.41,1.08,2.41,2.41-1.08,2.41-2.41,2.41-2.41-1.08-2.41-2.41" fill="#ffefe4"/>
  <path d="M1010.98,637.58c0-1.33,1.08-2.41,2.41-2.41s2.41,1.08,2.41,2.41c0,1.33-1.08,2.41-2.41,2.41s-2.41-1.08-2.41-2.41" fill="#ffefe4"/>
  <polygon points="938.48 606.06 929.2 593.06 944.96 590.42 947.59 574.66 960.6 583.94 973.61 574.66 976.24 590.42 992 593.06 982.72 606.06 992 619.07 976.24 621.71 973.61 637.47 960.6 628.19 947.59 637.47 944.96 621.71 929.2 619.07 938.48 606.06" fill="none" stroke="#ffefe4" stroke-linecap="round" stroke-linejoin="round" stroke-width="2.41"/>
  <path d="M960.6,598.84c3.99,0,7.22,3.23,7.22,7.22s-3.23,7.23-7.22,7.23-7.22-3.23-7.22-7.23,3.23-7.22,7.22-7.22" fill="#ffefe4"/>
  <polygon points="957.51 504.03 894.04 440.56 879.2 440.37 879.39 455.2 942.86 518.67 957.7 518.86 957.51 504.03" fill="none" stroke="#ffefe4" stroke-linecap="round" stroke-linejoin="round" stroke-width="2.41"/>
  <path d="M897.18,455.93c1.33,0,2.41,1.08,2.41,2.41s-1.08,2.41-2.41,2.41-2.41-1.08-2.41-2.41,1.08-2.41,2.41-2.41" fill="#ffefe4"/>
  <path d="M907.81,466.57c1.33,0,2.41,1.08,2.41,2.41s-1.08,2.41-2.41,2.41-2.41-1.08-2.41-2.41,1.08-2.41,2.41-2.41" fill="#ffefe4"/>
  <path d="M918.45,477.2c1.33,0,2.41,1.08,2.41,2.41s-1.08,2.41-2.41,2.41-2.41-1.08-2.41-2.41,1.08-2.41,2.41-2.41" fill="#ffefe4"/>
  <path d="M939.72,498.48c1.33,0,2.41,1.08,2.41,2.41s-1.08,2.41-2.41,2.41-2.41-1.08-2.41-2.41,1.08-2.41,2.41-2.41" fill="#ffefe4"/>
  <path d="M929.09,487.84c1.33,0,2.41,1.08,2.41,2.41s-1.08,2.41-2.41,2.41-2.41-1.08-2.41-2.41,1.08-2.41,2.41-2.41" fill="#ffefe4"/>
  <polygon points="894.04 434.37 957.51 370.9 957.7 356.07 942.86 356.26 879.39 419.73 879.2 434.56 894.04 434.37" fill="none" stroke="#ffefe4" stroke-linecap="round" stroke-linejoin="round" stroke-width="2.41"/>
  <path d="M942.13,374.04c0,1.33-1.08,2.41-2.41,2.41s-2.41-1.08-2.41-2.41,1.08-2.41,2.41-2.41,2.41,1.08,2.41,2.41" fill="#ffefe4"/>
  <path d="M931.5,384.68c0,1.33-1.08,2.41-2.41,2.41s-2.41-1.08-2.41-2.41,1.08-2.41,2.41-2.41,2.41,1.08,2.41,2.41" fill="#ffefe4"/>
  <path d="M920.86,395.31c0,1.33-1.08,2.41-2.41,2.41s-2.41-1.08-2.41-2.41,1.08-2.41,2.41-2.41,2.41,1.08,2.41,2.41" fill="#ffefe4"/>
  <path d="M899.59,416.59c0,1.33-1.08,2.41-2.41,2.41s-2.41-1.08-2.41-2.41,1.08-2.41,2.41-2.41,2.41,1.08,2.41,2.41" fill="#ffefe4"/>
  <path d="M910.22,405.95c0,1.33-1.08,2.41-2.41,2.41s-2.41-1.08-2.41-2.41,1.08-2.41,2.41-2.41,2.41,1.08,2.41,2.41" fill="#ffefe4"/>
  <polygon points="963.69 370.9 1027.16 434.37 1042 434.56 1041.81 419.73 978.34 356.26 963.5 356.07 963.69 370.9" fill="none" stroke="#ffefe4" stroke-linecap="round" stroke-linejoin="round" stroke-width="2.41"/>
  <path d="M1024.02,419c-1.33,0-2.41-1.08-2.41-2.41,0-1.33,1.08-2.41,2.41-2.41s2.41,1.08,2.41,2.41-1.08,2.41-2.41,2.41" fill="#ffefe4"/>
  <path d="M1013.39,408.36c-1.33,0-2.41-1.08-2.41-2.41s1.08-2.41,2.41-2.41,2.41,1.08,2.41,2.41-1.08,2.41-2.41,2.41" fill="#ffefe4"/>
  <path d="M1002.75,397.72c-1.33,0-2.41-1.08-2.41-2.41s1.08-2.41,2.41-2.41,2.41,1.08,2.41,2.41-1.08,2.41-2.41,2.41" fill="#ffefe4"/>
  <path d="M981.48,376.45c-1.33,0-2.41-1.08-2.41-2.41s1.08-2.41,2.41-2.41,2.41,1.08,2.41,2.41-1.08,2.41-2.41,2.41" fill="#ffefe4"/>
  <path d="M992.11,387.09c-1.33,0-2.41-1.08-2.41-2.41s1.08-2.41,2.41-2.41,2.41,1.08,2.41,2.41-1.08,2.41-2.41,2.41" fill="#ffefe4"/>
  <polygon points="1027.16 440.56 963.69 504.02 963.5 518.86 978.34 518.67 1041.81 455.2 1041.99 440.37 1027.16 440.56" fill="none" stroke="#ffefe4" stroke-linecap="round" stroke-linejoin="round" stroke-width="2.41"/>
  <path d="M979.07,500.89c0-1.33,1.08-2.41,2.41-2.41s2.41,1.08,2.41,2.41-1.08,2.41-2.41,2.41-2.41-1.08-2.41-2.41" fill="#ffefe4"/>
  <path d="M989.7,490.25c0-1.33,1.08-2.41,2.41-2.41s2.41,1.08,2.41,2.41-1.08,2.41-2.41,2.41-2.41-1.08-2.41-2.41" fill="#ffefe4"/>
  <path d="M1000.34,479.61c0-1.33,1.08-2.41,2.41-2.41s2.41,1.08,2.41,2.41-1.08,2.41-2.41,2.41-2.41-1.08-2.41-2.41" fill="#ffefe4"/>
  <path d="M1021.61,458.34c0-1.33,1.08-2.41,2.41-2.41s2.41,1.08,2.41,2.41-1.08,2.41-2.41,2.41-2.41-1.08-2.41-2.41" fill="#ffefe4"/>
  <path d="M1010.98,468.98c0-1.33,1.08-2.41,2.41-2.41s2.41,1.08,2.41,2.41-1.08,2.41-2.41,2.41-2.41-1.08-2.41-2.41" fill="#ffefe4"/>
  <polygon points="938.48 437.46 929.2 424.46 944.96 421.82 947.59 406.06 960.6 415.34 973.61 406.06 976.24 421.82 992 424.46 982.72 437.46 992 450.47 976.24 453.11 973.61 468.87 960.6 459.59 947.59 468.87 944.96 453.11 929.2 450.47 938.48 437.46" fill="none" stroke="#ffefe4" stroke-linecap="round" stroke-linejoin="round" stroke-width="2.41"/>
  <path d="M960.6,430.24c3.99,0,7.22,3.23,7.22,7.22s-3.23,7.23-7.22,7.23-7.22-3.23-7.22-7.23,3.23-7.22,7.22-7.22" fill="#ffefe4"/>
  <polygon points="957.51 335.43 894.04 271.96 879.2 271.77 879.39 286.6 942.86 350.07 957.7 350.26 957.51 335.43" fill="none" stroke="#ffefe4" stroke-linecap="round" stroke-linejoin="round" stroke-width="2.41"/>
  <path d="M897.18,287.33c1.33,0,2.41,1.08,2.41,2.41s-1.08,2.41-2.41,2.41-2.41-1.08-2.41-2.41,1.08-2.41,2.41-2.41" fill="#ffefe4"/>
  <path d="M907.81,297.97c1.33,0,2.41,1.08,2.41,2.41s-1.08,2.41-2.41,2.41-2.41-1.08-2.41-2.41,1.08-2.41,2.41-2.41" fill="#ffefe4"/>
  <path d="M918.45,308.6c1.33,0,2.41,1.08,2.41,2.41s-1.08,2.41-2.41,2.41-2.41-1.08-2.41-2.41,1.08-2.41,2.41-2.41" fill="#ffefe4"/>
  <path d="M939.72,329.88c1.33,0,2.41,1.08,2.41,2.41s-1.08,2.41-2.41,2.41-2.41-1.08-2.41-2.41,1.08-2.41,2.41-2.41" fill="#ffefe4"/>
  <path d="M929.09,319.24c1.33,0,2.41,1.08,2.41,2.41s-1.08,2.41-2.41,2.41-2.41-1.08-2.41-2.41,1.08-2.41,2.41-2.41" fill="#ffefe4"/>
  <polygon points="894.04 265.77 957.51 202.3 957.7 187.47 942.86 187.66 879.39 251.13 879.2 265.96 894.04 265.77" fill="none" stroke="#ffefe4" stroke-linecap="round" stroke-linejoin="round" stroke-width="2.41"/>
  <path d="M942.13,205.44c0,1.33-1.08,2.41-2.41,2.41s-2.41-1.08-2.41-2.41,1.08-2.41,2.41-2.41,2.41,1.08,2.41,2.41" fill="#ffefe4"/>
  <path d="M931.5,216.08c0,1.33-1.08,2.41-2.41,2.41s-2.41-1.08-2.41-2.41,1.08-2.41,2.41-2.41,2.41,1.08,2.41,2.41" fill="#ffefe4"/>
  <path d="M920.86,226.71c0,1.33-1.08,2.41-2.41,2.41s-2.41-1.08-2.41-2.41,1.08-2.41,2.41-2.41,2.41,1.08,2.41,2.41" fill="#ffefe4"/>
  <path d="M899.59,247.99c0,1.33-1.08,2.41-2.41,2.41s-2.41-1.08-2.41-2.41,1.08-2.41,2.41-2.41,2.41,1.08,2.41,2.41" fill="#ffefe4"/>
  <path d="M910.22,237.35c0,1.33-1.08,2.41-2.41,2.41s-2.41-1.08-2.41-2.41,1.08-2.41,2.41-2.41,2.41,1.08,2.41,2.41" fill="#ffefe4"/>
  <polygon points="963.69 202.3 1027.16 265.77 1042 265.96 1041.81 251.13 978.34 187.66 963.5 187.47 963.69 202.3" fill="none" stroke="#ffefe4" stroke-linecap="round" stroke-linejoin="round" stroke-width="2.41"/>
  <path d="M1024.02,250.4c-1.33,0-2.41-1.08-2.41-2.41s1.08-2.41,2.41-2.41,2.41,1.08,2.41,2.41-1.08,2.41-2.41,2.41" fill="#ffefe4"/>
  <path d="M1013.39,239.76c-1.33,0-2.41-1.08-2.41-2.41s1.08-2.41,2.41-2.41,2.41,1.08,2.41,2.41-1.08,2.41-2.41,2.41" fill="#ffefe4"/>
  <path d="M1002.75,229.12c-1.33,0-2.41-1.08-2.41-2.41s1.08-2.41,2.41-2.41,2.41,1.08,2.41,2.41-1.08,2.41-2.41,2.41" fill="#ffefe4"/>
  <path d="M981.48,207.85c-1.33,0-2.41-1.08-2.41-2.41s1.08-2.41,2.41-2.41,2.41,1.08,2.41,2.41-1.08,2.41-2.41,2.41" fill="#ffefe4"/>
  <path d="M992.11,218.49c-1.33,0-2.41-1.08-2.41-2.41s1.08-2.41,2.41-2.41,2.41,1.08,2.41,2.41-1.08,2.41-2.41,2.41" fill="#ffefe4"/>
  <polygon points="1027.16 271.96 963.69 335.43 963.5 350.26 978.34 350.07 1041.81 286.6 1041.99 271.77 1027.16 271.96" fill="none" stroke="#ffefe4" stroke-linecap="round" stroke-linejoin="round" stroke-width="2.41"/>
  <path d="M979.07,332.29c0-1.33,1.08-2.41,2.41-2.41s2.41,1.08,2.41,2.41-1.08,2.41-2.41,2.41-2.41-1.08-2.41-2.41" fill="#ffefe4"/>
  <path d="M989.7,321.65c0-1.33,1.08-2.41,2.41-2.41s2.41,1.08,2.41,2.41-1.08,2.41-2.41,2.41-2.41-1.08-2.41-2.41" fill="#ffefe4"/>
  <path d="M1000.34,311.01c0-1.33,1.08-2.41,2.41-2.41s2.41,1.08,2.41,2.41-1.08,2.41-2.41,2.41-2.41-1.08-2.41-2.41" fill="#ffefe4"/>
  <path d="M1021.61,289.74c0-1.33,1.08-2.41,2.41-2.41s2.41,1.08,2.41,2.41-1.08,2.41-2.41,2.41-2.41-1.08-2.41-2.41" fill="#ffefe4"/>
  <path d="M1010.98,300.38c0-1.33,1.08-2.41,2.41-2.41s2.41,1.08,2.41,2.41-1.08,2.41-2.41,2.41-2.41-1.08-2.41-2.41" fill="#ffefe4"/>
  <polygon points="938.48 268.86 929.2 255.86 944.96 253.22 947.59 237.46 960.6 246.74 973.61 237.46 976.24 253.22 992 255.86 982.72 268.86 992 281.87 976.24 284.51 973.61 300.27 960.6 290.99 947.59 300.27 944.96 284.51 929.2 281.87 938.48 268.86" fill="none" stroke="#ffefe4" stroke-linecap="round" stroke-linejoin="round" stroke-width="2.41"/>
  <path d="M960.6,261.64c3.99,0,7.22,3.23,7.22,7.22,0,3.99-3.23,7.23-7.22,7.23s-7.22-3.23-7.22-7.23,3.23-7.22,7.22-7.22" fill="#ffefe4"/>
  <polygon points="957.51 166.83 894.04 103.36 879.2 103.17 879.39 118 942.86 181.47 957.7 181.66 957.51 166.83" fill="none" stroke="#ffefe4" stroke-linecap="round" stroke-linejoin="round" stroke-width="2.41"/>
  <path d="M897.18,118.73c1.33,0,2.41,1.08,2.41,2.41s-1.08,2.41-2.41,2.41-2.41-1.08-2.41-2.41c0-1.33,1.08-2.41,2.41-2.41" fill="#ffefe4"/>
  <path d="M907.81,129.37c1.33,0,2.41,1.08,2.41,2.41s-1.08,2.41-2.41,2.41-2.41-1.08-2.41-2.41,1.08-2.41,2.41-2.41" fill="#ffefe4"/>
  <path d="M918.45,140.01c1.33,0,2.41,1.08,2.41,2.41s-1.08,2.41-2.41,2.41-2.41-1.08-2.41-2.41,1.08-2.41,2.41-2.41" fill="#ffefe4"/>
  <path d="M939.72,161.28c1.33,0,2.41,1.08,2.41,2.41s-1.08,2.41-2.41,2.41-2.41-1.08-2.41-2.41,1.08-2.41,2.41-2.41" fill="#ffefe4"/>
  <path d="M929.09,150.64c1.33,0,2.41,1.08,2.41,2.41s-1.08,2.41-2.41,2.41-2.41-1.08-2.41-2.41,1.08-2.41,2.41-2.41" fill="#ffefe4"/>
  <polygon points="894.04 97.17 957.51 33.7 957.7 18.87 942.86 19.06 879.39 82.53 879.2 97.36 894.04 97.17" fill="none" stroke="#ffefe4" stroke-linecap="round" stroke-linejoin="round" stroke-width="2.41"/>
  <path d="M942.13,36.84c0,1.33-1.08,2.41-2.41,2.41s-2.41-1.08-2.41-2.41,1.08-2.41,2.41-2.41,2.41,1.08,2.41,2.41" fill="#ffefe4"/>
  <path d="M931.5,47.48c0,1.33-1.08,2.41-2.41,2.41s-2.41-1.08-2.41-2.41,1.08-2.41,2.41-2.41,2.41,1.08,2.41,2.41" fill="#ffefe4"/>
  <path d="M920.86,58.12c0,1.33-1.08,2.41-2.41,2.41s-2.41-1.08-2.41-2.41,1.08-2.41,2.41-2.41,2.41,1.08,2.41,2.41" fill="#ffefe4"/>
  <path d="M899.59,79.39c0,1.33-1.08,2.41-2.41,2.41s-2.41-1.08-2.41-2.41,1.08-2.41,2.41-2.41,2.41,1.08,2.41,2.41" fill="#ffefe4"/>
  <path d="M910.22,68.75c0,1.33-1.08,2.41-2.41,2.41s-2.41-1.08-2.41-2.41,1.08-2.41,2.41-2.41,2.41,1.08,2.41,2.41" fill="#ffefe4"/>
  <polygon points="963.69 33.7 1027.16 97.17 1042 97.36 1041.81 82.53 978.34 19.06 963.5 18.87 963.69 33.7" fill="none" stroke="#ffefe4" stroke-linecap="round" stroke-linejoin="round" stroke-width="2.41"/>
  <path d="M1024.02,81.8c-1.33,0-2.41-1.08-2.41-2.41s1.08-2.41,2.41-2.41,2.41,1.08,2.41,2.41-1.08,2.41-2.41,2.41" fill="#ffefe4"/>
  <path d="M1013.39,71.16c-1.33,0-2.41-1.08-2.41-2.41s1.08-2.41,2.41-2.41,2.41,1.08,2.41,2.41-1.08,2.41-2.41,2.41" fill="#ffefe4"/>
  <path d="M1002.75,60.53c-1.33,0-2.41-1.08-2.41-2.41s1.08-2.41,2.41-2.41,2.41,1.08,2.41,2.41-1.08,2.41-2.41,2.41" fill="#ffefe4"/>
  <path d="M981.48,39.25c-1.33,0-2.41-1.08-2.41-2.41,0-1.33,1.08-2.41,2.41-2.41s2.41,1.08,2.41,2.41-1.08,2.41-2.41,2.41" fill="#ffefe4"/>
  <path d="M992.11,49.89c-1.33,0-2.41-1.08-2.41-2.41s1.08-2.41,2.41-2.41,2.41,1.08,2.41,2.41-1.08,2.41-2.41,2.41" fill="#ffefe4"/>
  <polygon points="1027.16 103.36 963.69 166.83 963.5 181.66 978.34 181.47 1041.81 118 1041.99 103.17 1027.16 103.36" fill="none" stroke="#ffefe4" stroke-linecap="round" stroke-linejoin="round" stroke-width="2.41"/>
  <path d="M979.07,163.69c0-1.33,1.08-2.41,2.41-2.41s2.41,1.08,2.41,2.41-1.08,2.41-2.41,2.41-2.41-1.08-2.41-2.41" fill="#ffefe4"/>
  <path d="M989.7,153.05c0-1.33,1.08-2.41,2.41-2.41s2.41,1.08,2.41,2.41-1.08,2.41-2.41,2.41-2.41-1.08-2.41-2.41" fill="#ffefe4"/>
  <path d="M1000.34,142.42c0-1.33,1.08-2.41,2.41-2.41s2.41,1.08,2.41,2.41-1.08,2.41-2.41,2.41-2.41-1.08-2.41-2.41" fill="#ffefe4"/>
  <path d="M1021.61,121.14c0-1.33,1.08-2.41,2.41-2.41s2.41,1.08,2.41,2.41-1.08,2.41-2.41,2.41-2.41-1.08-2.41-2.41" fill="#ffefe4"/>
  <path d="M1010.98,131.78c0-1.33,1.08-2.41,2.41-2.41s2.41,1.08,2.41,2.41-1.08,2.41-2.41,2.41-2.41-1.08-2.41-2.41" fill="#ffefe4"/>
  <polygon points="938.48 100.27 929.2 87.26 944.96 84.62 947.59 68.86 960.6 78.14 973.61 68.86 976.24 84.62 992 87.26 982.72 100.27 992 113.27 976.24 115.91 973.61 131.67 960.6 122.39 947.59 131.67 944.96 115.91 929.2 113.27 938.48 100.27" fill="none" stroke="#ffefe4" stroke-linecap="round" stroke-linejoin="round" stroke-width="2.41"/>
  <path d="M960.6,93.04c3.99,0,7.22,3.23,7.22,7.22s-3.23,7.23-7.22,7.23-7.22-3.23-7.22-7.23,3.23-7.22,7.22-7.22" fill="#ffefe4"/>
</svg>