<?xml version="1.0" encoding="UTF-8"?>
<svg id="Layer_1" data-name="Layer 1" xmlns="http://www.w3.org/2000/svg" viewBox="0 0 1082.61 706.33">
  <polyline points="113.07 563.61 113.07 20.36 822.72 20.36" fill="none" stroke="#f68d61" stroke-miterlimit="10"/>
  <polyline points="222.37 685.96 969.54 685.96 969.54 162.29 830.87 162.29 830.87 72.57 783.56 72.57 783.56 212.87 920.6 212.87 920.6 632.13" fill="none" stroke="#f68d61" stroke-miterlimit="10"/>
  <polyline points="734.62 20.36 734.62 256.91 873.29 256.91 873.29 635.39 543.75 635.39 543.75 403.74 352.88 403.74 352.88 586.45" fill="none" stroke="#f68d61" stroke-miterlimit="10"/>
  <polyline points="687.74 72.57 687.74 306.8 687.74 492.54" fill="none" stroke="#f68d61" stroke-miterlimit="10"/>
  <polyline points="687.74 309.57 780.62 309.57 780.62 543.83 642 543.83 642 259.67 546.36 259.67" fill="none" stroke="#f68d61" stroke-miterlimit="10"/>
  <polyline points="822.72 305.41 822.72 590.96 595.96 590.96 595.96 352.54 303.78 352.54 303.78 543.83 352.88 543.83" fill="none" stroke="#f68d61" stroke-miterlimit="10"/>
  <line x1="735.74" y1="543.83" x2="735.74" y2="356.37" fill="none" stroke="#f68d61" stroke-miterlimit="10"/>
  <line x1="595.96" y1="311.09" x2="595.96" y2="259.67" fill="none" stroke="#f68d61" stroke-miterlimit="10"/>
  <line x1="590.13" y1="213.21" x2="687.74" y2="213.21" fill="none" stroke="#f68d61" stroke-miterlimit="10"/>
  <line x1="590.13" y1="120.21" x2="687.74" y2="120.21" fill="none" stroke="#f68d61" stroke-miterlimit="10"/>
  <line x1="631.73" y1="165.49" x2="546.36" y2="165.49" fill="none" stroke="#f68d61" stroke-miterlimit="10"/>
  <polyline points="631.73 72.57 498.36 72.57 498.36 259.67 399.25 259.67 399.25 72.57 303.78 72.57 303.78 259.67 210.82 259.67 210.82 356.37" fill="none" stroke="#f68d61" stroke-miterlimit="10"/>
  <polyline points="447.66 543.83 401.54 543.83 401.54 638.09 303.78 638.09 303.78 590.96 260.69 590.96 260.69 305.41 543.9 305.41 543.9 72.57" fill="none" stroke="#f68d61" stroke-miterlimit="10"/>
  <line x1="260.69" y1="638.09" x2="260.69" y2="685.96" fill="none" stroke="#f68d61" stroke-miterlimit="10"/>
  <line x1="447.66" y1="457.42" x2="447.66" y2="685.96" fill="none" stroke="#f68d61" stroke-miterlimit="10"/>
  <line x1="497.01" y1="404.38" x2="497.01" y2="632.92" fill="none" stroke="#f68d61" stroke-miterlimit="10"/>
  <line x1="402.3" y1="404.38" x2="402.3" y2="490.85" fill="none" stroke="#f68d61" stroke-miterlimit="10"/>
  <line x1="447.66" y1="210.84" x2="447.66" y2="20.36" fill="none" stroke="#f68d61" stroke-miterlimit="10"/>
  <line x1="352.88" y1="305.41" x2="352.88" y2="125.67" fill="none" stroke="#f68d61" stroke-miterlimit="10"/>
  <polyline points="260.69 20.36 260.69 210.84 210.82 210.84 210.82 72.57 163.31 72.57" fill="none" stroke="#f68d61" stroke-miterlimit="10"/>
  <polyline points="163.31 121.2 163.31 401.86 260.69 401.86" fill="none" stroke="#f68d61" stroke-miterlimit="10"/>
  <polyline points="163.31 502.49 163.31 544.98 210.82 544.98 210.82 448.19 113.07 448.19" fill="none" stroke="#f68d61" stroke-miterlimit="10"/>
  <path d="M172.78,615.25c9.57,0,17.33,7.76,17.33,17.33s-7.76,17.34-17.33,17.34-17.33-7.76-17.33-17.34,7.76-17.33,17.33-17.33" fill="#f68d61"/>
  <path d="M896.99,27.15c9.57,0,17.33,7.76,17.33,17.33s-7.76,17.34-17.33,17.34-17.33-7.76-17.33-17.34,7.76-17.33,17.33-17.33" fill="#f68d61"/>
</svg>