<?xml version="1.0" encoding="UTF-8"?>
<svg id="Layer_1" data-name="Layer 1" xmlns="http://www.w3.org/2000/svg" viewBox="0 0 1082.61 706.33">
  <path d="M600.5,79.61c0,38.11-30.89,69-69,69s-69-30.89-69-69,30.89-69,69-69,69,30.89,69,69Z" fill="none" stroke="#ffefe4" stroke-miterlimit="10" stroke-width="1.54" vector-effect="non-scaling-stroke"/>
  <path d="M604.86,240.79c0,3.33-8.91,6-9.37,9.21-.47,3.29,7.33,8.34,6.42,11.47-.93,3.18-10.24,3.22-11.59,6.18-1.37,3,4.68,10.06,2.91,12.81-1.78,2.77-10.72.18-12.87,2.66-2.15,2.48,1.67,10.96-.81,13.12-2.48,2.15-10.33-2.84-13.1-1.06-2.75,1.77-1.46,10.99-4.46,12.36-2.97,1.36-9.09-5.64-12.27-4.71-3.12.92-4.49,10.12-7.78,10.59-3.21.46-7.1-7.99-10.44-7.99s-7.23,8.44-10.44,7.99c-3.29-.47-4.66-9.67-7.78-10.59-3.18-.93-9.3,6.07-12.27,4.71-3-1.37-1.71-10.59-4.46-12.36-2.77-1.78-10.62,3.2-13.1,1.05-2.48-2.15,1.34-10.63-.81-13.11-2.15-2.48-11.09.11-12.87-2.66-1.77-2.75,4.28-9.81,2.91-12.81-1.36-2.97-10.66-3.01-11.59-6.18-.91-3.12,6.89-8.18,6.42-11.46-.46-3.21-9.37-5.87-9.37-9.21s8.91-6,9.37-9.21c.47-3.29-7.33-8.34-6.42-11.47.93-3.17,10.24-3.22,11.59-6.18,1.37-3-4.68-10.06-2.91-12.81,1.78-2.77,10.72-.18,12.87-2.66,2.15-2.48-1.67-10.96.81-13.12,2.48-2.15,10.33,2.84,13.1,1.06,2.75-1.77,1.46-10.99,4.46-12.36,2.97-1.36,9.09,5.64,12.26,4.71,3.12-.92,4.49-10.12,7.78-10.59,3.21-.46,7.1,7.99,10.44,7.99s7.23-8.44,10.44-7.99c3.29.47,4.66,9.67,7.78,10.59,3.18.93,9.3-6.07,12.27-4.71,3,1.37,1.71,10.59,4.46,12.36,2.77,1.78,10.62-3.2,13.1-1.05,2.48,2.15-1.34,10.63.81,13.11,2.15,2.48,11.08-.11,12.87,2.66,1.77,2.75-4.28,9.81-2.91,12.81,1.36,2.97,10.66,3.01,11.59,6.18.91,3.12-6.89,8.18-6.42,11.46.46,3.21,9.37,5.87,9.37,9.21Z" fill="none" stroke="#ffefe4" stroke-miterlimit="10" stroke-width="1.54" vector-effect="non-scaling-stroke"/>
  <polygon points="609.22 413.5 591.61 418.01 608.36 425.07 590.28 426.92 605.78 436.41 587.62 435.52 601.53 447.23 583.71 443.64 595.72 457.29 578.63 451.08 588.47 466.37 572.49 457.69 579.96 474.26 565.45 463.31 570.37 480.82 557.65 467.82 559.9 485.87 549.27 471.11 548.79 489.29 540.49 473.11 537.29 491.01 531.49 473.78 525.69 491.01 522.5 473.11 514.2 489.29 513.72 471.11 503.09 485.87 505.34 467.82 492.62 480.81 497.54 463.31 483.03 474.26 490.49 457.69 474.52 466.36 484.36 451.08 467.27 457.29 479.28 443.63 461.45 447.23 475.36 435.52 457.2 436.41 472.71 426.92 454.63 425.07 471.38 418.01 453.77 413.5 471.38 408.98 454.63 401.92 472.71 400.07 457.2 390.58 475.36 391.47 461.45 379.76 479.28 383.36 467.27 369.7 484.36 375.91 474.52 360.63 490.5 369.31 483.03 352.73 497.54 363.68 492.62 346.18 505.34 359.17 503.09 341.13 513.72 355.88 514.2 337.7 522.5 353.88 525.69 335.98 531.49 353.22 537.29 335.98 540.49 353.88 548.79 337.7 549.27 355.88 559.9 341.13 557.65 359.17 570.37 346.18 565.45 363.68 579.96 352.73 572.49 369.31 588.47 360.63 578.63 375.92 595.72 369.7 583.71 383.36 601.53 379.76 587.63 391.47 605.78 390.58 590.28 400.07 608.36 401.92 591.61 408.98 609.22 413.5" fill="none" stroke="#ffefe4" stroke-miterlimit="10" stroke-width="1.54" vector-effect="non-scaling-stroke"/>
  <polygon points="617.94 601.03 582.91 604.91 616.99 613.9 581.77 612.53 614.12 626.52 579.51 619.87 609.39 638.56 576.16 626.8 602.92 649.75 571.81 633.17 594.86 659.84 566.56 638.83 585.4 668.62 560.53 643.65 574.74 675.9 553.86 647.51 563.09 681.52 546.7 650.32 550.72 685.33 539.2 652.02 537.94 687.25 531.49 652.59 525.05 687.25 523.79 652.02 512.27 685.33 516.29 650.32 499.9 681.52 509.13 647.51 488.25 675.9 502.46 643.65 477.58 668.62 496.43 638.83 468.12 659.84 491.18 633.17 460.07 649.75 486.83 626.8 453.6 638.56 483.48 619.87 448.87 626.52 481.22 612.53 446 613.9 480.08 604.91 445.05 601.03 480.08 597.16 446 588.17 481.22 589.54 448.87 575.55 483.48 582.2 453.6 563.51 486.83 575.26 460.07 552.32 491.18 568.9 468.13 542.23 496.43 563.24 477.59 533.45 502.46 558.42 488.25 526.17 509.13 554.56 499.9 520.55 516.29 551.75 512.27 516.74 523.79 550.05 525.05 514.82 531.49 549.48 537.94 514.82 539.2 550.05 550.72 516.74 546.7 551.75 563.09 520.55 553.86 554.56 574.74 526.17 560.53 558.42 585.41 533.45 566.56 563.24 594.86 542.23 571.81 568.9 602.92 552.32 576.16 575.27 609.39 563.51 579.51 582.2 614.12 575.55 581.77 589.54 616.99 588.17 582.91 597.16 617.94 601.03" fill="none" stroke="#ffefe4" stroke-miterlimit="10" stroke-width="1.54" vector-effect="non-scaling-stroke"/>
  <path d="M631.23,75.05h42.77c6.63,0,12,5.37,12,12v509c0,6.63-5.37,12-12,12h-42.77" fill="none" stroke="#ffefe4" vector-effect="non-scaling-stroke"/>
  <polyline points="635.23 78.77 631.23 75.05 635.23 71.33" fill="none" stroke="#ffefe4" vector-effect="non-scaling-stroke"/>
  <polyline points="635.23 611.77 631.23 608.05 635.23 604.33" fill="none" stroke="#ffefe4" vector-effect="non-scaling-stroke"/>
  <path d="M437.28,75.05h-28.67c-6.63,0-12,5.37-12,12v327c0,6.63,5.37,12,12,12h28.67" fill="none" stroke="#ffefe4" vector-effect="non-scaling-stroke"/>
  <polyline points="433.28 71.33 437.28 75.05 433.28 78.77" fill="none" stroke="#ffefe4" vector-effect="non-scaling-stroke"/>
  <polyline points="433.28 422.33 437.28 426.05 433.28 429.77" fill="none" stroke="#ffefe4" vector-effect="non-scaling-stroke"/>
  <path d="M631.23,114.05h11.87c6.63,0,12,5.37,12,12v107c0,6.08-4.93,11-11,11h-12.87" fill="none" stroke="#ffefe4" vector-effect="non-scaling-stroke"/>
  <polyline points="635.23 117.77 631.23 114.05 635.23 110.33" fill="none" stroke="#ffefe4" vector-effect="non-scaling-stroke"/>
  <polyline points="635.23 247.77 631.23 244.05 635.23 240.33" fill="none" stroke="#ffefe4" vector-effect="non-scaling-stroke"/>
</svg>