<?xml version="1.0" encoding="UTF-8"?>
<svg id="Layer_1" data-name="Layer 1" xmlns="http://www.w3.org/2000/svg" viewBox="0 0 1082.61 706.33">
  <path d="M752.69,50.33h-352.42c-2.42,0-4.8,0-6.9-.15-6.9.72-13.9-4.28-20.9-3.28-24,5-36,34-61,29,5,1,10,3,15,2,27-8,53-22,81.17-13.2h345.05v14.37h-337.47c-25.76-7.17-49.76,1.83-74.76,8.83-9,3-18,1-26-5-1,16,20,21,33,18,26-6,50-14,75.86-7.63,2.34.15,4.94.18,7.62.18h321.73v14.37h-321.73c-2.68,0-4.57-.36-6.53-.61-6.96-1.31-12.96-3.31-19.96-2.31-30,6-57,14-86.13,2.92,0,0,.01,3.59.01,7.18v7.19h3.87c2.53,0,6.23.02,10.74.34,9.51,1.37,18.51,7.37,28.51,5.37,30-6,57-11,85.89-5.71h305.33v14.37h-296.91c-2.83,0-5.63,0-8.15-.06-9.15-.61-17.15-3.61-26.15-1.61-28,4-54,8-80.58,1.83-2.63-.15-5.26-.16-7.64-.16h-14.9v14.37h32.17c10.95.96,20.95,5.96,30.95,3.96,29-6,55-8,82.85-3.96h288.37v14.37h-279.71c-2.9,0-5.73-.02-8.21-.16-27.29-5.25-53.29,2.75-80.29,3.75-8,0-16-3-23.86-3.26-3.25-.29-6.74-.33-10.09-.33h-32.17v14.37h42.88c3.66.2,7.54.39,11.48.78,5.76.43,11.76,2.43,17.76,2.43,28,0,55-10,82.76-3.35,2.66.13,5.57.14,8.5.14h270.96v14.37h-262.12c-27.1-4.16-52.1-3.16-80.1,2.84-13,3-25-3-37.31-2.84h-54.81v14.37h61.21c2.06.11,4.18.2,6.25.38,11.67,1.08,22.67,5.08,34.67,3.08,21-4,42-8,62.95-3.83,2.21.18,4.19.37,7.15.37h262.12v14.37h-244.26c-2.99,0-5.97-.01-8.64-.31-15.32-3.6-30.32-8.6-45.32-3.6-18,5-36,8-55.16,4.07-1.97-.07-4.11-.12-6.18-.16h-74.78v14.37h89.29c1.18.93,3.14,1.39,5.33,1.83,4.5.89,7.5,1.89,11.5,1.89,26-7,53-19,77.82-5.11,1.96.6,3.15,1.39,6.15,1.39h244.26v14.37h-235.25c-7.97.34-16.97-.66-24.97-1.66-31,0-61,5-92.2,1.66h-81.92v14.37h96.88c34.24,14.97,68.24,9.97,102.22,0h235.25v14.37h-226.22c-3.01,0-6.02,0-9.02-.04-15.98-1.37-29.98,5.63-45.98,8.63-15,2-28-3-41.88-7.39-2.13-.53-4.25-.96-6.59-1.2h-104.65v14.37h112.61c25.51,4.22,51.51-3.78,77.51-2.78,12,0,24,2,36.1,2.78h208.12v14.37h-199.09c-3.01,0-5.91-.04-8.52-.24-29.61-8.91-59.61-4.91-89.3.24h-137.43v14.37h163.38c2.75-1.06,8.39-1.49,16.48-2.23,19.26-2.3,37.26.7,56.01,2.14,5.54.08,11.39.09,17.34.09h181.12v14.37h-181.12c-5.96,0-11.53-.16-16.27-.69-19.83-2.21-39.83-3.21-59.85,1.44-7.32,1.25-10.55,1.86-13.71-.76h-163.38v14.37h154.63c1.74.84,3.99,1.25,6.07,1.64,5.43,2.08,10.43,2.08,15.43,1.08,26-4,51-7,77.1-2.73h181.12v14.37h-172.22c-26.01-4.65-51.01-2.65-77.01,2.35-13,3-26-3-39.15-2.35h-145.97v14.37h154.63c2.69.14,5.4.27,7.94.52,23.55,7.46,45.55.46,69.55-4.54,14-2,26,4,38.84,4.02h163.38v14.37h-154.63c-27.59-3.39-54.59-5.39-82.59,2.61-11,3-22-3-33.8-2.42-2.91-.08-5.81-.13-8.69-.18h-154.63v14.37h172.22c2.57.19,5.23.35,7.67.63,8.23,1.6,15.23,4.6,23.23,3.6,29-1,56-13,85.25-4.23h145.97v14.37h-137.43c-29.79-7.14-57.79,4.86-86.79,5.86-7,1-14-3-21.07-5.09-2.31-.47-4.95-.76-7.93-.76h-181.12v14.37h190.09c2.56.32,5.27.55,7.81.93,28.22,14.55,55.22-5.45,84.22-4.45,5,1,10,1,15.46,2.79,2.57.34,4.97.73,7.75.73h129.01v14.37h-120.73c-14.49-1.89-29.49-5.89-43.49-.89-24,7-47,8-71.03.89h-199.09v14.37h208.12c2.69.31,5.49.54,8.18.91,10.82.82,20.82,6.82,31.82,3.82,28-8,54-10,81.57-4.74h104.65v14.37h-96.16c-13.06-1.64-25.06-6.64-38.06-3.64-30,6-58,9-87.57,3.64h-212.55c-2.77,0-2.84,3.59,0,7.19,4.22,3.59-1.03,7.19,0,7.19h228.4c3.28,0,5.89.63,9.13,1.18,9.59.81,19.59,7.81,29.59,3.81,28-11,57-10,86.3-4.99h80.92v7.19c.3,3.59-.44,7.19,0,7.19h-63.7c-4.18,0-7.08,0-9.48-.11-28.04-8.27-55.04-3.27-82.04,4.73-10,3-20-1-29.85-3.61-1.62-.34-4.3-1-8.44-1h-240.83c3.01,0,4.48,3.59,0,7.19-.36,3.59-.18,7.19,0,7.19h250.75c3.26,0,6.5.79,9.57,1.53,24.8,13.71,48.8.71,73.8-6.29,13-3,25,3,36.87,4.37.19.02,2.81.39,6.19.39h57.16c-8.84,0,3,3.59,0,7.19-8.64,3.59-1.06,7.19,0,7.19h-40.64c-4.6,0-8.77-.75-7.03-.52-10.54-2.62-21.54-7.62-33.54-4.62-32,8-60,19-91.36,5.13h-261.76c-3.01,0-10.51,3.59,0,7.19,1.53,3.59-7.68,7.19,0,7.19h263.14c3.89,0,7.32,0,9.53.12,29.44,11.37,56.44,4.37,85.44-4.63,18-5,36,4,53.71,4.51h22.51c-.82,0,2.42,3.59,0,7.19-7.38,3.59-.24,7.19,0,7.19h-5.91c1.58,0,.49-.01-6.88-.51-2.43-.38-3.43-.38-5.43-.38h2c-25-8-51-6-75,6-16,8-34,0-49.62-4.21-1.62-.23-5.7-.91-10.29-.91h-283.2c.2,0,10.93,3.59,0,7.19-4.88,3.59-1.15,7.19,0,7.19h294.28c12.84-.26,23.84,3.74,35.84,7.74,5,1,10,3,15,2,27-8,52-25,80-14h-1c4,1,7,1,11,2,4,2,2,5,2,9s5,0,5,3c-2-3-5-2-8-2h2c-17-2-35-2-50,7h1c-25,16-52,1-79.43-.37h-307.69c.49,0,3.96,3.59,0,7.19,2.39,3.59,4.91,7.19,0,7.19h323.29c5.83,0,10.83,0,16.83,1,19,4,40,15,58,4v1c10-6,21-10,32-14-2,0-3,1-5,1,4-2,9-2,14-3-1,0-2,0-2,1h7-4,4c-1,0-4-2-3,1,1,1,4,3,4,3,1,9-12,10-14,19l15-6c-4,0-7,2-10,4,1-1,2-1,3-2-1,0-1,1-2,1,1-1,3-1,4-2-7,4-14,7-21,11,2,1,3-2,5-2-4,2-8,4-12,5,12-3,1,0,1,0-2,0-4,3-7,2,1,0,2,0,3-1-9,4-19,2-28-1l1,1c-12-4-23-9-35.88-9.42-2.05-.15-5.28-.21-12.43-.21h-334.81c-6.62,0,.73,3.59,0,7.19.71,3.59-5.6,7.19,0,7.19h353.42c1.58,0,3.81,0,6.17,0,19.53-1.76,37.53,8.24,56.53,13.24l-1-1c7,1,14,1,21-1-3,0-6,2-9,2,2,0,3-1,5-1-1,0-2,0-3,1,1,1,2,2,1,3-2,1-4,1-6,2,3,3,10,2,10,8h-4,3c-4,1-6-2-10-2,2,0,4,0,6,1-15-3-28-10-42.87-10.83-3.06-.04-5.16-.04-7.4-.04h-378.85c2.35,0-11.2,3.59,0,7.18-7.53,3.59-2.44,7.18,0,7.18-4.67,0,9.37-.38,0-1.11,5.36-.73-3.59-1.83,0-3.26-9.67-1.43,12.35-3.2,0-5.29-6.62-2.09,12.47-4.51,0-7.22-6.82-2.72,4.78-5.73,0-9.04,1.11-3.3-3.8-6.89,0-10.75,8.93-3.85.78-7.97,0-12.34-5.89-4.37-4.92-8.98,0-13.83-1.08-4.85-1.85-9.92,0-15.21,6.25-5.28-3.57-10.78,0-16.47,2.83-5.69,5.22-11.57,0-17.63,6.04-6.06-4.81-12.29,0-18.67-1.04-6.39,8.38-12.93,0-19.61,1.91-6.68-2.81-13.5,0-20.44-.9-6.94,1.35-13.99,0-21.15V114.43c0-3.68-.02-7.25-.11-10.7-.77-9.83-2.77-18.83-6.77-27.83,24-1,48-21,60-42,1-2,9,1,14.75,2.05h366.48s0,440.43,0,440.43v21.15c-1.35,6.94-3.29,13.76,0,20.44-2.85,6.68-2.35,13.22,0,19.61-1.45,6.39-5.32,12.62,0,18.67-.35,3.03-.79,6.01-.92,8.95-.13,2.94.05,5.83.96,8.64,1.74,16.07,22.74,35.07-1.26,45.07-2,1-4,4-4,7,1,4,6,8,5,9-11,13-9,20,4,28-2,3-6,0-6,1-1,3,5,1,4,4,0,1-3-1-5,1,1,1,3,1,4,2h-3c1,0,2,0,2,1-1,0-2,0-3-1l1,1c-1,0-3-1-4,0,2,0,3,1,5,1h-3,3c-3,1-5-1-8-1,1,0,2,0,3,1-5-2-11-3-16.67-3.74-5.57-.56-8.75-.76-10.44-.76h-401c.62,0-8.13,0,7.3,0,4.93,0,10.57,0,7.3,0-1.38,0,5.15-.38,0-1.11-.68-.73,2.36-1.83,0-3.26,2.73-1.43-12.71-3.2,0-5.29-6.94-2.09,12.82-4.51,0-7.22-16.87-2.72,3.01-5.73,0-9.04-7.21-3.3.38-6.89,0-10.75,3.15-3.85-6.75-7.97,0-12.34-1.49-4.37-9.61-8.98,0-13.83-1.79-4.85-6.03-9.92,0-15.21-5.51-5.28,5.24-10.78,0-16.47,7.23-5.69-2.54-11.57,0-17.63,4.62-6.06,1.57-12.29,0-18.67,5.51-6.39,3.66-12.93,0-19.61-1.85-6.68,5.99-13.5,0-20.44-5.59-6.94.24-13.99,0-21.15V125.77c.52-16.86-13.48-33.86-5.48-47.86,9-17,38-20,40-42-2,20-19,33-24,52-6,20,4,39,4.33,59.35.12,1.96.14,4.03.14,6.14v322.99c0,7.16-.69,14.22,0,21.15,2.54,6.94-2.96,13.76,0,20.44-.83,6.68,2.77,13.22,0,19.61-3.21,6.39.13,12.62,0,18.67,0,6.06.76,11.94,0,17.63,1.04,5.69-1.89,11.19,0,16.47,6.38,5.29-.37,10.36,0,15.21-6.18,4.85,7,9.46,0,13.83-4.13,4.37-2.27,8.49,0,12.34.07,3.85-8.15,7.44,0,10.75-2.52,3.3,8.88,6.32,0,9.04-1.92,2.72,4.54,5.13,0,7.22,4.72,2.09,4.32,3.86,0,5.29,2.1,1.43,11.99,2.52,0,3.26.06.73,1.71,1.11,0,1.11h15c-.08,0-1.93-.38,0-1.11-3.62-.73,1.92-1.83,0-3.26-5.03-1.43-2.51-3.2,0-5.29,3.77-2.09-1.49-4.51,0-7.22,4.5-2.72-1.72-5.73,0-9.04,6.96-3.3,5-6.89,0-10.75-4.16-3.85,5.38-7.97,0-12.34,10.99-4.37-2.88-8.98,0-13.83,6.15-4.85,3.73-9.92,0-15.21-2.58-5.28.51-10.78,0-16.47.35-5.69,6.48-11.57,0-17.63-4.54-6.06-6.24-12.29,0-18.67-1.39-6.39,2.71-12.93,0-19.61-.85-6.68-.14-13.5,0-20.44.95-6.94,0-13.99,0-21.15V179.57c-3.47-37.66-10.47-74.66,10.53-111.66,6-10,0-23-3-35,18,7,20,40,14,56-13,38-11,74-6.62,111.41.07,2.32.1,4.67.1,7.04v290.17c-3.38,6.94-1.44,13.76,0,20.44,1.77,6.68-1.83,13.22,0,19.61,2.97,6.39-1.12,12.62,0,18.67-3.6,6.06.45,11.94,0,17.63,4.34,5.69.09,11.19,0,16.47-.76,5.29,5.44,10.36,0,15.21-2.49,4.85-1.91,9.46,0,13.83,3.82,4.37,6.11,8.49,0,12.34-5.42,3.85-4.98,7.44,0,10.75,7.94,3.3-8.45,6.32,0,9.04-4.23,2.72,4.9,5.13,0,7.22.25,2.09-.52,3.86,0,5.29-4.95,1.43,1.23,2.52,0,3.26,7.76.73,2.24,1.11,0,1.11h15c-1.18,0-1.54-.38,0-1.11,3.56-.73-2.94-1.83,0-3.26,4.02-1.43.67-3.2,0-5.29-6.68-2.09,4.75-4.51,0-7.22-6.54-2.72-.06-5.73,0-9.04,2.03-3.3.52-6.89,0-10.75-4.63-3.85-1.86-7.97,0-12.34,4.24-4.37-5.13-8.98,0-13.83,8.34-4.85,4.7-9.92,0-15.21-.13-5.28.11-10.78,0-16.47-1.88-5.69-1.82-11.57,0-17.63-4.24-6.06,2.54-12.29,0-18.67,3.61-6.39-1.53-12.93,0-19.61,2.08-6.68,3.07-13.5,0-20.44V221.78c-6.47-35.87-7.47-71.87,5.53-106.87,7-21-3-41-4.99-61.57-.39-3.52-.54-6.68-.54-9.31v-8.08h15v30.81c0,2.44.13,4.96.34,7.48,2.19,14.67,7.19,30.67,5.19,45.67-3,42-16,82-5.95,124.35.22,2.35.42,4.69.42,7.21v246.07c4.1,6.94-1.14,13.76,0,20.44-1.15,6.68,6.82,13.22,0,19.61,2.17,6.39.29,12.62,0,18.67-1.4,6.06.99,11.94,0,17.63-1.38,5.69,1.4,11.19,0,16.47,3.53,5.29-3.5,10.36,0,15.21-4.58,4.85-6.67,9.46,0,13.83,2.92,4.37-2.76,8.49,0,12.34,1.2,3.85-1.19,7.44,0,10.75-.32,3.3,3.32,6.32,0,9.04-1.75,2.72,4.47,5.13,0,7.22,1.7,2.09,1.31,3.86,0,5.29-.81,1.43-.93,2.52,0,3.26,9.29.73-5.18,1.11,0,1.11h15c-1.73,0,3.77-.38,0-1.11,2.35-.73,4.44-1.83,0-3.26,4.52-1.43-3.15-3.2,0-5.29.96-2.09-3.26-4.51,0-7.22-2.45-2.72,2.31-5.73,0-9.04,4.46-3.3-2.61-6.89,0-10.75.52-3.85-1.67-7.97,0-12.34-3.06-4.37-2.19-8.98,0-13.83,5.12-4.85,1.68-9.92,0-15.21,4.81-5.28,5.73-10.78,0-16.47-.88-5.69,2.23-11.57,0-17.63-3.49-6.06-1.58-12.29,0-18.67,3.37-6.39-.25-12.93,0-19.61,2.07-6.68,2.02-13.5,0-20.44v-215.47c0-2.58-.25-5.02-.51-7.48-4.96-36.67-6.96-72.67,5.04-109.67,8-27-5-54-4.53-82v-46.96h15v76.38c0,3.59.32,7.04.69,10.67,10.84,41.91.84,81.91-9.16,123.91-5,18,8,33,8.47,50.71v199.92c3.4,6.94-4.4,13.76,0,20.44.54,6.68,4.35,13.22,0,19.61.13,6.39.17,12.62,0,18.67,2.52,6.06-1.54,11.94,0,17.63,1.8,5.69-2.38,11.19,0,16.47,4.28,5.29,3.84,10.36,0,15.21,4.45,4.85-.76,9.46,0,13.83,2.45,4.37,4.41,8.49,0,12.34,1.05,3.85,4.93,7.44,0,10.75-.99,3.3,13.48,6.32,0,9.04,2.49,2.72-2.96,5.13,0,7.22,1.68,2.09,3.05,3.86,0,5.29,2.15,1.43,6.51,2.52,0,3.26.87.73-3.26,1.11,0,1.11h15c-6.77,0-.53-.38,0-1.11,6.66-.73-.99-1.83,0-3.26,4.03-1.43-4.65-3.2,0-5.29-2.52-2.09,5.68-4.51,0-7.22-8.95-2.72,3.58-5.73,0-9.04,6.51-3.3,5.92-6.89,0-10.75-.84-3.85-9.35-7.97,0-12.34-3.32-4.37,1.41-8.98,0-13.83,1.97-4.85-4.63-9.92,0-15.21-.7-5.28,3.1-10.78,0-16.47,4.67-5.69,2.52-11.57,0-17.63-4.1-6.06,1.86-12.29,0-18.67,6.84-6.39-4.04-12.93,0-19.61-1.01-6.68-.47-13.5,0-20.44v-192.09c0-2.61-.05-5.01-.24-6.93-3.22-15.61-13.22-31.61-8.22-48.61,7-26,20-50,11.6-77.55-.16-2.4-.44-4.66-3.13-6.09V35.95h15v130.32c.06,2.18.08,4.38.11,6.6,1.43,17.04,6.43,33.04,7.43,49.04,2,44-15,87-8.08,131.25.26,2.5.55,4.9.55,7.54v136.84c-1.43,6.94-1.7,13.76,0,20.44-3.85,6.68,3.73,13.22,0,19.61-4.1,6.39-1.53,12.62,0,18.67,2.96,6.06,1.6,11.94,0,17.63,3.52,5.69.42,11.19,0,16.47,0,5.29,2,10.36,0,15.21,1.85,4.85-.12,9.46,0,13.83.57,4.37,3.55,8.49,0,12.34-1.54,3.85,3.73,7.44,0,10.75-.52,3.3-1.95,6.32,0,9.04,2.42,2.72,3.72,5.13,0,7.22-2.99,2.09-.22,3.86,0,5.29.63,1.43,4.49,2.52,0,3.26.93.73-4.57,1.11,0,1.11h15c-3.07,0-1.68-.38,0-1.11,7.23-.73-1.44-1.83,0-3.26,7.44-1.43,1.15-3.2,0-5.29,8.48-2.09,6.22-4.51,0-7.22,4.52-2.72-5.15-5.73,0-9.04-.94-3.3-5.69-6.89,0-10.75.13-3.85-2.22-7.97,0-12.34,1.73-4.37,4.51-8.98,0-13.83-4.69-4.85-6.68-9.92,0-15.21,5.81-5.28-.66-10.78,0-16.47-2.84-5.69-1.28-11.57,0-17.63,2.21-6.06,2.66-12.29,0-18.67,2.2-6.39-.34-12.93,0-19.61-.73-6.68,1.06-13.5,0-20.44-.71-6.94,0-13.99,0-21.15v-84.12c0-2.62-.26-5.05-.49-7.57-3.98-35.79-10.98-73.79,7.02-107.79,13-26-3-51-5.76-76.79-.16-2.33-.29-4.64-.77-6.84V35.95h15v178.58c1.54,11.38,5.54,21.38,4.54,32.38-4,57-16,113-4.87,169,.18,2.51.33,4.99.33,7.57v52.91c0,7.16-1.66,14.22,0,21.15-1.3,6.94-3.94,13.76,0,20.44-4.96,6.68,1.36,13.22,0,19.61-5.94,6.39,1.57,12.62,0,18.67.2,6.06-6.39,11.94,0,17.63-.48,5.69,1.34,11.19,0,16.47-11.8,5.29-5.25,10.36,0,15.21,7.5,4.85-4.14,9.46,0,13.83-2.63,4.37-4.88,8.49,0,12.34,11.13,3.85,10.98,7.44,0,10.75-6.97,3.3,2.06,6.32,0,9.04-.33,2.72-4.55,5.13,0,7.22,1.23,2.09.57,3.86,0,5.29-.89,1.43-.16,2.52,0,3.26,3.68.73,6.26,1.11,0,1.11h15c-.84,0-7.81-.38,0-1.11.57-.73,4.86-1.83,0-3.26.58-1.43,0-3.2,0-5.29-.29-2.09-9.27-4.51,0-7.22.46-2.72-12.32-5.73,0-9.04.99-3.3,1.7-6.89,0-10.75,9.64-3.85,2.77-7.97,0-12.34,6.48-4.37,2.75-8.98,0-13.83-.87-4.85-4.34-9.92,0-15.21-2.15-5.28-.74-10.78,0-16.47-4.97-5.69-.45-11.57,0-17.63-1.01-6.06-.3-12.29,0-18.67-7.53-6.39,2.1-12.93,0-19.61,1.48-6.68.52-13.5,0-20.44-1.17-6.94,0-13.99,0-21.15v-29.9c0-2.53-.23-4.93-.42-7.4-11.04-39.17-2.04-77.17,3.96-117.17,2-14-3-26-3.46-40.21-.07-2.25-.08-4.78-.08-7.35s0-5.12,0-7.68c0-2.55,0-5.09.01-7.63,0-2.53,0-5.06-.02-7.58V35.95h15v246.11c10.54,40.84,4.54,79.84-6.46,120.84-5,20,4,39,5.99,58.91.19,2.4.47,4.71.47,7.18v7.38c0,7.16,1.27,14.22,0,21.15.03,6.94-.82,13.76,0,20.44-1.2,6.68-2.56,13.22,0,19.61-1.22,6.39-2.12,12.62,0,18.67,4.28,6.06-1.12,11.94,0,17.63.44,5.69-1.16,11.19,0,16.47,1.33,5.29,2.47,10.36,0,15.21-2.08,4.85-2.43,9.46,0,13.83-2.6,4.37-1.3,8.49,0,12.34-5.92,3.85-12.08,7.44,0,10.75-5.27,3.3-3.27,6.32,0,9.04-9.74,2.72,2.77,5.13,0,7.22-4.03,2.09.59,3.86,0,5.29,2.12,1.43,1.04,2.52,0,3.26-2.77.73-.19,1.11,0,1.11h15c2.74,0,2.59-.38,0-1.11,5.36-.73.16-1.83,0-3.26,2.36-1.43,1.18-3.2,0-5.29-7.89-2.09-4.73-4.51,0-7.22-.89-2.72-3.6-5.73,0-9.04.2-3.3.72-6.89,0-10.75.62-3.85.03-7.97,0-12.34.9-4.37,6.86-8.98,0-13.83-9.05-4.85,2.54-9.92,0-15.21-.73-5.28-2.44-10.78,0-16.47.09-5.69.86-11.57,0-17.63,2.87-6.06,3.32-12.29,0-18.67,4.71-6.39-5.11-12.93,0-19.61-.8-3.34-.57-6.71-.26-10.12.31-3.41.71-6.85.26-10.31-6.46-43.63-4.46-82.63,4.54-128.63,5-26-4-52-4.54-79.08V35.95h15v293.11c.19,2.52.32,5.09.54,7.63,10.01,43.22,6,82.22-6,124.22-4,13,4,25,4.39,37.72.07,3.02,1.16,5.81,1.53,9.22.37,3.41.58,6.78-.46,10.12-2.26,6.68-6.91,13.22,0,19.61-1.15,6.39,1.33,12.62,0,18.67-6.97,6.06.79,11.94,0,17.63-.54,5.69-1.41,11.19,0,16.47-3.84,5.29-2.61,10.36,0,15.21,4.28,4.85,2.61,9.46,0,13.83-5.25,4.37,7.73,8.49,0,12.34,4.07,3.85-.08,7.44,0,10.75-.08,3.3.84,6.32,0,9.04-8.6,2.72,6.67,5.13,0,7.22-1.73,2.09,7.65,3.86,0,5.29,4.58,1.43,5.93,2.52,0,3.26-4.66.73,4.23,1.11,0,1.11h15c-1.79,0,1.9-.38,0-1.11-5.38-.73.2-1.83,0-3.26-8.16-1.43,4.19-3.2,0-5.29-3.75-2.09-.32-4.51,0-7.22-1.97-2.72-7-5.73,0-9.04-6.17-3.3.35-6.89,0-10.75,3.3-3.85-7.78-7.97,0-12.34,3.03-4.37,2.11-8.98,0-13.83,3.34-4.85-5.13-9.92,0-15.21.57-5.28,1.12-10.78,0-16.47,1.79-5.69,1.31-11.57,0-17.63,1.13-6.06,2.39-12.29,0-18.67-.49-3.19-.91-6.42-1.16-9.55-7.3-35.12-2.3-69.12,10.7-103.12,2-5,0-11-1-17-4-19-8-36-8.54-55.12V35.95h15v356.32c.81,2.2,1.2,4.62,1.64,6.96,3.91,15.68,8.91,30.68,4.91,47.68-7,30-19,58-8,88,2,4-4,8-1.69,12.2.47,3.05,1.86,6.12,3.15,9.15-2.86,6.06-4.82,11.94,0,17.63.16,5.69-.51,11.19,0,16.47-5.93,5.29-5.53,10.36,0,15.21-11.74,4.85,3.7,9.46,0,13.83-.04,4.37-.41,8.49,0,12.34,4.29,3.85,1.54,7.44,0,10.75.72,3.3-5.44,6.32,0,9.04,1.36,2.72,1.98,5.13,0,7.22-1.65,2.09-.39,3.86,0,5.29,5.76,1.43-.05,2.52,0,3.26,1.12.73-8.05,1.11,0,1.11h15c-4.96,0-1.97-.38,0-1.11,2.03-.73,6.14-1.83,0-3.26-4.13-1.43-8.09-3.2,0-5.29,0-2.09,1.87-4.51,0-7.22.11-2.72-.73-5.73,0-9.04,5.52-3.3,4.6-6.89,0-10.75-3.58-3.85-1.77-7.97,0-12.34,5.22-4.37,14.41-8.98,0-13.83,1.86-4.85-2.56-9.92,0-15.21-1.8-2.64-1.58-5.34-1.01-8.08.56-2.75,1.46-5.54,1.01-8.39,2.55-16.98-6.45-32.98-6.45-48.98,1-13,2-27,8-39,11-23,2-48-.67-70.51-.22-2.51-.38-5.04-.87-7.46V35.95h15v402.91c.74,2,1.11,4.31,1.47,6.7,13.08,35.34-6.92,68.34-8.92,104.34-1,13,17,30,7.45,40.45.8,2.64-.91,5.23-1.96,7.77-1.05,2.53-1.45,5.02,1.96,7.44-1.19,4.85,3.65,9.46,0,13.83-3.11,4.37-.96,8.49,0,12.34.01,3.85,1.95,7.44,0,10.75,1.61,3.3,1.16,6.32,0,9.04-2.03,2.72-4.83,5.13,0,7.22,1.96,2.09-1.26,3.86,0,5.29-10.31,1.43-7.53,2.52,0,3.26-1.62.73-.15,1.11,0,1.11h15c-9.59,0,5.48-.38,0-1.11,4.44-.73,1.41-1.83,0-3.26-4.01-1.43-3.04-3.2,0-5.29-1.73-2.09-1.12-4.51,0-7.22-4.04-2.72,6.38-5.73,0-9.04-6.83-3.3-8.58-6.89,0-10.75-1.39-3.85-.36-7.97,0-12.34,6.83-4.37-2.34-8.98,0-13.83.23-2.42.81-4.9.94-7.27-9.39-27.38-7.39-57.38,6.61-83.38,4-7,2-15,0-22-4-15-7-30-7.55-46.43V35.95h15v433.05c.12,2.41.21,4.84.35,7.23,1.2,12.67,7.2,23.67,8.2,36.67,0,7-2,16-4,21-9,24-12,49-5.03,72.16,4,2.6,3.17,4.28,1.49,6.59-1.68,2.31-3.7,4.55-1.01,6.74,5.98,4.37,2.38,8.49,0,12.34-4.06,3.85-1.56,7.44,0,10.75,1.67,3.3-2.02,6.32,0,9.04,6.52,2.72,1.98,5.13,0,7.22,2.45,2.09-7.03,3.86,0,5.29.63,1.43-2.36,2.52,0,3.26,3.51.73-2.12,1.11,0,1.11h15c.67,0-3.28-.38,0-1.11-2.47-.73-2.89-1.83,0-3.26-11.35-1.43-2.73-3.2,0-5.29-.89-2.09,6.2-4.51,0-7.22-2.47-2.72-.98-5.73,0-9.04-3.01-3.3,2.73-6.89,0-10.75,1.55-9.82-1.45-20.82-1.45-29.82,1-3-7-7-6-13,1-4,4-7,5-10,5-16,10-31,10-47-1-15-6-30-7.55-44.87V35.95h15v461.59c.64,3.47.39,6.91.1,10.31-.29,3.41.07,6.3.98,9.25,4.47,13.81,10.47,26.81,7.47,40.81-5,21-23,41-8,64,1,1-6-1-8,3,0,1,1,1,.59,1.54.81,1.89,3.92,3.36,6.86,5.29-5.41,3.85,1.85,7.45,0,10.75-6.96,3.3,5.62,6.32,0,9.04,3.42,2.72-1.45,5.13,0,7.22-10.67,2.09,2.16,3.86,0,5.29-3.69,1.43-2.99,2.52,0,3.26-5.92.73.1,1.11,0,1.11h15c4.84,0-.73-.38,0-1.11,8.2-.73-3.97-1.83,0-3.26,1.76-1.43-9.95-3.2,0-5.29,3.47-2.09-3.91-4.51,0-7.22,3.55-7.61-4.45-10.61-3.45-18.61,0-2-1-6-2-9,0-1,3-2,3-4,1-3-2-4-2-5-1-7,5-14,4-22-2-12,12-23,10-34-3-13-10-26-9.55-40.94-.28-3.34-.51-6.71-.55-10.12-.04-3.41.1-6.85.55-10.31V35.95h15v461.59c-1.53,6.94-1.68,13.76,0,20.44,2.24,6.68,1.85,13.22,0,19.61,5.6,1.6,8.07,3.18,8.7,4.76s-.48,3.07-1.88,4.38c-8.27,4.18.73,14.18-.27,20.18-1,5-7,13,0,17-14,10-11,28-8,43,0,2-2,3-3,4,1,1,3,1,3,2,1,6-9,10,0,13-1,0-2,1-2,1-2,6,10,3,3.45,11.83-.73,2.09,2.55,3.86,0,5.29,2.79,1.43,6.11,2.52,0,3.26,5.87.73-4.12,1.11,0,1.11h7.5c4.05.51,7.05.51,11.05.51-1-1-4,5-4-1,2,0,5,1,4-1,0-2-4-1-6-3-1-2,5-1,3-2-2-2-5-2-5-5,0,0,1-1,2-1-3-1-7-2-7-4-1-4,5-1,7-4-5-1-4-7-4-8-3-18,12-34,12-52,0-2,3-4,2-6,0-3-4-7-3-10,1-6-2-11-5-16-2-3-8-3-7.24-9.09.89-2.92,4.71-6.04,7.68-9.24-.72-6.39-13.64-12.93,0-19.61-1.02-6.68,2.66-13.5,0-20.44V35.95h15v461.59c1.64,6.94-.01,13.76,0,20.44-12.08,6.68-9.18,13.22,0,19.61,4.15,6.39-1.41,12.62,0,18.67.52,3.03,1.04,6.01,1.29,8.72-.74,6.93,1.26,12.93,4.26,18.93,1,1-1,3-1,6,1,4,7,6,4,8-7,9-8,19-7,30,0,6-4,13-6,20-1,2-4,2-5,4,4,2,8,3,12,6-3,3-8,1-9,3-2,3,3,1,4,3,1,3-2,1-3,1,2,0,2,2,4,3-1,0-3-1-4-1,1,1,1,4,4,3-1,0-3-1-4-1,1,2,3,1,4.39,1.43" fill="none" stroke="#ffefe4" stroke-miterlimit="10" stroke-width="1.1" vector-effect="non-scaling-stroke"/>
</svg>