<?xml version="1.0" encoding="UTF-8"?>
<svg id="Layer_1" data-name="Layer 1" xmlns="http://www.w3.org/2000/svg" viewBox="0 0 1082.61 706.33">
 <style>
    path, line, polyline, polygon, rect, circle, ellipse {
      vector-effect: non-scaling-stroke;
    }
  </style>
  <path d="M541.09,246.55c0,.21-.17.38-.38.38s-.38-.17-.38-.38.17-.38.38-.38.38.17.38.38" fill="#ffefe4"/>
  <path d="M844.28,231.74c0,.05-.04.09-.09.09s-.09-.04-.09-.09.04-.09.09-.09.09.04.09.09" fill="#ffefe4"/>
  <path d="M639.02,288c0,.73-.59,1.32-1.32,1.32s-1.32-.59-1.32-1.32.59-1.32,1.32-1.32,1.32.59,1.32,1.32" fill="#ffefe4"/>
  <path d="M622.5,223.14c0,.74-.6,1.34-1.34,1.34s-1.35-.6-1.35-1.34.6-1.34,1.35-1.34,1.34.6,1.34,1.34" fill="#ffefe4"/>
  <path d="M727.46,156.45c0,.23-.19.41-.41.41s-.41-.19-.41-.41.19-.41.41-.41.41.19.41.41" fill="#ffefe4"/>
  <path d="M585.85,280.41s-.04.09-.09.09-.09-.04-.09-.09.04-.09.09-.09.09.04.09.09" fill="#ffefe4"/>
  <path d="M913.44,257.89c0,.25-.2.45-.45.45s-.45-.2-.45-.45.2-.45.45-.45.45.2.45.45" fill="#ffefe4"/>
  <path d="M775.37,153.36c0,.31-.25.56-.56.56s-.56-.25-.56-.56.25-.56.56-.56.56.25.56.56" fill="#ffefe4"/>
  <path d="M775.98,295.2c0,.18-.15.33-.33.33s-.33-.15-.33-.33.15-.33.33-.33.33.15.33.33" fill="#ffefe4"/>
  <path d="M806.71,192.17c0,.13-.11.24-.24.24s-.24-.11-.24-.24.11-.24.24-.24.24.11.24.24" fill="#ffefe4"/>
  <path d="M916.76,197.24c0,.26-.21.47-.47.47s-.47-.21-.47-.47.21-.47.47-.47.47.21.47.47" fill="#ffefe4"/>
  <path d="M584.11,249.08c0,.66-.54,1.2-1.2,1.2s-1.2-.54-1.2-1.2.54-1.2,1.2-1.2,1.2.54,1.2,1.2" fill="#ffefe4"/>
  <path d="M804.75,250.73c0,.37-.3.66-.66.66s-.66-.3-.66-.66.3-.66.66-.66.66.3.66.66" fill="#ffefe4"/>
  <path d="M660.32,251.4c0,.61-.49,1.1-1.1,1.1s-1.1-.49-1.1-1.1.49-1.1,1.1-1.1,1.1.49,1.1,1.1" fill="#ffefe4"/>
  <path d="M656.33,198.82c0,.63-.51,1.14-1.14,1.14s-1.14-.51-1.14-1.14.51-1.14,1.14-1.14,1.14.51,1.14,1.14" fill="#ffefe4"/>
  <path d="M869.9,191.32c0,.05-.04.1-.1.1s-.1-.04-.1-.1.04-.1.1-.1.1.04.1.1" fill="#ffefe4"/>
  <path d="M714.84,300.43c0,.24-.2.44-.44.44s-.44-.2-.44-.44.2-.44.44-.44.44.2.44.44" fill="#ffefe4"/>
  <path d="M581.16,195.14s-.04.09-.09.09-.09-.04-.09-.09.04-.09.09-.09.09.04.09.09" fill="#ffefe4"/>
  <path d="M621.98,163.66s-.04.08-.08.08-.08-.04-.08-.08.04-.08.08-.08.08.04.08.08" fill="#ffefe4"/>
  <path d="M940.9,228.22c0,.09-.08.17-.17.17s-.17-.08-.17-.17.08-.17.17-.17.17.08.17.17" fill="#ffefe4"/>
  <path d="M708.9,259.88c0,.72-.58,1.3-1.3,1.3s-1.3-.58-1.3-1.3.58-1.3,1.3-1.3,1.3.58,1.3,1.3" fill="#ffefe4"/>
  <path d="M703.15,201c0,.09-.07.16-.16.16s-.17-.07-.17-.16.07-.16.17-.16.16.07.16.16" fill="#ffefe4"/>
  <path d="M759.11,205.74c0,.68-.55,1.23-1.23,1.23s-1.23-.55-1.23-1.23.55-1.23,1.23-1.23,1.23.55,1.23,1.23" fill="#ffefe4"/>
  <path d="M529.34,209.01c0,.58-.47,1.05-1.05,1.05s-1.05-.47-1.05-1.05.47-1.05,1.05-1.05,1.05.47,1.05,1.05" fill="#ffefe4"/>
  <path d="M892.65,226.72c0,.36-.29.65-.65.65s-.65-.29-.65-.65.29-.65.65-.65.65.29.65.65" fill="#ffefe4"/>
  <path d="M875.45,266.93c0,.82-.67,1.49-1.49,1.49s-1.49-.67-1.49-1.49.67-1.49,1.49-1.49,1.49.67,1.49,1.49" fill="#ffefe4"/>
  <path d="M839.43,164.6c0,.1-.08.18-.18.18s-.18-.08-.18-.18.08-.18.18-.18.18.08.18.18" fill="#ffefe4"/>
  <path d="M834.9,283.59c0,.11-.08.19-.19.19s-.19-.08-.19-.19.08-.19.19-.19.19.08.19.19" fill="#ffefe4"/>
  <path d="M675.25,157.16c0,.08-.07.15-.15.15s-.15-.07-.15-.15.07-.15.15-.15.15.07.15.15" fill="#ffefe4"/>
  <path d="M760.85,254.89c0,.7-.57,1.27-1.27,1.27s-1.27-.57-1.27-1.27.57-1.27,1.27-1.27,1.27.57,1.27,1.27" fill="#ffefe4"/>
  <path d="M930.34,208.77c0-.21.17-.38.38-.38s.38.17.38.38-.17.38-.38.38-.38-.17-.38-.38" fill="#ffefe4"/>
  <path d="M627.14,223.57c0-.05.04-.09.09-.09s.09.04.09.09-.04.09-.09.09-.09-.04-.09-.09" fill="#ffefe4"/>
  <path d="M832.41,167.32c0-.73.59-1.32,1.32-1.32s1.32.59,1.32,1.32-.59,1.32-1.32,1.32-1.32-.59-1.32-1.32" fill="#ffefe4"/>
  <path d="M848.92,232.18c0-.74.6-1.34,1.34-1.34s1.35.6,1.35,1.34-.6,1.34-1.35,1.34-1.34-.6-1.34-1.34" fill="#ffefe4"/>
  <path d="M743.97,298.87c0-.23.19-.41.41-.41s.41.19.41.41-.19.41-.41.41-.41-.19-.41-.41" fill="#ffefe4"/>
  <path d="M885.57,174.9s.04-.09.09-.09.09.04.09.09-.04.09-.09.09-.09-.04-.09-.09" fill="#ffefe4"/>
  <path d="M557.99,197.43c0-.25.2-.45.45-.45s.45.2.45.45-.2.45-.45.45-.45-.2-.45-.45" fill="#ffefe4"/>
  <path d="M696.05,301.95c0-.31.25-.56.56-.56s.56.25.56.56-.25.56-.56.56-.56-.25-.56-.56" fill="#ffefe4"/>
  <path d="M695.44,160.11c0-.18.15-.33.33-.33s.33.15.33.33-.15.33-.33.33-.33-.15-.33-.33" fill="#ffefe4"/>
  <path d="M664.72,263.15c0-.13.11-.24.24-.24s.24.11.24.24-.11.24-.24.24-.24-.11-.24-.24" fill="#ffefe4"/>
  <path d="M554.67,258.07c0-.26.21-.47.47-.47s.47.21.47.47-.21.47-.47.47-.47-.21-.47-.47" fill="#ffefe4"/>
  <path d="M887.32,206.23c0-.66.54-1.2,1.2-1.2s1.2.54,1.2,1.2-.54,1.2-1.2,1.2-1.2-.54-1.2-1.2" fill="#ffefe4"/>
  <path d="M666.67,204.58c0-.37.3-.66.66-.66s.66.3.66.66-.3.66-.66.66-.66-.3-.66-.66" fill="#ffefe4"/>
  <path d="M811.11,203.92c0-.61.49-1.1,1.1-1.1s1.1.49,1.1,1.1-.49,1.1-1.1,1.1-1.1-.49-1.1-1.1" fill="#ffefe4"/>
  <path d="M815.1,256.5c0-.63.51-1.14,1.14-1.14s1.14.51,1.14,1.14-.51,1.14-1.14,1.14-1.14-.51-1.14-1.14" fill="#ffefe4"/>
  <path d="M601.53,264c0-.05.04-.1.1-.1s.1.04.1.1-.04.1-.1.1-.1-.04-.1-.1" fill="#ffefe4"/>
  <path d="M756.59,154.88c0-.24.2-.44.44-.44s.44.2.44.44-.2.44-.44.44-.44-.2-.44-.44" fill="#ffefe4"/>
  <path d="M890.26,260.18s.04-.09.09-.09.09.04.09.09-.04.09-.09.09-.09-.04-.09-.09" fill="#ffefe4"/>
  <path d="M849.44,291.66s.04-.08.08-.08.08.04.08.08-.04.08-.08.08-.08-.04-.08-.08" fill="#ffefe4"/>
  <path d="M530.52,227.1c0-.09.08-.17.17-.17s.17.08.17.17-.08.17-.17.17-.17-.08-.17-.17" fill="#ffefe4"/>
  <path d="M762.53,195.44c0-.72.58-1.3,1.3-1.3s1.3.58,1.3,1.3-.58,1.3-1.3,1.3-1.3-.58-1.3-1.3" fill="#ffefe4"/>
  <path d="M768.27,254.32c0-.09.07-.16.16-.16s.17.07.17.16-.07.16-.17.16-.16-.07-.16-.16" fill="#ffefe4"/>
  <path d="M712.31,249.57c0-.68.55-1.23,1.23-1.23s1.23.55,1.23,1.23-.55,1.23-1.23,1.23-1.23-.55-1.23-1.23" fill="#ffefe4"/>
  <path d="M942.08,246.3c0-.58.47-1.05,1.05-1.05s1.05.47,1.05,1.05-.47,1.05-1.05,1.05-1.05-.47-1.05-1.05" fill="#ffefe4"/>
  <path d="M578.77,228.6c0-.36.29-.65.65-.65s.65.29.65.65-.29.65-.65.65-.65-.29-.65-.65" fill="#ffefe4"/>
  <path d="M595.98,188.38c0-.82.67-1.49,1.49-1.49s1.49.67,1.49,1.49-.67,1.49-1.49,1.49-1.49-.67-1.49-1.49" fill="#ffefe4"/>
  <path d="M632,290.72c0-.1.08-.18.18-.18s.18.08.18.18-.08.18-.18.18-.18-.08-.18-.18" fill="#ffefe4"/>
  <path d="M636.53,171.73c0-.11.08-.19.19-.19s.19.08.19.19-.08.19-.19.19-.19-.08-.19-.19" fill="#ffefe4"/>
  <path d="M796.18,298.16c0-.08.07-.15.15-.15s.15.07.15.15-.07.15-.15.15-.15-.07-.15-.15" fill="#ffefe4"/>
  <path d="M710.58,200.43c0-.7.57-1.27,1.27-1.27s1.27.57,1.27,1.27-.57,1.27-1.27,1.27-1.27-.57-1.27-1.27" fill="#ffefe4"/>
  <path d="M930.34,226.77c0-.21.17-.38.38-.38s.38.17.38.38-.17.38-.38.38-.38-.17-.38-.38" fill="#ffefe4"/>
  <path d="M627.14,241.58c0-.05.04-.09.09-.09s.09.04.09.09-.04.09-.09.09-.09-.04-.09-.09" fill="#ffefe4"/>
  <path d="M832.41,185.33c0-.73.59-1.32,1.32-1.32s1.32.59,1.32,1.32-.59,1.32-1.32,1.32-1.32-.59-1.32-1.32" fill="#ffefe4"/>
  <path d="M848.92,250.18c0-.74.6-1.34,1.34-1.34s1.35.6,1.35,1.34-.6,1.34-1.35,1.34-1.34-.6-1.34-1.34" fill="#ffefe4"/>
  <path d="M743.97,316.88c0-.23.19-.41.41-.41s.41.19.41.41-.19.41-.41.41-.41-.19-.41-.41" fill="#ffefe4"/>
  <path d="M885.57,192.91s.04-.09.09-.09.09.04.09.09-.04.09-.09.09-.09-.04-.09-.09" fill="#ffefe4"/>
  <path d="M557.99,215.44c0-.25.2-.45.45-.45s.45.2.45.45-.2.45-.45.45-.45-.2-.45-.45" fill="#ffefe4"/>
  <path d="M696.05,319.96c0-.31.25-.56.56-.56s.56.25.56.56-.25.56-.56.56-.56-.25-.56-.56" fill="#ffefe4"/>
  <path d="M695.44,178.12c0-.18.15-.33.33-.33s.33.15.33.33-.15.33-.33.33-.33-.15-.33-.33" fill="#ffefe4"/>
  <path d="M664.72,281.15c0-.13.11-.24.24-.24s.24.11.24.24-.11.24-.24.24-.24-.11-.24-.24" fill="#ffefe4"/>
  <path d="M554.67,276.08c0-.26.21-.47.47-.47s.47.21.47.47-.21.47-.47.47-.47-.21-.47-.47" fill="#ffefe4"/>
  <path d="M887.32,224.24c0-.66.54-1.2,1.2-1.2s1.2.54,1.2,1.2-.54,1.2-1.2,1.2-1.2-.54-1.2-1.2" fill="#ffefe4"/>
  <path d="M666.67,222.59c0-.37.3-.66.66-.66s.66.3.66.66-.3.66-.66.66-.66-.3-.66-.66" fill="#ffefe4"/>
  <path d="M811.11,221.93c0-.61.49-1.1,1.1-1.1s1.1.49,1.1,1.1-.49,1.1-1.1,1.1-1.1-.49-1.1-1.1" fill="#ffefe4"/>
  <path d="M815.1,274.51c0-.63.51-1.14,1.14-1.14s1.14.51,1.14,1.14-.51,1.14-1.14,1.14-1.14-.51-1.14-1.14" fill="#ffefe4"/>
  <path d="M601.53,282.01c0-.05.04-.1.1-.1s.1.04.1.1-.04.1-.1.1-.1-.04-.1-.1" fill="#ffefe4"/>
  <path d="M756.59,172.89c0-.24.2-.44.44-.44s.44.2.44.44-.2.44-.44.44-.44-.2-.44-.44" fill="#ffefe4"/>
  <path d="M890.26,278.19s.04-.09.09-.09.09.04.09.09-.04.09-.09.09-.09-.04-.09-.09" fill="#ffefe4"/>
  <path d="M849.44,309.67s.04-.08.08-.08.08.04.08.08-.04.08-.08.08-.08-.04-.08-.08" fill="#ffefe4"/>
  <path d="M530.52,245.11c0-.09.08-.17.17-.17s.17.08.17.17-.08.17-.17.17-.17-.08-.17-.17" fill="#ffefe4"/>
  <path d="M762.53,213.44c0-.72.58-1.3,1.3-1.3s1.3.58,1.3,1.3-.58,1.3-1.3,1.3-1.3-.58-1.3-1.3" fill="#ffefe4"/>
  <path d="M768.27,272.33c0-.09.07-.16.16-.16s.17.07.17.16-.07.16-.17.16-.16-.07-.16-.16" fill="#ffefe4"/>
  <path d="M712.31,267.58c0-.68.55-1.23,1.23-1.23s1.23.55,1.23,1.23-.55,1.23-1.23,1.23-1.23-.55-1.23-1.23" fill="#ffefe4"/>
  <path d="M942.08,264.31c0-.58.47-1.05,1.05-1.05s1.05.47,1.05,1.05-.47,1.05-1.05,1.05-1.05-.47-1.05-1.05" fill="#ffefe4"/>
  <path d="M578.77,246.61c0-.36.29-.65.65-.65s.65.29.65.65-.29.65-.65.65-.65-.29-.65-.65" fill="#ffefe4"/>
  <path d="M595.98,206.39c0-.82.67-1.49,1.49-1.49s1.49.67,1.49,1.49-.67,1.49-1.49,1.49-1.49-.67-1.49-1.49" fill="#ffefe4"/>
  <path d="M632,308.73c0-.1.08-.18.18-.18s.18.08.18.18-.08.18-.18.18-.18-.08-.18-.18" fill="#ffefe4"/>
  <path d="M636.53,189.74c0-.11.08-.19.19-.19s.19.08.19.19-.08.19-.19.19-.19-.08-.19-.19" fill="#ffefe4"/>
  <path d="M796.18,316.17c0-.08.07-.15.15-.15s.15.07.15.15-.07.15-.15.15-.15-.07-.15-.15" fill="#ffefe4"/>
  <path d="M710.58,218.44c0-.7.57-1.27,1.27-1.27s1.27.57,1.27,1.27-.57,1.27-1.27,1.27-1.27-.57-1.27-1.27" fill="#ffefe4"/>
  <path d="M541.09,264.56c0,.21-.17.38-.38.38s-.38-.17-.38-.38.17-.38.38-.38.38.17.38.38" fill="#ffefe4"/>
  <path d="M844.28,249.75c0,.05-.04.09-.09.09s-.09-.04-.09-.09.04-.09.09-.09.09.04.09.09" fill="#ffefe4"/>
  <path d="M639.02,306c0,.73-.59,1.32-1.32,1.32s-1.32-.59-1.32-1.32.59-1.32,1.32-1.32,1.32.59,1.32,1.32" fill="#ffefe4"/>
  <path d="M622.5,241.15c0,.74-.6,1.34-1.34,1.34s-1.35-.6-1.35-1.34.6-1.34,1.35-1.34,1.34.6,1.34,1.34" fill="#ffefe4"/>
  <path d="M727.46,174.45c0,.23-.19.41-.41.41s-.41-.19-.41-.41.19-.41.41-.41.41.19.41.41" fill="#ffefe4"/>
  <path d="M585.85,298.42s-.04.09-.09.09-.09-.04-.09-.09.04-.09.09-.09.09.04.09.09" fill="#ffefe4"/>
  <path d="M913.44,275.9c0,.25-.2.45-.45.45s-.45-.2-.45-.45.2-.45.45-.45.45.2.45.45" fill="#ffefe4"/>
  <path d="M775.37,171.37c0,.31-.25.56-.56.56s-.56-.25-.56-.56.25-.56.56-.56.56.25.56.56" fill="#ffefe4"/>
  <path d="M775.98,313.21c0,.18-.15.33-.33.33s-.33-.15-.33-.33.15-.33.33-.33.33.15.33.33" fill="#ffefe4"/>
  <path d="M806.71,210.18c0,.13-.11.24-.24.24s-.24-.11-.24-.24.11-.24.24-.24.24.11.24.24" fill="#ffefe4"/>
  <path d="M916.76,215.25c0,.26-.21.47-.47.47s-.47-.21-.47-.47.21-.47.47-.47.47.21.47.47" fill="#ffefe4"/>
  <path d="M584.11,267.09c0,.66-.54,1.2-1.2,1.2s-1.2-.54-1.2-1.2.54-1.2,1.2-1.2,1.2.54,1.2,1.2" fill="#ffefe4"/>
  <path d="M804.75,268.74c0,.37-.3.66-.66.66s-.66-.3-.66-.66.3-.66.66-.66.66.3.66.66" fill="#ffefe4"/>
  <path d="M660.32,269.41c0,.61-.49,1.1-1.1,1.1s-1.1-.49-1.1-1.1.49-1.1,1.1-1.1,1.1.49,1.1,1.1" fill="#ffefe4"/>
  <path d="M656.33,216.83c0,.63-.51,1.14-1.14,1.14s-1.14-.51-1.14-1.14.51-1.14,1.14-1.14,1.14.51,1.14,1.14" fill="#ffefe4"/>
  <path d="M869.9,209.33c0,.05-.04.1-.1.1s-.1-.04-.1-.1.04-.1.1-.1.1.04.1.1" fill="#ffefe4"/>
  <path d="M714.84,318.44c0,.24-.2.44-.44.44s-.44-.2-.44-.44.2-.44.44-.44.44.2.44.44" fill="#ffefe4"/>
  <path d="M581.16,213.14s-.04.09-.09.09-.09-.04-.09-.09.04-.09.09-.09.09.04.09.09" fill="#ffefe4"/>
  <path d="M621.98,181.67s-.04.08-.08.08-.08-.04-.08-.08.04-.08.08-.08.08.04.08.08" fill="#ffefe4"/>
  <path d="M940.9,246.23c0,.09-.08.17-.17.17s-.17-.08-.17-.17.08-.17.17-.17.17.08.17.17" fill="#ffefe4"/>
  <path d="M708.9,277.89c0,.72-.58,1.3-1.3,1.3s-1.3-.58-1.3-1.3.58-1.3,1.3-1.3,1.3.58,1.3,1.3" fill="#ffefe4"/>
  <path d="M703.15,219c0,.09-.07.16-.16.16s-.17-.07-.17-.16.07-.16.17-.16.16.07.16.16" fill="#ffefe4"/>
  <path d="M759.11,223.75c0,.68-.55,1.23-1.23,1.23s-1.23-.55-1.23-1.23.55-1.23,1.23-1.23,1.23.55,1.23,1.23" fill="#ffefe4"/>
  <path d="M529.34,227.02c0,.58-.47,1.05-1.05,1.05s-1.05-.47-1.05-1.05.47-1.05,1.05-1.05,1.05.47,1.05,1.05" fill="#ffefe4"/>
  <path d="M892.65,244.73c0,.36-.29.65-.65.65s-.65-.29-.65-.65.29-.65.65-.65.65.29.65.65" fill="#ffefe4"/>
  <path d="M875.45,284.94c0,.82-.67,1.49-1.49,1.49s-1.49-.67-1.49-1.49.67-1.49,1.49-1.49,1.49.67,1.49,1.49" fill="#ffefe4"/>
  <path d="M839.43,182.6c0,.1-.08.18-.18.18s-.18-.08-.18-.18.08-.18.18-.18.18.08.18.18" fill="#ffefe4"/>
  <path d="M834.9,301.6c0,.11-.08.19-.19.19s-.19-.08-.19-.19.08-.19.19-.19.19.08.19.19" fill="#ffefe4"/>
  <path d="M675.25,175.17c0,.08-.07.15-.15.15s-.15-.07-.15-.15.07-.15.15-.15.15.07.15.15" fill="#ffefe4"/>
  <path d="M760.85,272.89c0,.7-.57,1.27-1.27,1.27s-1.27-.57-1.27-1.27.57-1.27,1.27-1.27,1.27.57,1.27,1.27" fill="#ffefe4"/>
  <path d="M936.22,186.5c14.67,11.79,24.49,24.95,28.27,38.95,1.15,4.21,1.75,8.54,1.75,12.91,0,58.82-106.28,106.48-237.43,106.48-32.61,0-63.69-2.95-91.98-8.29" fill="none" stroke="#ffefe4" stroke-miterlimit="10" stroke-width="3.39"/>
  <path d="M518.22,287.58c-17.13-14.72-26.81-31.46-26.81-49.21,0-4.37.6-8.7,1.75-12.91,14.22-52.75,114.31-93.61,235.64-93.61,19.88,0,39.2,1.1,57.66,3.16" fill="none" stroke="#ffefe4" stroke-miterlimit="10" stroke-width="3.39"/>
  <path d="M786.72,131.08c-18.6-2.1-38.01-3.21-57.92-3.21-121.69,0-224.64,41.51-239.48,96.55-1.25,4.56-1.89,9.26-1.89,13.94,0,17.53,8.65,34.35,25.02,49.45" fill="none" stroke="#ffefe4" stroke-miterlimit="10" stroke-width="3.39"/>
  <path d="M637.08,340.68c28.71,5.34,59.75,8.14,91.73,8.14,63.98,0,124.18-11.2,169.52-31.53,46.35-20.79,71.88-48.82,71.88-78.92,0-4.68-.63-9.38-1.89-13.96-4.16-15.44-15.27-29.82-31.77-42.51" fill="none" stroke="#ffefe4" stroke-miterlimit="10" stroke-width="3.39"/>
  <rect x="412.44" y="331.71" width="74.85" height="43.22" fill="none"/>
  <rect x="412.44" y="331.71" width="74.85" height="43.22" fill="none" stroke="#ffefe4" stroke-linecap="round" stroke-linejoin="round" stroke-width="3.39"/>
  <rect x="487.29" y="288.49" width="74.85" height="43.22" fill="none"/>
  <rect x="487.29" y="288.49" width="74.85" height="43.22" fill="none" stroke="#ffefe4" stroke-linecap="round" stroke-linejoin="round" stroke-width="3.39"/>
  <rect x="562.14" y="245.27" width="74.85" height="43.22" fill="none"/>
  <rect x="562.14" y="245.27" width="74.85" height="43.22" fill="none" stroke="#ffefe4" stroke-linecap="round" stroke-linejoin="round" stroke-width="3.39"/>
  <rect x="636.99" y="202.05" width="74.85" height="43.22" fill="none"/>
  <rect x="636.99" y="202.05" width="74.85" height="43.22" fill="none" stroke="#ffefe4" stroke-linecap="round" stroke-linejoin="round" stroke-width="3.39"/>
  <rect x="711.84" y="158.84" width="74.85" height="43.22" fill="none"/>
  <rect x="711.84" y="158.84" width="74.85" height="43.22" fill="none" stroke="#ffefe4" stroke-linecap="round" stroke-linejoin="round" stroke-width="3.39"/>
  <rect x="786.69" y="115.62" width="74.85" height="43.22" fill="none"/>
  <rect x="786.69" y="115.62" width="74.85" height="43.22" fill="none" stroke="#ffefe4" stroke-linecap="round" stroke-linejoin="round" stroke-width="3.39"/>
  <path d="M562.13,418.15l-74.85-43.22h-74.85c.2.12,1.83,1.06,4.48,2.6l1.9,1.09,2.19,1.26c2.32,1.33,5.01,2.89,7.95,4.58l3.03,1.74c22.18,12.8,55.32,31.94,55.32,31.94h74.85Z" fill="none"/>
  <path d="M562.13,418.15l-74.85-43.22h-74.85c.2.12,1.83,1.06,4.48,2.6l1.9,1.09,2.19,1.26c2.32,1.33,5.01,2.89,7.95,4.58l3.03,1.74c22.18,12.8,55.32,31.94,55.32,31.94h74.85Z" fill="none" stroke="#ffefe4" stroke-linecap="round" stroke-linejoin="round" stroke-width="3.39"/>
  <polygon points="636.99 374.93 562.14 331.71 487.29 331.71 562.14 374.93 636.99 374.93" fill="none"/>
  <polygon points="636.99 374.93 562.14 331.71 487.29 331.71 562.14 374.93 636.99 374.93" fill="none" stroke="#ffefe4" stroke-linecap="round" stroke-linejoin="round" stroke-width="3.39"/>
  <polygon points="711.84 331.71 636.98 288.5 562.14 288.5 636.98 331.71 711.84 331.71" fill="none"/>
  <polygon points="711.84 331.71 636.98 288.5 562.14 288.5 636.98 331.71 711.84 331.71" fill="none" stroke="#ffefe4" stroke-linecap="round" stroke-linejoin="round" stroke-width="3.39"/>
  <polygon points="786.69 288.5 711.84 245.28 636.99 245.28 711.84 288.5 786.69 288.5" fill="none"/>
  <polygon points="786.69 288.5 711.84 245.28 636.99 245.28 711.84 288.5 786.69 288.5" fill="none" stroke="#ffefe4" stroke-linecap="round" stroke-linejoin="round" stroke-width="3.39"/>
  <polygon points="861.54 245.28 786.69 202.06 711.84 202.06 786.69 245.28 861.54 245.28" fill="none"/>
  <polygon points="861.54 245.28 786.69 202.06 711.84 202.06 786.69 245.28 861.54 245.28" fill="none" stroke="#ffefe4" stroke-linecap="round" stroke-linejoin="round" stroke-width="3.39"/>
  <polygon points="936.39 202.06 861.54 158.84 786.69 158.84 861.54 202.06 936.39 202.06" fill="none"/>
  <polygon points="936.39 202.06 861.54 158.84 786.69 158.84 861.54 202.06 936.39 202.06" fill="none" stroke="#ffefe4" stroke-linecap="round" stroke-linejoin="round" stroke-width="3.39"/>
  <polygon points="262.1 590.71 187.25 547.49 112.4 547.49 187.25 590.71 262.1 590.71" fill="none"/>
  <polygon points="262.1 590.71 187.25 547.49 112.4 547.49 187.25 590.71 262.1 590.71" fill="none" stroke="#ffefe4" stroke-linecap="round" stroke-linejoin="round" stroke-width="3.39"/>
  <polygon points="336.95 547.49 262.11 504.27 187.25 504.27 262.11 547.49 336.95 547.49" fill="none"/>
  <polygon points="336.95 547.49 262.11 504.27 187.25 504.27 262.11 547.49 336.95 547.49" fill="none" stroke="#ffefe4" stroke-linecap="round" stroke-linejoin="round" stroke-width="3.39"/>
  <polygon points="411.81 504.27 336.95 461.05 262.1 461.05 336.95 504.27 411.81 504.27" fill="none"/>
  <polygon points="411.81 504.27 336.95 461.05 262.1 461.05 336.95 504.27 411.81 504.27" fill="none" stroke="#ffefe4" stroke-linecap="round" stroke-linejoin="round" stroke-width="3.39"/>
  <polygon points="486.66 461.05 411.81 417.83 336.95 417.83 411.81 461.05 486.66 461.05" fill="none"/>
  <polygon points="486.66 461.05 411.81 417.83 336.95 417.83 411.81 461.05 486.66 461.05" fill="none" stroke="#ffefe4" stroke-linecap="round" stroke-linejoin="round" stroke-width="3.39"/>
  <polygon points="562.14 418.15 562.14 374.93 487.28 331.72 487.28 374.93 562.14 418.15" fill="none"/>
  <polygon points="562.14 418.15 562.14 374.93 487.28 331.72 487.28 374.93 562.14 418.15" fill="none" stroke="#ffefe4" stroke-linecap="round" stroke-linejoin="round" stroke-width="3.39"/>
  <polygon points="636.99 374.93 636.99 331.71 562.14 288.5 562.14 331.71 636.99 374.93" fill="none"/>
  <polygon points="636.99 374.93 636.99 331.71 562.14 288.5 562.14 331.71 636.99 374.93" fill="none" stroke="#ffefe4" stroke-linecap="round" stroke-linejoin="round" stroke-width="3.39"/>
  <polygon points="711.84 331.71 711.84 288.5 636.98 245.28 636.98 288.5 711.84 331.71" fill="none"/>
  <polygon points="711.84 331.71 711.84 288.5 636.98 245.28 636.98 288.5 711.84 331.71" fill="none" stroke="#ffefe4" stroke-linecap="round" stroke-linejoin="round" stroke-width="3.39"/>
  <polygon points="786.69 288.5 786.69 245.28 711.84 202.06 711.84 245.28 786.69 288.5" fill="none"/>
  <polygon points="786.69 288.5 786.69 245.28 711.84 202.06 711.84 245.28 786.69 288.5" fill="none" stroke="#ffefe4" stroke-linecap="round" stroke-linejoin="round" stroke-width="3.39"/>
  <polygon points="861.54 245.28 861.54 202.06 786.69 158.84 786.69 202.06 861.54 245.28" fill="none"/>
  <polygon points="861.54 245.28 861.54 202.06 786.69 158.84 786.69 202.06 861.54 245.28" fill="none" stroke="#ffefe4" stroke-linecap="round" stroke-linejoin="round" stroke-width="3.39"/>
  <polygon points="936.39 202.06 936.39 158.84 861.54 115.62 861.54 158.84 936.39 202.06" fill="none"/>
  <polygon points="936.39 202.06 936.39 158.84 861.54 115.62 861.54 158.84 936.39 202.06" fill="none" stroke="#ffefe4" stroke-linecap="round" stroke-linejoin="round" stroke-width="3.39"/>
  <polygon points="262.1 590.71 262.1 547.49 187.25 504.27 187.25 547.49 262.1 590.71" fill="none"/>
  <polygon points="262.1 590.71 262.1 547.49 187.25 504.27 187.25 547.49 262.1 590.71" fill="none" stroke="#ffefe4" stroke-linecap="round" stroke-linejoin="round" stroke-width="3.39"/>
  <polygon points="336.95 547.49 336.95 504.27 262.11 461.05 262.11 504.27 336.95 547.49" fill="none"/>
  <polygon points="336.95 547.49 336.95 504.27 262.11 461.05 262.11 504.27 336.95 547.49" fill="none" stroke="#ffefe4" stroke-linecap="round" stroke-linejoin="round" stroke-width="3.39"/>
  <polygon points="411.81 504.27 411.81 461.05 336.95 417.83 336.95 461.05 411.81 504.27" fill="none"/>
  <polygon points="411.81 504.27 411.81 461.05 336.95 417.83 336.95 461.05 411.81 504.27" fill="none" stroke="#ffefe4" stroke-linecap="round" stroke-linejoin="round" stroke-width="3.39"/>
  <polygon points="486.66 461.05 486.66 417.83 411.81 374.62 411.81 417.83 486.66 461.05" fill="none"/>
  <polygon points="486.66 461.05 486.66 417.83 411.81 374.62 411.81 417.83 486.66 461.05" fill="none" stroke="#ffefe4" stroke-linecap="round" stroke-linejoin="round" stroke-width="3.39"/>
  <rect x="112.41" y="504.27" width="74.85" height="43.22" fill="none"/>
  <rect x="112.41" y="504.27" width="74.85" height="43.22" fill="none" stroke="#ffefe4" stroke-linecap="round" stroke-linejoin="round" stroke-width="3.39"/>
  <rect x="187.26" y="461.05" width="74.85" height="43.22" fill="none"/>
  <rect x="187.26" y="461.05" width="74.85" height="43.22" fill="none" stroke="#ffefe4" stroke-linecap="round" stroke-linejoin="round" stroke-width="3.39"/>
  <rect x="262.11" y="417.83" width="74.85" height="43.22" fill="none"/>
  <rect x="262.11" y="417.83" width="74.85" height="43.22" fill="none" stroke="#ffefe4" stroke-linecap="round" stroke-linejoin="round" stroke-width="3.39"/>
  <rect x="336.96" y="374.61" width="74.85" height="43.22" fill="none"/>
  <rect x="336.96" y="374.61" width="74.85" height="43.22" fill="none" stroke="#ffefe4" stroke-linecap="round" stroke-linejoin="round" stroke-width="3.39"/>
  <path d="M895.72,261.03c0-6.78,5.5-12.28,12.28-12.28s12.28,5.5,12.28,12.28-5.5,12.28-12.28,12.28-12.28-5.5-12.28-12.28" fill="none"/>
  <circle cx="908" cy="261.03" r="12.28" fill="none" stroke="#ffefe4" stroke-linecap="round" stroke-linejoin="round" stroke-width="1.92"/>
  <path d="M651.79,161.17c0-6.78,5.5-12.28,12.28-12.28s12.28,5.5,12.28,12.28-5.5,12.28-12.28,12.28-12.28-5.5-12.28-12.28" fill="none"/>
  <circle cx="664.07" cy="161.17" r="12.28" fill="none" stroke="#ffefe4" stroke-linecap="round" stroke-linejoin="round" stroke-width="1.92"/>
  <path d="M852.33,293.78c0-4.52,3.66-8.19,8.19-8.19s8.18,3.66,8.18,8.19-3.66,8.19-8.18,8.19-8.19-3.66-8.19-8.19" fill="none"/>
  <path d="M852.33,293.78c0-4.52,3.66-8.19,8.19-8.19s8.18,3.66,8.18,8.19-3.66,8.19-8.18,8.19-8.19-3.66-8.19-8.19Z" fill="none" stroke="#ffefe4" stroke-linecap="round" stroke-linejoin="round" stroke-width="1.92"/>
  <path d="M587.94,220.93c0-4.52,3.66-8.19,8.19-8.19s8.18,3.66,8.18,8.19-3.66,8.19-8.18,8.19-8.19-3.66-8.19-8.19" fill="none"/>
  <path d="M587.94,220.93c0-4.52,3.66-8.19,8.19-8.19s8.18,3.66,8.18,8.19-3.66,8.19-8.18,8.19-8.19-3.66-8.19-8.19Z" fill="none" stroke="#ffefe4" stroke-linecap="round" stroke-linejoin="round" stroke-width="1.92"/>
  <path d="M813.04,366.63c0-3.16,2.57-5.73,5.73-5.73s5.73,2.57,5.73,5.73-2.57,5.73-5.73,5.73-5.73-2.57-5.73-5.73" fill="none"/>
  <circle cx="818.77" cy="366.63" r="5.73" fill="none" stroke="#ffefe4" stroke-linecap="round" stroke-linejoin="round" stroke-width="1.92"/>
  <path d="M743.47,347.8c0-3.16,2.57-5.73,5.73-5.73s5.73,2.57,5.73,5.73-2.57,5.73-5.73,5.73-5.73-2.57-5.73-5.73" fill="none"/>
  <circle cx="749.2" cy="328.64" r="5.73" fill="none" stroke="#ffefe4" stroke-linecap="round" stroke-linejoin="round" stroke-width="1.92"/>
  <path d="M745.1,413.29c0-2.26,1.83-4.09,4.09-4.09s4.09,1.83,4.09,4.09-1.83,4.09-4.09,4.09-4.09-1.83-4.09-4.09" fill="none"/>
  <path d="M745.1,413.29c0-2.26,1.83-4.09,4.09-4.09s4.09,1.83,4.09,4.09-1.83,4.09-4.09,4.09-4.09-1.83-4.09-4.09Z" fill="none" stroke="#ffefe4" stroke-linecap="round" stroke-linejoin="round" stroke-width="1.92"/>
  <path d="M817.14,441.12c0-2.26,1.83-4.09,4.09-4.09s4.09,1.83,4.09,4.09-1.83,4.09-4.09,4.09-4.09-1.83-4.09-4.09" fill="none"/>
  <path d="M817.14,441.12c0-2.26,1.83-4.09,4.09-4.09s4.09,1.83,4.09,4.09-1.83,4.09-4.09,4.09-4.09-1.83-4.09-4.09Z" fill="none" stroke="#ffefe4" stroke-linecap="round" stroke-linejoin="round" stroke-width="1.92"/>
  <path d="M709.09,493.5c0-2.26,1.83-4.09,4.09-4.09s4.09,1.83,4.09,4.09-1.83,4.09-4.09,4.09-4.09-1.83-4.09-4.09" fill="none"/>
  <path d="M709.09,493.5c0-2.26,1.83-4.09,4.09-4.09s4.09,1.83,4.09,4.09-1.83,4.09-4.09,4.09-4.09-1.83-4.09-4.09Z" fill="none" stroke="#ffefe4" stroke-linecap="round" stroke-linejoin="round" stroke-width="1.92"/>
  <path d="M886.71,373.18c0-3.16,2.57-5.73,5.73-5.73s5.73,2.57,5.73,5.73-2.57,5.73-5.73,5.73-5.73-2.57-5.73-5.73" fill="none"/>
  <circle cx="892.44" cy="373.18" r="5.73" fill="none" stroke="#ffefe4" stroke-linecap="round" stroke-linejoin="round" stroke-width="1.92"/>
</svg>