<?xml version="1.0" encoding="UTF-8"?>
<svg id="Layer_1" data-name="Layer 1" xmlns="http://www.w3.org/2000/svg" viewBox="0 0 1082.61 706.33">
 <style>
    path, line, polyline, polygon, rect, circle, ellipse {
      vector-effect: non-scaling-stroke;
    }
  </style>
  <circle cx="680.98" cy="224.18" r="81.81" transform="translate(453.32 904.01) rotate(-89.71)" fill="none" stroke="#fff0e5" stroke-miterlimit="10" stroke-width="1.77"/>
  <circle cx="680.98" cy="224.18" r="68.79" transform="translate(40.93 547.18) rotate(-45)" fill="none" stroke="#fff0e5" stroke-miterlimit="10" stroke-width="1.77"/>
  <circle cx="680.98" cy="224.18" r="55.78" fill="none" stroke="#fff0e5" stroke-miterlimit="10" stroke-width="1.77"/>
  <circle cx="680.97" cy="224.18" r="42.77" fill="none" stroke="#fff0e5" stroke-miterlimit="10" stroke-width="1.77"/>
  <path d="M710.73,224.18c0,16.43-13.32,29.75-29.75,29.75s-29.75-13.32-29.75-29.75,13.32-29.75,29.75-29.75,29.75,13.32,29.75,29.75Z" fill="none" stroke="#fff0e5" stroke-miterlimit="10" stroke-width="1.77"/>
  <path d="M697.72,224.18c0,9.25-7.49,16.74-16.74,16.74s-16.74-7.49-16.74-16.74,7.49-16.74,16.74-16.74,16.74,7.49,16.74,16.74Z" fill="none" stroke="#fff0e5" stroke-miterlimit="10" stroke-width="1.77"/>
  <line x1="371.68" y1="210.56" x2="464.27" y2="556.14" fill="none" stroke="#fff0e5" stroke-miterlimit="10" stroke-width="1.77"/>
  <line x1="511.54" y1="540.41" x2="382.38" y2="207.44" fill="none" stroke="#fff0e5" stroke-miterlimit="10" stroke-width="1.77"/>
  <circle cx="487.73" cy="547.75" r="121.72" fill="none" stroke="#fff0e5" stroke-miterlimit="10" stroke-width="1.77"/>
  <path d="M590.09,547.75c0,56.53-45.83,102.36-102.36,102.36s-102.36-45.83-102.36-102.36,45.83-102.36,102.36-102.36,102.36,45.83,102.36,102.36" fill="none" stroke="#fff0e5" stroke-linecap="round" stroke-linejoin="round" stroke-width="1.77"/>
  <circle cx="487.73" cy="547.75" r="102.36" fill="none" stroke="#fff0e5" stroke-linecap="round" stroke-linejoin="round" stroke-width="1.77"/>
  <path d="M570.72,547.75c0,45.84-37.16,82.99-82.99,82.99s-82.99-37.16-82.99-82.99,37.16-82.99,82.99-82.99,82.99,37.16,82.99,82.99" fill="none" stroke="#fff0e5" stroke-linecap="round" stroke-linejoin="round" stroke-width="1.77"/>
  <circle cx="487.73" cy="547.75" r="82.99" fill="none" stroke="#fff0e5" stroke-linecap="round" stroke-linejoin="round" stroke-width="1.77"/>
  <path d="M551.36,547.75c0,35.14-28.49,63.63-63.63,63.63s-63.63-28.49-63.63-63.63,28.49-63.63,63.63-63.63,63.63,28.49,63.63,63.63" fill="none" stroke="#fff0e5" stroke-linecap="round" stroke-linejoin="round" stroke-width="1.77"/>
  <circle cx="487.73" cy="547.75" r="63.63" fill="none" stroke="#fff0e5" stroke-linecap="round" stroke-linejoin="round" stroke-width="1.77"/>
  <path d="M532,547.75c0,24.45-19.82,44.27-44.27,44.27s-44.27-19.82-44.27-44.27,19.82-44.27,44.27-44.27,44.27,19.82,44.27,44.27" fill="none" stroke="#fff0e5" stroke-linecap="round" stroke-linejoin="round" stroke-width="1.77"/>
  <circle cx="487.73" cy="547.75" r="44.27" fill="none" stroke="#fff0e5" stroke-linecap="round" stroke-linejoin="round" stroke-width="1.77"/>
  <path d="M512.64,547.75c0,13.76-11.15,24.91-24.91,24.91s-24.91-11.15-24.91-24.91,11.15-24.91,24.91-24.91,24.91,11.15,24.91,24.91" fill="none" stroke="#fff0e5" stroke-linecap="round" stroke-linejoin="round" stroke-width="1.77"/>
  <circle cx="487.73" cy="547.75" r="24.91" fill="none" stroke="#fff0e5" stroke-linecap="round" stroke-linejoin="round" stroke-width="1.77"/>
  <path d="M404.39,185.5c-10.82,22.71-38.01,32.35-60.72,21.52-17.73-8.45-27.48-26.87-25.76-45.34,3.79,9.03,10.8,16.76,20.34,21.31,20.65,9.84,45.37,1.08,55.22-19.57,4.54-9.54,5.12-19.94,2.4-29.35,12.96,13.27,16.97,33.71,8.52,51.43Z" fill="none" stroke="#fff0e5" stroke-miterlimit="10" stroke-width="1.77"/>
  <path d="M393.47,163.42c-9.85,20.65-34.57,29.41-55.22,19.57-9.54-4.55-16.55-12.28-20.34-21.31-2.76-6.53-3.83-13.75-2.98-20.95,1.47,3.24,3.4,6.27,5.76,8.99,3.27,3.78,7.35,6.95,12.14,9.24,18.6,8.86,40.85.97,49.72-17.62,2.29-4.8,3.46-9.83,3.62-14.82.11-3.61-.3-7.19-1.2-10.63,5.2,5.06,8.92,11.36,10.9,18.18,2.72,9.41,2.14,19.81-2.4,29.35Z" fill="none" stroke="#fff0e5" stroke-linecap="round" stroke-linejoin="round" stroke-width="1.77"/>
  <path d="M386.17,126.52c-.16,4.99-1.33,10.02-3.62,14.82-8.87,18.59-31.12,26.48-49.72,17.62-4.79-2.29-8.87-5.46-12.14-9.24-2.36-2.72-4.29-5.75-5.76-8.99-2.94-6.48-4.03-13.76-2.94-20.98,1.6,3.23,3.73,6.21,6.34,8.79,2.58,2.56,5.62,4.73,9.08,6.38.58.28,1.16.53,1.75.78,15.57,6.36,33.5,0,41.58-14.75.31-.55.6-1.12.88-1.7,1.65-3.46,2.65-7.06,3.03-10.67.41-3.65.19-7.31-.61-10.83,5.39,4.91,9.14,11.25,10.93,18.14.9,3.44,1.31,7.02,1.2,10.63Z" fill="none" stroke="#fff0e5" stroke-linecap="round" stroke-linejoin="round" stroke-width="1.77"/>
  <path d="M374.65,108.58c-.38,3.61-1.38,7.21-3.03,10.67-.28.58-.57,1.15-.88,1.7-8.08,14.76-26.01,21.11-41.58,14.75-.59-.25-1.17-.5-1.75-.78-3.46-1.65-6.5-3.82-9.08-6.38-2.61-2.58-4.74-5.56-6.34-8.79-3.18-6.39-4.28-13.76-2.89-20.98,1.78,3.22,4.18,6.12,7.13,8.49,1.74,1.41,3.66,2.63,5.76,3.63,2.61,1.24,5.32,2.06,8.04,2.48,9.64,1.51,19.46-1.97,26-9.21,1.84-2.04,3.43-4.38,4.67-6.99,1-2.1,1.73-4.27,2.2-6.45.79-3.71.83-7.47.19-11.08,5.61,4.74,9.4,11.15,10.95,18.11.8,3.52,1.02,7.18.61,10.83Z" fill="none" stroke="#fff0e5" stroke-linecap="round" stroke-linejoin="round" stroke-width="1.77"/>
  <path d="M362.9,90.72c-.47,2.18-1.2,4.35-2.2,6.45-1.24,2.61-2.83,4.95-4.67,6.99-6.54,7.24-16.36,10.72-26,9.21-2.72-.42-5.43-1.24-8.04-2.48-2.1-1-4.02-2.22-5.76-3.63-2.95-2.37-5.35-5.27-7.13-8.49-3.49-6.28-4.6-13.78-2.82-21.01,2.04,3.22,4.86,6.01,8.33,8.06.63.37,1.29.72,1.96,1.04,12.42,5.92,27.28.65,33.2-11.77.32-.67.61-1.36.87-2.04,1.4-3.78,1.83-7.71,1.39-11.51,5.94,4.49,9.8,11.02,11.05,18.1h.01c.64,3.61.6,7.37-.19,11.08Z" fill="none" stroke="#fff0e5" stroke-linecap="round" stroke-linejoin="round" stroke-width="1.77"/>
  <path d="M350.64,73.05c-.26.68-.55,1.37-.87,2.04-5.92,12.42-20.78,17.69-33.2,11.77-.67-.32-1.33-.67-1.96-1.04-3.47-2.05-6.29-4.84-8.33-8.06-4.45-7-5.31-16.06-1.48-24.1,5.92-12.42,20.79-17.69,33.21-11.77,8.03,3.83,13.08,11.41,14.02,19.65.44,3.8,0,7.73-1.39,11.51Z" fill="none" stroke="#fff0e5" stroke-linecap="round" stroke-linejoin="round" stroke-width="1.77"/>
  <path d="M782.84,434.21c0,23.51-19.06,42.56-42.56,42.56s-42.56-19.06-42.56-42.56,19.06-42.56,42.56-42.56,42.56,19.06,42.56,42.56Z" fill="none" stroke="#fff0e5" stroke-linecap="round" stroke-linejoin="round" stroke-width="1.77"/>
  <path d="M723.54,434.21c0,23.51-19.06,42.56-42.56,42.56s-42.56-19.06-42.56-42.56,19.06-42.56,42.56-42.56,42.56,19.06,42.56,42.56Z" fill="none" stroke="#fff0e5" stroke-linecap="round" stroke-linejoin="round" stroke-width="1.77"/>
  <path d="M755.46,475.44c0,23.51-19.06,42.56-42.56,42.56s-42.56-19.06-42.56-42.56,19.06-42.56,42.56-42.56,42.56,19.06,42.56,42.56Z" fill="none" stroke="#fff0e5" stroke-miterlimit="10" stroke-width="1.77"/>
  <line x1="680.98" y1="391.65" x2="680.98" y2="224.18" fill="none" stroke="#fff0e5" stroke-miterlimit="10" stroke-width="1.77"/>
  <line x1="487.73" y1="547.75" x2="712.9" y2="518" fill="none" stroke="#fff0e5" stroke-miterlimit="10" stroke-width="1.77"/>
  <circle cx="680.98" cy="142.18" r="81.81" transform="translate(535.32 822.42) rotate(-89.71)" fill="none" stroke="#fff0e5" stroke-miterlimit="10" stroke-width="1.77"/>
  <circle cx="680.98" cy="142.18" r="68.79" transform="translate(98.91 523.17) rotate(-45)" fill="none" stroke="#fff0e5" stroke-miterlimit="10" stroke-width="1.77"/>
  <circle cx="680.98" cy="142.18" r="55.78" fill="none" stroke="#fff0e5" stroke-miterlimit="10" stroke-width="1.77"/>
  <circle cx="680.97" cy="142.18" r="42.77" transform="translate(98.91 523.17) rotate(-45)" fill="none" stroke="#fff0e5" stroke-miterlimit="10" stroke-width="1.77"/>
  <path d="M710.73,142.18c0,16.43-13.32,29.75-29.75,29.75s-29.75-13.32-29.75-29.75,13.32-29.75,29.75-29.75,29.75,13.32,29.75,29.75Z" fill="none" stroke="#fff0e5" stroke-miterlimit="10" stroke-width="1.77"/>
  <path d="M697.72,142.18c0,9.24-7.49,16.74-16.74,16.74s-16.74-7.49-16.74-16.74,7.49-16.74,16.74-16.74,16.74,7.49,16.74,16.74Z" fill="none" stroke="#fff0e5" stroke-miterlimit="10" stroke-width="1.77"/>
</svg>