<?xml version="1.0" encoding="UTF-8"?>
<svg id="Layer_1" xmlns="http://www.w3.org/2000/svg" version="1.1" viewBox="0 0 1082.6 706.3">
  <!-- Generator: Adobe Illustrator 29.3.0, SVG Export Plug-In . SVG Version: 2.1.0 Build 146)  -->
  <defs>
    <style>
      .st0 {
        fill: #7d8b64;
      }

      .st1 {
        font-family: WorkSans-SemiBold, 'Work Sans';
        font-size: 10px;
        font-weight: 600;
      }

      .st1, .st2 {
        isolation: isolate;
      }

      .st1, .st3 {
        fill: #ffefe4;
      }

      .st4 {
        fill: none;
        stroke: #ffefe4;
        stroke-miterlimit: 10;
      }
    </style>
  </defs>
  <line class="st4" x1="320.4" y1="623.9" x2="762.2" y2="623.9"/>
  <line class="st4" x1="320.4" y1="644" x2="762.2" y2="644"/>
  <line class="st4" x1="320.4" y1="603.9" x2="762.2" y2="603.9"/>
  <line class="st4" x1="320.4" y1="583.8" x2="762.2" y2="583.8"/>
  <line class="st4" x1="320.4" y1="563.8" x2="762.2" y2="563.8"/>
  <line class="st4" x1="320.4" y1="543.7" x2="762.2" y2="543.7"/>
  <line class="st4" x1="320.4" y1="523.6" x2="762.2" y2="523.6"/>
  <line class="st4" x1="320.4" y1="503.6" x2="762.2" y2="503.6"/>
  <line class="st4" x1="320.4" y1="483.5" x2="762.2" y2="483.5"/>
  <line class="st4" x1="320.4" y1="463.5" x2="762.2" y2="463.5"/>
  <line class="st4" x1="320.4" y1="443.4" x2="762.2" y2="443.4"/>
  <line class="st4" x1="320.4" y1="423.4" x2="762.2" y2="423.4"/>
  <line class="st4" x1="320.4" y1="403.3" x2="762.2" y2="403.3"/>
  <line class="st4" x1="320.4" y1="383.2" x2="762.2" y2="383.2"/>
  <line class="st4" x1="320.4" y1="363.2" x2="762.2" y2="363.2"/>
  <line class="st4" x1="320.4" y1="343.1" x2="762.2" y2="343.1"/>
  <line class="st4" x1="320.4" y1="323.1" x2="762.2" y2="323.1"/>
  <line class="st4" x1="320.4" y1="303" x2="762.2" y2="303"/>
  <line class="st4" x1="320.4" y1="283" x2="762.2" y2="283"/>
  <line class="st4" x1="320.4" y1="262.9" x2="762.2" y2="262.9"/>
  <line class="st4" x1="320.4" y1="242.9" x2="762.2" y2="242.9"/>
  <line class="st4" x1="320.4" y1="222.8" x2="762.2" y2="222.8"/>
  <line class="st4" x1="320.4" y1="202.7" x2="762.2" y2="202.7"/>
  <line class="st4" x1="320.4" y1="182.7" x2="762.2" y2="182.7"/>
  <line class="st4" x1="320.4" y1="162.6" x2="762.2" y2="162.6"/>
  <line class="st4" x1="320.4" y1="142.6" x2="762.2" y2="142.6"/>
  <line class="st4" x1="320.4" y1="122.5" x2="762.2" y2="122.5"/>
  <line class="st4" x1="320.4" y1="102.5" x2="762.2" y2="102.5"/>
  <line class="st4" x1="320.4" y1="82.4" x2="762.2" y2="82.4"/>
  <line class="st4" x1="320.4" y1="62.3" x2="762.2" y2="62.3"/>
  <line class="st4" x1="320.4" y1="42.3" x2="762.2" y2="42.3"/>
  <line class="st4" x1="320.4" y1="664" x2="762.2" y2="664"/>
  <line class="st4" x1="742.2" y1="664" x2="742.2" y2="42.3"/>
  <line class="st4" x1="722.1" y1="664" x2="722.1" y2="42.3"/>
  <line class="st4" x1="761.7" y1="664.2" x2="761.7" y2="42.4"/>
  <line class="st4" x1="702.1" y1="664" x2="702.1" y2="42.3"/>
  <line class="st4" x1="682" y1="664" x2="682" y2="42.3"/>
  <line class="st4" x1="662" y1="664" x2="662" y2="42.3"/>
  <line class="st4" x1="641.9" y1="664" x2="641.9" y2="42.3"/>
  <line class="st4" x1="621.9" y1="664" x2="621.9" y2="42.3"/>
  <line class="st4" x1="601.8" y1="664" x2="601.8" y2="42.3"/>
  <line class="st4" x1="581.8" y1="664" x2="581.8" y2="42.3"/>
  <line class="st4" x1="561.7" y1="664" x2="561.7" y2="42.3"/>
  <line class="st4" x1="541.6" y1="664" x2="541.6" y2="42.3"/>
  <line class="st4" x1="521.6" y1="664" x2="521.6" y2="42.3"/>
  <line class="st4" x1="501.5" y1="664" x2="501.5" y2="42.3"/>
  <line class="st4" x1="481.5" y1="664" x2="481.5" y2="42.3"/>
  <line class="st4" x1="461.4" y1="664" x2="461.4" y2="42.3"/>
  <line class="st4" x1="441.4" y1="664" x2="441.4" y2="42.3"/>
  <line class="st4" x1="421.3" y1="664" x2="421.3" y2="42.3"/>
  <line class="st4" x1="401.2" y1="664" x2="401.2" y2="42.3"/>
  <line class="st4" x1="381.2" y1="664" x2="381.2" y2="42.3"/>
  <line class="st4" x1="361.1" y1="664" x2="361.1" y2="42.3"/>
  <line class="st4" x1="341.1" y1="664" x2="341.1" y2="42.3"/>
  <line class="st4" x1="320.9" y1="664" x2="320.9" y2="42.2"/>
  <rect class="st0" x="460.5" y="156.1" width="162.4" height="12.5"/>
  <rect class="st0" x="477.6" y="396.8" width="129.1" height="12.5"/>
  <rect class="st0" x="448.5" y="236.3" width="186.1" height="12.5"/>
  <rect class="st0" x="440" y="275.4" width="203.5" height="12.5"/>
  <rect class="st0" x="420.4" y="176.2" width="242.8" height="12.5"/>
  <rect class="st0" x="410" y="417.2" width="263" height="12.5"/>
  <rect class="st0" x="410" y="457.2" width="264" height="12.5"/>
  <rect class="st0" x="430" y="256.4" width="223.8" height="12.5"/>
  <rect class="st0" x="456.1" y="296.5" width="171" height="12.5"/>
  <rect class="st0" x="428.6" y="336.6" width="225.9" height="12.5"/>
  <rect class="st0" x="370" y="196.2" width="343.3" height="12.5"/>
  <rect class="st0" x="387.2" y="477.2" width="309.5" height="12.5"/>
  <rect class="st0" x="434.6" y="376.6" width="214.1" height="12.5"/>
  <rect class="st0" x="425.4" y="316.6" width="233" height="12.5"/>
  <rect class="st0" x="400.3" y="356.7" width="282.7" height="12.5"/>
  <rect class="st0" x="405.1" y="436.7" width="273.2" height="12.5"/>
  <rect class="st0" x="407.5" y="516.7" width="268.6" height="12.5"/>
  <rect class="st0" x="406.1" y="556.7" width="271.3" height="12.5"/>
  <rect class="st0" x="379.9" y="216.3" width="323.3" height="12.5"/>
  <rect class="st0" x="408.7" y="497.3" width="264.3" height="12.5"/>
  <rect class="st0" x="380" y="537.3" width="323.1" height="12.5"/>
  <rect class="st0" x="350.7" y="577.3" width="380.7" height="12.5"/>
  <path class="st3" d="M357.1,623.5c0-2.2,1.7-3.9,3.9-3.9s3.9,1.7,3.9,3.9-1.7,3.9-3.9,3.9-3.9-1.7-3.9-3.9"/>
  <path class="st3" d="M397.3,623.5c0-2.2,1.7-3.9,3.9-3.9s3.9,1.7,3.9,3.9-1.7,3.9-3.9,3.9-3.9-1.7-3.9-3.9"/>
  <path class="st3" d="M437.4,623.5c0-2.2,1.7-3.9,3.9-3.9s3.9,1.7,3.9,3.9-1.7,3.9-3.9,3.9-3.9-1.7-3.9-3.9"/>
  <path class="st3" d="M477.5,623.5c0-2.2,1.7-3.9,3.9-3.9s3.9,1.7,3.9,3.9-1.7,3.9-3.9,3.9-3.9-1.7-3.9-3.9"/>
  <path class="st3" d="M517.7,623.5c0-2.2,1.7-3.9,3.9-3.9s3.9,1.7,3.9,3.9-1.7,3.9-3.9,3.9-3.9-1.7-3.9-3.9"/>
  <path class="st3" d="M557.8,623.5c0-2.2,1.7-3.9,3.9-3.9s3.9,1.7,3.9,3.9-1.7,3.9-3.9,3.9-3.9-1.7-3.9-3.9"/>
  <path class="st3" d="M597.9,623.5c0-2.2,1.7-3.9,3.9-3.9s3.9,1.7,3.9,3.9-1.7,3.9-3.9,3.9-3.9-1.7-3.9-3.9"/>
  <path class="st3" d="M638.1,623.5c0-2.2,1.7-3.9,3.9-3.9s3.9,1.7,3.9,3.9-1.7,3.9-3.9,3.9-3.9-1.7-3.9-3.9"/>
  <path class="st3" d="M678.2,623.5c0-2.2,1.7-3.9,3.9-3.9s3.9,1.7,3.9,3.9-1.7,3.9-3.9,3.9-3.9-1.7-3.9-3.9"/>
  <path class="st3" d="M718.3,623.5c0-2.2,1.7-3.9,3.9-3.9s3.9,1.7,3.9,3.9-1.7,3.9-3.9,3.9-3.9-1.7-3.9-3.9"/>
  <path class="st3" d="M738.2,604c0-2.2,1.7-3.9,3.9-3.9s3.9,1.7,3.9,3.9-1.7,3.9-3.9,3.9-3.9-1.7-3.9-3.9"/>
  <path class="st3" d="M738.4,584.2c0-2.2,1.7-3.9,3.9-3.9s3.9,1.7,3.9,3.9-1.7,3.9-3.9,3.9-3.9-1.7-3.9-3.9"/>
  <path class="st3" d="M678.1,563.6c0-2.2,1.7-3.9,3.9-3.9s3.9,1.7,3.9,3.9-1.7,3.9-3.9,3.9-3.9-1.7-3.9-3.9"/>
  <path class="st3" d="M718.3,543.8c0-2.2,1.7-3.9,3.9-3.9s3.9,1.7,3.9,3.9-1.7,3.9-3.9,3.9-3.9-1.7-3.9-3.9"/>
  <path class="st3" d="M678.1,523.7c0-2.2,1.7-3.9,3.9-3.9s3.9,1.7,3.9,3.9-1.7,3.9-3.9,3.9-3.9-1.7-3.9-3.9"/>
  <path class="st3" d="M678.1,503.8c0-2.1,1.7-3.9,3.9-3.9s3.9,1.7,3.9,3.9-1.7,3.9-3.9,3.9-3.9-1.7-3.9-3.9"/>
  <path class="st3" d="M698.2,483.2c0-2.1,1.7-3.9,3.9-3.9s3.9,1.7,3.9,3.9-1.7,3.9-3.9,3.9-3.9-1.7-3.9-3.9"/>
  <path class="st3" d="M678,443.1c0-2.1,1.7-3.9,3.9-3.9s3.9,1.7,3.9,3.9-1.7,3.9-3.9,3.9-3.9-1.7-3.9-3.9"/>
  <path class="st3" d="M617.9,403.5c0-2.1,1.7-3.9,3.9-3.9s3.9,1.7,3.9,3.9-1.7,3.9-3.9,3.9-3.9-1.7-3.9-3.9"/>
  <path class="st3" d="M658,383.2c0-2.1,1.7-3.9,3.9-3.9s3.9,1.7,3.9,3.9-1.7,3.9-3.9,3.9-3.9-1.7-3.9-3.9"/>
  <path class="st3" d="M698.1,363.2c0-2.1,1.7-3.9,3.9-3.9s3.9,1.7,3.9,3.9-1.7,3.9-3.9,3.9-3.9-1.7-3.9-3.9"/>
  <path class="st3" d="M658,323c0-2.1,1.7-3.9,3.9-3.9s3.9,1.7,3.9,3.9-1.7,3.9-3.9,3.9-3.9-1.7-3.9-3.9"/>
  <path class="st3" d="M638.1,303.1c0-2.1,1.7-3.9,3.9-3.9s3.9,1.7,3.9,3.9-1.7,3.9-3.9,3.9-3.9-1.7-3.9-3.9"/>
  <path class="st3" d="M658.1,282.9c0-2.1,1.7-3.9,3.9-3.9s3.9,1.7,3.9,3.9-1.7,3.9-3.9,3.9-3.9-1.7-3.9-3.9"/>
  <path class="st3" d="M658.1,263.1c0-2.2,1.7-4,3.9-4s3.9,1.8,3.9,4-1.7,4-3.9,4-3.9-1.8-3.9-4"/>
  <path class="st3" d="M718.2,222.8c0-2.2,1.7-3.9,3.9-3.9s3.9,1.8,3.9,3.9-1.7,3.9-3.9,3.9-3.9-1.8-3.9-3.9"/>
  <path class="st3" d="M637.9,162.8c0-2.2,1.7-3.9,3.9-3.9s3.9,1.8,3.9,3.9-1.7,3.9-3.9,3.9-3.9-1.8-3.9-3.9"/>
  <path class="st3" d="M337.1,644.1c0-2.2,1.7-3.9,3.9-3.9s3.9,1.7,3.9,3.9-1.7,3.9-3.9,3.9-3.9-1.7-3.9-3.9"/>
  <path class="st3" d="M337.1,604c0-2.2,1.7-3.9,3.9-3.9s3.9,1.7,3.9,3.9-1.7,3.9-3.9,3.9-3.9-1.7-3.9-3.9"/>
  <path class="st3" d="M337.1,583.8c0-2.2,1.7-3.9,3.9-3.9s3.9,1.7,3.9,3.9-1.7,3.9-3.9,3.9-3.9-1.7-3.9-3.9"/>
  <path class="st3" d="M397.5,563.7c0-2.2,1.7-3.9,3.9-3.9s3.9,1.7,3.9,3.9-1.7,3.9-3.9,3.9-3.9-1.7-3.9-3.9"/>
  <path class="st3" d="M377.4,543.6c0-2.2,1.7-3.9,3.9-3.9s3.9,1.7,3.9,3.9-1.7,3.9-3.9,3.9-3.9-1.7-3.9-3.9"/>
  <path class="st3" d="M397.3,523.8c0-2.2,1.7-3.9,3.9-3.9s3.9,1.7,3.9,3.9-1.7,3.9-3.9,3.9-3.9-1.7-3.9-3.9"/>
  <path class="st3" d="M397.3,503.5c0-2.1,1.7-3.9,3.9-3.9s3.9,1.7,3.9,3.9-1.7,3.9-3.9,3.9-3.9-1.7-3.9-3.9"/>
  <path class="st3" d="M377.3,483.6c0-2.1,1.7-3.9,3.9-3.9s3.9,1.7,3.9,3.9-1.7,3.9-3.9,3.9-3.9-1.7-3.9-3.9"/>
  <path class="st3" d="M397.4,463.3c0-2.1,1.7-3.9,3.9-3.9s3.9,1.7,3.9,3.9-1.7,3.9-3.9,3.9-3.9-1.7-3.9-3.9"/>
  <path class="st3" d="M397.5,443.4c0-2.1,1.7-3.9,3.9-3.9s3.9,1.7,3.9,3.9-1.7,3.9-3.9,3.9-3.9-1.7-3.9-3.9"/>
  <path class="st3" d="M397.3,423.5c0-2.1,1.7-3.9,3.9-3.9s3.9,1.7,3.9,3.9-1.7,3.9-3.9,3.9-3.9-1.7-3.9-3.9"/>
  <path class="st3" d="M457.6,403.3c0-2.1,1.7-3.9,3.9-3.9s3.9,1.7,3.9,3.9-1.7,3.9-3.9,3.9-3.9-1.7-3.9-3.9"/>
  <path class="st3" d="M417.4,383.2c0-2.1,1.7-3.9,3.9-3.9s3.9,1.7,3.9,3.9-1.7,3.9-3.9,3.9-3.9-1.7-3.9-3.9"/>
  <path class="st3" d="M377.4,363.4c0-2.1,1.7-3.9,3.9-3.9s3.9,1.7,3.9,3.9-1.7,3.9-3.9,3.9-3.9-1.7-3.9-3.9"/>
  <path class="st3" d="M417.6,342.8c0-2.1,1.7-3.9,3.9-3.9s3.9,1.7,3.9,3.9-1.7,3.9-3.9,3.9-3.9-1.7-3.9-3.9"/>
  <path class="st3" d="M417.7,323.1c0-2.1,1.7-3.9,3.9-3.9s3.9,1.7,3.9,3.9-1.7,3.9-3.9,3.9-3.9-1.7-3.9-3.9"/>
  <path class="st3" d="M437.5,303.1c0-2.1,1.7-3.9,3.9-3.9s3.9,1.7,3.9,3.9-1.7,3.9-3.9,3.9-3.9-1.7-3.9-3.9"/>
  <path class="st3" d="M417.4,282.9c0-2.1,1.7-3.9,3.9-3.9s3.9,1.7,3.9,3.9-1.7,3.9-3.9,3.9-3.9-1.7-3.9-3.9"/>
  <path class="st3" d="M417.4,262.9c0-2.1,1.7-3.9,3.9-3.9s3.9,1.7,3.9,3.9-1.7,3.9-3.9,3.9-3.9-1.7-3.9-3.9"/>
  <path class="st3" d="M437.3,242.7c0-2.1,1.7-3.9,3.9-3.9s3.9,1.7,3.9,3.9-1.7,3.9-3.9,3.9-3.9-1.7-3.9-3.9"/>
  <path class="st3" d="M357.2,222.9c0-2.1,1.7-3.9,3.9-3.9s3.9,1.7,3.9,3.9-1.7,3.9-3.9,3.9-3.9-1.7-3.9-3.9"/>
  <path class="st3" d="M357.2,202.5c0-2.1,1.7-3.9,3.9-3.9s3.9,1.7,3.9,3.9-1.7,3.9-3.9,3.9-3.9-1.7-3.9-3.9"/>
  <path class="st3" d="M397.4,182.7c0-2.1,1.7-3.9,3.9-3.9s3.9,1.7,3.9,3.9-1.7,3.9-3.9,3.9-3.9-1.7-3.9-3.9"/>
  <path class="st3" d="M437.6,162.5c0-2.1,1.7-3.9,3.9-3.9s3.9,1.7,3.9,3.9-1.7,3.9-3.9,3.9-3.9-1.7-3.9-3.9"/>
  <path class="st3" d="M457.6,142.8c0-2.1,1.7-3.9,3.9-3.9s3.9,1.7,3.9,3.9-1.7,3.9-3.9,3.9-3.9-1.7-3.9-3.9"/>
  <path class="st3" d="M497.7,142.8c0-2.1,1.7-3.9,3.9-3.9s3.9,1.7,3.9,3.9-1.7,3.9-3.9,3.9-3.9-1.7-3.9-3.9"/>
  <path class="st3" d="M537.8,142.8c0-2.1,1.7-3.9,3.9-3.9s3.9,1.7,3.9,3.9-1.7,3.9-3.9,3.9-3.9-1.7-3.9-3.9"/>
  <path class="st3" d="M577.9,142.8c0-2.1,1.7-3.9,3.9-3.9s3.9,1.7,3.9,3.9-1.7,3.9-3.9,3.9-3.9-1.7-3.9-3.9"/>
  <path class="st3" d="M618,142.8c0-2.1,1.7-3.9,3.9-3.9s3.9,1.7,3.9,3.9-1.7,3.9-3.9,3.9-3.9-1.7-3.9-3.9"/>
  <path class="st3" d="M658.1,142.8c0-2.1,1.7-3.9,3.9-3.9s3.9,1.7,3.9,3.9-1.7,3.9-3.9,3.9-3.9-1.7-3.9-3.9"/>
  <path class="st3" d="M698.2,142.8c0-2.1,1.7-3.9,3.9-3.9s3.9,1.7,3.9,3.9-1.7,3.9-3.9,3.9-3.9-1.7-3.9-3.9"/>
  <path class="st3" d="M738.3,142.8c0-2.1,1.7-3.9,3.9-3.9s3.9,1.7,3.9,3.9-1.7,3.9-3.9,3.9-3.9-1.7-3.9-3.9"/>
  <path class="st3" d="M417.5,142.8c0-2.1,1.7-3.9,3.9-3.9s3.9,1.7,3.9,3.9-1.7,3.9-3.9,3.9-3.9-1.7-3.9-3.9"/>
  <path class="st3" d="M377.4,142.8c0-2.1,1.7-3.9,3.9-3.9s3.9,1.7,3.9,3.9-1.7,3.9-3.9,3.9-3.9-1.7-3.9-3.9"/>
  <path class="st3" d="M337.3,142.8c0-2.1,1.7-3.9,3.9-3.9s3.9,1.7,3.9,3.9-1.7,3.9-3.9,3.9-3.9-1.7-3.9-3.9"/>
  <path class="st3" d="M457.6,102.4c0-2.2,1.7-3.9,3.9-3.9s3.9,1.7,3.9,3.9-1.7,3.9-3.9,3.9-3.9-1.7-3.9-3.9"/>
  <path class="st3" d="M497.7,102.4c0-2.2,1.7-3.9,3.9-3.9s3.9,1.7,3.9,3.9-1.7,3.9-3.9,3.9-3.9-1.7-3.9-3.9"/>
  <path class="st3" d="M537.8,102.4c0-2.2,1.7-3.9,3.9-3.9s3.9,1.7,3.9,3.9-1.7,3.9-3.9,3.9-3.9-1.7-3.9-3.9"/>
  <path class="st3" d="M577.9,102.4c0-2.2,1.7-3.9,3.9-3.9s3.9,1.7,3.9,3.9-1.7,3.9-3.9,3.9-3.9-1.7-3.9-3.9"/>
  <path class="st3" d="M618,102.4c0-2.2,1.7-3.9,3.9-3.9s3.9,1.7,3.9,3.9-1.7,3.9-3.9,3.9-3.9-1.7-3.9-3.9"/>
  <path class="st3" d="M658.1,102.4c0-2.2,1.7-3.9,3.9-3.9s3.9,1.7,3.9,3.9-1.7,3.9-3.9,3.9-3.9-1.7-3.9-3.9"/>
  <path class="st3" d="M698.2,102.4c0-2.2,1.7-3.9,3.9-3.9s3.9,1.7,3.9,3.9-1.7,3.9-3.9,3.9-3.9-1.7-3.9-3.9"/>
  <path class="st3" d="M738.3,102.4c0-2.2,1.7-3.9,3.9-3.9s3.9,1.7,3.9,3.9-1.7,3.9-3.9,3.9-3.9-1.7-3.9-3.9"/>
  <path class="st3" d="M417.5,102.4c0-2.2,1.7-3.9,3.9-3.9s3.9,1.7,3.9,3.9-1.7,3.9-3.9,3.9-3.9-1.7-3.9-3.9"/>
  <path class="st3" d="M377.4,102.4c0-2.2,1.7-3.9,3.9-3.9s3.9,1.7,3.9,3.9-1.7,3.9-3.9,3.9-3.9-1.7-3.9-3.9"/>
  <path class="st3" d="M337.3,102.4c0-2.2,1.7-3.9,3.9-3.9s3.9,1.7,3.9,3.9-1.7,3.9-3.9,3.9-3.9-1.7-3.9-3.9"/>
  <path class="st3" d="M457.6,62.1c0-2.2,1.7-3.9,3.9-3.9s3.9,1.7,3.9,3.9-1.7,3.9-3.9,3.9-3.9-1.7-3.9-3.9"/>
  <path class="st3" d="M497.7,62.1c0-2.2,1.7-3.9,3.9-3.9s3.9,1.7,3.9,3.9-1.7,3.9-3.9,3.9-3.9-1.7-3.9-3.9"/>
  <path class="st3" d="M537.8,62.1c0-2.2,1.7-3.9,3.9-3.9s3.9,1.7,3.9,3.9-1.7,3.9-3.9,3.9-3.9-1.7-3.9-3.9"/>
  <path class="st3" d="M577.9,62.1c0-2.2,1.7-3.9,3.9-3.9s3.9,1.7,3.9,3.9-1.7,3.9-3.9,3.9-3.9-1.7-3.9-3.9"/>
  <path class="st3" d="M618,62.1c0-2.2,1.7-3.9,3.9-3.9s3.9,1.7,3.9,3.9-1.7,3.9-3.9,3.9-3.9-1.7-3.9-3.9"/>
  <path class="st3" d="M658.1,62.1c0-2.2,1.7-3.9,3.9-3.9s3.9,1.7,3.9,3.9-1.7,3.9-3.9,3.9-3.9-1.7-3.9-3.9"/>
  <path class="st3" d="M698.2,62.1c0-2.2,1.7-3.9,3.9-3.9s3.9,1.7,3.9,3.9-1.7,3.9-3.9,3.9-3.9-1.7-3.9-3.9"/>
  <path class="st3" d="M738.3,62.1c0-2.2,1.7-3.9,3.9-3.9s3.9,1.7,3.9,3.9-1.7,3.9-3.9,3.9-3.9-1.7-3.9-3.9"/>
  <path class="st3" d="M417.5,62.1c0-2.2,1.7-3.9,3.9-3.9s3.9,1.7,3.9,3.9-1.7,3.9-3.9,3.9-3.9-1.7-3.9-3.9"/>
  <path class="st3" d="M377.4,62.1c0-2.2,1.7-3.9,3.9-3.9s3.9,1.7,3.9,3.9-1.7,3.9-3.9,3.9-3.9-1.7-3.9-3.9"/>
  <path class="st3" d="M337.3,62.1c0-2.2,1.7-3.9,3.9-3.9s3.9,1.7,3.9,3.9-1.7,3.9-3.9,3.9-3.9-1.7-3.9-3.9"/>
  <path class="st3" d="M477.5,82.6c0-2.2,1.7-3.9,3.9-3.9s3.9,1.7,3.9,3.9-1.7,3.9-3.9,3.9-3.9-1.7-3.9-3.9"/>
  <path class="st3" d="M517.6,82.6c0-2.2,1.7-3.9,3.9-3.9s3.9,1.7,3.9,3.9-1.7,3.9-3.9,3.9-3.9-1.7-3.9-3.9"/>
  <path class="st3" d="M557.7,82.6c0-2.2,1.7-3.9,3.9-3.9s3.9,1.7,3.9,3.9-1.7,3.9-3.9,3.9-3.9-1.7-3.9-3.9"/>
  <path class="st3" d="M597.8,82.6c0-2.2,1.7-3.9,3.9-3.9s3.9,1.7,3.9,3.9-1.7,3.9-3.9,3.9-3.9-1.7-3.9-3.9"/>
  <path class="st3" d="M637.9,82.6c0-2.2,1.7-3.9,3.9-3.9s3.9,1.7,3.9,3.9-1.7,3.9-3.9,3.9-3.9-1.7-3.9-3.9"/>
  <path class="st3" d="M678,82.6c0-2.2,1.7-3.9,3.9-3.9s3.9,1.7,3.9,3.9-1.7,3.9-3.9,3.9-3.9-1.7-3.9-3.9"/>
  <path class="st3" d="M718.1,82.6c0-2.2,1.7-3.9,3.9-3.9s3.9,1.7,3.9,3.9-1.7,3.9-3.9,3.9-3.9-1.7-3.9-3.9"/>
  <path class="st3" d="M437.4,82.6c0-2.2,1.7-3.9,3.9-3.9s3.9,1.7,3.9,3.9-1.7,3.9-3.9,3.9-3.9-1.7-3.9-3.9"/>
  <path class="st3" d="M397.3,82.6c0-2.2,1.7-3.9,3.9-3.9s3.9,1.7,3.9,3.9-1.7,3.9-3.9,3.9-3.9-1.7-3.9-3.9"/>
  <path class="st3" d="M357.2,82.6c0-2.2,1.7-3.9,3.9-3.9s3.9,1.7,3.9,3.9-1.7,3.9-3.9,3.9-3.9-1.7-3.9-3.9"/>
  <path class="st3" d="M477.8,122.2c0-2.2,1.7-3.9,3.9-3.9s3.9,1.7,3.9,3.9-1.7,3.9-3.9,3.9-3.9-1.7-3.9-3.9"/>
  <path class="st3" d="M517.8,122.2c0-2.2,1.7-3.9,3.9-3.9s3.9,1.7,3.9,3.9-1.7,3.9-3.9,3.9-3.9-1.7-3.9-3.9"/>
  <path class="st3" d="M558,122.2c0-2.2,1.7-3.9,3.9-3.9s3.9,1.7,3.9,3.9-1.7,3.9-3.9,3.9-3.9-1.7-3.9-3.9"/>
  <path class="st3" d="M598,122.2c0-2.2,1.7-3.9,3.9-3.9s3.9,1.7,3.9,3.9-1.7,3.9-3.9,3.9-3.9-1.7-3.9-3.9"/>
  <path class="st3" d="M638.2,122.2c0-2.2,1.7-3.9,3.9-3.9s3.9,1.7,3.9,3.9-1.7,3.9-3.9,3.9-3.9-1.7-3.9-3.9"/>
  <path class="st3" d="M678.2,122.2c0-2.2,1.7-3.9,3.9-3.9s3.9,1.7,3.9,3.9-1.7,3.9-3.9,3.9-3.9-1.7-3.9-3.9"/>
  <path class="st3" d="M718.4,122.2c0-2.2,1.7-3.9,3.9-3.9s3.9,1.7,3.9,3.9-1.7,3.9-3.9,3.9-3.9-1.7-3.9-3.9"/>
  <path class="st3" d="M437.6,122.2c0-2.2,1.7-3.9,3.9-3.9s3.9,1.7,3.9,3.9-1.7,3.9-3.9,3.9-3.9-1.7-3.9-3.9"/>
  <path class="st3" d="M397.5,122.2c0-2.2,1.7-3.9,3.9-3.9s3.9,1.7,3.9,3.9-1.7,3.9-3.9,3.9-3.9-1.7-3.9-3.9"/>
  <path class="st3" d="M357.5,122.2c0-2.2,1.7-3.9,3.9-3.9s3.9,1.7,3.9,3.9-1.7,3.9-3.9,3.9-3.9-1.7-3.9-3.9"/>
  <path class="st3" d="M377.2,644.1c0-2.2,1.7-3.9,3.9-3.9s3.9,1.7,3.9,3.9-1.7,3.9-3.9,3.9-3.9-1.7-3.9-3.9"/>
  <path class="st3" d="M417.4,644.1c0-2.2,1.7-3.9,3.9-3.9s3.9,1.7,3.9,3.9-1.7,3.9-3.9,3.9-3.9-1.7-3.9-3.9"/>
  <path class="st3" d="M457.5,644.1c0-2.2,1.7-3.9,3.9-3.9s3.9,1.7,3.9,3.9-1.7,3.9-3.9,3.9-3.9-1.7-3.9-3.9"/>
  <path class="st3" d="M497.6,644.1c0-2.2,1.7-3.9,3.9-3.9s3.9,1.7,3.9,3.9-1.7,3.9-3.9,3.9-3.9-1.7-3.9-3.9"/>
  <path class="st3" d="M537.8,644.1c0-2.2,1.7-3.9,3.9-3.9s3.9,1.7,3.9,3.9-1.7,3.9-3.9,3.9-3.9-1.7-3.9-3.9"/>
  <path class="st3" d="M577.9,644.1c0-2.2,1.7-3.9,3.9-3.9s3.9,1.7,3.9,3.9-1.7,3.9-3.9,3.9-3.9-1.7-3.9-3.9"/>
  <path class="st3" d="M618,644.1c0-2.2,1.7-3.9,3.9-3.9s3.9,1.7,3.9,3.9-1.7,3.9-3.9,3.9-3.9-1.7-3.9-3.9"/>
  <path class="st3" d="M658.2,644.1c0-2.2,1.7-3.9,3.9-3.9s3.9,1.7,3.9,3.9-1.7,3.9-3.9,3.9-3.9-1.7-3.9-3.9"/>
  <path class="st3" d="M698.3,644.1c0-2.2,1.7-3.9,3.9-3.9s3.9,1.7,3.9,3.9-1.7,3.9-3.9,3.9-3.9-1.7-3.9-3.9"/>
  <path class="st3" d="M738.2,643.9c0-2.2,1.7-3.9,3.9-3.9s3.9,1.7,3.9,3.9-1.7,3.9-3.9,3.9-3.9-1.7-3.9-3.9"/>
  <rect class="st0" x="348.7" y="597.3" width="384.7" height="12.5"/>
  <g class="st2">
    <text class="st1" transform="translate(468 165.3)"><tspan x="0" y="0">Li</tspan></text>
    <text class="st1" transform="translate(476.8 165.3)"><tspan x="0" y="0">k</tspan></text>
    <text class="st1" transform="translate(482.6 165.3)"><tspan x="0" y="0">e</tspan></text>
    <text class="st1" transform="translate(488.4 165.3)"><tspan x="0" y="0"> </tspan></text>
    <text class="st1" transform="translate(491.3 165.3)"><tspan x="0" y="0">t</tspan></text>
    <text class="st1" transform="translate(495.7 165.3)"><tspan x="0" y="0">he spide</tspan></text>
    <text class="st1" transform="translate(537.2 165.3)"><tspan x="0" y="0">r</tspan></text>
    <text class="st1" transform="translate(541.3 165.3)"><tspan x="0" y="0"> </tspan></text>
    <text class="st1" transform="translate(544.1 165.3)"><tspan x="0" y="0">w</tspan></text>
    <text class="st1" transform="translate(552.8 165.3)"><tspan x="0" y="0">e</tspan></text>
    <text class="st1" transform="translate(558.5 165.3)"><tspan x="0" y="0">a</tspan></text>
    <text class="st1" transform="translate(564.1 165.3)"><tspan x="0" y="0">v</tspan></text>
    <text class="st1" transform="translate(569.5 165.3)"><tspan x="0" y="0">es </tspan></text>
    <text class="st1" transform="translate(583.7 165.3)"><tspan x="0" y="0">a</tspan></text>
    <text class="st1" transform="translate(589.3 165.3)"><tspan x="0" y="0"> </tspan></text>
    <text class="st1" transform="translate(592.1 165.3)"><tspan x="0" y="0">W</tspan></text>
    <text class="st1" transform="translate(601.5 165.3)"><tspan x="0" y="0">eb</tspan></text>
  </g>
  <g class="st2">
    <text class="st1" transform="translate(482.8 406)"><tspan x="0" y="0">It is medi</tspan></text>
    <text class="st1" transform="translate(528.8 406)"><tspan x="0" y="0">t</tspan></text>
    <text class="st1" transform="translate(533.1 406)"><tspan x="0" y="0">a</tspan></text>
    <text class="st1" transform="translate(538.6 406)"><tspan x="0" y="0">ti</tspan></text>
    <text class="st1" transform="translate(545.8 406)"><tspan x="0" y="0">v</tspan></text>
    <text class="st1" transform="translate(551.2 406)"><tspan x="0" y="0">e</tspan></text>
    <text class="st1" transform="translate(557 406)"><tspan x="0" y="0"> </tspan></text>
    <text class="st1" transform="translate(559.9 406)"><tspan x="0" y="0">to build</tspan></text>
  </g>
  <g class="st2">
    <text class="st1" transform="translate(453.7 245.6)"><tspan x="0" y="0">T</tspan></text>
    <text class="st1" transform="translate(459.9 245.6)"><tspan x="0" y="0">he</tspan></text>
    <text class="st1" transform="translate(471.9 245.6)"><tspan x="0" y="0">r</tspan></text>
    <text class="st1" transform="translate(476 245.6)"><tspan x="0" y="0">e a</tspan></text>
    <text class="st1" transform="translate(490.6 245.6)"><tspan x="0" y="0">r</tspan></text>
    <text class="st1" transform="translate(494.8 245.6)"><tspan x="0" y="0">e connections</tspan></text>
    <text class="st1" transform="translate(563.7 245.6)"><tspan x="0" y="0"> </tspan></text>
    <text class="st1" transform="translate(566.5 245.6)"><tspan x="0" y="0">wi</tspan></text>
    <text class="st1" transform="translate(578.1 245.6)"><tspan x="0" y="0">t</tspan></text>
    <text class="st1" transform="translate(582.5 245.6)"><tspan x="0" y="0">hin </tspan></text>
    <text class="st1" transform="translate(600.7 245.6)"><tspan x="0" y="0">a</tspan></text>
    <text class="st1" transform="translate(606.3 245.6)"><tspan x="0" y="0"> </tspan></text>
    <text class="st1" transform="translate(609.2 245.6)"><tspan x="0" y="0">w</tspan></text>
    <text class="st1" transform="translate(617.8 245.6)"><tspan x="0" y="0">eb</tspan></text>
  </g>
  <g class="st2">
    <text class="st1" transform="translate(445.6 284.6)"><tspan x="0" y="0">T</tspan></text>
    <text class="st1" transform="translate(451.8 284.6)"><tspan x="0" y="0">he connections eme</tspan></text>
    <text class="st1" transform="translate(551 284.6)"><tspan x="0" y="0">r</tspan></text>
    <text class="st1" transform="translate(555.1 284.6)"><tspan x="0" y="0">ge i</tspan></text>
    <text class="st1" transform="translate(572.2 284.6)"><tspan x="0" y="0">n</tspan></text>
    <text class="st1" transform="translate(578.4 284.6)"><tspan x="0" y="0">to </tspan></text>
    <text class="st1" transform="translate(591.7 284.6)"><tspan x="0" y="0">a</tspan></text>
    <text class="st1" transform="translate(597.3 284.6)"><tspan x="0" y="0"> </tspan></text>
    <text class="st1" transform="translate(600.4 284.6)"><tspan x="0" y="0">p</tspan></text>
    <text class="st1" transform="translate(606.6 284.6)"><tspan x="0" y="0">a</tspan></text>
    <text class="st1" transform="translate(612.2 284.6)"><tspan x="0" y="0">t</tspan></text>
    <text class="st1" transform="translate(616 284.6)"><tspan x="0" y="0">tern</tspan></text>
  </g>
  <g class="st2">
    <text class="st1" transform="translate(425.6 185.4)"><tspan x="0" y="0">H</tspan></text>
    <text class="st1" transform="translate(432.9 185.4)"><tspan x="0" y="0">o</tspan></text>
    <text class="st1" transform="translate(438.8 185.4)"><tspan x="0" y="0">w</tspan></text>
    <text class="st1" transform="translate(447.3 185.4)"><tspan x="0" y="0" xml:space="preserve"> c</tspan></text>
    <text class="st1" transform="translate(456 185.4)"><tspan x="0" y="0">r</tspan></text>
    <text class="st1" transform="translate(460.2 185.4)"><tspan x="0" y="0">e</tspan></text>
    <text class="st1" transform="translate(466 185.4)"><tspan x="0" y="0">a</tspan></text>
    <text class="st1" transform="translate(471.5 185.4)"><tspan x="0" y="0">ti</tspan></text>
    <text class="st1" transform="translate(478.6 185.4)"><tspan x="0" y="0">v</tspan></text>
    <text class="st1" transform="translate(484 185.4)"><tspan x="0" y="0">e is</tspan></text>
    <text class="st1" transform="translate(501 185.4)"><tspan x="0" y="0"> </tspan></text>
    <text class="st1" transform="translate(504 185.4)"><tspan x="0" y="0">t</tspan></text>
    <text class="st1" transform="translate(508.3 185.4)"><tspan x="0" y="0">he spide</tspan></text>
    <text class="st1" transform="translate(549.8 185.4)"><tspan x="0" y="0">r</tspan></text>
    <text class="st1" transform="translate(553.9 185.4)"><tspan x="0" y="0"> </tspan></text>
    <text class="st1" transform="translate(556.8 185.4)"><tspan x="0" y="0">t</tspan></text>
    <text class="st1" transform="translate(561.2 185.4)"><tspan x="0" y="0">h</tspan></text>
    <text class="st1" transform="translate(567.4 185.4)"><tspan x="0" y="0">a</tspan></text>
    <text class="st1" transform="translate(572.9 185.4)"><tspan x="0" y="0">t</tspan></text>
    <text class="st1" transform="translate(577.2 185.4)"><tspan x="0" y="0"> </tspan></text>
    <text class="st1" transform="translate(580.1 185.4)"><tspan x="0" y="0">w</tspan></text>
    <text class="st1" transform="translate(588.7 185.4)"><tspan x="0" y="0">e</tspan></text>
    <text class="st1" transform="translate(594.5 185.4)"><tspan x="0" y="0">a</tspan></text>
    <text class="st1" transform="translate(600 185.4)"><tspan x="0" y="0">v</tspan></text>
    <text class="st1" transform="translate(605.5 185.4)"><tspan x="0" y="0">es</tspan></text>
    <text class="st1" transform="translate(616.6 185.4)"><tspan x="0" y="0"> </tspan></text>
    <text class="st1" transform="translate(619.5 185.4)"><tspan x="0" y="0">t</tspan></text>
    <text class="st1" transform="translate(623.9 185.4)"><tspan x="0" y="0">he</tspan></text>
    <text class="st1" transform="translate(635.9 185.4)"><tspan x="0" y="0"> </tspan></text>
    <text class="st1" transform="translate(638.7 185.4)"><tspan x="0" y="0">w</tspan></text>
    <text class="st1" transform="translate(647.3 185.4)"><tspan x="0" y="0">eb</tspan></text>
  </g>
  <g class="st2">
    <text class="st1" transform="translate(415.6 426.4)"><tspan x="0" y="0">It is</tspan></text>
    <text class="st1" transform="translate(434.2 426.4)"><tspan x="0" y="0"> </tspan></text>
    <text class="st1" transform="translate(437.1 426.4)"><tspan x="0" y="0">t</tspan></text>
    <text class="st1" transform="translate(441.4 426.4)"><tspan x="0" y="0">r</tspan></text>
    <text class="st1" transform="translate(445.6 426.4)"><tspan x="0" y="0">ansluce</tspan></text>
    <text class="st1" transform="translate(483.6 426.4)"><tspan x="0" y="0">n</tspan></text>
    <text class="st1" transform="translate(489.8 426.4)"><tspan x="0" y="0">t and</tspan></text>
    <text class="st1" transform="translate(515.3 426.4)"><tspan x="0" y="0"> </tspan></text>
    <text class="st1" transform="translate(518.3 426.4)"><tspan x="0" y="0">f</tspan></text>
    <text class="st1" transform="translate(522.3 426.4)"><tspan x="0" y="0">r</tspan></text>
    <text class="st1" transform="translate(526.5 426.4)"><tspan x="0" y="0">a</tspan></text>
    <text class="st1" transform="translate(532.2 426.4)"><tspan x="0" y="0">gile,</tspan></text>
    <text class="st1" transform="translate(552.3 426.4)"><tspan x="0" y="0"> </tspan></text>
    <text class="st1" transform="translate(555.2 426.4)"><tspan x="0" y="0">y</tspan></text>
    <text class="st1" transform="translate(560.7 426.4)"><tspan x="0" y="0">e</tspan></text>
    <text class="st1" transform="translate(566.4 426.4)"><tspan x="0" y="0">t it can c</tspan></text>
    <text class="st1" transform="translate(610.2 426.4)"><tspan x="0" y="0">r</tspan></text>
    <text class="st1" transform="translate(614.3 426.4)"><tspan x="0" y="0">e</tspan></text>
    <text class="st1" transform="translate(620.1 426.4)"><tspan x="0" y="0">a</tspan></text>
    <text class="st1" transform="translate(625.6 426.4)"><tspan x="0" y="0">te </tspan></text>
    <text class="st1" transform="translate(638.8 426.4)"><tspan x="0" y="0">l</tspan></text>
    <text class="st1" transform="translate(642 426.4)"><tspan x="0" y="0">a</tspan></text>
    <text class="st1" transform="translate(647.5 426.4)"><tspan x="0" y="0">y</tspan></text>
    <text class="st1" transform="translate(652.9 426.4)"><tspan x="0" y="0">e</tspan></text>
    <text class="st1" transform="translate(658.7 426.4)"><tspan x="0" y="0">r</tspan></text>
    <text class="st1" transform="translate(662.8 426.4)"><tspan x="0" y="0">s</tspan></text>
  </g>
  <g class="st2">
    <text class="st1" transform="translate(415.6 466.4)"><tspan x="0" y="0">It</tspan></text>
    <text class="st1" transform="translate(423 466.4)"><tspan x="0" y="0"> </tspan></text>
    <text class="st1" transform="translate(425.9 466.4)"><tspan x="0" y="0">tells </tspan></text>
    <text class="st1" transform="translate(450.8 466.4)"><tspan x="0" y="0">a</tspan></text>
    <text class="st1" transform="translate(456.4 466.4)"><tspan x="0" y="0" xml:space="preserve"> stor</tspan></text>
    <text class="st1" transform="translate(479.3 466.4)"><tspan x="0" y="0">y</tspan></text>
    <text class="st1" transform="translate(484 466.4)"><tspan x="0" y="0">, i</tspan></text>
    <text class="st1" transform="translate(492.7 466.4)"><tspan x="0" y="0">f</tspan></text>
    <text class="st1" transform="translate(496.5 466.4)"><tspan x="0" y="0"> </tspan></text>
    <text class="st1" transform="translate(499.6 466.4)"><tspan x="0" y="0">a</tspan></text>
    <text class="st1" transform="translate(505.2 466.4)"><tspan x="0" y="0" xml:space="preserve"> p</tspan></text>
    <text class="st1" transform="translate(514.5 466.4)"><tspan x="0" y="0">l</tspan></text>
    <text class="st1" transform="translate(517.8 466.4)"><tspan x="0" y="0">a</tspan></text>
    <text class="st1" transform="translate(523.5 466.4)"><tspan x="0" y="0">ce has been inhabited o</tspan></text>
    <text class="st1" transform="translate(640.8 466.4)"><tspan x="0" y="0">r</tspan></text>
    <text class="st1" transform="translate(644.9 466.4)"><tspan x="0" y="0" xml:space="preserve"> n</tspan></text>
    <text class="st1" transform="translate(654.1 466.4)"><tspan x="0" y="0">o</tspan></text>
    <text class="st1" transform="translate(660.1 466.4)"><tspan x="0" y="0">t</tspan></text>
  </g>
  <path class="st3" d="M435.4,265.6v-6.6h5v1.1h-3.6v1.6h2.8v1.1h-2.8v1.7h3.7v1.1h-5.1ZM444.4,262.4c0-.3,0-.5-.2-.7-.2-.2-.4-.2-.6-.2s-.5,0-.6.2-.3.3-.4.6l-1.2-.4c.1-.4.4-.8.8-1.1.4-.3.9-.4,1.5-.4s.8,0,1.1.2c.3.1.6.3.8.6.2.3.3.6.3,1v2c0,.2.1.4.4.4s.2,0,.3,0v.9c-.2,0-.5.1-.7.1s-.4,0-.6-.1-.3-.2-.4-.4c-.1-.2-.2-.4-.2-.6h0s.2,0,.2,0c0,.2-.1.5-.3.6-.2.2-.4.3-.6.4-.3,0-.5.1-.8.1s-.6,0-.9-.1-.4-.3-.6-.5c-.1-.2-.2-.5-.2-.7s.1-.7.4-.9c.2-.2.6-.4,1-.5l1.9-.4v.9l-1.2.2c-.2,0-.4.1-.5.2-.1,0-.2.2-.2.4s0,.3.2.4.3.1.4.1.3,0,.4,0,.2,0,.4-.2.2-.2.2-.3c0-.1,0-.3,0-.5v-1.4h0ZM449.6,260.5c.5,0,.8,0,1.1.2s.6.3.8.5.3.5.4.7l-1.3.5c0-.3-.2-.5-.3-.7s-.4-.2-.6-.2-.5,0-.6.2c-.2.1-.3.3-.4.5s-.1.5-.1.9,0,.6.1.9.2.4.4.5c.2.1.4.2.6.2s.4,0,.5-.1.3-.2.4-.3c0-.1.1-.3.2-.5l1.2.4c0,.3-.2.6-.4.8s-.5.4-.8.5-.7.2-1.1.2-1-.1-1.4-.3c-.4-.2-.7-.5-.9-.9s-.3-.9-.3-1.4.1-1,.3-1.4c.2-.4.5-.7.9-.9.4-.2.8-.3,1.3-.3h0ZM453,265.6v-7.2h1.4v3c.2-.3.4-.6.7-.7.3-.2.6-.2,1-.2s.6,0,.9.2c.3.1.5.3.6.6.2.3.2.6.2,1v3.3h-1.4v-2.9c0-.4,0-.7-.2-.9s-.4-.2-.6-.2-.4,0-.6.1-.3.2-.4.4-.2.5-.2.8v2.6h-1.4ZM464.2,265.7c-.5,0-1,0-1.4-.3-.4-.2-.8-.4-1-.8l.8-.8c.2.2.4.4.6.6.3.1.6.2,1,.2s.5,0,.6-.1c.2,0,.2-.2.2-.4s0-.2-.1-.3c0,0-.2-.1-.4-.2l-.9-.2c-.6-.1-1-.3-1.2-.5s-.4-.6-.4-.9,0-.5.2-.8.4-.4.7-.6.7-.2,1.2-.2.9,0,1.3.2c.4.2.7.4.9.7l-.8.8c-.1-.2-.3-.4-.6-.5-.2-.1-.5-.2-.7-.2s-.4,0-.5,0-.2.1-.3.2c0,0-.1.2-.1.3s0,.2.1.3c0,0,.3.1.5.2l1,.2c.5.1.9.3,1.1.5.2.2.3.5.3.9s0,.6-.3.9-.4.5-.8.6-.7.2-1.2.2h0ZM470.9,260.6v1h-3.9v-1h3.9ZM469.3,259.1v4.9c0,.2,0,.4.2.5.1.1.3.2.5.2s.3,0,.5,0c.1,0,.2-.1.3-.2l.2.9c-.2.1-.4.2-.6.3-.2,0-.5.1-.8.1s-.6,0-.9-.1-.5-.3-.6-.5-.2-.5-.2-.9v-4.7l1.4-.4h0ZM471.8,265.6v-5h1.2v1c.2-.4.4-.6.7-.8s.6-.3,1-.3.2,0,.3,0,.2,0,.2,0l-.2,1.1c0,0-.1,0-.2,0-.1,0-.2,0-.4,0s-.4,0-.6.1c-.2.1-.3.2-.5.4s-.2.4-.2.7v2.6h-1.4ZM478.8,262.4c0-.3,0-.5-.2-.7-.2-.2-.4-.2-.6-.2s-.5,0-.6.2-.3.3-.4.6l-1.2-.4c.1-.4.4-.8.8-1.1.4-.3.9-.4,1.5-.4s.8,0,1.1.2c.3.1.6.3.8.6.2.3.3.6.3,1v2c0,.2.1.4.4.4s.2,0,.3,0v.9c-.2,0-.5.1-.7.1s-.4,0-.6-.1-.3-.2-.4-.4c-.1-.2-.2-.4-.2-.6h0s.2,0,.2,0c0,.2-.1.5-.3.6-.2.2-.4.3-.6.4-.3,0-.5.1-.8.1s-.6,0-.9-.1-.4-.3-.6-.5c-.1-.2-.2-.5-.2-.7s.1-.7.4-.9c.2-.2.6-.4,1-.5l1.9-.4v.9l-1.2.2c-.2,0-.4.1-.5.2-.1,0-.2.2-.2.4s0,.3.2.4.3.1.5.1.3,0,.4,0,.2,0,.4-.2.2-.2.2-.3c0-.1,0-.3,0-.5v-1.4h0ZM481.7,265.6v-5h1.2v1.5c0,0,0-.2,0-.2,0-.3.2-.6.4-.8.2-.2.4-.4.6-.5.2-.1.5-.2.8-.2s.6,0,.9.2c.3.1.5.3.6.6.2.3.2.6.2,1v3.3h-1.4v-2.9c0-.4,0-.7-.2-.9s-.4-.2-.6-.2-.4,0-.5.1c-.2,0-.3.2-.4.4-.1.2-.2.5-.2.8v2.6h-1.4ZM489.8,265.7c-.4,0-.8-.1-1.1-.3s-.6-.5-.8-.9c-.2-.4-.3-.9-.3-1.4s.1-1,.3-1.4.5-.7.8-.9c.3-.2.7-.3,1.1-.3s.8.1,1.1.4.5.6.6,1v.2c-.1,0-.1-3.6-.1-3.6h1.4v7.2h-1.2v-1.5c0,0,0,0,0,0,0,.3-.1.6-.3.8-.2.2-.4.4-.6.5s-.5.2-.8.2h0ZM490.2,264.7c.2,0,.5,0,.6-.2.2-.1.3-.3.4-.5.1-.2.1-.5.1-.9s0-.6-.1-.8c0-.2-.2-.4-.4-.5-.2-.1-.4-.2-.6-.2-.4,0-.7.1-.9.4-.2.3-.3.6-.3,1.1s.1.9.3,1.1c.2.3.5.4.9.4h0ZM499.5,260.5c.5,0,1,.1,1.3.3.4.2.7.5.9.9s.3.9.3,1.4-.1,1-.3,1.4c-.2.4-.5.7-.9.9s-.8.3-1.3.3-.9-.1-1.3-.3c-.4-.2-.7-.5-.9-.9-.2-.4-.3-.9-.3-1.4s.1-1,.3-1.4c.2-.4.5-.7.9-.9.4-.2.8-.3,1.3-.3ZM499.5,261.5c-.2,0-.5,0-.6.2-.2.1-.3.3-.4.5,0,.2-.1.5-.1.9s0,.6.1.9c0,.2.2.4.4.5.2.1.4.2.6.2s.5,0,.6-.2c.2-.1.3-.3.4-.5,0-.2.1-.5.1-.9s0-.6-.1-.9c0-.2-.2-.4-.4-.5-.2-.1-.4-.2-.6-.2ZM506.4,260.6v1h-3.8v-1h3.8ZM505.4,258.3c.2,0,.5,0,.6,0,.2,0,.3.1.4.2l-.2.9c0,0-.2,0-.2-.1s-.2,0-.3,0c-.3,0-.5,0-.6.2-.1.1-.2.3-.2.6v1c0,0,0,4.5,0,4.5h-1.4v-5.6c0-.3,0-.5.1-.7,0-.2.2-.4.4-.5.2-.1.4-.2.6-.3s.5-.1.7-.1h0ZM512.9,262.4c0-.3,0-.5-.2-.7-.2-.2-.4-.2-.6-.2s-.5,0-.6.2-.3.3-.4.6l-1.2-.4c.1-.4.4-.8.8-1.1.4-.3.9-.4,1.5-.4s.8,0,1.2.2c.3.1.6.3.8.6s.3.6.3,1v2c0,.2.1.4.4.4s.2,0,.3,0v.9c-.2,0-.5.1-.7.1s-.4,0-.6-.1-.3-.2-.4-.4c-.1-.2-.2-.4-.2-.6h0s.2,0,.2,0c0,.2-.2.5-.3.6-.2.2-.4.3-.7.4-.3,0-.5.1-.8.1s-.6,0-.9-.1-.4-.3-.6-.5c-.1-.2-.2-.5-.2-.7s.1-.7.4-.9c.2-.2.6-.4,1-.5l1.9-.4v.9l-1.2.2c-.2,0-.4.1-.5.2-.1,0-.2.2-.2.4s0,.3.2.4.3.1.5.1.3,0,.4,0,.2,0,.4-.2.2-.2.2-.3c0-.1,0-.3,0-.5v-1.4h0ZM524.9,260.6h1.5l-1.6,5h-1.6l-1.1-3.4-1,3.4h-1.6l-1.6-5h1.5l1,3.8,1.1-3.8h1.4l1.1,3.8,1-3.8ZM529.4,265.7c-.5,0-1-.1-1.4-.3s-.7-.5-.9-.9-.3-.9-.3-1.4.1-1,.3-1.4c.2-.4.5-.7.9-.9.4-.2.8-.3,1.3-.3s.9.1,1.3.3c.3.2.6.5.8.8.2.4.3.8.3,1.2s0,.3,0,.4c0,.1,0,.2,0,.3h-4v-1h3.4l-.7.2c0-.4,0-.7-.3-1s-.5-.3-.8-.3-.5,0-.7.2c-.2.1-.3.3-.4.5,0,.2-.1.5-.1.9s0,.6.2.9c0,.2.2.4.4.5.2.1.4.2.7.2s.5,0,.7-.2c.2-.1.3-.3.4-.5l1.1.4c-.1.3-.3.5-.5.7s-.5.3-.8.4c-.3.1-.6.1-1,.1h0ZM535.8,265.7c-.3,0-.6,0-.8-.2s-.5-.3-.6-.5-.3-.5-.3-.8v-.2c.1,0,0,1.6,0,1.6h-1.2v-7.2h1.4v3.6-.2c0-.4.2-.7.5-.9s.7-.4,1.1-.4.8.1,1.1.3c.3.2.6.5.8.9s.3.9.3,1.4,0,1-.3,1.4c-.2.4-.4.7-.8.9-.3.2-.7.3-1.1.3h0ZM535.4,264.7c.4,0,.7-.1.9-.4.2-.3.3-.6.3-1.1s0-.9-.3-1.1c-.2-.3-.5-.4-.9-.4s-.5,0-.6.2-.3.3-.4.5c0,.2-.2.5-.2.8s0,.6.2.8c0,.2.2.4.4.5s.4.2.6.2h0ZM542.9,259.9c-.3,0-.5,0-.6-.2s-.2-.3-.2-.5,0-.4.2-.5.3-.2.6-.2.5,0,.6.2.2.3.2.5,0,.4-.2.5c-.1.1-.3.2-.6.2ZM543.6,260.6v5h-1.4v-5h1.4ZM547,265.7c-.5,0-1,0-1.4-.3-.4-.2-.8-.4-1-.8l.8-.8c.2.2.4.4.6.6s.6.2,1,.2.5,0,.6-.1c.2,0,.2-.2.2-.4s0-.2-.1-.3c0,0-.2-.1-.4-.2l-.9-.2c-.6-.1-1-.3-1.2-.5s-.4-.6-.4-.9,0-.5.2-.8.4-.4.7-.6.7-.2,1.2-.2.9,0,1.3.2c.4.2.7.4.9.7l-.8.8c-.2-.2-.3-.4-.6-.5-.2-.1-.5-.2-.7-.2s-.3,0-.5,0-.2.1-.3.2,0,.2,0,.3,0,.2.1.3c0,0,.3.1.5.2l1,.2c.5.1.8.3,1.1.5.2.2.3.5.3.9s0,.6-.3.9-.4.5-.8.6-.7.2-1.2.2h0ZM556.2,262.4c0-.3,0-.5-.2-.7-.2-.2-.4-.2-.7-.2s-.5,0-.7.2-.3.3-.4.6l-1.2-.4c.1-.4.4-.8.8-1.1.4-.3.9-.4,1.5-.4s.8,0,1.2.2c.3.1.6.3.8.6s.3.6.3,1v2c0,.2.1.4.4.4s.2,0,.3,0v.9c-.2,0-.5.1-.7.1s-.4,0-.6-.1-.3-.2-.4-.4c-.1-.2-.2-.4-.2-.6h0s.2,0,.2,0c0,.2-.2.5-.3.6-.2.2-.4.3-.7.4-.3,0-.5.1-.8.1s-.6,0-.9-.1-.4-.3-.6-.5c-.1-.2-.2-.5-.2-.7s.1-.7.4-.9c.2-.2.6-.4,1-.5l1.9-.4v.9l-1.2.2c-.2,0-.4.1-.5.2-.1,0-.2.2-.2.4s0,.3.2.4.3.1.5.1.3,0,.4,0c.1,0,.2,0,.4-.2s.2-.2.2-.3c0-.1,0-.3,0-.5v-1.4h0ZM559.1,265.6v-5h1.2v1.5c0,0,0-.2,0-.2,0-.3.2-.6.4-.8.2-.2.4-.4.6-.5.2-.1.5-.2.8-.2s.7,0,.9.2c.3.1.5.3.6.6.2.3.2.6.2,1v3.3h-1.4v-2.9c0-.4,0-.7-.2-.9s-.4-.2-.7-.2-.4,0-.5.1c-.2,0-.3.2-.4.4-.1.2-.2.5-.2.8v2.6h-1.4ZM570.7,265.7c-.5,0-1-.1-1.4-.3s-.7-.5-.9-.9-.3-.9-.3-1.4.1-1,.3-1.4c.2-.4.5-.7.9-.9.4-.2.8-.3,1.3-.3s.9.1,1.3.3c.3.2.6.5.8.8.2.4.3.8.3,1.2s0,.3,0,.4c0,.1,0,.2,0,.3h-4v-1h3.4l-.7.2c0-.4,0-.7-.3-1s-.5-.3-.8-.3-.5,0-.7.2c-.2.1-.3.3-.4.5,0,.2-.1.5-.1.9s0,.6.2.9c0,.2.2.4.4.5.2.1.4.2.7.2s.5,0,.7-.2c.2-.1.3-.3.4-.5l1.1.4c-.1.3-.3.5-.5.7s-.5.3-.8.4c-.3.1-.6.1-1,.1h0ZM577.4,260.6v1h-3.8v-1h3.8ZM576.4,258.3c.2,0,.4,0,.6,0,.2,0,.3.1.4.2l-.2.9c0,0-.2,0-.2-.1s-.2,0-.3,0c-.3,0-.5,0-.6.2-.2.1-.2.3-.2.6v1c0,0,0,4.5,0,4.5h-1.4v-5.6c0-.3,0-.5.1-.7s.2-.4.4-.5c.2-.1.4-.2.6-.3s.5-.1.8-.1h0ZM581.4,260.6v1h-3.8v-1h3.8ZM580.4,258.3c.2,0,.5,0,.6,0,.2,0,.3.1.4.2l-.2.9c0,0-.2,0-.2-.1s-.2,0-.3,0c-.3,0-.5,0-.6.2-.2.1-.2.3-.2.6v1c0,0,0,4.5,0,4.5h-1.4v-5.6c0-.3,0-.5.1-.7s.2-.4.4-.5c.2-.1.4-.2.6-.3.2,0,.5-.1.7-.1h0ZM584.4,260.5c.5,0,1,.1,1.3.3s.7.5.9.9c.2.4.3.9.3,1.4s-.1,1-.3,1.4c-.2.4-.5.7-.9.9s-.8.3-1.3.3-.9-.1-1.3-.3-.7-.5-.9-.9c-.2-.4-.3-.9-.3-1.4s.1-1,.3-1.4c.2-.4.5-.7.9-.9.4-.2.8-.3,1.3-.3ZM584.4,261.5c-.2,0-.5,0-.6.2-.2.1-.3.3-.4.5,0,.2-.1.5-.1.9s0,.6.1.9.2.4.4.5c.2.1.4.2.6.2s.5,0,.6-.2c.2-.1.3-.3.4-.5,0-.2.1-.5.1-.9s0-.6-.1-.9-.2-.4-.4-.5c-.2-.1-.4-.2-.6-.2ZM588.1,265.6v-5h1.2v1c.2-.4.4-.6.7-.8.3-.2.6-.3,1-.3s.2,0,.3,0,.2,0,.2,0l-.2,1.1c0,0-.2,0-.2,0,0,0-.2,0-.4,0s-.4,0-.6.1-.3.2-.5.4-.2.4-.2.7v2.6h-1.4,0ZM595.5,260.6v1h-3.9v-1h3.9ZM593.9,259.1v4.9c0,.2,0,.4.2.5.1.1.3.2.5.2s.3,0,.5,0c.1,0,.2-.1.3-.2l.2.9c-.2.1-.4.2-.6.3-.2,0-.5.1-.8.1s-.6,0-.9-.1-.5-.3-.6-.5c-.1-.2-.2-.5-.2-.9v-4.7l1.4-.4h0ZM600.2,259.9c-.3,0-.5,0-.6-.2s-.2-.3-.2-.5,0-.4.2-.5.3-.2.6-.2.5,0,.6.2.2.3.2.5,0,.4-.2.5c-.1.1-.3.2-.6.2ZM600.9,260.6v5h-1.4v-5h1.4ZM602.3,265.6v-5h1.2v1.5c0,0,0-.2,0-.2,0-.3.2-.6.4-.8.2-.2.4-.4.6-.5.2-.1.5-.2.8-.2s.7,0,.9.2c.3.1.5.3.6.6.2.3.2.6.2,1v3.3h-1.4v-2.9c0-.4,0-.7-.2-.9s-.4-.2-.7-.2-.4,0-.5.1-.3.2-.4.4c-.1.2-.2.5-.2.8v2.6h-1.4,0ZM611.6,265.6v-5h1.2v.9c.2-.3.4-.6.7-.8s.6-.2,1-.2.7,0,1,.2c.3.2.5.4.7.7.1-.2.2-.4.4-.5s.4-.3.6-.3c.2,0,.4-.1.7-.1.3,0,.6,0,.9.2s.5.3.6.6c.2.3.2.6.2,1v3.3h-1.4v-3c0-.4,0-.6-.2-.8s-.4-.2-.6-.2-.4,0-.5.1c-.2.1-.3.2-.4.5,0,.2-.2.4-.2.7v2.7h-1.4v-3c0-.4,0-.6-.2-.8s-.4-.2-.6-.2-.3,0-.5.1c-.2,0-.3.2-.4.4s-.2.5-.2.8v2.6h-1.4,0ZM623.9,262.4c0-.3,0-.5-.2-.7s-.4-.2-.7-.2-.5,0-.7.2-.3.3-.4.6l-1.2-.4c.1-.4.4-.8.7-1.1s.9-.4,1.5-.4.8,0,1.2.2c.3.1.6.3.8.6s.3.6.3,1v2c0,.2.1.4.4.4s.2,0,.3,0v.9c-.2,0-.5.1-.7.1s-.4,0-.6-.1-.3-.2-.4-.4c-.1-.2-.2-.4-.2-.6h0s.2,0,.2,0c0,.2-.2.5-.3.6-.2.2-.4.3-.7.4-.3,0-.5.1-.8.1s-.6,0-.9-.1-.4-.3-.6-.5c-.1-.2-.2-.5-.2-.7s.1-.7.4-.9c.2-.2.6-.4,1-.5l1.9-.4v.9l-1.2.2c-.2,0-.4.1-.5.2-.1,0-.2.2-.2.4s0,.3.2.4c.1,0,.3.1.4.1s.3,0,.4,0c.1,0,.2,0,.4-.2s.2-.2.2-.3c0-.1,0-.3,0-.5v-1.4h0ZM628.1,258.4v7.2h-1.4v-7.2h1.4ZM631.8,260.6l-2.3,2.4h-.3c0,.1-1.5,1.7-1.5,1.7v-1.5s2.5-2.7,2.5-2.7h1.6ZM629.7,262.2l2.2,3.4h-1.5l-1.6-2.6.9-.8h0ZM633.5,259.9c-.3,0-.5,0-.6-.2s-.2-.3-.2-.5,0-.4.2-.5.3-.2.6-.2.5,0,.6.2.2.3.2.5,0,.4-.2.5c-.1.1-.3.2-.6.2ZM634.1,260.6v5h-1.4v-5h1.4ZM635.6,265.6v-5h1.2v1.5c0,0,0-.2,0-.2,0-.3.2-.6.4-.8.2-.2.4-.4.6-.5.2-.1.5-.2.8-.2s.7,0,.9.2c.3.1.5.3.6.6.2.3.2.6.2,1v3.3h-1.4v-2.9c0-.4,0-.7-.2-.9s-.4-.2-.7-.2-.4,0-.5.1-.3.2-.4.4c-.1.2-.2.5-.2.8v2.6h-1.4,0ZM644.8,264.7c.5,0,1,.1,1.2.4s.4.6.4,1-.1.7-.3,1c-.2.3-.5.5-.9.6-.4.1-.9.2-1.4.2-.9,0-1.5-.1-1.9-.4s-.6-.5-.6-.9.1-.5.3-.7.6-.3,1-.3v.2c-.4,0-.7-.2-.8-.4s-.3-.4-.3-.7.1-.6.3-.8c.2-.2.6-.3,1-.4l.6.3h-.1c-.3,0-.5,0-.6.2-.1.1-.2.2-.2.3s0,.2.2.3.3.1.5.1h1.5ZM643.8,260.5c.5,0,.9,0,1.2.2.3.1.6.3.8.6s.3.6.3.9,0,.6-.3.9-.5.5-.8.6c-.3.1-.8.2-1.2.2-.7,0-1.3-.1-1.7-.5-.4-.3-.6-.7-.6-1.2s0-.7.3-.9.5-.5.8-.6c.3-.1.8-.2,1.2-.2h0ZM643.8,266.8c.3,0,.6,0,.8,0s.4-.1.5-.2.2-.2.2-.3,0-.2-.2-.3c0,0-.3-.1-.5-.1h-1.7c-.2,0-.3,0-.4.1,0,0-.2.2-.2.3s.1.3.4.4c.2.1.6.2,1,.2h0ZM643.8,261.4c-.3,0-.5,0-.7.2s-.3.4-.3.6,0,.5.3.6.4.2.7.2.5,0,.7-.2c.2-.1.3-.4.3-.6s0-.5-.3-.6c-.2-.1-.4-.2-.7-.2ZM646.4,259.4l.2,1h-.2c-.3,0-.5,0-.7.2-.2.1-.2.3-.2.6l-.6-.2c0-.3,0-.5.2-.7.1-.2.3-.4.5-.6.2-.1.5-.2.8-.2h.1,0Z"/>
  <g class="st2">
    <text class="st1" transform="translate(461.4 305.7)"><tspan x="0" y="0">T</tspan></text>
    <text class="st1" transform="translate(467.6 305.7)"><tspan x="0" y="0">he modules </tspan></text>
    <text class="st1" transform="translate(527.9 305.7)"><tspan x="0" y="0">k</tspan></text>
    <text class="st1" transform="translate(533.7 305.7)"><tspan x="0" y="0">eep g</tspan></text>
    <text class="st1" transform="translate(560.1 305.7)"><tspan x="0" y="0">e</tspan></text>
    <text class="st1" transform="translate(565.8 305.7)"><tspan x="0" y="0">t</tspan></text>
    <text class="st1" transform="translate(569.6 305.7)"><tspan x="0" y="0">ting </tspan></text>
    <text class="st1" transform="translate(591.5 305.7)"><tspan x="0" y="0">l</tspan></text>
    <text class="st1" transform="translate(594.7 305.7)"><tspan x="0" y="0">a</tspan></text>
    <text class="st1" transform="translate(600.5 305.7)"><tspan x="0" y="0">r</tspan></text>
    <text class="st1" transform="translate(604.6 305.7)"><tspan x="0" y="0">ger</tspan></text>
  </g>
  <g class="st2">
    <text class="st1" transform="translate(435.8 345.8)"><tspan x="0" y="0">It </tspan></text>
    <text class="st1" transform="translate(446.3 345.8)"><tspan x="0" y="0">r</tspan></text>
    <text class="st1" transform="translate(450.4 345.8)"><tspan x="0" y="0">eminds one </tspan></text>
    <text class="st1" transform="translate(510.3 345.8)"><tspan x="0" y="0">o</tspan></text>
    <text class="st1" transform="translate(516.2 345.8)"><tspan x="0" y="0">f</tspan></text>
    <text class="st1" transform="translate(520.1 345.8)"><tspan x="0" y="0"> </tspan></text>
    <text class="st1" transform="translate(523.1 345.8)"><tspan x="0" y="0">a</tspan></text>
    <text class="st1" transform="translate(528.7 345.8)"><tspan x="0" y="0" xml:space="preserve"> memor</tspan></text>
    <text class="st1" transform="translate(566.7 345.8)"><tspan x="0" y="0">y</tspan></text>
    <text class="st1" transform="translate(571.9 345.8)"><tspan x="0" y="0" xml:space="preserve"> caug</tspan></text>
    <text class="st1" transform="translate(598 345.8)"><tspan x="0" y="0">h</tspan></text>
    <text class="st1" transform="translate(604.2 345.8)"><tspan x="0" y="0">t in</tspan></text>
    <text class="st1" transform="translate(620.6 345.8)"><tspan x="0" y="0"> </tspan></text>
    <text class="st1" transform="translate(623.5 345.8)"><tspan x="0" y="0">time</tspan></text>
  </g>
  <g class="st2">
    <text class="st1" transform="translate(375.2 205.5)"><tspan x="0" y="0">H</tspan></text>
    <text class="st1" transform="translate(382.5 205.5)"><tspan x="0" y="0">o</tspan></text>
    <text class="st1" transform="translate(388.4 205.5)"><tspan x="0" y="0">w</tspan></text>
    <text class="st1" transform="translate(397 205.5)"><tspan x="0" y="0"> </tspan></text>
    <text class="st1" transform="translate(399.8 205.5)"><tspan x="0" y="0">vulne</tspan></text>
    <text class="st1" transform="translate(426.6 205.5)"><tspan x="0" y="0">r</tspan></text>
    <text class="st1" transform="translate(430.7 205.5)"><tspan x="0" y="0">able it is</tspan></text>
    <text class="st1" transform="translate(473.1 205.5)"><tspan x="0" y="0"> </tspan></text>
    <text class="st1" transform="translate(476 205.5)"><tspan x="0" y="0">to</tspan></text>
    <text class="st1" transform="translate(486.3 205.5)"><tspan x="0" y="0"> </tspan></text>
    <text class="st1" transform="translate(489.2 205.5)"><tspan x="0" y="0">w</tspan></text>
    <text class="st1" transform="translate(497.8 205.5)"><tspan x="0" y="0">e</tspan></text>
    <text class="st1" transform="translate(503.6 205.5)"><tspan x="0" y="0">a</tspan></text>
    <text class="st1" transform="translate(509.2 205.5)"><tspan x="0" y="0">v</tspan></text>
    <text class="st1" transform="translate(514.6 205.5)"><tspan x="0" y="0">e one, kn</tspan></text>
    <text class="st1" transform="translate(559.5 205.5)"><tspan x="0" y="0">o</tspan></text>
    <text class="st1" transform="translate(565.3 205.5)"><tspan x="0" y="0">wing it can b</tspan></text>
    <text class="st1" transform="translate(628.7 205.5)"><tspan x="0" y="0">r</tspan></text>
    <text class="st1" transform="translate(632.8 205.5)"><tspan x="0" y="0">ea</tspan></text>
    <text class="st1" transform="translate(644.4 205.5)"><tspan x="0" y="0">k</tspan></text>
    <text class="st1" transform="translate(650.2 205.5)"><tspan x="0" y="0"> </tspan></text>
    <text class="st1" transform="translate(653.3 205.5)"><tspan x="0" y="0">a</tspan></text>
    <text class="st1" transform="translate(658.8 205.5)"><tspan x="0" y="0">t a</tspan></text>
    <text class="st1" transform="translate(671.9 205.5)"><tspan x="0" y="0">n</tspan></text>
    <text class="st1" transform="translate(677.9 205.5)"><tspan x="0" y="0">y</tspan></text>
    <text class="st1" transform="translate(683.2 205.5)"><tspan x="0" y="0"> </tspan></text>
    <text class="st1" transform="translate(686.1 205.5)"><tspan x="0" y="0">time</tspan></text>
  </g>
  <g class="st2">
    <text class="st1" transform="translate(391.2 486.5)"><tspan x="0" y="0">It i</tspan></text>
    <text class="st1" transform="translate(404.5 486.5)"><tspan x="0" y="0">n</tspan></text>
    <text class="st1" transform="translate(410.5 486.5)"><tspan x="0" y="0">v</tspan></text>
    <text class="st1" transform="translate(416 486.5)"><tspan x="0" y="0">o</tspan></text>
    <text class="st1" transform="translate(421.9 486.5)"><tspan x="0" y="0">k</tspan></text>
    <text class="st1" transform="translate(427.7 486.5)"><tspan x="0" y="0">es </tspan></text>
    <text class="st1" transform="translate(441.9 486.5)"><tspan x="0" y="0">a</tspan></text>
    <text class="st1" transform="translate(447.5 486.5)"><tspan x="0" y="0"> </tspan></text>
    <text class="st1" transform="translate(450.6 486.5)"><tspan x="0" y="0">s</tspan></text>
    <text class="st1" transform="translate(455.8 486.5)"><tspan x="0" y="0">en</tspan></text>
    <text class="st1" transform="translate(467.8 486.5)"><tspan x="0" y="0">s</tspan></text>
    <text class="st1" transform="translate(473.1 486.5)"><tspan x="0" y="0">e </tspan></text>
    <text class="st1" transform="translate(482 486.5)"><tspan x="0" y="0">o</tspan></text>
    <text class="st1" transform="translate(487.9 486.5)"><tspan x="0" y="0">f</tspan></text>
    <text class="st1" transform="translate(491.8 486.5)"><tspan x="0" y="0"> </tspan></text>
    <text class="st1" transform="translate(494.7 486.5)"><tspan x="0" y="0">ﬁnding </tspan></text>
    <text class="st1" transform="translate(531.6 486.5)"><tspan x="0" y="0">a</tspan></text>
    <text class="st1" transform="translate(537.2 486.5)"><tspan x="0" y="0" xml:space="preserve"> lon</tspan></text>
    <text class="st1" transform="translate(555.7 486.5)"><tspan x="0" y="0">g</tspan></text>
    <text class="st1" transform="translate(561.1 486.5)"><tspan x="0" y="0">-</tspan></text>
    <text class="st1" transform="translate(566.1 486.5)"><tspan x="0" y="0">f</tspan></text>
    <text class="st1" transform="translate(570.1 486.5)"><tspan x="0" y="0">o</tspan></text>
    <text class="st1" transform="translate(576.1 486.5)"><tspan x="0" y="0">r</tspan></text>
    <text class="st1" transform="translate(580.2 486.5)"><tspan x="0" y="0">g</tspan></text>
    <text class="st1" transform="translate(585.7 486.5)"><tspan x="0" y="0">o</tspan></text>
    <text class="st1" transform="translate(591.6 486.5)"><tspan x="0" y="0">t</tspan></text>
    <text class="st1" transform="translate(595.4 486.5)"><tspan x="0" y="0">ten</tspan></text>
    <text class="st1" transform="translate(611.7 486.5)"><tspan x="0" y="0"> </tspan></text>
    <text class="st1" transform="translate(614.6 486.5)"><tspan x="0" y="0">t</tspan></text>
    <text class="st1" transform="translate(618.9 486.5)"><tspan x="0" y="0">r</tspan></text>
    <text class="st1" transform="translate(623.1 486.5)"><tspan x="0" y="0">easu</tspan></text>
    <text class="st1" transform="translate(646.1 486.5)"><tspan x="0" y="0">r</tspan></text>
    <text class="st1" transform="translate(650.2 486.5)"><tspan x="0" y="0">e nea</tspan></text>
    <text class="st1" transform="translate(676.8 486.5)"><tspan x="0" y="0">r</tspan></text>
    <text class="st1" transform="translate(680.8 486.5)"><tspan x="0" y="0" xml:space="preserve"> it</tspan></text>
  </g>
  <g class="st2">
    <text class="st1" transform="translate(441.8 385.8)"><tspan x="0" y="0">It</tspan></text>
    <text class="st1" transform="translate(449.2 385.8)"><tspan x="0" y="0"> </tspan></text>
    <text class="st1" transform="translate(452.2 385.8)"><tspan x="0" y="0">t</tspan></text>
    <text class="st1" transform="translate(456.5 385.8)"><tspan x="0" y="0">a</tspan></text>
    <text class="st1" transform="translate(462.2 385.8)"><tspan x="0" y="0">k</tspan></text>
    <text class="st1" transform="translate(468 385.8)"><tspan x="0" y="0">es </tspan></text>
    <text class="st1" transform="translate(482.2 385.8)"><tspan x="0" y="0">p</tspan></text>
    <text class="st1" transform="translate(488.4 385.8)"><tspan x="0" y="0">a</tspan></text>
    <text class="st1" transform="translate(494 385.8)"><tspan x="0" y="0">tience, l</tspan></text>
    <text class="st1" transform="translate(533.6 385.8)"><tspan x="0" y="0">o</tspan></text>
    <text class="st1" transform="translate(539.5 385.8)"><tspan x="0" y="0">gic, </tspan></text>
    <text class="st1" transform="translate(559.3 385.8)"><tspan x="0" y="0">s</tspan></text>
    <text class="st1" transform="translate(564.5 385.8)"><tspan x="0" y="0">y</tspan></text>
    <text class="st1" transform="translate(569.8 385.8)"><tspan x="0" y="0">stem, p</tspan></text>
    <text class="st1" transform="translate(606.8 385.8)"><tspan x="0" y="0">l</tspan></text>
    <text class="st1" transform="translate(610.1 385.8)"><tspan x="0" y="0">anning</tspan></text>
  </g>
  <g class="st2">
    <text class="st1" transform="translate(429.6 325.8)"><tspan x="0" y="0">It has </tspan></text>
    <text class="st1" transform="translate(460.4 325.8)"><tspan x="0" y="0">a</tspan></text>
    <text class="st1" transform="translate(466 325.8)"><tspan x="0" y="0" xml:space="preserve"> single poi</tspan></text>
    <text class="st1" transform="translate(516 325.8)"><tspan x="0" y="0">n</tspan></text>
    <text class="st1" transform="translate(522.1 325.8)"><tspan x="0" y="0">t </tspan></text>
    <text class="st1" transform="translate(529.5 325.8)"><tspan x="0" y="0">o</tspan></text>
    <text class="st1" transform="translate(535.4 325.8)"><tspan x="0" y="0">f</tspan></text>
    <text class="st1" transform="translate(539.2 325.8)"><tspan x="0" y="0" xml:space="preserve"> origin, li</tspan></text>
    <text class="st1" transform="translate(581.7 325.8)"><tspan x="0" y="0">k</tspan></text>
    <text class="st1" transform="translate(587.5 325.8)"><tspan x="0" y="0">e </tspan></text>
    <text class="st1" transform="translate(596.4 325.8)"><tspan x="0" y="0">a</tspan></text>
    <text class="st1" transform="translate(602 325.8)"><tspan x="0" y="0" xml:space="preserve"> co</tspan></text>
    <text class="st1" transform="translate(616.7 325.8)"><tspan x="0" y="0">r</tspan></text>
    <text class="st1" transform="translate(620.8 325.8)"><tspan x="0" y="0">e idea</tspan></text>
  </g>
  <g class="st2">
    <text class="st1" transform="translate(407.6 365.9)"><tspan x="0" y="0">It </tspan></text>
    <text class="st1" transform="translate(418.1 365.9)"><tspan x="0" y="0">s</tspan></text>
    <text class="st1" transform="translate(423.2 365.9)"><tspan x="0" y="0">ymboli</tspan></text>
    <text class="st1" transform="translate(456.4 365.9)"><tspan x="0" y="0">s</tspan></text>
    <text class="st1" transform="translate(461.7 365.9)"><tspan x="0" y="0">es pe</tspan></text>
    <text class="st1" transform="translate(487.9 365.9)"><tspan x="0" y="0">r</tspan></text>
    <text class="st1" transform="translate(492 365.9)"><tspan x="0" y="0">s</tspan></text>
    <text class="st1" transform="translate(497.3 365.9)"><tspan x="0" y="0">e</tspan></text>
    <text class="st1" transform="translate(502.9 365.9)"><tspan x="0" y="0">v</tspan></text>
    <text class="st1" transform="translate(508.3 365.9)"><tspan x="0" y="0">e</tspan></text>
    <text class="st1" transform="translate(514.1 365.9)"><tspan x="0" y="0">r</tspan></text>
    <text class="st1" transform="translate(518.3 365.9)"><tspan x="0" y="0">ance and emb</tspan></text>
    <text class="st1" transform="translate(587.5 365.9)"><tspan x="0" y="0">r</tspan></text>
    <text class="st1" transform="translate(591.6 365.9)"><tspan x="0" y="0">a</tspan></text>
    <text class="st1" transform="translate(597.3 365.9)"><tspan x="0" y="0">cing compl</tspan></text>
    <text class="st1" transform="translate(651.1 365.9)"><tspan x="0" y="0">e</tspan></text>
    <text class="st1" transform="translate(656.6 365.9)"><tspan x="0" y="0">xity</tspan></text>
  </g>
  <g class="st2">
    <text class="st1" transform="translate(408.6 445.9)"><tspan x="0" y="0">It g</tspan></text>
    <text class="st1" transform="translate(424.6 445.9)"><tspan x="0" y="0">a</tspan></text>
    <text class="st1" transform="translate(430.1 445.9)"><tspan x="0" y="0">t</tspan></text>
    <text class="st1" transform="translate(434.5 445.9)"><tspan x="0" y="0">he</tspan></text>
    <text class="st1" transform="translate(446.5 445.9)"><tspan x="0" y="0">r</tspan></text>
    <text class="st1" transform="translate(450.6 445.9)"><tspan x="0" y="0">s dus</tspan></text>
    <text class="st1" transform="translate(476.7 445.9)"><tspan x="0" y="0">t</tspan></text>
    <text class="st1" transform="translate(481 445.9)"><tspan x="0" y="0">, it c</tspan></text>
    <text class="st1" transform="translate(502.7 445.9)"><tspan x="0" y="0">a</tspan></text>
    <text class="st1" transform="translate(508.3 445.9)"><tspan x="0" y="0">tches bugs and it</tspan></text>
    <text class="st1" transform="translate(593.3 445.9)"><tspan x="0" y="0"> </tspan></text>
    <text class="st1" transform="translate(596.2 445.9)"><tspan x="0" y="0">t</tspan></text>
    <text class="st1" transform="translate(600.5 445.9)"><tspan x="0" y="0">r</tspan></text>
    <text class="st1" transform="translate(604.6 445.9)"><tspan x="0" y="0">aps mome</tspan></text>
    <text class="st1" transform="translate(655.7 445.9)"><tspan x="0" y="0">n</tspan></text>
    <text class="st1" transform="translate(661.8 445.9)"><tspan x="0" y="0">ts</tspan></text>
  </g>
  <g class="st2">
    <text class="st1" transform="translate(411.4 526.1)"><tspan x="0" y="0">W</tspan></text>
    <text class="st1" transform="translate(420.8 526.1)"><tspan x="0" y="0">eb</tspan></text>
    <text class="st1" transform="translate(432.8 526.1)"><tspan x="0" y="0"> </tspan></text>
    <text class="st1" transform="translate(435.8 526.1)"><tspan x="0" y="0">t</tspan></text>
    <text class="st1" transform="translate(440.1 526.1)"><tspan x="0" y="0">a</tspan></text>
    <text class="st1" transform="translate(445.9 526.1)"><tspan x="0" y="0">k</tspan></text>
    <text class="st1" transform="translate(451.7 526.1)"><tspan x="0" y="0">es suppo</tspan></text>
    <text class="st1" transform="translate(495.8 526.1)"><tspan x="0" y="0">r</tspan></text>
    <text class="st1" transform="translate(499.9 526.1)"><tspan x="0" y="0">t </tspan></text>
    <text class="st1" transform="translate(507.2 526.1)"><tspan x="0" y="0">o</tspan></text>
    <text class="st1" transform="translate(513.2 526.1)"><tspan x="0" y="0">f</tspan></text>
    <text class="st1" transform="translate(517 526.1)"><tspan x="0" y="0"> </tspan></text>
    <text class="st1" transform="translate(519.9 526.1)"><tspan x="0" y="0">wh</tspan></text>
    <text class="st1" transform="translate(534.8 526.1)"><tspan x="0" y="0">a</tspan></text>
    <text class="st1" transform="translate(540.4 526.1)"><tspan x="0" y="0">t</tspan></text>
    <text class="st1" transform="translate(544.7 526.1)"><tspan x="0" y="0">e</tspan></text>
    <text class="st1" transform="translate(550.3 526.1)"><tspan x="0" y="0">v</tspan></text>
    <text class="st1" transform="translate(555.7 526.1)"><tspan x="0" y="0">e</tspan></text>
    <text class="st1" transform="translate(561.5 526.1)"><tspan x="0" y="0">r</tspan></text>
    <text class="st1" transform="translate(565.5 526.1)"><tspan x="0" y="0" xml:space="preserve"> is s</tspan></text>
    <text class="st1" transform="translate(585.1 526.1)"><tspan x="0" y="0">t</tspan></text>
    <text class="st1" transform="translate(589.4 526.1)"><tspan x="0" y="0">anding a</tspan></text>
    <text class="st1" transform="translate(630.9 526.1)"><tspan x="0" y="0">r</tspan></text>
    <text class="st1" transform="translate(635.1 526.1)"><tspan x="0" y="0">ound it</tspan></text>
  </g>
  <g class="st2">
    <text class="st1" transform="translate(409.4 566.1)"><tspan x="0" y="0">It </tspan></text>
    <text class="st1" transform="translate(419.9 566.1)"><tspan x="0" y="0">a</tspan></text>
    <text class="st1" transform="translate(425.6 566.1)"><tspan x="0" y="0">cts as </tspan></text>
    <text class="st1" transform="translate(458 566.1)"><tspan x="0" y="0">a</tspan></text>
    <text class="st1" transform="translate(463.6 566.1)"><tspan x="0" y="0"> </tspan></text>
    <text class="st1" transform="translate(466.7 566.1)"><tspan x="0" y="0">s</tspan></text>
    <text class="st1" transform="translate(472 566.1)"><tspan x="0" y="0">ou</tspan></text>
    <text class="st1" transform="translate(484.1 566.1)"><tspan x="0" y="0">r</tspan></text>
    <text class="st1" transform="translate(488.3 566.1)"><tspan x="0" y="0">ce </tspan></text>
    <text class="st1" transform="translate(502.8 566.1)"><tspan x="0" y="0">o</tspan></text>
    <text class="st1" transform="translate(508.7 566.1)"><tspan x="0" y="0">f</tspan></text>
    <text class="st1" transform="translate(512.5 566.1)"><tspan x="0" y="0" xml:space="preserve"> i</tspan></text>
    <text class="st1" transform="translate(518.4 566.1)"><tspan x="0" y="0">n</tspan></text>
    <text class="st1" transform="translate(524.5 566.1)"><tspan x="0" y="0">f</tspan></text>
    <text class="st1" transform="translate(528.5 566.1)"><tspan x="0" y="0">orm</tspan></text>
    <text class="st1" transform="translate(548.2 566.1)"><tspan x="0" y="0">a</tspan></text>
    <text class="st1" transform="translate(553.8 566.1)"><tspan x="0" y="0">tion, </tspan></text>
    <text class="st1" transform="translate(578.9 566.1)"><tspan x="0" y="0">a</tspan></text>
    <text class="st1" transform="translate(584.5 566.1)"><tspan x="0" y="0"> </tspan></text>
    <text class="st1" transform="translate(587.6 566.1)"><tspan x="0" y="0">s</tspan></text>
    <text class="st1" transform="translate(592.7 566.1)"><tspan x="0" y="0">y</tspan></text>
    <text class="st1" transform="translate(598.1 566.1)"><tspan x="0" y="0">stem</tspan></text>
    <text class="st1" transform="translate(622.9 566.1)"><tspan x="0" y="0">a</tspan></text>
    <text class="st1" transform="translate(628.5 566.1)"><tspan x="0" y="0">tic e</tspan></text>
    <text class="st1" transform="translate(650.1 566.1)"><tspan x="0" y="0">n</tspan></text>
    <text class="st1" transform="translate(656.2 566.1)"><tspan x="0" y="0">tity</tspan></text>
  </g>
  <g class="st2">
    <text class="st1" transform="translate(388 225.5)"><tspan x="0" y="0">A</tspan></text>
    <text class="st1" transform="translate(394.4 225.5)"><tspan x="0" y="0"> </tspan></text>
    <text class="st1" transform="translate(397.3 225.5)"><tspan x="0" y="0">w</tspan></text>
    <text class="st1" transform="translate(405.9 225.5)"><tspan x="0" y="0">eb shines</tspan></text>
    <text class="st1" transform="translate(452.7 225.5)"><tspan x="0" y="0"> </tspan></text>
    <text class="st1" transform="translate(455.5 225.5)"><tspan x="0" y="0">wi</tspan></text>
    <text class="st1" transform="translate(467.1 225.5)"><tspan x="0" y="0">t</tspan></text>
    <text class="st1" transform="translate(471.5 225.5)"><tspan x="0" y="0">h</tspan></text>
    <text class="st1" transform="translate(477.7 225.5)"><tspan x="0" y="0"> </tspan></text>
    <text class="st1" transform="translate(480.6 225.5)"><tspan x="0" y="0">ti</tspan></text>
    <text class="st1" transform="translate(487.7 225.5)"><tspan x="0" y="0">n</tspan></text>
    <text class="st1" transform="translate(493.7 225.5)"><tspan x="0" y="0">y</tspan></text>
    <text class="st1" transform="translate(499 225.5)"><tspan x="0" y="0" xml:space="preserve"> d</tspan></text>
    <text class="st1" transform="translate(508.3 225.5)"><tspan x="0" y="0">r</tspan></text>
    <text class="st1" transform="translate(512.4 225.5)"><tspan x="0" y="0">opl</tspan></text>
    <text class="st1" transform="translate(527.9 225.5)"><tspan x="0" y="0">e</tspan></text>
    <text class="st1" transform="translate(533.6 225.5)"><tspan x="0" y="0">ts on it</tspan></text>
    <text class="st1" transform="translate(568.6 225.5)"><tspan x="0" y="0"> </tspan></text>
    <text class="st1" transform="translate(571.5 225.5)"><tspan x="0" y="0">when sunshine</tspan></text>
    <text class="st1" transform="translate(645.4 225.5)"><tspan x="0" y="0"> </tspan></text>
    <text class="st1" transform="translate(648.4 225.5)"><tspan x="0" y="0">f</tspan></text>
    <text class="st1" transform="translate(652.3 225.5)"><tspan x="0" y="0">alls on it</tspan></text>
  </g>
  <g class="st2">
    <text class="st1" transform="translate(414 506.5)"><tspan x="0" y="0">W</tspan></text>
    <text class="st1" transform="translate(423.4 506.5)"><tspan x="0" y="0">eb i</tspan></text>
    <text class="st1" transform="translate(441.3 506.5)"><tspan x="0" y="0">n</tspan></text>
    <text class="st1" transform="translate(447.4 506.5)"><tspan x="0" y="0">v</tspan></text>
    <text class="st1" transform="translate(452.8 506.5)"><tspan x="0" y="0">o</tspan></text>
    <text class="st1" transform="translate(458.8 506.5)"><tspan x="0" y="0">k</tspan></text>
    <text class="st1" transform="translate(464.6 506.5)"><tspan x="0" y="0">es </tspan></text>
    <text class="st1" transform="translate(478.7 506.5)"><tspan x="0" y="0">a</tspan></text>
    <text class="st1" transform="translate(484.3 506.5)"><tspan x="0" y="0"> </tspan></text>
    <text class="st1" transform="translate(487.3 506.5)"><tspan x="0" y="0">f</tspan></text>
    <text class="st1" transform="translate(491.3 506.5)"><tspan x="0" y="0">eeling being sp</tspan></text>
    <text class="st1" transform="translate(564.8 506.5)"><tspan x="0" y="0">r</tspan></text>
    <text class="st1" transform="translate(568.9 506.5)"><tspan x="0" y="0">e</tspan></text>
    <text class="st1" transform="translate(574.7 506.5)"><tspan x="0" y="0">a</tspan></text>
    <text class="st1" transform="translate(580.5 506.5)"><tspan x="0" y="0">d a</tspan></text>
    <text class="st1" transform="translate(595.5 506.5)"><tspan x="0" y="0">r</tspan></text>
    <text class="st1" transform="translate(599.7 506.5)"><tspan x="0" y="0">ound s</tspan></text>
    <text class="st1" transform="translate(632.7 506.5)"><tspan x="0" y="0">p</tspan></text>
    <text class="st1" transform="translate(638.9 506.5)"><tspan x="0" y="0">a</tspan></text>
    <text class="st1" transform="translate(644.4 506.5)"><tspan x="0" y="0">tial</tspan></text>
    <text class="st1" transform="translate(660.5 506.5)"><tspan x="0" y="0">l</tspan></text>
    <text class="st1" transform="translate(663.5 506.5)"><tspan x="0" y="0">y</tspan></text>
  </g>
  <g class="st2">
    <text class="st1" transform="translate(386 546.5)"><tspan x="0" y="0">W</tspan></text>
    <text class="st1" transform="translate(395.4 546.5)"><tspan x="0" y="0">eb encom</tspan></text>
    <text class="st1" transform="translate(443.6 546.5)"><tspan x="0" y="0">p</tspan></text>
    <text class="st1" transform="translate(449.8 546.5)"><tspan x="0" y="0">as</tspan></text>
    <text class="st1" transform="translate(460.9 546.5)"><tspan x="0" y="0">s</tspan></text>
    <text class="st1" transform="translate(466.2 546.5)"><tspan x="0" y="0">es ou</tspan></text>
    <text class="st1" transform="translate(492.5 546.5)"><tspan x="0" y="0">r</tspan></text>
    <text class="st1" transform="translate(496.5 546.5)"><tspan x="0" y="0"> </tspan></text>
    <text class="st1" transform="translate(499.4 546.5)"><tspan x="0" y="0">vi</tspan></text>
    <text class="st1" transform="translate(507.7 546.5)"><tspan x="0" y="0">r</tspan></text>
    <text class="st1" transform="translate(511.7 546.5)"><tspan x="0" y="0">tua</tspan></text>
    <text class="st1" transform="translate(527.9 546.5)"><tspan x="0" y="0">l</tspan></text>
    <text class="st1" transform="translate(530.9 546.5)"><tspan x="0" y="0" xml:space="preserve"> connections,</tspan></text>
    <text class="st1" transform="translate(596.8 546.5)"><tspan x="0" y="0"> </tspan></text>
    <text class="st1" transform="translate(599.8 546.5)"><tspan x="0" y="0">t</tspan></text>
    <text class="st1" transform="translate(604.1 546.5)"><tspan x="0" y="0">he</tspan></text>
    <text class="st1" transform="translate(616.1 546.5)"><tspan x="0" y="0"> </tspan></text>
    <text class="st1" transform="translate(619 546.5)"><tspan x="0" y="0">w</tspan></text>
    <text class="st1" transform="translate(627.6 546.5)"><tspan x="0" y="0">orld</tspan></text>
    <text class="st1" transform="translate(647.3 546.5)"><tspan x="0" y="0"> </tspan></text>
    <text class="st1" transform="translate(650.1 546.5)"><tspan x="0" y="0">wide</tspan></text>
    <text class="st1" transform="translate(673.8 546.5)"><tspan x="0" y="0"> </tspan></text>
    <text class="st1" transform="translate(676.6 546.5)"><tspan x="0" y="0">w</tspan></text>
    <text class="st1" transform="translate(685.2 546.5)"><tspan x="0" y="0">eb</tspan></text>
  </g>
  <g class="st2">
    <text class="st1" transform="translate(356 586.5)"><tspan x="0" y="0">It </tspan></text>
    <text class="st1" transform="translate(366.5 586.5)"><tspan x="0" y="0">s</tspan></text>
    <text class="st1" transform="translate(371.6 586.5)"><tspan x="0" y="0">ymboli</tspan></text>
    <text class="st1" transform="translate(404.8 586.5)"><tspan x="0" y="0">s</tspan></text>
    <text class="st1" transform="translate(410.1 586.5)"><tspan x="0" y="0">es </tspan></text>
    <text class="st1" transform="translate(424.2 586.5)"><tspan x="0" y="0">r</tspan></text>
    <text class="st1" transform="translate(428.3 586.5)"><tspan x="0" y="0">e</tspan></text>
    <text class="st1" transform="translate(434.1 586.5)"><tspan x="0" y="0">l</tspan></text>
    <text class="st1" transform="translate(437.4 586.5)"><tspan x="0" y="0">a</tspan></text>
    <text class="st1" transform="translate(442.9 586.5)"><tspan x="0" y="0">tionships b</tspan></text>
    <text class="st1" transform="translate(497.5 586.5)"><tspan x="0" y="0">e</tspan></text>
    <text class="st1" transform="translate(503.2 586.5)"><tspan x="0" y="0">t</tspan></text>
    <text class="st1" transform="translate(507.5 586.5)"><tspan x="0" y="0">w</tspan></text>
    <text class="st1" transform="translate(516.1 586.5)"><tspan x="0" y="0">een</tspan></text>
    <text class="st1" transform="translate(533.8 586.5)"><tspan x="0" y="0"> </tspan></text>
    <text class="st1" transform="translate(536.8 586.5)"><tspan x="0" y="0">t</tspan></text>
    <text class="st1" transform="translate(541.2 586.5)"><tspan x="0" y="0">he</tspan></text>
    <text class="st1" transform="translate(553.2 586.5)"><tspan x="0" y="0"> </tspan></text>
    <text class="st1" transform="translate(556 586.5)"><tspan x="0" y="0">w</tspan></text>
    <text class="st1" transform="translate(564.6 586.5)"><tspan x="0" y="0">eb ma</tspan></text>
    <text class="st1" transform="translate(595 586.5)"><tspan x="0" y="0">k</tspan></text>
    <text class="st1" transform="translate(600.7 586.5)"><tspan x="0" y="0">e</tspan></text>
    <text class="st1" transform="translate(606.5 586.5)"><tspan x="0" y="0">r</tspan></text>
    <text class="st1" transform="translate(610.6 586.5)"><tspan x="0" y="0" xml:space="preserve"> and</tspan></text>
    <text class="st1" transform="translate(631.8 586.5)"><tspan x="0" y="0"> </tspan></text>
    <text class="st1" transform="translate(634.8 586.5)"><tspan x="0" y="0">t</tspan></text>
    <text class="st1" transform="translate(639.2 586.5)"><tspan x="0" y="0">he</tspan></text>
    <text class="st1" transform="translate(651.1 586.5)"><tspan x="0" y="0"> </tspan></text>
    <text class="st1" transform="translate(654 586.5)"><tspan x="0" y="0">w</tspan></text>
    <text class="st1" transform="translate(662.6 586.5)"><tspan x="0" y="0">eb suppo</tspan></text>
    <text class="st1" transform="translate(707.7 586.5)"><tspan x="0" y="0">r</tspan></text>
    <text class="st1" transform="translate(711.8 586.5)"><tspan x="0" y="0">ter</tspan></text>
  </g>
  <g class="st2">
    <text class="st1" transform="translate(352 606.5)"><tspan x="0" y="0">It can </tspan></text>
    <text class="st1" transform="translate(383.1 606.5)"><tspan x="0" y="0">s</tspan></text>
    <text class="st1" transform="translate(388.4 606.5)"><tspan x="0" y="0">om</tspan></text>
    <text class="st1" transform="translate(403.8 606.5)"><tspan x="0" y="0">e</tspan></text>
    <text class="st1" transform="translate(409.5 606.5)"><tspan x="0" y="0">times e</tspan></text>
    <text class="st1" transform="translate(446 606.5)"><tspan x="0" y="0">n</tspan></text>
    <text class="st1" transform="translate(452.2 606.5)"><tspan x="0" y="0">t</tspan></text>
    <text class="st1" transform="translate(456.5 606.5)"><tspan x="0" y="0">angle</tspan></text>
    <text class="st1" transform="translate(483 606.5)"><tspan x="0" y="0"> </tspan></text>
    <text class="st1" transform="translate(485.9 606.5)"><tspan x="0" y="0">t</tspan></text>
    <text class="st1" transform="translate(490.3 606.5)"><tspan x="0" y="0">hings on its</tspan></text>
    <text class="st1" transform="translate(547 606.5)"><tspan x="0" y="0"> </tspan></text>
    <text class="st1" transform="translate(549.9 606.5)"><tspan x="0" y="0">w</tspan></text>
    <text class="st1" transform="translate(558.5 606.5)"><tspan x="0" y="0">a</tspan></text>
    <text class="st1" transform="translate(564 606.5)"><tspan x="0" y="0">y</tspan></text>
    <text class="st1" transform="translate(569.2 606.5)"><tspan x="0" y="0" xml:space="preserve"> &amp; </tspan></text>
    <text class="st1" transform="translate(581.7 606.5)"><tspan x="0" y="0">p</tspan></text>
    <text class="st1" transform="translate(588 606.5)"><tspan x="0" y="0">au</tspan></text>
    <text class="st1" transform="translate(599.9 606.5)"><tspan x="0" y="0">s</tspan></text>
    <text class="st1" transform="translate(605.2 606.5)"><tspan x="0" y="0">e </tspan></text>
    <text class="st1" transform="translate(614 606.5)"><tspan x="0" y="0">s</tspan></text>
    <text class="st1" transform="translate(619.3 606.5)"><tspan x="0" y="0">omeone</tspan></text>
    <text class="st1" transform="translate(658.5 606.5)"><tspan x="0" y="0"> </tspan></text>
    <text class="st1" transform="translate(661.5 606.5)"><tspan x="0" y="0">f</tspan></text>
    <text class="st1" transform="translate(665.6 606.5)"><tspan x="0" y="0">r</tspan></text>
    <text class="st1" transform="translate(669.7 606.5)"><tspan x="0" y="0">om e</tspan></text>
    <text class="st1" transform="translate(694 606.5)"><tspan x="0" y="0">n</tspan></text>
    <text class="st1" transform="translate(700.1 606.5)"><tspan x="0" y="0">tering</tspan></text>
  </g>
</svg>