<?xml version="1.0" encoding="UTF-8"?>
<svg id="Layer_1" data-name="Layer 1" xmlns="http://www.w3.org/2000/svg" viewBox="0 0 1082.61 482.33">
  <g>
    <path d="M312.02,360.61l.27.98c-.99.37-2.03.53-3.05.53-2,0-3.05-1.06-3.05-3.22v-4.85c0-2.16,1.05-3.22,3.05-3.22,1.02,0,2.05.16,3.05.53l-.27.96c-.86-.33-1.92-.5-2.78-.5-1.36,0-1.94.71-1.94,2.39v4.52c0,1.69.58,2.39,1.94,2.39.86,0,1.92-.19,2.78-.52Z" fill="#ffefe4"/>
    <path d="M315.06,358.9v-4.85c0-2.16,1.05-3.22,3.05-3.22s3.05,1.06,3.05,3.22v4.85c0,2.16-1.05,3.22-3.05,3.22s-3.05-1.06-3.05-3.22ZM316.17,354.21v4.52c0,1.71.59,2.41,1.94,2.41s1.94-.69,1.94-2.41v-4.52c0-1.71-.59-2.41-1.94-2.41s-1.94.69-1.94,2.41Z" fill="#ffefe4"/>
    <path d="M326.55,359.03l-1.79-5.76.07,8.69h-1.02v-10.97h1.05l2.13,6.7,2.11-6.7h1.03v10.97h-1.02l.07-8.69-1.79,5.76h-.86Z" fill="#ffefe4"/>
    <path d="M335.42,359.03l-1.79-5.76.07,8.69h-1.02v-10.97h1.05l2.13,6.7,2.11-6.7h1.03v10.97h-1.02l.07-8.69-1.79,5.76h-.86Z" fill="#ffefe4"/>
    <path d="M348.19,361.96h-1.11l-.83-3.28h-3.1l-.84,3.28h-1.06l2.88-10.97h1.18l2.88,10.97ZM346,357.73l-1.3-5.13-1.32,5.13h2.62Z" fill="#ffefe4"/>
    <path d="M351.66,353.16l.06,8.8h-1.02v-10.97h.99l3.81,8.8-.06-8.8h1.02v10.97h-.98l-3.83-8.8Z" fill="#ffefe4"/>
    <path d="M365.5,354.17v4.58c0,2.14-1.05,3.21-3.02,3.21h-3.07v-10.97h3c2.02,0,3.09,1.06,3.09,3.18ZM360.53,351.94v9.08h1.92c1.35,0,1.94-.72,1.94-2.42v-4.24c0-1.7-.61-2.41-1.98-2.41h-1.88Z" fill="#ffefe4"/>
    <path d="M382.97,360.61l.27.98c-.99.37-2.03.53-3.05.53-2,0-3.05-1.06-3.05-3.22v-4.85c0-2.16,1.05-3.22,3.05-3.22,1.02,0,2.05.16,3.05.53l-.27.96c-.86-.33-1.92-.5-2.78-.5-1.36,0-1.94.71-1.94,2.39v4.52c0,1.69.58,2.39,1.94,2.39.86,0,1.92-.19,2.78-.52Z" fill="#ffefe4"/>
    <path d="M386.34,350.99h5.44v.95h-4.32v3.78h4.17v.95h-4.17v4.35h4.32v.95h-5.44v-10.97Z" fill="#ffefe4"/>
    <path d="M396.01,353.16l.06,8.8h-1.02v-10.97h.99l3.81,8.8-.06-8.8h1.02v10.97h-.98l-3.83-8.8Z" fill="#ffefe4"/>
    <path d="M407.36,351.94v10.02h-1.12v-10.02h-2.75v-.95h6.62v.95h-2.75Z" fill="#ffefe4"/>
    <path d="M412.95,350.99h5.44v.95h-4.32v3.78h4.17v.95h-4.17v4.35h4.32v.95h-5.44v-10.97Z" fill="#ffefe4"/>
    <path d="M422.61,361.96h-1.11v-10.97h2.99c2.02,0,3.1.93,3.1,2.63v1.2c0,1.36-.69,2.22-2.03,2.51l2.31,4.63h-1.2l-2.23-4.52h-1.83v4.52ZM422.61,356.49h1.83c1.46,0,2.07-.61,2.07-1.95v-.64c0-1.36-.61-1.97-2.07-1.97h-1.83v4.55Z" fill="#ffefe4"/>
  </g>
  <g>
    <path d="M793.91,230.88h5.44v.95h-4.32v3.78h4.17v.95h-4.17v4.35h4.32v.95h-5.44v-10.97Z" fill="#ffefe4"/>
    <path d="M803.58,233.05l.06,8.8h-1.02v-10.97h.99l3.81,8.8-.06-8.8h1.02v10.97h-.98l-3.83-8.8Z" fill="#ffefe4"/>
    <path d="M817.4,231.25l-.27.96c-.86-.33-1.91-.5-2.76-.5-1.35,0-1.94.71-1.94,2.39v4.52c0,1.69.59,2.41,1.94,2.41.59,0,1.33-.12,1.98-.31v-3.71h-2.01v-.98h3.07v5.4c-.99.37-2.08.58-3.04.58-2,0-3.05-1.06-3.05-3.22v-4.85c0-2.16,1.05-3.22,3.05-3.22,1,0,2.04.16,3.03.53Z" fill="#ffefe4"/>
    <path d="M820.19,241.85v-.95h2.48v-9.08h-2.48v-.95h6.09v.95h-2.48v9.08h2.48v.95h-6.09Z" fill="#ffefe4"/>
    <path d="M830.18,233.05l.06,8.8h-1.02v-10.97h.99l3.81,8.8-.06-8.8h1.02v10.97h-.98l-3.83-8.8Z" fill="#ffefe4"/>
    <path d="M838.26,230.88h5.44v.95h-4.32v3.78h4.17v.95h-4.17v4.35h4.32v.95h-5.44v-10.97Z" fill="#ffefe4"/>
    <path d="M858.29,238.92l-1.79-5.76.07,8.69h-1.02v-10.97h1.05l2.13,6.7,2.11-6.7h1.04v10.97h-1.02l.07-8.69-1.79,5.76h-.86Z" fill="#ffefe4"/>
    <path d="M864.54,238.79v-4.85c0-2.16,1.05-3.22,3.05-3.22s3.04,1.06,3.04,3.22v4.85c0,2.16-1.05,3.22-3.04,3.22s-3.05-1.06-3.05-3.22ZM865.65,234.1v4.52c0,1.71.59,2.41,1.94,2.41s1.94-.69,1.94-2.41v-4.52c0-1.71-.59-2.41-1.94-2.41s-1.94.69-1.94,2.41Z" fill="#ffefe4"/>
    <path d="M879.5,234.06v4.58c0,2.14-1.05,3.21-3.02,3.21h-3.07v-10.97h3c2.03,0,3.09,1.06,3.09,3.18ZM874.53,231.82v9.08h1.92c1.34,0,1.94-.72,1.94-2.42v-4.24c0-1.7-.61-2.41-1.98-2.41h-1.88Z" fill="#ffefe4"/>
    <path d="M888.37,230.88v7.91c0,2.16-1.05,3.22-3.04,3.22s-3.05-1.06-3.05-3.22v-7.91h1.12v7.75c0,1.69.58,2.41,1.92,2.41s1.92-.72,1.92-2.41v-7.75h1.12Z" fill="#ffefe4"/>
    <path d="M891.47,230.88h1.12v10.02h4.48v.95h-5.6v-10.97Z" fill="#ffefe4"/>
    <path d="M900.34,230.88h5.44v.95h-4.32v3.78h4.17v.95h-4.17v4.35h4.32v.95h-5.44v-10.97Z" fill="#ffefe4"/>
  </g>
  <g>
    <path d="M668.33,455.42v10.02h-1.12v-10.02h-2.75v-.95h6.62v.95h-2.75Z" fill="#ffefe4"/>
    <path d="M678.56,460.43h-3.84v5.01h-1.12v-10.97h1.12v5h3.84v-5h1.12v10.97h-1.12v-5.01Z" fill="#ffefe4"/>
    <path d="M683.57,465.44h-1.11v-10.97h2.99c2.03,0,3.1.93,3.1,2.63v1.2c0,1.36-.69,2.22-2.02,2.51l2.31,4.63h-1.2l-2.23-4.52h-1.83v4.52ZM683.57,459.97h1.83c1.46,0,2.07-.61,2.07-1.95v-.64c0-1.36-.61-1.97-2.07-1.97h-1.83v4.55Z" fill="#ffefe4"/>
    <path d="M697.42,454.47v7.91c0,2.16-1.05,3.22-3.04,3.22s-3.05-1.06-3.05-3.22v-7.91h1.12v7.75c0,1.69.58,2.41,1.92,2.41s1.92-.72,1.92-2.41v-7.75h1.12Z" fill="#ffefe4"/>
    <path d="M705.92,454.71l-.24.95c-.65-.24-1.48-.37-2.08-.37-1.45,0-2.14.69-2.14,1.63,0,2.41,4.83,2.75,4.83,5.81v.18c0,1.48-1.34,2.7-3.25,2.7-1.02,0-1.82-.13-2.84-.55l.21-.98c.72.33,1.8.55,2.63.55,1.27,0,2.14-.77,2.14-1.8,0-2.41-4.83-2.85-4.83-5.78v-.16c0-1.52,1.15-2.57,3.25-2.57.67,0,1.64.15,2.32.4Z" fill="#ffefe4"/>
    <path d="M712.68,455.42v10.02h-1.12v-10.02h-2.75v-.95h6.62v.95h-2.75Z" fill="#ffefe4"/>
    <path d="M718.26,454.47h5.44v.95h-4.32v3.78h4.17v.95h-4.17v4.35h4.32v.95h-5.44v-10.97Z" fill="#ffefe4"/>
    <path d="M727.92,465.44h-1.11v-10.97h2.99c2.03,0,3.1.93,3.1,2.63v1.2c0,1.36-.69,2.22-2.02,2.51l2.31,4.63h-1.2l-2.23-4.52h-1.83v4.52ZM727.92,459.97h1.83c1.46,0,2.07-.61,2.07-1.95v-.64c0-1.36-.61-1.97-2.07-1.97h-1.83v4.55Z" fill="#ffefe4"/>
    <path d="M741.4,454.71l-.24.95c-.65-.24-1.48-.37-2.08-.37-1.45,0-2.14.69-2.14,1.63,0,2.41,4.83,2.75,4.83,5.81v.18c0,1.48-1.34,2.7-3.25,2.7-1.02,0-1.82-.13-2.84-.55l.21-.98c.72.33,1.8.55,2.63.55,1.27,0,2.14-.77,2.14-1.8,0-2.41-4.83-2.85-4.83-5.78v-.16c0-1.52,1.15-2.57,3.25-2.57.67,0,1.64.15,2.32.4Z" fill="#ffefe4"/>
  </g>
  <g>
    <path d="M182.55,38.7l-.24.95c-.65-.24-1.48-.37-2.08-.37-1.45,0-2.14.69-2.14,1.63,0,2.41,4.83,2.75,4.83,5.81v.18c0,1.48-1.35,2.7-3.25,2.7-1.02,0-1.82-.13-2.84-.55l.21-.98c.72.33,1.8.55,2.63.55,1.27,0,2.14-.77,2.14-1.8,0-2.41-4.83-2.85-4.83-5.78v-.16c0-1.52,1.15-2.57,3.25-2.57.67,0,1.64.15,2.32.4Z" fill="#ffefe4"/>
    <path d="M186.02,38.47h5.44v.95h-4.32v3.78h4.17v.95h-4.17v4.35h4.32v.95h-5.44v-10.97Z" fill="#ffefe4"/>
    <path d="M195.69,40.64l.06,8.8h-1.02v-10.97h.99l3.81,8.8-.06-8.8h1.02v10.97h-.98l-3.83-8.8Z" fill="#ffefe4"/>
    <path d="M209.16,38.7l-.24.95c-.65-.24-1.48-.37-2.08-.37-1.45,0-2.14.69-2.14,1.63,0,2.41,4.83,2.75,4.83,5.81v.18c0,1.48-1.35,2.7-3.25,2.7-1.02,0-1.82-.13-2.84-.55l.21-.98c.72.33,1.8.55,2.63.55,1.27,0,2.14-.77,2.14-1.8,0-2.41-4.83-2.85-4.83-5.78v-.16c0-1.52,1.15-2.57,3.25-2.57.67,0,1.64.15,2.32.4Z" fill="#ffefe4"/>
    <path d="M212.3,46.37v-4.85c0-2.16,1.05-3.22,3.05-3.22s3.05,1.06,3.05,3.22v4.85c0,2.16-1.05,3.22-3.05,3.22s-3.05-1.06-3.05-3.22ZM213.41,41.69v4.52c0,1.71.59,2.41,1.94,2.41s1.94-.69,1.94-2.41v-4.52c0-1.71-.59-2.41-1.94-2.41s-1.94.69-1.94,2.41Z" fill="#ffefe4"/>
    <path d="M222.28,49.43h-1.11v-10.97h2.99c2.02,0,3.1.93,3.1,2.63v1.2c0,1.36-.69,2.22-2.03,2.51l2.31,4.63h-1.2l-2.23-4.52h-1.83v4.52ZM222.28,43.96h1.83c1.46,0,2.07-.61,2.07-1.95v-.64c0-1.36-.61-1.97-2.07-1.97h-1.83v4.55Z" fill="#ffefe4"/>
  </g>
  <line x1="263.43" y1="44.12" x2="233.84" y2="44.12" fill="none" stroke="#ffefe4" stroke-linecap="round" stroke-width=".79"/>
  <polyline points="463.16 282.09 463.11 356.74 433.58 356.87" fill="none" stroke="#ffefe4" stroke-linecap="round" stroke-width=".79"/>
  <polyline points="778.9 182.05 835.45 182.05 835.45 220.63" fill="none" stroke="#ffefe4" stroke-linecap="round" stroke-width=".79"/>
  <polyline points="602.77 380.43 602.77 460.33 657.68 460.33" fill="none" stroke="#ffefe4" stroke-linecap="round" stroke-width=".79"/>
  <path d="M437.96,106.02s19.03-31.98,48.57-12.14" fill="none" stroke="#ffefe4" stroke-linecap="round" stroke-width=".79"/>
  <path d="M462.25,87.89s12.55-27.61,35.62-6.16c0,0,9.71-.81,14.17,8.1,0,0,20.24-13.36,32.79,25.91" fill="none" stroke="#ffefe4" stroke-linecap="round" stroke-width=".79"/>
  <path d="M449.29,115.74s16.19-16.19,25.91-3.24c0,0,25.5-15.38,28.34,5.67" fill="none" stroke="#ffefe4" stroke-linecap="round" stroke-width=".79"/>
  <path d="M503.54,112.62s4.68-5.38,17.32-3.77" fill="none" stroke="#ffefe4" stroke-linecap="round" stroke-width=".79"/>
  <path d="M476.42,73.57s13.58-18.55,44.44-6.41" fill="none" stroke="#ffefe4" stroke-linecap="round" stroke-width=".79"/>
  <path d="M494.09,63.68s28.87-31.33,68.13-10.68" fill="none" stroke="#ffefe4" stroke-linecap="round" stroke-width=".79"/>
  <path d="M530.18,46.21s24.36-16.69,44.2-5.76" fill="none" stroke="#ffefe4" stroke-linecap="round" stroke-width=".79"/>
  <path d="M565.06,44.09s19.83-9.71,36.84,4.05" fill="none" stroke="#ffefe4" stroke-linecap="round" stroke-width=".79"/>
  <path d="M583.48,48.14s46.35-6.07,38.25,22.26" fill="none" stroke="#ffefe4" stroke-linecap="round" stroke-width=".79"/>
  <path d="M620.31,56.37s24.89,1.35,27.73,17.2" fill="none" stroke="#ffefe4" stroke-linecap="round" stroke-width=".79"/>
  <path d="M622.66,64.97s29.43-6.71,32.26,25.67c0,0,32.38,1.62,36.84,27.53,4.45,25.91-4.45,28.33-4.45,28.33,0,0,10.2,32.56-1.71,47.96" fill="none" stroke="#ffefe4" stroke-linecap="round" stroke-width=".79"/>
  <path d="M648.04,73.57s18.62.81,24.29,21.08" fill="none" stroke="#ffefe4" stroke-linecap="round" stroke-width=".79"/>
  <path d="M691.76,118.17s21.86,21.86,14.57,48.98" fill="none" stroke="#ffefe4" stroke-linecap="round" stroke-width=".79"/>
  <path d="M707.82,159.45s11.06,20.24,3.78,36.43l-7.29,16.19s11.2,28.34-4.52,43.72" fill="none" stroke="#ffefe4" stroke-linecap="round" stroke-width=".79"/>
  <path d="M711.59,195.88s7.43,11.33-3.78,34.41" fill="none" stroke="#ffefe4" stroke-linecap="round" stroke-width=".79"/>
  <path d="M697.02,236.77s7.69,34.41-12.55,38.45" fill="none" stroke="#ffefe4" stroke-linecap="round" stroke-width=".79"/>
  <path d="M679.21,255.79s18.22,18.22-6.88,27.53c-25.1,9.31-31.57,7.29-31.57,7.29,0,0-2.83,11.33-20.24,12.55,0,0-7.69,9.31-23.88,8.5,0,0-9.71,11.33-19.83,10.93,0,0-6.47,11.74-17.4,11.74,0,0-27.21,15.79-47.2-5.26" fill="none" stroke="#ffefe4" stroke-linecap="round" stroke-width=".79"/>
  <path d="M523.02,336.93s-32.43,12.77-48.22-30.95c0,0-6.48,3.64-19.02-.4,0,0-44.93,21.45-62.74-2.83,0,0-19.43-1.22-22.26-24.29,0,0-17.41-12.14,0-26.71,0,0-13.36-14.17-.81-30.76,0,0-.4-20.24,7.69-25.5,0,0-.4-20.24,11.74-27.52,0,0,.4-13.36,14.98-15.79,0,0-1.21-19.43,17-27.52,0,0,1.21-18.62,24.69-18.62" fill="none" stroke="#ffefe4" stroke-linecap="round" stroke-width=".79"/>
  <path d="M382.84,299.18s-14.91,11.99-42.04-4.75c0,0-17.08-3.01-13.4-16.41" fill="none" stroke="#ffefe4" stroke-linecap="round" stroke-width=".79"/>
  <path d="M326.89,283.04s-14.88,3.01-21.25-18.75" fill="none" stroke="#ffefe4" stroke-linecap="round" stroke-width=".79"/>
  <path d="M322.72,269.31s-28.8,3.68-26.46-39.02c0,0-6.7-12.89,4.02-25.28,0,0-7.37-19.09,9.71-31.81,0,0-1.67-27.8,19.76-32.48" fill="none" stroke="#ffefe4" stroke-linecap="round" stroke-width=".79"/>
  <path d="M300.28,205.01s-1.34,14.07,5.36,15.74c0,0-7.7,35.16,17.41,29.81,25.12-5.36,3.68,23.58,27.13,23.18,23.44-.41,14.77-1.77,14.77-1.77" fill="none" stroke="#ffefe4" stroke-linecap="round" stroke-width=".79"/>
  <path d="M342.14,235.15s-28.8-3.35-19.09-36.5" fill="none" stroke="#ffefe4" stroke-linecap="round" stroke-width=".79"/>
  <path d="M321.59,205.05s-18.29-5.73-1.88-25.16" fill="none" stroke="#ffefe4" stroke-linecap="round" stroke-width=".79"/>
  <path d="M316.27,184.52s-4.93-2.62-6.27-11.33" fill="none" stroke="#ffefe4" stroke-linecap="round" stroke-width=".79"/>
  <path d="M321.59,144.21s-1.72-12.55,11.76-18.91c0,0-3.26-11,16.16-18.23" fill="none" stroke="#ffefe4" stroke-linecap="round" stroke-width=".79"/>
  <path d="M342.14,110.58s3.01-10.65,14.07-13.87" fill="none" stroke="#ffefe4" stroke-linecap="round" stroke-width=".79"/>
  <path d="M363.03,87.39s16.29-7.97,26.67-9.64" fill="none" stroke="#ffefe4" stroke-linecap="round" stroke-width=".79"/>
  <path d="M376.37,81.66s-6.42-7.4,18.69-13.36c0,0,21.07-26.01,54.24-23.86,0,0,2.02-10.21,30.82-7.71,0,0,14.4-8.55,27.46-2.19,0,0,11.55-6.02,33.1,6.21" fill="none" stroke="#ffefe4" stroke-linecap="round" stroke-width=".79"/>
  <path d="M450.65,50.62s36.94-9.79,37.23,14.86" fill="none" stroke="#ffefe4" stroke-linecap="round" stroke-width=".79"/>
  <path d="M374.29,96.71s4.02-21.11,24.11-9.32c0,0,9.71-5.22,22.77-3.58,13.06,1.64,10.87-13.56,21.85-15.51" fill="none" stroke="#ffefe4" stroke-linecap="round" stroke-width=".79"/>
  <path d="M394.7,85.5s1.7-19.89,20.78-20.02c19.09-.13,19.91-8.95,27.54-8.39,7.63.56,15.66,2.79,20.35,0" fill="none" stroke="#ffefe4" stroke-linecap="round" stroke-width=".79"/>
  <path d="M361.23,103.64s-11.39,1.69-11.72,14.52c0,0-8.37,8.81,0,22.54,8.37,13.73-16.95,9.38-14,29.14" fill="none" stroke="#ffefe4" stroke-linecap="round" stroke-width=".79"/>
  <path d="M350.21,148.61s12.36-10.39,20.73-2.11l8.37,8.27" fill="none" stroke="#ffefe4" stroke-linecap="round" stroke-width=".79"/>
  <path d="M370.28,154.77s18.42-4.69,19.42,8.04" fill="none" stroke="#ffefe4" stroke-linecap="round" stroke-width=".79"/>
  <path d="M352.19,165.16s9.04-4.35,9.04,14.73" fill="none" stroke="#ffefe4" stroke-linecap="round" stroke-width=".79"/>
  <path d="M339.47,182.91s11.39,6.03,10.05,15.74c-1.34,9.71-10.05,2.76-7.37,14.44" fill="none" stroke="#ffefe4" stroke-linecap="round" stroke-width=".79"/>
  <path d="M349.51,198.65s17.82-5.74,21.13,12.37" fill="none" stroke="#ffefe4" stroke-linecap="round" stroke-width=".79"/>
  <path d="M321.59,162.81s5.29-4.33,13.93,1.18" fill="none" stroke="#ffefe4" stroke-linecap="round" stroke-width=".79"/>
  <path d="M363.03,125.64s15.95-15.07,23.65,0c0,0,4.69-13.72,12.39-15.07" fill="none" stroke="#ffefe4" stroke-linecap="round" stroke-width=".79"/>
  <path d="M366.52,108.55s4.49,1.9,4.12,12" fill="none" stroke="#ffefe4" stroke-linecap="round" stroke-width=".79"/>
  <path d="M389.7,103.64s.33-11.49,9.38-13.17" fill="none" stroke="#ffefe4" stroke-linecap="round" stroke-width=".79"/>
  <path d="M406.11,101.53s17.98-1.39,18.53,14.21" fill="none" stroke="#ffefe4" stroke-linecap="round" stroke-width=".79"/>
  <path d="M429.04,87.39s14.06,1.68,13.98,12.1" fill="none" stroke="#ffefe4" stroke-linecap="round" stroke-width=".79"/>
  <path d="M453.66,70.4s13.46,1.78,12.59,11.26" fill="none" stroke="#ffefe4" stroke-linecap="round" stroke-width=".79"/>
  <path d="M342.14,243.86s9.58,18.42,24.38,3.01" fill="none" stroke="#ffefe4" stroke-linecap="round" stroke-width=".79"/>
  <path d="M370.77,278.46s12.9,8.93,24.96,2.9c12.06-6.03-2.6,16.41,12.93,18.75,15.53,2.34,18.88,3.22,18.88,3.22" fill="none" stroke="#ffefe4" stroke-linecap="round" stroke-width=".79"/>
  <path d="M427.54,296.43s4.76,1.34,10.42-2.01c5.65-3.35,8.16,9.29,17.81,11.16" fill="none" stroke="#ffefe4" stroke-linecap="round" stroke-width=".79"/>
  <path d="M474.8,305.98s33.45-.93,36.13-8.09c2.68-7.15,12.09-22.68,12.09-22.68,0,0,12.03-4.57,12.36-17.63" fill="none" stroke="#ffefe4" stroke-linecap="round" stroke-width=".79"/>
  <path d="M530.92,269.39s14.51,10.64,30.91-25.53" fill="none" stroke="#ffefe4" stroke-linecap="round" stroke-width=".79"/>
  <path d="M540.68,167.14s-7.98,9.4-3.29,15.76c4.69,6.36,15.41,17.37,15.07,28.11-.33,10.74-7.63,22.12-7.63,22.12,0,0,13.66,27.64,45.48-10.79,0,0-8.04-33.13-25.79-24.56-17.75,8.57-13.4,6.62-13.4,6.62" fill="none" stroke="#ffefe4" stroke-linecap="round" stroke-width=".79"/>
  <path d="M590.3,222.35s61.28-.93,47.89-41.78" fill="none" stroke="#ffefe4" stroke-linecap="round" stroke-width=".79"/>
  <path d="M640.1,188.26s11.92-11.05,17.73-12.73c5.81-1.67,27.58-28.3,7.82-54.59,0,0,6.35-23.28-10.73-30.31" fill="none" stroke="#ffefe4" stroke-linecap="round" stroke-width=".79"/>
  <path d="M496.53,318.7s19.09,14.07,29.14-5.69c0,0,23.11,5.02,28.8-24.78,0,0,29.47-9.04,30.14-22.44,0,0,14.4,2.51,19.76-9.8,0,0,29.14-1.59,39.85-17.66,0,0,51.7-17.75,15.97-34.49" fill="none" stroke="#ffefe4" stroke-linecap="round" stroke-width=".79"/>
  <path d="M669.02,224.31s33.8,9,33.46-33.53" fill="none" stroke="#ffefe4" stroke-linecap="round" stroke-width=".79"/>
  <path d="M544.82,323.56s27.06-6.79,27.73-20.22c0,0,19.42,1.86,20.76-9.47,0,0,21.34-3.96,21.89-14,0,0,23.47,5.69,24.9-3.35,0,0,27.56-1.47,30.57-19.16,0,0,19.81-2.13,20.79-14.59,0,0,12.36-8.65,10.02-20.41" fill="none" stroke="#ffefe4" stroke-linecap="round" stroke-width=".79"/>
  <path d="M528.16,89.83s2.67-16.97,25.69-13.79" fill="none" stroke="#ffefe4" stroke-linecap="round" stroke-width=".79"/>
  <path d="M559.52,85.5s5.55,23.83,25.13,27.12" fill="none" stroke="#ffefe4" stroke-linecap="round" stroke-width=".79"/>
  <path d="M557.85,175.96s1.16-9.01,5.25-24.69c4.09-15.68,17.44-12.29,23.77-11.82" fill="none" stroke="#ffefe4" stroke-linecap="round" stroke-width=".79"/>
  <path d="M532.83,129.43s7.5-21.34,30.27-11.26" fill="none" stroke="#ffefe4" stroke-linecap="round" stroke-width=".79"/>
  <path d="M577.67,199.13s14.21-9.16,9.21-26.51" fill="none" stroke="#ffefe4" stroke-linecap="round" stroke-width=".79"/>
  <path d="M604.56,199.13s16.01-5.48,2.34-44.35c0,0,7.36-22.11-6.69-27.81-2.06-.84-4.58-1.32-7.65-1.32" fill="none" stroke="#ffefe4" stroke-linecap="round" stroke-width=".79"/>
  <path d="M600.2,126.97s3.36-27.83-21-41.47c0,0-2.67-24.43-24.02-20.53,0,0-5.62-17.91-40.84,0" fill="none" stroke="#ffefe4" stroke-linecap="round" stroke-width=".79"/>
  <path d="M572.09,70.4s5.12-9.85,23.8-7.36c0,0,25.21-4.67,38.29,27.6,0,0-2.7,8.41,13.86,8.85" fill="none" stroke="#ffefe4" stroke-linecap="round" stroke-width=".79"/>
  <path d="M557.35,45.96s24.19-9.09,38.54,17.09" fill="none" stroke="#ffefe4" stroke-linecap="round" stroke-width=".79"/>
  <path d="M603.08,81.66s24.62,13.93,20.22,28.92" fill="none" stroke="#ffefe4" stroke-linecap="round" stroke-width=".79"/>
  <path d="M617.57,115.46s25.35-16.9,35.03,21.8" fill="none" stroke="#ffefe4" stroke-linecap="round" stroke-width=".79"/>
  <path d="M629.25,118.17s11.34,19.3,9.01,30.87c0,0,9.9.42,9.79,9.33" fill="none" stroke="#ffefe4" stroke-linecap="round" stroke-width=".79"/>
  <path d="M552.85,338.67s8.55,12.09,31.8,6.76" fill="none" stroke="#ffefe4" stroke-linecap="round" stroke-width=".79"/>
  <path d="M572.53,336.42s12.68,19.96,49.37,6.31" fill="none" stroke="#ffefe4" stroke-linecap="round" stroke-width=".79"/>
  <path d="M593.88,332.08s25.35,21.02,54.71,4.34" fill="none" stroke="#ffefe4" stroke-linecap="round" stroke-width=".79"/>
  <path d="M607.23,330.08s37.85,23.35,61.79-9.01c0,0,22.3-5.97,15.45-45.85" fill="none" stroke="#ffefe4" stroke-linecap="round" stroke-width=".79"/>
  <polyline points="572.53 347.5 572.53 351.08 644.45 382.87 658.73 376.08" fill="none" stroke="#ffefe4" stroke-linecap="round" stroke-width=".79"/>
  <polyline points="644.45 382.87 644.45 349.29 679.45 332.08 679.45 341.96" fill="none" stroke="#ffefe4" stroke-linecap="round" stroke-width=".79"/>
  <line x1="679.45" y1="332.08" x2="665.7" y2="325.12" fill="none" stroke="#ffefe4" stroke-linecap="round" stroke-width=".79"/>
  <line x1="644.45" y1="349.29" x2="625.52" y2="342.85" fill="none" stroke="#ffefe4" stroke-linecap="round" stroke-width=".79"/>
  <path d="M666.55,379.28l-13.27-7.16s-3.94-15.59,8.67-19.81l16.4,6.95s-19.81-3.58-11.8,20.02Z" fill="none" stroke="#ffefe4" stroke-linecap="round" stroke-width=".79"/>
  <path d="M679.14,359.56c-3.88-13.15,12.91-12.06,12.91-12.06l-17.07-7.5c-15.8,2.65-13.03,12.31-13.03,12.31" fill="none" stroke="#ffefe4" stroke-linecap="round" stroke-width=".79"/>
  <line x1="673.91" y1="375.52" x2="776.96" y2="433.62" fill="none" stroke="#ffefe4" stroke-dasharray="1.95 1.95" stroke-linecap="round" stroke-linejoin="round" stroke-width=".73"/>
  <line x1="674.22" y1="374.99" x2="778.67" y2="432.24" fill="none" stroke="#ffefe4" stroke-dasharray="1.86 1.86" stroke-linecap="round" stroke-linejoin="round" stroke-width=".69"/>
  <line x1="674.54" y1="374.47" x2="780.38" y2="430.86" fill="none" stroke="#ffefe4" stroke-dasharray="1.77 1.77" stroke-linecap="round" stroke-linejoin="round" stroke-width=".64"/>
  <line x1="674.86" y1="373.95" x2="782.1" y2="429.48" fill="none" stroke="#ffefe4" stroke-dasharray="1.69 1.69" stroke-linecap="round" stroke-linejoin="round" stroke-width=".6"/>
  <line x1="675.17" y1="373.42" x2="783.81" y2="428.1" fill="none" stroke="#ffefe4" stroke-dasharray="1.6 1.6" stroke-linecap="round" stroke-linejoin="round" stroke-width=".55"/>
  <line x1="675.49" y1="372.89" x2="785.53" y2="426.72" fill="none" stroke="#ffefe4" stroke-dasharray="1.51 1.51" stroke-linecap="round" stroke-linejoin="round" stroke-width=".51"/>
  <line x1="675.8" y1="372.37" x2="787.24" y2="425.34" fill="none" stroke="#ffefe4" stroke-dasharray="1.42 1.42" stroke-linecap="round" stroke-linejoin="round" stroke-width=".47"/>
  <line x1="676.12" y1="371.84" x2="788.96" y2="423.96" fill="none" stroke="#ffefe4" stroke-dasharray="1.33 1.33" stroke-linecap="round" stroke-linejoin="round" stroke-width=".42"/>
  <line x1="676.43" y1="371.32" x2="790.67" y2="422.58" fill="none" stroke="#ffefe4" stroke-dasharray="1.24 1.24" stroke-linecap="round" stroke-linejoin="round" stroke-width=".38"/>
  <line x1="676.75" y1="370.79" x2="792.38" y2="421.2" fill="none" stroke="#ffefe4" stroke-dasharray="1.15 1.15" stroke-linecap="round" stroke-linejoin="round" stroke-width=".33"/>
  <line x1="677.07" y1="370.27" x2="794.1" y2="419.82" fill="none" stroke="#ffefe4" stroke-dasharray="1.06 1.06" stroke-linecap="round" stroke-linejoin="round" stroke-width=".29"/>
  <line x1="677.38" y1="369.74" x2="795.81" y2="418.44" fill="none" stroke="#ffefe4" stroke-dasharray=".98 .98" stroke-linecap="round" stroke-linejoin="round" stroke-width=".24"/>
  <line x1="686.41" y1="362.2" x2="789.45" y2="420.3" fill="none" stroke="#ffefe4" stroke-dasharray="1.95 1.95" stroke-linecap="round" stroke-linejoin="round" stroke-width=".73"/>
  <line x1="686.72" y1="361.67" x2="791.17" y2="418.92" fill="none" stroke="#ffefe4" stroke-dasharray="1.86 1.86" stroke-linecap="round" stroke-linejoin="round" stroke-width=".69"/>
  <line x1="687.04" y1="361.15" x2="792.88" y2="417.54" fill="none" stroke="#ffefe4" stroke-dasharray="1.77 1.77" stroke-linecap="round" stroke-linejoin="round" stroke-width=".64"/>
  <line x1="687.35" y1="360.62" x2="794.59" y2="416.16" fill="none" stroke="#ffefe4" stroke-dasharray="1.69 1.69" stroke-linecap="round" stroke-linejoin="round" stroke-width=".6"/>
  <line x1="687.67" y1="360.1" x2="796.31" y2="414.78" fill="none" stroke="#ffefe4" stroke-dasharray="1.6 1.6" stroke-linecap="round" stroke-linejoin="round" stroke-width=".55"/>
  <line x1="687.98" y1="359.57" x2="798.02" y2="413.4" fill="none" stroke="#ffefe4" stroke-dasharray="1.51 1.51" stroke-linecap="round" stroke-linejoin="round" stroke-width=".51"/>
  <line x1="688.3" y1="359.05" x2="799.74" y2="412.02" fill="none" stroke="#ffefe4" stroke-dasharray="1.42 1.42" stroke-linecap="round" stroke-linejoin="round" stroke-width=".47"/>
  <line x1="688.62" y1="358.52" x2="801.45" y2="410.64" fill="none" stroke="#ffefe4" stroke-dasharray="1.33 1.33" stroke-linecap="round" stroke-linejoin="round" stroke-width=".42"/>
  <line x1="688.93" y1="358" x2="803.17" y2="409.26" fill="none" stroke="#ffefe4" stroke-dasharray="1.24 1.24" stroke-linecap="round" stroke-linejoin="round" stroke-width=".38"/>
  <line x1="689.25" y1="357.47" x2="804.88" y2="407.88" fill="none" stroke="#ffefe4" stroke-dasharray="1.15 1.15" stroke-linecap="round" stroke-linejoin="round" stroke-width=".33"/>
  <line x1="689.56" y1="356.95" x2="806.6" y2="406.5" fill="none" stroke="#ffefe4" stroke-dasharray="1.06 1.06" stroke-linecap="round" stroke-linejoin="round" stroke-width=".29"/>
  <line x1="689.88" y1="356.42" x2="808.31" y2="405.12" fill="none" stroke="#ffefe4" stroke-dasharray=".98 .98" stroke-linecap="round" stroke-linejoin="round" stroke-width=".24"/>
  <path d="M666.55,379.28s5.05,3.93,12.9,0" fill="none" stroke="#ffefe4" stroke-linecap="round" stroke-width=".79"/>
  <path d="M685.25,372.98s5.19-10.28-6.9-13.72" fill="none" stroke="#ffefe4" stroke-linecap="round" stroke-width=".79"/>
  <path d="M692.05,347.5s6.94,4.05,2.99,11.04" fill="none" stroke="#ffefe4" stroke-linecap="round" stroke-width=".79"/>
  <path d="M691.08,365.53s-1.2,1.05-4.72,1.3" fill="none" stroke="#ffefe4" stroke-linecap="round" stroke-width=".79"/>
  <polyline points="708.67 157.37 719.06 162.39 726.81 172.62 726.81 224.25 717.74 240.31 708.67 240.31" fill="none" stroke="#ffefe4" stroke-linecap="round" stroke-width=".79"/>
  <line x1="710.91" y1="158.37" x2="751.56" y2="143.95" fill="none" stroke="#ffefe4" stroke-linecap="round" stroke-width=".79"/>
  <polyline points="704.82 139.45 719.82 133.94 761.95 146.03 770.46 157.37 770.46 205.36 761.76 219.34 717.74 240.32" fill="none" stroke="#ffefe4" stroke-linecap="round" stroke-width=".79"/>
  <line x1="726.81" y1="224.25" x2="770.46" y2="205.36" fill="none" stroke="#ffefe4" stroke-linecap="round" stroke-width=".79"/>
  <line x1="726.81" y1="172.62" x2="770.46" y2="157.37" fill="none" stroke="#ffefe4" stroke-linecap="round" stroke-width=".79"/>
  <line x1="715.52" y1="160.68" x2="757.56" y2="144.77" fill="none" stroke="#ffefe4" stroke-linecap="round" stroke-width=".79"/>
  <line x1="719.06" y1="162.39" x2="761.95" y2="146.03" fill="none" stroke="#ffefe4" stroke-linecap="round" stroke-width=".79"/>
  <polyline points="709.8 163.75 722.27 172.62 722.27 221.61 715.52 232.94 708.67 232.94" fill="none" stroke="#ffefe4" stroke-linecap="round" stroke-width=".79"/>
  <polyline points="732.22 157.37 740.51 167.83 741.36 215.94 730.55 234.21" fill="none" stroke="#ffefe4" stroke-linecap="round" stroke-width=".79"/>
  <polyline points="748.49 151.16 757.56 161.87 759.48 210.11 751.45 224.25" fill="none" stroke="#ffefe4" stroke-linecap="round" stroke-width=".79"/>
  <line x1="706.93" y1="143.95" x2="729.07" y2="137.26" fill="none" stroke="#ffefe4" stroke-linecap="round" stroke-width=".79"/>
  <path d="M331.28,36.74l2.55,27.66,41.49,33.5s-3.71,7.2-10.55,5.74l-37.07-30.07-26.56,13.82" fill="none" stroke="#ffefe4" stroke-linecap="round" stroke-width=".79"/>
  <path d="M361.35,101.5s-2.14,9.67,9.98,6.39c12.12-3.28,9.9-14.59.96-12.43" fill="none" stroke="#ffefe4" stroke-linecap="round" stroke-width=".79"/>
  <path d="M280.78,40.05c-10.57,20.11-9.44,41.51,2.51,47.78,11.95,6.28,30.2-4.94,40.77-25.05,10.56-20.11,9.44-41.51-2.51-47.78-11.95-6.28-30.2,4.94-40.77,25.05Z" fill="none" stroke="#ffefe4" stroke-linecap="round" stroke-width=".79"/>
  <path d="M280.76,40.09c-9.56,18.2-8.72,37.47,1.87,43.04,10.59,5.57,26.93-4.68,36.5-22.88,9.56-18.2,8.72-37.47-1.87-43.04-10.59-5.57-26.93,4.68-36.5,22.88Z" fill="none" stroke="#ffefe4" stroke-linecap="round" stroke-width=".79"/>
  <path d="M280.76,40.09c-8.93,17.01-8.15,35.01,1.75,40.21,9.9,5.2,25.17-4.37,34.1-21.38,8.93-17.01,8.15-35.01-1.75-40.21-9.9-5.2-25.17,4.37-34.1,21.38Z" fill="none" stroke="#ffefe4" stroke-linecap="round" stroke-width=".79"/>
  <path d="M280.76,40.09c-8.3,15.81-7.58,32.54,1.63,37.38,9.2,4.83,23.39-4.06,31.7-19.87,8.3-15.81,7.58-32.54-1.62-37.38-9.2-4.83-23.4,4.06-31.7,19.87Z" fill="none" stroke="#ffefe4" stroke-linecap="round" stroke-width=".79"/>
  <path d="M280.76,40.09c-7.68,14.61-7,30.08,1.5,34.55,8.51,4.47,21.62-3.75,29.3-18.37,7.68-14.61,7.01-30.08-1.5-34.55-8.51-4.47-21.62,3.75-29.3,18.37Z" fill="none" stroke="#ffefe4" stroke-linecap="round" stroke-width=".79"/>
  <path d="M280.76,40.09c-7.05,13.42-6.43,27.62,1.38,31.72,7.81,4.1,19.85-3.45,26.9-16.87,7.05-13.42,6.43-27.62-1.38-31.72-7.81-4.1-19.85,3.45-26.9,16.87Z" fill="none" stroke="#ffefe4" stroke-linecap="round" stroke-width=".79"/>
  <path d="M280.76,40.09c-6.42,12.22-5.86,25.15,1.25,28.89,7.11,3.74,18.08-3.14,24.5-15.36,6.42-12.22,5.86-25.15-1.26-28.89-7.11-3.74-18.08,3.14-24.5,15.36Z" fill="none" stroke="#ffefe4" stroke-linecap="round" stroke-width=".79"/>
  <path d="M280.76,40.09c-5.79,11.02-5.28,22.69,1.13,26.06,6.42,3.37,16.31-2.83,22.1-13.86,5.79-11.02,5.28-22.69-1.13-26.06-6.42-3.37-16.31,2.83-22.1,13.86Z" fill="none" stroke="#ffefe4" stroke-linecap="round" stroke-width=".79"/>
  <path d="M280.76,40.09c-5.16,9.83-4.71,20.23,1.01,23.23,5.72,3.01,14.54-2.53,19.71-12.35,5.16-9.83,4.71-20.23-1.01-23.23-5.72-3-14.54,2.53-19.7,12.35Z" fill="none" stroke="#ffefe4" stroke-linecap="round" stroke-width=".79"/>
  <path d="M280.76,40.09c-4.53,8.63-4.14,17.77.89,20.41,5.02,2.64,12.77-2.22,17.31-10.85,4.53-8.63,4.14-17.77-.89-20.41-5.02-2.64-12.77,2.22-17.31,10.85Z" fill="none" stroke="#ffefe4" stroke-linecap="round" stroke-width=".79"/>
  <path d="M280.76,40.09c-3.9,7.43-3.56,15.3.76,17.58,4.33,2.27,11-1.91,14.91-9.34,3.91-7.44,3.56-15.3-.77-17.58-4.33-2.27-11,1.91-14.9,9.34Z" fill="none" stroke="#ffefe4" stroke-linecap="round" stroke-width=".79"/>
  <path d="M280.76,40.09c-3.28,6.24-2.99,12.84.64,14.75,3.63,1.91,9.23-1.6,12.51-7.84,3.28-6.24,2.99-12.84-.64-14.75-3.63-1.91-9.23,1.6-12.51,7.84Z" fill="none" stroke="#ffefe4" stroke-linecap="round" stroke-width=".79"/>
  <path d="M280.76,40.09c-2.65,5.04-2.42,10.38.52,11.92,2.93,1.54,7.46-1.3,10.11-6.34,2.65-5.04,2.42-10.38-.52-11.92-2.93-1.54-7.46,1.3-10.11,6.34Z" fill="none" stroke="#ffefe4" stroke-linecap="round" stroke-width=".79"/>
  <circle cx="462.25" cy="213.09" r="62.82" fill="none" stroke="#ffefe4" stroke-linecap="round" stroke-width=".79"/>
  <circle cx="462.25" cy="213.09" r="56.76" fill="none" stroke="#ffefe4" stroke-linecap="round" stroke-width=".79"/>
  <path d="M501.41,213.09c0,21.63-17.54,39.17-39.17,39.17s-39.17-17.53-39.17-39.17,17.53-39.17,39.17-39.17,39.17,17.53,39.17,39.17Z" fill="none" stroke="#ffefe4" stroke-linecap="round" stroke-width=".79"/>
  <line x1="462.25" y1="156.33" x2="462.25" y2="173.92" fill="none" stroke="#ffefe4" stroke-linecap="round" stroke-width=".79"/>
  <line x1="462.25" y1="252.25" x2="462.25" y2="269.84" fill="none" stroke="#ffefe4" stroke-linecap="round" stroke-width=".79"/>
  <line x1="422.11" y1="172.95" x2="434.55" y2="185.39" fill="none" stroke="#ffefe4" stroke-linecap="round" stroke-width=".79"/>
  <line x1="489.94" y1="240.78" x2="502.38" y2="253.22" fill="none" stroke="#ffefe4" stroke-linecap="round" stroke-width=".79"/>
  <line x1="405.49" y1="213.09" x2="423.08" y2="213.09" fill="none" stroke="#ffefe4" stroke-linecap="round" stroke-width=".79"/>
  <line x1="501.41" y1="213.09" x2="519.01" y2="213.09" fill="none" stroke="#ffefe4" stroke-linecap="round" stroke-width=".79"/>
  <line x1="422.11" y1="253.22" x2="434.55" y2="240.78" fill="none" stroke="#ffefe4" stroke-linecap="round" stroke-width=".79"/>
  <line x1="489.94" y1="185.39" x2="502.38" y2="172.95" fill="none" stroke="#ffefe4" stroke-linecap="round" stroke-width=".79"/>
  <path d="M424.69,222.32s34.02,26.63,75.4.38" fill="none" stroke="#ffefe4" stroke-linecap="round" stroke-width=".79"/>
  <path d="M423.91,218.5s34.51,28.59,77.19-.45" fill="none" stroke="#ffefe4" stroke-linecap="round" stroke-width=".79"/>
  <path d="M427.23,197.4s29.62,26.18,71-.06" fill="none" stroke="#ffefe4" stroke-linecap="round" stroke-width=".79"/>
  <path d="M428.98,194.14s26.45,26.25,67.83,0" fill="none" stroke="#ffefe4" stroke-linecap="round" stroke-width=".79"/>
  <path d="M475.2,112.5s22.83,16.12,3.9,40.06" fill="none" stroke="#ffefe4" stroke-linecap="round" stroke-width=".79"/>
  <path d="M508.81,170.92s9.11-13.15,20.61,8.25" fill="none" stroke="#ffefe4" stroke-linecap="round" stroke-width=".79"/>
  <path d="M477.73,273.98s17.24,17.5,34.47,1.24c0,0,31.07-11.59,24.89-32.46" fill="none" stroke="#ffefe4" stroke-linecap="round" stroke-width=".79"/>
  <path d="M512.19,275.22s-9.56,2.85-13.96-1.49" fill="none" stroke="#ffefe4" stroke-linecap="round" stroke-width=".79"/>
  <path d="M402.6,232.84s-20.62,22.13,5.16,43.3c0,0,.43,23.73,23.01,13.07" fill="none" stroke="#ffefe4" stroke-linecap="round" stroke-width=".79"/>
  <path d="M394.79,253.22s-11.95,1.52-11.95-22.15" fill="none" stroke="#ffefe4" stroke-linecap="round" stroke-width=".79"/>
  <path d="M377.65,195.48s-.61,13.16,11.17,21.42" fill="none" stroke="#ffefe4" stroke-linecap="round" stroke-width=".79"/>
  <path d="M404.36,152.17s15.29-2.08,22.87,2.61" fill="none" stroke="#ffefe4" stroke-linecap="round" stroke-width=".79"/>
  <path d="M434.55,134.32s15.92-8.36,27.7,2.42" fill="none" stroke="#ffefe4" stroke-linecap="round" stroke-width=".79"/>
</svg>